<?xml version="1.0" standalone="no"?>
   <!DOCTYPE svg PUBLIC "-//W3C//DTD SVG 1.1//EN" 
   "http://www.w3.org/Graphics/SVG/1.1/DTD/svg11.dtd"><svg id="svg" version="1.1" width="1269" height="1596" xmlns="http://www.w3.org/2000/svg"><path d="M849.229 159.779 C 843.580 175.025,828.952 209.775,816.724 237.000 C 804.495 264.225,787.990 306.750,780.046 331.500 C 744.804 441.294,731.468 476.118,702.782 533.250 C 686.834 565.013,672.590 591.000,671.127 591.000 C 669.664 591.000,669.056 583.238,669.775 573.750 C 671.280 553.892,687.060 463.596,695.595 426.000 C 704.526 386.659,726.975 307.710,729.795 305.725 C 731.182 304.749,731.988 302.724,731.587 301.225 C 731.185 299.726,731.936 293.933,733.255 288.351 C 735.069 280.671,736.351 279.211,738.523 282.351 C 740.566 285.305,740.846 284.555,739.494 279.750 C 738.430 275.967,738.921 273.000,740.611 273.000 C 742.270 273.000,743.521 270.638,743.391 267.750 C 743.260 264.863,747.531 248.325,752.880 231.000 C 766.381 187.274,774.183 152.439,770.176 153.775 C 768.393 154.369,761.308 176.375,754.432 202.678 C 747.556 228.980,736.851 264.000,730.643 280.500 C 720.732 306.842,707.519 352.502,691.143 417.000 C 688.420 427.725,685.147 437.178,683.871 438.007 C 682.594 438.836,679.295 448.212,676.541 458.842 C 663.959 507.398,656.679 525.600,645.887 535.487 C 636.342 544.231,634.411 544.879,626.639 541.945 C 616.657 538.178,615.270 534.000,624.000 534.000 C 627.300 534.000,630.000 532.650,630.000 531.000 C 630.000 529.350,632.700 528.000,636.000 528.000 C 639.300 528.000,642.000 526.920,642.000 525.600 C 642.000 524.280,637.275 523.200,631.500 523.200 C 625.725 523.200,621.000 524.360,621.000 525.777 C 621.000 527.194,619.650 527.520,618.000 526.500 C 616.350 525.480,615.000 520.768,615.000 516.028 C 615.000 511.288,608.992 468.505,601.648 420.955 C 594.305 373.405,585.434 307.500,581.937 274.500 C 578.439 241.500,573.715 203.025,571.438 189.000 L 567.299 163.500 568.782 189.000 C 569.598 203.025,571.559 225.300,573.139 238.500 C 574.719 251.700,578.754 285.450,582.104 313.500 C 585.454 341.550,590.813 380.700,594.012 400.500 C 602.502 453.044,615.007 547.574,614.954 558.806 C 614.929 564.138,613.916 567.052,612.704 565.281 C 611.492 563.511,608.222 561.223,605.437 560.197 C 598.544 557.658,594.592 542.292,589.440 498.000 C 587.040 477.375,581.849 451.050,577.905 439.500 C 573.960 427.950,568.251 408.375,565.217 396.000 C 562.184 383.625,559.229 375.816,558.651 378.646 C 557.621 383.689,558.897 389.159,574.598 447.000 C 579.213 464.002,582.912 486.998,583.768 504.000 L 585.201 532.500 577.557 513.000 C 573.353 502.275,568.526 482.700,566.831 469.500 C 564.263 449.504,558.422 418.783,547.009 365.250 C 546.041 360.713,544.069 357.000,542.625 357.000 C 538.940 357.000,539.212 359.556,546.224 390.782 C 556.379 436.014,560.992 465.364,560.996 484.789 C 560.998 495.429,562.979 507.046,565.733 512.565 C 568.789 518.691,569.757 525.275,568.467 531.149 C 567.248 536.701,567.885 541.952,570.102 544.623 C 573.117 548.255,572.492 549.000,566.432 549.000 C 558.919 549.000,554.183 543.943,538.782 519.482 C 531.160 507.375,531.021 506.602,536.793 508.434 C 540.207 509.518,543.000 509.108,543.000 507.523 C 543.000 504.181,534.466 500.358,531.331 502.296 C 530.160 503.019,522.981 493.229,515.377 480.540 C 504.963 463.163,501.940 455.437,503.125 449.234 C 504.729 440.845,499.282 437.167,497.470 445.415 C 496.936 447.844,482.132 425.955,464.572 396.773 C 447.012 367.591,431.153 343.218,429.332 342.611 C 425.385 341.295,434.528 357.318,497.459 462.000 C 523.745 505.725,544.540 542.715,543.671 544.199 C 542.802 545.683,539.428 541.633,536.174 535.199 C 526.111 515.301,482.778 443.459,469.403 424.500 C 462.419 414.600,450.352 394.693,442.587 380.263 C 428.344 353.792,419.023 341.949,427.015 360.478 C 431.668 371.266,445.628 395.268,486.444 462.662 C 500.713 486.223,515.278 510.900,518.810 517.500 C 522.342 524.100,528.021 533.917,531.430 539.314 C 536.729 547.706,537.038 549.853,533.564 554.126 C 530.040 558.459,530.172 558.872,534.556 557.230 C 544.010 553.690,542.131 562.458,531.293 572.456 C 520.370 582.532,522.928 582.562,537.436 572.527 C 544.465 567.666,545.578 567.574,547.171 571.725 C 548.317 574.712,545.664 579.195,539.858 584.080 C 528.420 593.705,530.557 596.860,542.672 588.234 C 551.586 581.886,551.725 581.881,554.853 587.724 C 556.726 591.224,556.894 594.330,555.264 595.337 C 553.751 596.272,551.971 595.412,551.309 593.426 C 550.372 590.616,548.151 590.624,541.296 593.463 C 530.735 597.838,519.354 592.946,493.265 572.819 C 484.235 565.852,476.266 560.734,475.556 561.444 C 473.815 563.185,520.416 603.456,530.030 608.519 C 535.509 611.404,536.745 613.455,534.412 615.788 C 530.166 620.034,520.289 615.582,505.869 602.922 C 491.006 589.871,492.163 595.282,507.750 611.715 L 520.500 625.157 508.500 616.527 C 490.334 603.463,479.253 594.008,482.020 593.933 C 483.384 593.897,481.179 591.314,477.119 588.195 C 471.298 583.721,469.896 580.188,470.483 571.474 C 471.335 558.819,465.938 558.195,459.794 570.237 C 457.756 574.232,455.900 576.488,455.669 575.250 C 454.219 567.465,454.670 564.798,458.460 558.750 C 462.252 552.699,462.140 552.000,457.380 552.000 C 452.578 552.000,452.508 551.497,456.650 546.750 C 469.953 531.499,466.382 529.127,452.647 544.091 L 436.500 561.682 429.000 555.441 C 424.875 552.008,423.188 549.155,425.250 549.100 C 427.313 549.045,429.000 547.506,429.000 545.679 C 429.000 543.853,427.128 543.076,424.840 543.955 C 421.863 545.097,421.073 543.694,422.062 539.026 C 423.385 532.784,423.249 532.741,418.922 538.051 C 414.583 543.376,413.869 543.196,401.449 533.661 C 394.327 528.194,380.400 516.084,370.500 506.752 C 360.600 497.419,345.075 485.918,336.000 481.193 C 326.925 476.469,314.775 468.942,309.000 464.467 C 303.225 459.993,294.587 454.864,289.803 453.070 C 281.699 450.031,281.393 450.173,285.303 455.154 C 290.499 461.772,298.760 467.978,310.500 474.081 C 325.258 481.752,403.352 543.034,405.302 548.473 C 406.294 551.238,408.319 553.557,409.802 553.626 C 411.286 553.695,416.956 556.128,422.403 559.032 C 430.377 563.284,431.936 565.596,430.410 570.906 C 429.368 574.533,425.174 580.538,421.090 584.250 C 417.007 587.963,414.463 591.000,415.438 591.000 C 416.413 591.000,415.617 594.038,413.669 597.750 C 410.196 604.369,410.246 604.394,416.256 599.063 C 422.216 593.777,422.992 593.917,444.442 604.143 C 472.499 617.520,507.669 642.875,500.250 644.377 C 497.363 644.962,495.000 646.748,495.000 648.346 C 495.000 649.945,488.864 647.657,481.364 643.262 C 465.456 633.939,459.723 635.249,475.030 644.709 C 486.943 652.072,490.294 661.393,485.733 674.477 C 480.312 690.028,484.233 690.313,327.000 662.956 C 201.226 641.073,195.484 640.230,199.500 644.231 C 201.150 645.875,231.525 652.134,267.000 658.140 C 389.376 678.859,487.512 696.068,491.379 697.487 C 494.278 698.551,494.457 700.408,492.089 704.834 C 490.345 708.092,489.275 712.499,489.709 714.628 C 490.283 717.437,484.797 718.713,469.724 719.276 C 458.298 719.702,448.362 720.638,447.645 721.355 C 446.928 722.072,450.878 723.912,456.421 725.445 C 465.269 727.891,464.042 728.237,446.372 728.280 C 431.908 728.314,424.883 729.688,421.408 733.164 C 416.698 737.873,395.321 739.065,309.000 739.430 C 299.925 739.469,291.817 740.397,290.982 741.492 C 290.147 742.588,248.416 747.645,198.246 752.728 C 148.076 757.812,106.347 762.653,105.514 763.486 C 102.664 766.336,124.558 764.938,199.500 757.485 C 240.750 753.383,279.489 750.020,285.587 750.013 C 297.213 749.999,362.893 779.046,362.963 784.232 C 363.020 788.475,381.556 804.010,384.436 802.230 C 388.400 799.781,387.752 798.954,376.342 791.902 C 370.480 788.280,366.300 784.700,367.051 783.949 C 368.927 782.073,391.263 793.706,408.330 805.446 L 422.415 815.134 396.457 823.376 C 349.688 838.225,336.000 843.677,336.000 847.456 C 336.000 850.700,304.684 867.000,298.451 867.000 C 297.187 867.000,281.831 873.597,264.327 881.659 C 246.822 889.722,222.375 900.578,210.000 905.785 C 174.614 920.673,141.257 937.261,141.123 940.036 C 141.055 941.431,148.088 938.591,156.750 933.724 C 165.413 928.857,184.650 920.439,199.500 915.016 C 214.350 909.592,233.925 901.856,243.000 897.823 C 273.127 884.436,289.573 878.497,285.750 882.385 C 280.929 887.290,280.929 891.160,285.750 889.593 C 295.292 886.492,347.688 866.893,357.654 862.697 C 371.018 857.069,374.446 856.754,369.600 861.600 C 365.436 865.764,364.878 870.000,368.493 870.000 C 369.864 870.000,372.792 866.625,375.000 862.500 C 377.208 858.375,381.547 855.000,384.643 855.000 C 387.739 855.000,393.616 851.657,397.703 847.570 C 405.973 839.299,416.796 832.796,418.858 834.858 C 419.597 835.597,415.094 840.648,408.851 846.083 C 383.031 868.560,330.101 919.694,330.052 922.207 C 329.994 925.213,352.144 905.006,397.768 860.430 C 427.358 831.520,441.213 823.023,450.389 828.158 C 452.801 829.508,456.737 829.370,459.137 827.852 C 462.127 825.961,462.320 825.077,459.750 825.046 C 457.688 825.021,456.000 823.967,456.000 822.704 C 456.000 819.572,486.251 808.465,492.634 809.254 C 495.617 809.622,497.187 808.340,496.380 806.194 C 495.616 804.162,499.226 800.095,504.402 797.156 C 509.578 794.217,512.997 790.997,512.000 790.000 C 511.003 789.003,506.818 790.395,502.699 793.094 C 498.581 795.792,494.151 797.965,492.856 797.923 C 491.560 797.881,497.790 793.202,506.700 787.524 C 515.611 781.847,524.070 777.925,525.499 778.809 C 529.333 781.178,525.438 785.980,521.048 784.295 C 518.866 783.458,517.096 785.402,516.830 788.926 C 516.490 793.451,518.193 795.000,523.509 795.000 C 534.229 795.000,534.798 799.171,525.649 810.683 C 518.888 819.191,516.456 820.496,512.275 817.858 C 504.978 813.255,500.223 818.901,505.444 825.970 C 509.215 831.077,510.400 830.499,523.242 817.285 C 530.809 809.499,537.000 801.896,537.000 800.388 C 537.000 793.609,542.518 801.988,544.296 811.467 C 546.593 823.710,549.434 824.630,555.977 815.250 C 563.398 804.610,561.741 813.225,553.862 826.242 L 546.754 837.984 524.652 837.267 C 498.504 836.419,498.560 839.404,524.749 842.393 L 543.212 844.500 523.261 864.000 L 503.309 883.500 504.786 869.250 C 506.786 849.949,502.299 851.036,499.720 870.477 C 497.884 884.316,495.878 887.632,480.770 901.806 C 471.476 910.524,462.892 917.051,461.693 916.310 C 460.494 915.569,459.060 916.245,458.506 917.812 C 455.460 926.440,323.590 1059.614,282.750 1095.306 C 270.788 1105.761,261.000 1115.535,261.000 1117.026 C 261.000 1121.089,351.632 1037.987,433.034 959.287 C 445.684 947.057,445.142 946.009,439.062 970.947 C 437.765 976.271,438.193 978.235,440.361 976.895 C 442.140 975.795,445.128 967.517,447.000 958.500 C 448.872 949.483,451.647 941.336,453.167 940.396 C 454.688 939.457,455.384 940.446,454.716 942.594 C 450.819 955.123,450.024 963.340,452.880 961.574 C 454.596 960.514,456.095 956.688,456.211 953.073 C 456.415 946.703,456.508 946.685,459.234 952.500 C 461.537 957.414,461.868 956.764,461.066 948.908 C 460.527 943.633,461.191 940.000,462.543 940.835 C 463.894 941.671,465.000 941.012,465.000 939.372 C 465.000 937.732,466.499 932.590,468.330 927.945 C 471.399 920.164,471.837 919.972,473.906 925.500 C 475.859 930.720,476.426 930.260,478.268 921.957 C 479.433 916.709,482.536 910.634,485.164 908.457 C 489.450 904.907,489.776 905.973,488.330 918.832 C 486.936 931.231,487.257 932.445,490.710 927.832 C 492.905 924.899,496.413 915.934,498.505 907.908 C 501.245 897.401,506.535 888.917,517.405 877.599 C 554.978 838.479,566.128 826.182,567.827 821.995 C 569.381 818.166,570.144 818.278,572.975 822.750 C 574.803 825.638,578.336 828.000,580.826 828.000 C 583.317 828.000,584.464 829.440,583.376 831.201 C 582.288 832.961,583.221 834.151,585.449 833.845 C 595.951 832.404,597.490 833.937,595.386 843.750 C 592.737 856.100,591.276 858.525,587.785 856.367 C 586.092 855.321,586.268 852.236,588.229 848.572 C 591.621 842.233,588.780 838.505,574.500 830.561 C 570.367 828.261,571.189 830.089,577.141 836.434 C 585.130 844.950,585.413 846.015,580.891 850.537 C 578.201 853.227,576.000 853.982,576.000 852.214 C 576.000 845.443,569.322 849.415,566.026 858.146 C 563.220 865.582,561.305 866.974,555.787 865.589 C 545.088 862.904,547.876 869.450,559.500 874.307 C 570.420 878.870,573.896 887.966,564.750 888.046 C 561.072 888.078,560.606 888.794,563.192 890.437 C 567.853 893.398,552.914 927.000,546.936 927.000 C 541.923 927.000,541.774 935.005,546.750 937.013 C 549.750 938.224,549.750 938.574,546.750 938.763 C 542.384 939.039,541.580 945.000,545.909 945.000 C 547.509 945.000,553.496 934.875,559.214 922.500 C 564.932 910.125,570.391 900.000,571.345 900.000 C 573.207 900.000,571.516 904.221,552.214 947.737 C 535.122 986.273,533.992 988.192,530.469 984.669 C 527.082 981.282,516.000 983.335,516.000 987.350 C 516.000 988.807,512.789 990.000,508.864 990.000 C 503.743 990.000,500.661 992.575,497.951 999.119 C 495.873 1004.135,491.676 1009.988,488.625 1012.125 C 479.338 1018.630,450.167 1077.000,456.203 1077.000 C 457.848 1077.000,460.414 1073.963,461.907 1070.250 C 466.496 1058.832,465.290 1069.411,459.021 1095.560 C 455.733 1109.277,453.170 1125.225,453.327 1131.000 L 453.613 1141.500 455.989 1132.500 C 459.089 1120.758,470.366 1069.464,472.806 1056.000 C 475.149 1043.080,479.200 1035.000,483.336 1035.000 C 487.701 1035.000,501.732 1020.405,508.572 1008.750 C 511.719 1003.388,515.384 999.000,516.716 999.000 C 518.048 999.000,517.074 1002.150,514.552 1006.000 C 510.487 1012.204,510.479 1013.000,514.483 1013.000 C 516.967 1013.000,519.000 1011.650,519.000 1010.000 C 519.000 1008.350,519.707 1007.707,520.571 1008.571 C 523.371 1011.371,518.470 1020.027,515.222 1018.019 C 513.357 1016.867,512.967 1017.519,514.264 1019.619 C 515.470 1021.569,513.657 1028.947,510.235 1036.014 C 506.814 1043.081,503.519 1053.128,502.912 1058.341 C 502.305 1063.555,499.319 1071.573,496.278 1076.160 L 490.748 1084.500 487.795 1076.250 C 484.357 1066.646,478.612 1064.902,481.619 1074.375 C 482.887 1078.370,482.132 1081.682,479.596 1083.250 C 476.303 1085.285,476.267 1086.467,479.400 1089.600 C 482.533 1092.733,483.777 1092.617,486.079 1088.975 C 487.779 1086.286,488.926 1085.926,488.954 1088.073 C 488.979 1090.038,487.800 1092.388,486.332 1093.295 C 484.865 1094.201,482.787 1098.441,481.714 1102.717 C 479.903 1109.930,462.648 1149.841,445.046 1187.530 C 440.928 1196.346,438.323 1204.323,439.255 1205.255 C 440.188 1206.188,445.503 1196.950,451.065 1184.726 C 456.628 1172.501,466.764 1150.226,473.590 1135.225 C 480.415 1120.223,486.000 1106.869,486.000 1105.549 C 486.000 1104.229,491.400 1094.598,498.000 1084.148 C 504.600 1073.697,510.000 1061.655,510.000 1057.388 C 510.000 1042.349,531.255 1005.000,539.814 1005.000 C 541.361 1005.000,542.654 1002.638,542.686 999.750 C 542.808 988.906,545.544 978.656,551.356 967.257 C 554.654 960.791,561.714 944.025,567.046 930.000 C 578.598 899.612,593.218 867.000,595.289 867.000 C 596.105 867.000,592.150 877.800,586.500 891.000 C 580.850 904.200,577.508 915.000,579.074 915.000 C 580.639 915.000,583.774 910.613,586.042 905.250 C 588.309 899.888,593.223 889.039,596.962 881.143 C 600.702 873.247,606.929 857.047,610.801 845.143 L 617.841 823.500 616.557 844.500 C 615.331 864.567,615.396 864.824,618.035 850.287 C 619.554 841.920,622.227 831.795,623.975 827.787 C 626.613 821.741,626.896 822.926,625.636 834.742 C 619.254 894.588,617.470 922.036,618.708 941.329 C 619.998 961.431,622.107 967.576,640.141 1003.770 C 657.938 1039.489,660.652 1047.310,664.755 1074.708 C 667.291 1091.643,670.471 1110.900,671.823 1117.500 L 674.279 1129.500 674.640 1118.341 C 674.838 1112.203,672.922 1093.193,670.382 1076.097 C 665.820 1045.390,667.331 1029.000,674.724 1029.000 C 676.303 1029.000,678.453 1026.300,679.500 1023.000 C 680.547 1019.700,682.743 1017.000,684.379 1017.000 C 686.015 1017.000,686.689 1018.077,685.875 1019.393 C 685.061 1020.710,685.636 1023.747,687.152 1026.143 C 689.218 1029.409,689.920 1028.434,689.954 1022.250 C 689.982 1017.248,691.634 1014.000,694.150 1014.000 C 699.342 1014.000,702.340 1024.460,698.306 1028.494 C 696.655 1030.145,693.717 1034.646,691.776 1038.497 C 689.301 1043.409,686.172 1045.203,681.296 1044.506 C 676.894 1043.876,675.080 1044.702,676.349 1046.756 C 677.452 1048.540,680.299 1050.000,682.677 1050.000 C 685.609 1050.000,687.000 1053.344,687.000 1060.396 C 687.000 1067.668,689.704 1073.870,696.000 1081.042 C 700.950 1086.679,705.000 1092.592,705.000 1094.181 C 705.000 1098.391,715.259 1107.000,720.276 1107.000 C 723.198 1107.000,726.641 1115.429,730.997 1133.250 C 734.526 1147.688,743.123 1180.425,750.101 1206.000 C 767.024 1268.025,767.689 1271.350,770.814 1309.500 C 772.300 1327.650,775.615 1363.425,778.181 1389.000 C 780.746 1414.575,783.217 1441.470,783.672 1448.767 C 784.138 1456.233,786.176 1462.585,788.333 1463.294 C 796.000 1465.817,788.778 1323.587,780.076 1300.701 C 778.698 1297.076,776.631 1286.097,775.483 1276.305 C 772.776 1253.209,763.591 1211.161,757.505 1194.000 C 749.985 1172.797,738.727 1116.867,736.672 1090.500 C 735.643 1077.300,734.145 1060.425,733.343 1053.000 C 731.933 1039.940,732.030 1039.744,736.336 1047.000 C 742.365 1057.157,742.084 1053.606,735.350 1034.517 C 722.513 998.128,717.067 978.693,715.729 964.500 C 714.952 956.250,712.895 944.784,711.158 939.020 C 707.202 925.890,707.134 920.111,710.966 922.479 C 712.597 923.487,713.210 922.433,712.329 920.136 C 711.448 917.840,712.813 914.230,715.363 912.113 C 720.466 907.879,721.641 900.000,717.170 900.000 C 715.614 900.000,712.335 902.863,709.883 906.363 C 705.564 912.529,705.317 912.320,701.881 899.613 C 699.931 892.401,698.021 883.800,697.636 880.500 C 697.252 877.200,695.961 871.464,694.767 867.752 C 692.980 862.196,694.065 860.446,700.915 857.842 C 708.117 855.104,709.936 855.607,714.477 861.590 C 728.519 880.094,771.000 953.024,771.000 958.627 C 771.000 961.032,772.252 963.000,773.783 963.000 C 776.546 963.000,796.346 993.531,802.944 1007.966 C 804.838 1012.110,815.430 1026.681,826.482 1040.346 C 843.197 1061.014,845.951 1065.944,842.860 1069.668 C 837.779 1075.791,841.654 1078.838,847.959 1073.678 C 852.546 1069.923,852.738 1070.086,849.859 1075.292 C 845.692 1082.825,852.912 1091.468,859.089 1086.341 C 862.105 1083.838,866.950 1087.545,880.061 1102.386 C 897.484 1122.109,934.156 1154.290,969.000 1180.433 C 979.725 1188.480,1009.088 1215.828,1034.250 1241.206 C 1059.413 1266.585,1080.000 1286.024,1080.000 1284.406 C 1080.000 1279.999,1028.451 1225.350,996.000 1195.354 C 980.325 1180.865,944.950 1147.558,917.388 1121.337 C 870.564 1076.791,867.464 1073.170,870.138 1066.136 C 873.944 1056.127,873.746 1054.054,869.400 1058.400 C 863.565 1064.235,860.944 1062.537,863.878 1054.822 C 865.379 1050.874,865.841 1044.718,864.906 1041.141 C 863.220 1034.693,863.135 1034.706,854.762 1042.728 L 846.319 1050.817 844.381 1042.158 C 843.315 1037.396,841.863 1031.331,841.155 1028.680 C 840.448 1026.029,843.978 1016.046,849.002 1006.497 C 858.497 988.446,859.395 980.118,850.242 994.990 C 847.361 999.670,840.919 1007.052,835.925 1011.394 L 826.845 1019.288 815.514 1007.494 C 804.888 996.435,782.010 962.418,782.691 958.691 C 782.861 957.761,780.280 954.280,776.955 950.955 C 770.341 944.341,753.000 910.327,753.000 903.968 C 753.000 901.786,751.900 900.000,750.556 900.000 C 747.175 900.000,738.000 880.122,738.000 872.798 C 738.000 869.500,734.540 859.973,730.312 851.628 L 722.623 836.456 736.853 838.386 C 753.265 840.611,751.367 839.726,777.732 857.441 C 788.860 864.918,798.636 870.364,799.457 869.543 C 801.876 867.124,761.375 839.220,751.530 836.523 C 746.563 835.163,736.763 832.637,729.750 830.910 C 717.783 827.962,712.017 822.000,721.133 822.000 C 723.406 822.000,726.934 819.990,728.973 817.533 C 731.012 815.076,733.962 813.858,735.529 814.827 C 737.096 815.795,740.851 814.350,743.873 811.615 C 749.069 806.912,750.846 807.881,776.496 829.402 C 811.520 858.787,835.437 883.429,835.472 890.165 C 835.488 893.141,837.489 895.258,840.000 894.952 C 842.475 894.650,849.225 900.877,855.000 908.790 C 868.624 927.458,944.837 1006.721,948.250 1005.772 C 949.690 1005.371,952.834 1008.845,955.236 1013.490 C 957.639 1018.136,962.056 1023.840,965.052 1026.167 C 969.871 1029.908,969.838 1029.621,964.768 1023.680 C 961.616 1019.986,959.676 1016.324,960.458 1015.542 C 961.240 1014.760,965.844 1020.506,970.690 1028.310 C 975.535 1036.115,985.122 1048.592,991.994 1056.037 C 1005.328 1070.485,1049.149 1127.128,1051.044 1132.364 C 1051.668 1134.089,1053.208 1134.542,1054.467 1133.372 C 1056.693 1131.303,1053.473 1126.683,1017.599 1080.475 C 1008.195 1068.361,997.800 1054.105,994.500 1048.795 C 991.200 1043.485,980.309 1029.096,970.298 1016.820 C 960.286 1004.544,947.830 988.425,942.618 981.000 C 937.406 973.575,928.928 962.438,923.779 956.250 C 918.631 950.063,915.599 945.000,917.041 945.000 C 919.923 945.000,933.606 953.877,936.010 957.306 C 936.840 958.490,949.679 967.443,964.540 977.202 C 996.282 998.044,1048.000 1035.695,1059.719 1046.491 C 1064.239 1050.655,1068.833 1053.167,1069.927 1052.073 C 1071.989 1050.011,1064.092 1042.939,1042.488 1027.500 C 1035.561 1022.550,1006.750 1001.625,978.463 981.000 C 950.176 960.375,922.706 941.163,917.417 938.306 C 904.296 931.218,876.000 902.844,876.000 896.775 C 876.000 894.063,870.644 885.760,864.098 878.324 C 857.553 870.887,853.053 863.947,854.098 862.902 C 855.144 861.856,853.750 861.000,851.000 861.000 C 846.423 861.000,846.444 860.527,851.250 855.404 C 856.361 849.957,856.898 850.023,871.500 857.883 C 879.750 862.323,891.563 869.025,897.750 872.775 C 903.938 876.525,909.000 878.187,909.000 876.469 C 909.000 874.752,902.251 869.556,894.003 864.923 C 885.755 860.290,879.005 854.996,879.003 853.158 C 879.001 851.319,872.988 847.519,865.640 844.713 C 858.293 841.907,851.491 837.123,850.526 834.083 C 849.561 831.042,846.798 827.797,844.386 826.871 C 838.816 824.734,838.738 817.782,844.233 813.222 C 847.127 810.820,849.081 810.704,850.410 812.854 C 851.479 814.584,855.063 816.000,858.374 816.000 C 861.685 816.000,867.343 817.621,870.947 819.603 C 874.551 821.585,879.859 823.601,882.743 824.083 C 896.460 826.377,946.613 845.074,973.885 858.060 C 990.597 866.018,1013.547 875.424,1024.885 878.963 C 1036.223 882.502,1047.525 886.138,1050.000 887.043 C 1052.475 887.948,1051.800 886.551,1048.500 883.939 C 1045.200 881.327,1037.775 878.268,1032.000 877.142 C 1019.914 874.785,1008.661 870.149,969.000 851.186 C 953.325 843.691,928.856 833.835,914.625 829.283 C 891.557 821.905,888.750 820.222,888.750 813.766 C 888.750 803.670,894.195 802.566,916.435 808.153 C 927.049 810.819,939.506 812.852,944.117 812.671 C 950.086 812.437,948.613 811.613,939.000 809.807 C 912.247 804.783,902.401 800.888,904.254 796.060 C 905.214 793.557,906.000 790.362,906.000 788.959 C 906.000 787.556,910.157 783.449,915.237 779.831 C 923.014 774.293,925.662 773.794,931.984 776.675 C 936.114 778.556,952.544 781.421,968.496 783.040 C 984.448 784.659,1001.381 786.807,1006.125 787.813 C 1011.731 789.001,1014.076 788.550,1012.823 786.523 C 1010.512 782.784,981.385 776.400,966.638 776.400 C 959.919 776.400,957.557 775.510,960.101 773.938 C 962.806 772.266,960.780 770.970,953.792 769.900 C 948.132 769.033,938.100 767.489,931.500 766.468 C 924.900 765.448,908.700 763.953,895.500 763.147 C 872.126 761.720,837.983 756.500,803.483 749.079 L 786.467 745.418 797.483 736.196 C 817.900 719.104,818.596 718.970,875.859 721.040 C 961.023 724.118,1002.000 726.734,1002.000 729.092 C 1002.000 730.306,1004.700 732.006,1008.000 732.869 C 1011.775 733.856,1014.000 732.961,1014.000 730.456 C 1014.000 727.334,1024.871 726.306,1064.250 725.703 C 1091.888 725.280,1124.846 725.234,1137.490 725.601 C 1150.968 725.992,1161.282 724.971,1162.417 723.134 C 1163.676 721.097,1158.452 720.000,1147.500 720.000 C 1137.028 720.000,1131.348 718.864,1132.500 717.000 C 1133.520 715.350,1132.924 714.000,1131.177 714.000 C 1129.430 714.000,1128.000 715.350,1128.000 717.000 C 1128.000 718.650,1125.300 720.000,1122.000 720.000 C 1118.000 720.000,1116.000 718.000,1116.000 714.000 C 1116.000 710.552,1114.000 708.000,1111.298 708.000 C 1107.961 708.000,1107.149 709.742,1108.500 714.000 C 1110.074 718.960,1109.039 720.000,1102.525 720.000 C 1098.036 720.000,1095.444 718.709,1096.500 717.000 C 1097.520 715.350,1097.004 714.000,1095.354 714.000 C 1093.704 714.000,1091.520 715.350,1090.500 717.000 C 1087.898 721.209,1075.947 720.740,1071.413 716.250 C 1068.381 713.247,1067.085 713.458,1064.911 717.309 C 1062.816 721.018,1058.918 721.794,1047.848 720.704 C 1039.957 719.927,1032.529 717.763,1031.342 715.896 C 1029.754 713.399,1027.582 713.493,1023.132 716.250 C 1010.155 724.293,1001.247 719.882,997.345 703.483 C 994.377 691.014,982.434 654.651,977.152 642.000 C 974.740 636.225,971.092 622.388,969.044 611.250 C 966.996 600.113,964.166 591.000,962.754 591.000 C 961.343 591.000,960.841 593.363,961.639 596.250 C 962.437 599.138,961.121 597.450,958.714 592.500 C 952.745 580.225,946.709 550.951,949.905 549.775 C 954.042 548.254,984.169 531.139,1020.722 509.545 C 1039.300 498.570,1060.575 487.501,1068.000 484.949 C 1095.144 475.617,1111.767 468.846,1123.500 462.338 C 1138.049 454.270,1130.472 455.715,1103.250 466.200 C 1092.113 470.490,1074.563 477.193,1064.250 481.096 C 1053.938 484.999,1029.461 497.893,1009.857 509.751 C 968.988 534.471,939.021 550.127,938.954 546.793 C 938.929 545.532,937.916 545.934,936.704 547.686 C 935.492 549.438,921.063 558.071,904.640 566.870 C 888.217 575.669,863.242 589.833,849.140 598.347 C 816.781 617.882,774.567 640.663,765.750 643.348 C 759.931 645.121,759.000 644.308,759.000 637.456 C 759.000 631.539,767.245 620.484,791.250 594.214 C 808.988 574.803,830.008 550.541,837.962 540.299 C 845.917 530.057,855.704 520.184,859.712 518.357 C 863.721 516.531,867.000 513.459,867.000 511.530 C 867.000 508.455,935.254 447.503,1031.250 364.851 C 1048.163 350.289,1062.000 337.717,1062.000 336.914 C 1062.000 333.130,990.074 392.909,933.750 443.504 C 920.138 455.733,909.000 464.805,909.000 463.666 C 909.000 462.526,921.099 448.114,935.887 431.638 C 963.683 400.670,990.629 363.758,1015.224 322.958 C 1031.410 296.109,1032.508 289.546,1016.908 312.895 C 973.931 377.221,913.851 453.000,905.830 453.000 C 904.273 453.000,903.000 450.300,903.000 447.000 C 903.000 443.700,901.589 441.000,899.864 441.000 C 897.905 441.000,897.467 444.940,898.698 451.500 C 900.795 462.680,899.934 463.628,891.709 459.188 C 888.844 457.642,880.088 453.352,872.250 449.656 C 852.281 440.240,853.013 433.581,873.750 436.006 C 884.300 437.239,888.014 436.897,885.000 434.969 C 882.525 433.387,876.383 432.071,871.350 432.046 C 860.814 431.993,855.000 427.334,855.000 418.945 C 855.000 410.445,879.522 368.813,903.368 336.825 C 914.716 321.604,924.000 308.347,924.000 307.365 C 924.000 306.383,929.896 295.887,937.101 284.040 C 983.680 207.459,992.646 192.481,997.138 183.750 C 999.897 178.388,1001.453 174.000,1000.595 174.000 C 998.381 174.000,971.484 215.513,937.423 271.500 C 921.362 297.900,899.238 331.650,888.258 346.500 C 877.278 361.350,863.493 381.600,857.623 391.500 C 827.707 441.962,802.140 482.483,794.939 490.847 C 790.513 495.987,776.559 515.562,763.931 534.347 C 751.303 553.131,737.870 572.375,734.081 577.110 L 727.191 585.720 729.422 560.268 C 733.965 508.451,742.851 473.597,762.644 429.960 C 765.773 423.063,769.756 408.276,771.495 397.102 C 773.235 385.927,776.652 373.742,779.088 370.024 C 781.524 366.306,782.517 361.646,781.295 359.668 C 779.962 357.512,780.342 356.857,782.244 358.033 C 784.042 359.144,786.841 355.904,788.708 350.549 C 793.389 337.120,792.358 332.385,787.500 345.000 C 782.642 357.615,781.611 352.880,786.292 339.451 C 788.103 334.257,790.763 330.736,792.204 331.626 C 793.645 332.517,795.620 329.478,796.592 324.873 C 798.538 315.659,811.524 278.726,841.728 196.500 C 865.338 132.226,865.412 131.992,862.100 132.029 C 860.670 132.045,854.878 144.532,849.229 159.779 M815.600 257.600 C 812.048 266.148,808.646 272.646,808.041 272.041 C 807.436 271.436,809.848 263.948,813.400 255.400 C 816.952 246.852,820.354 240.354,820.959 240.959 C 821.564 241.564,819.152 249.052,815.600 257.600 M850.031 433.358 C 851.639 437.551,834.794 454.794,831.909 451.909 C 830.275 450.275,843.725 429.089,846.429 429.037 C 847.490 429.017,849.111 430.961,850.031 433.358 M863.537 449.657 C 867.917 452.768,876.814 457.529,883.308 460.237 L 895.117 465.160 880.421 480.080 C 872.339 488.286,863.250 495.000,860.223 495.000 C 857.159 495.000,852.457 490.861,849.610 485.658 C 846.800 480.519,841.646 471.954,838.157 466.625 L 831.815 456.934 838.157 452.717 C 843.910 448.892,851.887 444.750,854.537 444.211 C 855.107 444.095,859.157 446.546,863.537 449.657 M842.327 483.750 L 848.798 495.000 831.649 494.789 C 803.332 494.441,802.201 493.091,814.689 474.547 L 825.379 458.673 830.617 465.587 C 833.498 469.389,838.767 477.563,842.327 483.750 M900.000 471.977 C 900.000 472.514,896.288 476.227,891.750 480.227 L 883.500 487.500 890.773 479.250 C 897.571 471.539,900.000 469.624,900.000 471.977 M730.250 494.750 C 727.499 501.624,724.757 506.757,724.157 506.157 C 723.556 505.556,725.285 499.410,728.000 492.500 C 730.715 485.590,733.456 480.456,734.093 481.093 C 734.730 481.730,733.001 487.876,730.250 494.750 M676.987 507.750 C 676.155 509.813,675.474 508.125,675.474 504.000 C 675.474 499.875,676.155 498.188,676.987 500.250 C 677.819 502.313,677.819 505.688,676.987 507.750 M854.940 502.463 C 859.910 505.535,848.919 516.555,832.423 525.040 C 821.552 530.631,818.333 531.181,814.603 528.085 C 810.598 524.762,810.950 523.237,817.525 515.423 C 821.636 510.537,824.964 504.956,824.919 503.020 C 824.875 501.084,820.815 504.225,815.897 510.000 C 807.240 520.165,806.812 520.314,802.477 514.677 C 800.015 511.474,798.000 506.325,798.000 503.235 C 798.000 498.063,800.128 497.722,824.714 498.954 C 839.407 499.690,853.008 501.269,854.940 502.463 M794.424 533.697 C 779.491 550.834,761.623 567.623,760.020 566.020 C 759.213 565.213,765.700 552.322,774.437 537.374 L 790.322 510.197 797.080 516.545 L 803.837 522.893 794.424 533.697 M671.079 536.193 C 670.318 539.112,669.646 537.450,669.585 532.500 C 669.524 527.550,670.146 525.162,670.968 527.193 C 671.790 529.224,671.840 533.274,671.079 536.193 M810.953 529.953 C 813.388 532.388,803.984 539.776,798.285 539.905 C 795.088 539.977,795.381 538.551,799.500 534.000 C 805.237 527.661,807.767 526.767,810.953 529.953 M815.841 553.194 C 791.872 576.812,763.579 593.596,741.997 597.001 C 729.615 598.955,729.541 598.912,734.327 592.567 C 739.691 585.455,755.253 572.928,751.817 578.487 C 746.903 586.438,755.718 581.071,770.746 566.961 C 779.556 558.690,790.305 551.104,794.632 550.104 C 798.960 549.104,805.875 546.118,810.000 543.467 C 824.016 534.462,835.496 528.671,836.841 529.928 C 837.578 530.617,828.128 541.087,815.841 553.194 M703.193 555.335 C 698.806 567.526,692.017 581.316,688.108 585.980 C 684.199 590.644,681.000 596.382,681.000 598.730 C 681.000 601.079,679.650 603.000,678.000 603.000 C 676.350 603.000,675.000 601.614,675.000 599.921 C 675.000 595.931,708.774 530.774,710.136 532.136 C 710.705 532.705,707.581 543.144,703.193 555.335 M729.000 537.927 C 729.000 540.086,726.994 544.474,724.541 547.677 C 720.462 553.004,720.359 552.670,723.335 543.750 C 726.731 533.570,729.000 531.237,729.000 537.927 M587.079 548.193 C 586.318 551.112,585.646 549.450,585.585 544.500 C 585.524 539.550,586.146 537.162,586.968 539.193 C 587.790 541.224,587.840 545.274,587.079 548.193 M654.518 563.510 C 653.961 576.441,654.965 592.442,656.749 599.069 C 660.515 613.053,672.984 627.850,679.831 626.460 C 682.431 625.932,687.927 617.400,692.045 607.500 C 701.493 584.783,706.503 578.952,708.853 587.939 C 710.232 593.210,709.774 593.717,706.264 590.804 C 700.049 585.646,701.048 590.236,708.381 600.535 L 714.762 609.496 708.381 618.126 C 704.871 622.873,702.000 627.379,702.000 628.140 C 702.000 628.901,706.388 630.406,711.750 631.486 C 733.868 635.937,733.651 635.557,721.292 648.213 C 711.043 658.709,710.287 660.550,713.414 667.411 C 717.659 676.728,718.347 676.730,734.556 667.464 C 741.737 663.359,747.812 659.999,748.056 659.998 C 749.489 659.991,747.403 690.597,745.866 692.134 C 744.840 693.160,744.000 696.331,744.000 699.179 C 744.000 704.825,738.214 708.000,727.922 708.000 C 724.299 708.000,718.512 709.977,715.062 712.394 C 711.611 714.811,707.936 715.936,706.894 714.894 C 705.852 713.852,705.000 714.495,705.000 716.323 C 705.000 718.151,706.350 720.480,708.000 721.500 C 709.650 722.520,711.000 726.693,711.000 730.773 C 711.000 740.513,718.818 758.974,724.792 763.342 C 728.896 766.343,728.401 767.310,721.040 770.664 C 712.912 774.367,712.798 774.701,718.288 778.716 C 723.686 782.663,723.723 783.229,718.935 788.519 C 716.140 791.607,709.463 796.498,704.097 799.388 C 690.448 806.739,685.807 817.390,692.081 826.966 C 695.703 832.494,696.041 835.159,693.446 837.754 C 688.426 842.774,689.220 847.382,694.369 843.109 C 696.771 841.115,700.275 840.434,702.154 841.595 C 704.186 842.851,700.461 845.994,692.957 849.353 C 686.020 852.459,680.055 855.000,679.701 855.000 C 679.346 855.000,675.833 844.723,671.894 832.163 C 667.955 819.602,663.330 808.949,661.616 808.490 C 659.902 808.030,650.717 805.936,641.203 803.837 C 626.124 800.509,624.146 799.265,625.774 794.135 C 626.880 790.653,625.980 787.198,623.571 785.671 C 617.224 781.649,609.000 782.551,609.000 787.269 C 609.000 791.959,593.688 808.351,584.927 813.039 C 578.993 816.215,564.000 812.276,564.000 807.541 C 564.000 803.509,550.714 789.000,547.022 789.000 C 545.214 789.000,542.331 787.309,540.615 785.241 C 535.710 779.331,543.037 771.980,562.346 763.441 C 573.653 758.441,579.046 754.446,578.037 751.818 C 576.431 747.632,594.476 737.147,609.778 733.376 C 614.331 732.253,618.799 730.135,619.705 728.668 C 621.251 726.167,619.129 725.702,600.000 724.342 C 595.875 724.048,590.284 723.626,587.575 723.404 C 584.867 723.182,581.848 719.803,580.867 715.896 C 579.487 710.396,575.559 707.811,563.475 704.450 C 549.276 700.499,547.850 699.312,547.683 691.304 C 547.582 686.462,546.507 680.973,545.293 679.106 C 544.079 677.239,546.441 670.766,550.543 664.722 C 554.644 658.679,558.000 652.034,558.000 649.958 C 558.000 647.881,562.022 640.713,566.938 634.029 C 571.853 627.344,575.113 621.113,574.181 620.181 C 573.249 619.249,574.964 617.072,577.993 615.344 C 591.362 607.714,591.387 607.659,586.614 596.236 C 584.126 590.282,580.720 584.563,579.045 583.528 C 575.532 581.357,574.893 575.739,578.250 576.530 C 579.488 576.821,586.088 575.460,592.918 573.504 C 599.867 571.514,608.124 570.979,611.668 572.290 C 616.816 574.194,621.456 571.394,636.482 557.316 C 646.647 547.792,655.091 540.000,655.247 540.000 C 655.403 540.000,655.075 550.580,654.518 563.510 M668.049 549.563 C 667.092 551.956,666.381 551.245,666.237 547.750 C 666.107 544.588,666.816 542.816,667.813 543.813 C 668.809 544.809,668.916 547.397,668.049 549.563 M549.000 555.000 C 549.000 556.650,548.405 558.000,547.677 558.000 C 546.949 558.000,545.520 556.650,544.500 555.000 C 543.480 553.350,544.076 552.000,545.823 552.000 C 547.570 552.000,549.000 553.350,549.000 555.000 M724.137 574.855 C 723.228 592.943,720.000 601.250,720.000 585.500 C 720.000 576.028,715.859 572.633,712.987 579.750 C 712.155 581.813,711.372 582.150,711.248 580.500 C 711.021 577.481,722.016 558.000,723.948 558.000 C 724.518 558.000,724.603 565.585,724.137 574.855 M944.123 567.750 C 945.953 573.113,948.371 584.250,949.496 592.500 C 950.621 600.750,954.731 616.667,958.630 627.871 C 964.448 644.589,965.711 657.000,961.594 657.000 C 961.173 657.000,934.226 661.725,901.712 667.500 C 869.197 673.275,838.973 678.015,834.547 678.032 C 830.121 678.050,819.873 680.075,811.773 682.532 C 788.660 689.544,787.995 688.442,802.868 667.768 C 813.897 652.436,818.753 648.151,826.809 646.640 C 832.367 645.597,836.614 643.789,836.247 642.622 C 835.223 639.366,856.693 608.258,865.725 599.911 L 873.745 592.500 871.500 600.000 C 868.859 608.820,870.346 607.763,879.634 594.220 C 885.683 585.398,927.660 559.440,937.647 558.345 C 939.378 558.155,942.292 562.388,944.123 567.750 M583.281 570.148 C 576.573 572.583,574.618 571.663,577.296 567.331 C 578.339 565.643,581.413 565.114,584.127 566.156 C 588.465 567.820,588.362 568.303,583.281 570.148 M439.500 576.000 C 438.480 577.650,439.166 579.000,441.023 579.000 C 442.881 579.000,449.077 582.567,454.793 586.927 C 460.509 591.287,469.115 597.024,473.916 599.677 C 487.786 607.339,543.000 650.797,543.000 654.051 C 543.000 655.673,540.975 657.000,538.500 657.000 C 536.025 657.000,534.000 658.350,534.000 660.000 C 534.000 661.650,532.988 662.840,531.750 662.645 C 523.948 661.413,522.000 663.954,522.000 675.367 C 522.000 686.020,522.624 687.217,526.500 684.000 C 530.186 680.941,531.000 681.146,531.000 685.133 C 531.000 688.047,528.521 690.000,524.823 690.000 C 521.426 690.000,519.480 691.350,520.500 693.000 C 523.464 697.796,514.117 696.461,510.000 691.500 C 507.946 689.025,504.571 687.000,502.500 687.000 C 500.429 687.000,497.129 685.065,495.167 682.701 C 492.330 679.283,492.870 677.130,497.799 672.201 C 501.210 668.790,505.494 666.000,507.321 666.000 C 509.147 666.000,509.947 664.190,509.099 661.978 C 508.250 659.766,508.760 656.053,510.232 653.728 C 512.355 650.374,512.918 650.661,512.954 655.117 C 512.992 659.769,513.773 660.093,517.500 657.000 C 523.329 652.163,523.247 648.000,517.323 648.000 C 514.751 648.000,513.367 646.833,514.249 645.407 C 515.960 642.637,486.693 616.611,481.558 616.337 C 479.876 616.247,466.101 610.053,450.946 602.572 L 423.392 588.971 431.378 580.986 C 439.671 572.693,442.689 570.840,439.500 576.000 M783.000 597.000 C 777.773 603.600,772.084 609.000,770.359 609.000 C 768.634 609.000,772.460 603.601,778.862 597.003 C 793.661 581.746,795.082 581.746,783.000 597.000 M885.819 593.077 C 877.881 604.535,875.399 609.000,876.967 609.000 C 879.477 609.000,894.601 587.601,893.130 586.130 C 892.319 585.319,889.029 588.445,885.819 593.077 M766.602 602.893 C 761.916 607.785,756.938 611.080,755.541 610.216 C 754.143 609.353,753.000 610.515,753.000 612.800 C 753.000 615.085,749.385 620.227,744.967 624.227 L 736.935 631.500 743.672 621.750 C 747.377 616.388,749.014 612.000,747.310 612.000 C 745.606 612.000,742.766 614.700,741.000 618.000 C 735.686 627.929,728.824 625.631,731.019 614.657 C 732.822 605.638,732.638 605.436,725.694 608.823 C 718.871 612.150,718.801 612.090,724.323 607.665 C 731.140 602.204,747.000 601.405,747.000 606.523 C 747.000 608.461,750.038 607.282,753.750 603.905 C 767.168 591.697,778.157 590.832,766.602 602.893 M538.500 603.000 C 536.009 607.030,540.968 606.832,545.061 602.739 C 547.122 600.678,548.987 600.553,550.128 602.399 C 551.121 604.005,549.924 606.988,547.467 609.027 C 543.921 611.970,542.079 611.970,538.533 609.027 C 534.585 605.751,534.790 600.000,538.854 600.000 C 539.679 600.000,539.520 601.350,538.500 603.000 M468.000 605.674 C 468.000 607.387,470.578 610.169,473.729 611.855 C 478.406 614.358,479.318 613.964,478.695 609.710 C 477.883 604.154,468.000 600.425,468.000 605.674 M789.000 606.000 C 789.000 607.650,791.700 609.000,795.000 609.000 C 798.300 609.000,801.000 607.650,801.000 606.000 C 801.000 604.350,798.300 603.000,795.000 603.000 C 791.700 603.000,789.000 604.350,789.000 606.000 M565.210 611.532 C 567.581 615.366,561.474 634.872,556.649 638.876 C 551.172 643.422,535.873 634.264,538.315 627.900 C 539.205 625.581,538.599 624.512,536.966 625.521 C 535.335 626.529,534.000 625.924,534.000 624.177 C 534.000 622.430,537.600 621.000,542.000 621.000 C 546.400 621.000,549.121 620.121,548.047 619.047 C 545.761 616.761,554.857 609.235,560.073 609.095 C 562.038 609.043,564.350 610.139,565.210 611.532 M831.417 617.869 C 825.871 622.613,822.069 627.685,822.969 629.140 C 825.573 633.354,820.780 638.877,809.736 644.390 C 803.606 647.450,799.127 652.120,798.570 656.032 C 797.331 664.731,792.885 667.818,778.426 670.018 C 768.346 671.551,765.721 670.843,762.526 665.727 C 759.164 660.345,759.672 658.804,766.704 653.050 C 774.522 646.653,837.026 609.319,840.000 609.269 C 840.825 609.255,836.962 613.125,831.417 617.869 M852.000 613.133 C 852.000 613.756,849.944 615.972,847.431 618.057 C 843.611 621.227,843.172 621.042,844.752 616.924 C 846.366 612.719,852.000 609.772,852.000 613.133 M874.923 622.880 C 869.247 634.782,860.460 669.460,862.582 671.582 C 864.973 673.973,873.419 650.442,873.617 640.838 C 873.722 635.702,875.751 627.662,878.125 622.971 C 880.500 618.280,881.910 613.910,881.259 613.259 C 880.608 612.608,877.757 616.937,874.923 622.880 M859.706 624.750 C 852.934 641.308,850.915 649.887,854.610 646.403 C 858.048 643.161,867.413 615.000,865.053 615.000 C 864.306 615.000,861.899 619.388,859.706 624.750 M840.000 619.133 C 840.000 619.756,837.638 622.118,834.750 624.383 C 829.992 628.114,829.886 628.008,833.617 623.250 C 837.536 618.253,840.000 616.664,840.000 619.133 M840.269 629.497 C 836.514 636.513,828.343 643.343,826.231 641.231 C 824.863 639.863,839.679 624.000,842.325 624.000 C 842.812 624.000,841.887 626.474,840.269 629.497 M740.847 638.250 C 735.165 644.438,729.500 650.783,728.258 652.350 C 727.016 653.918,726.000 654.259,726.000 653.109 C 726.000 650.482,747.080 627.000,749.438 627.000 C 750.394 627.000,746.528 632.063,740.847 638.250 M751.004 650.866 C 749.627 652.062,743.100 656.211,736.500 660.086 L 724.500 667.133 738.000 652.317 C 748.916 640.336,751.692 638.571,752.504 643.096 C 753.056 646.174,752.381 649.670,751.004 650.866 M807.550 654.650 C 805.397 656.803,804.000 656.980,804.000 655.100 C 804.000 651.096,807.548 647.548,809.550 649.550 C 810.403 650.403,809.503 652.698,807.550 654.650 M783.000 653.823 C 783.000 655.376,784.350 657.480,786.000 658.500 C 787.650 659.520,789.000 658.249,789.000 655.677 C 789.000 653.105,787.650 651.000,786.000 651.000 C 784.350 651.000,783.000 652.270,783.000 653.823 M496.579 659.421 C 495.656 660.344,493.235 659.423,491.200 657.372 C 488.259 654.409,488.604 654.065,492.879 655.693 C 495.838 656.819,497.503 658.497,496.579 659.421 M774.000 655.133 C 774.000 655.756,776.056 657.972,778.569 660.057 C 782.389 663.227,782.828 663.042,781.248 658.924 C 779.634 654.719,774.000 651.772,774.000 655.133 M970.179 664.745 C 971.181 667.355,972.192 675.118,972.426 681.995 L 972.851 694.500 974.856 682.500 L 976.860 670.500 979.144 681.110 C 980.400 686.946,980.994 695.721,980.464 700.610 C 979.825 706.507,980.763 709.247,983.250 708.750 C 985.313 708.338,987.000 709.350,987.000 711.000 C 987.000 715.529,973.935 714.596,967.323 709.595 C 959.691 703.823,957.747 703.933,955.721 710.250 C 954.331 714.582,950.407 715.500,933.287 715.500 C 921.874 715.500,911.652 714.624,910.571 713.552 C 909.489 712.481,900.563 712.334,890.734 713.225 C 875.024 714.650,873.092 714.251,874.753 709.923 C 876.146 706.293,874.935 705.000,870.144 705.000 C 866.570 705.000,864.480 706.350,865.500 708.000 C 866.520 709.650,865.170 711.000,862.500 711.000 C 859.830 711.000,858.273 709.988,859.039 708.750 C 859.805 707.513,846.047 706.374,828.466 706.219 C 810.885 706.065,790.425 704.615,783.000 702.997 L 769.500 700.055 784.500 697.652 C 792.750 696.330,815.025 691.936,834.000 687.888 C 871.731 679.839,963.342 660.745,966.429 660.286 C 967.490 660.129,969.178 662.135,970.179 664.745 M795.000 673.574 C 795.000 676.833,778.772 681.158,774.233 679.109 C 769.931 677.168,774.036 675.680,792.750 672.395 C 793.988 672.178,795.000 672.708,795.000 673.574 M545.250 713.772 C 550.612 718.022,555.000 722.359,555.000 723.410 C 555.000 724.460,550.613 725.963,545.250 726.751 C 538.202 727.786,534.155 726.634,530.648 722.592 C 527.843 719.359,521.832 717.000,516.398 717.000 C 506.512 717.000,506.051 716.342,508.791 706.132 C 510.368 700.256,511.464 700.007,523.000 702.904 C 529.875 704.631,539.887 709.521,545.250 713.772 M754.500 702.000 C 755.520 703.650,755.004 705.000,753.354 705.000 C 751.704 705.000,749.520 703.650,748.500 702.000 C 747.480 700.350,747.996 699.000,749.646 699.000 C 751.296 699.000,753.480 700.350,754.500 702.000 M1013.912 709.606 C 1011.840 712.102,1010.819 714.819,1011.643 715.643 C 1013.762 717.762,1023.000 713.868,1023.000 710.856 C 1023.000 705.902,1017.602 705.159,1013.912 709.606 M556.677 712.665 C 562.168 717.065,562.072 717.127,555.000 713.759 C 545.817 709.386,544.115 708.000,547.927 708.000 C 549.536 708.000,553.474 710.099,556.677 712.665 M1055.000 710.000 C 1051.146 713.854,1052.989 719.816,1057.500 718.085 C 1059.975 717.135,1062.000 714.478,1062.000 712.179 C 1062.000 707.768,1058.364 706.636,1055.000 710.000 M1140.000 711.177 C 1140.000 712.924,1141.350 713.520,1143.000 712.500 C 1144.650 711.480,1146.000 710.051,1146.000 709.323 C 1146.000 708.595,1144.650 708.000,1143.000 708.000 C 1141.350 708.000,1140.000 709.430,1140.000 711.177 M504.000 715.500 C 504.000 717.975,502.692 720.000,501.094 720.000 C 499.496 720.000,498.965 717.975,499.915 715.500 C 500.865 713.025,502.172 711.000,502.821 711.000 C 503.469 711.000,504.000 713.025,504.000 715.500 M740.716 722.250 C 738.506 725.138,736.487 727.891,736.230 728.369 C 735.973 728.847,735.042 726.484,734.162 723.119 C 732.940 718.445,733.999 717.000,738.648 717.000 C 743.976 717.000,744.234 717.655,740.716 722.250 M791.669 720.094 L 808.500 720.187 796.500 727.577 C 783.519 735.571,778.261 735.676,778.917 727.927 C 779.465 721.443,777.258 721.712,769.410 729.085 C 762.931 735.172,751.118 734.472,754.976 728.231 C 756.043 726.503,754.348 723.108,751.208 720.687 C 746.030 716.692,746.863 716.456,760.169 718.142 C 768.237 719.164,782.412 720.042,791.669 720.094 M586.846 737.655 C 578.787 741.661,571.627 747.104,570.935 749.750 C 568.883 757.597,529.561 771.184,527.428 764.783 C 526.793 762.880,520.899 764.697,512.929 769.252 C 505.543 773.474,496.800 776.974,493.500 777.030 C 490.200 777.086,481.425 780.008,474.000 783.522 C 454.736 792.642,440.497 795.497,436.118 791.118 C 435.297 790.297,442.972 781.381,453.174 771.305 C 468.699 755.972,471.115 752.253,467.994 748.493 C 464.856 744.712,466.004 743.274,475.243 739.414 C 483.311 736.043,494.351 735.084,516.895 735.794 C 552.767 736.926,555.943 738.129,551.801 749.022 C 550.168 753.318,549.545 757.545,550.416 758.416 C 552.872 760.872,555.274 757.310,555.791 750.445 C 556.228 744.649,556.638 744.552,561.630 749.071 C 564.584 751.743,567.000 752.606,567.000 750.988 C 567.000 749.370,563.507 744.773,559.239 740.773 L 551.477 733.500 559.989 731.960 C 564.670 731.113,575.925 730.409,585.000 730.396 L 601.500 730.371 586.846 737.655 M461.687 741.857 C 459.039 743.873,455.842 748.893,454.582 753.012 C 451.427 763.322,444.151 771.000,437.535 771.000 C 434.491 771.000,432.000 772.441,432.000 774.202 C 432.000 776.083,434.785 776.624,438.750 775.514 C 445.266 773.689,445.240 773.834,438.000 779.693 C 432.179 784.404,427.814 785.380,418.500 784.053 C 402.875 781.827,365.309 770.962,361.650 767.611 C 360.083 766.175,356.325 765.000,353.300 765.000 C 350.275 765.000,340.758 761.314,332.150 756.808 L 316.500 748.616 340.500 746.366 C 364.048 744.158,435.309 739.356,456.000 738.583 C 464.860 738.252,465.748 738.764,461.687 741.857 M760.500 754.377 C 767.100 756.401,780.600 758.352,790.500 758.713 C 800.400 759.074,813.900 760.565,820.500 762.025 C 827.100 763.485,844.841 765.610,859.924 766.746 L 887.348 768.812 884.709 778.014 C 879.720 795.409,877.951 795.786,838.370 787.885 C 818.642 783.947,797.100 778.378,790.500 775.509 C 783.900 772.640,770.049 767.144,759.719 763.295 C 749.390 759.446,737.915 754.088,734.219 751.388 C 727.626 746.571,727.698 746.519,738.000 748.588 C 743.775 749.748,753.900 752.353,760.500 754.377 M762.684 780.958 C 774.683 786.435,787.547 792.173,791.271 793.708 C 797.948 796.462,797.896 796.616,787.464 804.923 L 776.887 813.346 769.029 807.165 L 761.171 800.984 770.585 802.867 C 776.897 804.129,780.000 803.579,780.000 801.198 C 780.000 799.244,778.625 798.495,776.945 799.534 C 775.265 800.572,769.136 798.483,763.326 794.892 C 757.515 791.301,750.191 789.035,747.051 789.856 C 740.055 791.686,730.573 782.045,733.042 775.612 C 735.498 769.213,737.903 769.646,762.684 780.958 M912.995 774.106 C 916.416 774.210,903.433 782.683,899.531 782.894 C 898.448 782.952,898.288 780.224,899.175 776.830 C 900.183 772.975,902.421 771.287,905.140 772.330 C 907.533 773.249,911.068 774.048,912.995 774.106 M845.984 777.607 C 840.019 779.825,839.413 780.875,843.000 782.782 C 852.500 787.833,866.418 788.844,868.046 784.601 C 870.291 778.750,855.512 774.065,845.984 777.607 M738.058 796.562 C 745.001 803.952,745.034 804.241,739.495 809.312 C 734.117 814.236,734.030 814.233,737.782 809.250 C 740.252 805.969,740.528 804.000,738.516 804.000 C 736.746 804.000,733.982 806.351,732.374 809.225 C 730.766 812.099,728.470 813.470,727.272 812.272 C 726.074 811.074,723.315 812.435,721.142 815.297 C 718.969 818.158,717.148 819.048,717.095 817.273 C 717.043 815.498,720.375 810.875,724.500 807.000 C 732.532 799.454,735.064 791.723,727.428 798.060 C 724.913 800.147,722.028 801.028,721.016 800.016 C 720.005 799.005,715.312 800.929,710.589 804.293 C 705.865 807.657,702.000 809.650,702.000 808.723 C 702.000 806.656,726.106 789.000,728.927 789.000 C 730.042 789.000,734.151 792.403,738.058 796.562 M866.750 799.922 C 870.585 803.229,864.242 802.872,856.500 799.346 L 847.500 795.247 856.500 797.045 C 861.450 798.035,866.063 799.329,866.750 799.922 M483.000 804.000 C 477.125 807.797,473.153 807.797,475.500 804.000 C 476.520 802.350,479.637 801.021,482.427 801.046 C 486.799 801.086,486.878 801.494,483.000 804.000 M551.954 807.750 C 551.917 813.208,551.352 813.639,549.000 810.000 C 545.241 804.184,545.241 801.000,549.000 801.000 C 550.650 801.000,551.979 804.038,551.954 807.750 M876.000 804.000 C 876.000 805.650,875.405 807.000,874.677 807.000 C 873.949 807.000,872.520 805.650,871.500 804.000 C 870.480 802.350,871.076 801.000,872.823 801.000 C 874.570 801.000,876.000 802.350,876.000 804.000 M828.540 811.488 C 833.537 822.454,824.316 832.161,810.962 829.994 C 805.678 829.136,800.938 829.585,800.428 830.990 C 799.917 832.395,796.271 830.914,792.325 827.698 C 788.379 824.481,785.679 821.415,786.325 820.883 C 788.817 818.833,820.621 804.213,822.814 804.110 C 824.087 804.049,826.664 807.370,828.540 811.488 M897.000 819.000 C 899.475 820.599,902.850 821.908,904.500 821.908 C 906.150 821.908,905.475 820.599,903.000 819.000 C 900.525 817.401,897.150 816.092,895.500 816.092 C 893.850 816.092,894.525 817.401,897.000 819.000 M663.951 828.750 C 664.906 834.113,667.630 847.275,670.005 858.000 C 672.380 868.725,677.884 893.700,682.236 913.500 C 686.587 933.300,691.348 954.669,692.815 960.987 C 694.658 968.922,694.263 976.342,691.538 984.987 C 687.837 996.726,687.575 996.943,687.292 988.500 C 687.126 983.550,682.903 964.249,677.906 945.609 C 672.909 926.969,669.561 910.519,670.467 909.054 C 672.656 905.511,667.562 883.400,659.738 862.489 C 650.430 837.611,649.173 844.755,658.237 871.017 C 662.507 883.387,666.000 898.306,666.000 904.171 C 666.000 910.035,669.377 928.033,673.504 944.167 C 681.435 975.169,687.173 1016.972,680.619 996.000 C 678.814 990.225,674.711 977.165,671.500 966.977 C 668.289 956.789,663.713 946.837,661.331 944.860 C 655.621 940.121,655.843 941.803,663.188 958.939 C 667.086 968.032,668.196 973.768,666.188 974.437 C 664.435 975.022,663.000 976.817,663.000 978.427 C 663.000 980.037,664.360 980.514,666.021 979.487 C 669.138 977.561,670.227 979.687,673.287 993.670 C 674.704 1000.147,674.134 1001.479,670.537 1000.099 C 667.427 998.906,666.000 1000.230,666.000 1004.312 C 666.000 1007.586,664.055 1011.880,661.677 1013.853 C 658.090 1016.830,657.019 1015.650,655.380 1006.915 C 654.294 1001.126,654.423 994.743,655.666 992.731 C 657.110 990.395,656.675 989.847,654.464 991.214 C 652.423 992.475,651.000 991.471,651.000 988.771 C 651.000 985.760,652.684 984.834,655.909 986.072 C 659.301 987.374,660.360 986.649,659.336 983.728 C 658.521 981.403,655.300 979.738,652.177 980.028 C 646.693 980.538,646.698 980.411,652.323 976.278 C 655.526 973.925,656.876 971.979,655.323 971.954 C 653.771 971.929,654.233 970.808,656.352 969.464 C 661.708 966.066,657.582 957.000,650.679 957.000 C 644.214 957.000,642.696 946.575,648.750 943.750 C 651.750 942.350,651.750 941.650,648.750 940.250 C 646.688 939.288,645.000 936.025,645.000 933.000 C 645.000 929.975,643.563 927.021,641.806 926.435 C 640.050 925.850,637.983 919.325,637.212 911.935 L 635.812 898.500 641.995 912.000 C 648.422 926.034,648.321 923.364,641.226 891.754 C 637.317 874.336,637.407 872.657,642.499 868.049 C 646.455 864.468,647.107 862.039,644.844 859.312 C 642.660 856.680,642.677 854.936,644.902 853.560 C 646.659 852.475,647.593 847.025,646.979 841.449 C 646.250 834.841,647.278 830.768,649.931 829.750 C 652.169 828.891,654.000 826.121,654.000 823.594 C 654.000 814.788,662.224 819.049,663.951 828.750 M909.000 823.150 C 909.000 823.783,911.702 825.007,915.004 825.870 C 918.306 826.734,920.252 826.216,919.327 824.720 C 917.712 822.107,909.000 820.783,909.000 823.150 M403.500 830.159 C 392.334 836.261,350.193 852.193,348.828 850.828 C 347.584 849.584,405.369 825.196,409.500 825.222 C 411.150 825.232,408.450 827.453,403.500 830.159 M825.000 840.000 C 825.000 841.650,823.650 843.000,822.000 843.000 C 820.350 843.000,819.000 841.650,819.000 840.000 C 819.000 838.350,820.350 837.000,822.000 837.000 C 823.650 837.000,825.000 838.350,825.000 840.000 M638.908 853.500 C 638.908 855.150,637.599 854.475,636.000 852.000 C 634.401 849.525,633.092 846.150,633.092 844.500 C 633.092 842.850,634.401 843.525,636.000 846.000 C 637.599 848.475,638.908 851.850,638.908 853.500 M978.000 849.633 C 981.174 852.995,1008.000 863.547,1008.000 861.434 C 1008.000 859.511,1001.667 856.735,981.000 849.598 C 978.525 848.743,977.175 848.759,978.000 849.633 M349.313 860.887 C 347.726 862.474,333.748 868.487,318.252 874.248 C 283.955 886.999,285.998 883.029,321.136 868.644 C 347.701 857.769,354.228 855.972,349.313 860.887 M831.579 863.250 C 840.845 874.040,840.855 877.186,831.595 868.510 C 826.318 863.565,822.000 859.178,822.000 858.760 C 822.000 856.120,827.785 858.832,831.579 863.250 M579.890 868.264 C 576.324 873.070,573.485 874.525,571.500 872.562 C 569.506 870.591,570.453 868.154,574.323 865.298 C 583.213 858.737,585.898 860.167,579.890 868.264 M691.371 890.250 C 692.492 896.438,694.139 904.538,695.030 908.250 C 696.200 913.124,695.309 915.000,691.825 915.000 C 689.171 915.000,686.828 912.638,686.617 909.750 C 684.895 886.101,684.983 879.000,687.000 879.000 C 688.283 879.000,690.250 884.063,691.371 890.250 M630.676 909.504 C 631.883 920.544,631.339 923.174,628.104 921.933 C 625.217 920.825,624.056 914.891,624.190 901.929 C 624.402 881.439,628.077 885.731,630.676 909.504 M635.049 891.563 C 634.092 893.956,633.381 893.245,633.237 889.750 C 633.107 886.588,633.816 884.816,634.813 885.813 C 635.809 886.809,635.916 889.397,635.049 891.563 M867.000 909.123 C 867.000 906.840,864.638 902.272,861.750 898.971 C 858.863 895.669,858.088 893.894,860.028 895.024 C 861.969 896.155,871.143 907.906,880.415 921.139 C 889.687 934.371,901.398 948.865,906.439 953.349 C 915.192 961.132,940.960 992.514,946.387 1002.000 C 949.587 1007.593,950.992 1009.067,920.646 975.000 C 906.682 959.325,891.449 941.451,886.795 935.279 C 882.141 929.108,877.284 924.706,876.003 925.498 C 874.722 926.290,868.038 919.189,861.150 909.719 C 853.515 899.221,852.213 896.554,857.813 902.887 C 862.866 908.599,867.000 911.406,867.000 909.123 M869.893 917.507 C 871.869 921.361,874.309 923.691,875.314 922.686 C 876.320 921.680,874.703 918.527,871.721 915.679 C 866.538 910.728,866.457 910.808,869.893 917.507 M700.987 942.750 C 700.155 944.813,699.474 943.125,699.474 939.000 C 699.474 934.875,700.155 933.188,700.987 935.250 C 701.819 937.313,701.819 940.688,700.987 942.750 M704.049 990.563 C 703.092 992.956,702.381 992.245,702.237 988.750 C 702.107 985.588,702.816 983.816,703.813 984.813 C 704.809 985.809,704.916 988.397,704.049 990.563 M724.914 1035.302 C 730.961 1067.364,728.331 1069.010,721.716 1037.304 C 718.870 1023.662,715.905 1009.800,715.127 1006.500 C 713.837 1001.022,714.002 1000.961,717.030 1005.793 C 718.854 1008.704,722.402 1021.983,724.914 1035.302 M837.000 1027.677 C 837.000 1030.249,835.628 1031.506,833.951 1030.470 C 832.274 1029.433,831.679 1027.329,832.628 1025.793 C 835.200 1021.632,837.000 1022.407,837.000 1027.677 M715.272 1071.146 C 718.874 1089.010,720.964 1103.096,719.916 1102.448 C 718.868 1101.800,714.746 1092.987,710.755 1082.864 C 706.765 1072.740,701.138 1063.182,698.250 1061.623 C 691.035 1057.728,691.667 1046.563,699.583 1038.065 C 707.352 1029.726,706.599 1028.138,715.272 1071.146 M722.346 1068.000 C 722.296 1074.737,722.057 1074.584,720.000 1066.500 C 718.740 1061.550,717.685 1054.800,717.654 1051.500 C 717.610 1046.798,718.118 1047.123,720.000 1053.000 C 721.321 1057.125,722.377 1063.875,722.346 1068.000 M698.363 1074.410 C 697.614 1076.657,696.254 1075.297,695.194 1071.240 C 693.889 1066.250,694.279 1065.079,696.505 1067.305 C 698.249 1069.049,699.085 1072.246,698.363 1074.410 M731.049 1074.563 C 730.092 1076.956,729.381 1076.245,729.237 1072.750 C 729.107 1069.588,729.816 1067.816,730.813 1068.813 C 731.809 1069.809,731.916 1072.397,731.049 1074.563 M731.640 1107.000 C 731.270 1113.191,723.468 1088.957,723.431 1081.500 C 723.415 1078.200,725.316 1081.575,727.655 1089.000 C 729.995 1096.425,731.788 1104.525,731.640 1107.000 M784.987 1368.750 C 784.155 1370.813,783.474 1369.125,783.474 1365.000 C 783.474 1360.875,784.155 1359.188,784.987 1361.250 C 785.819 1363.313,785.819 1366.688,784.987 1368.750 " stroke="none" fill="black" fill-rule="evenodd"/></svg>