<?xml version="1.0" standalone="no"?>
<!DOCTYPE svg PUBLIC "-//W3C//DTD SVG 20010904//EN"
 "http://www.w3.org/TR/2001/REC-SVG-20010904/DTD/svg10.dtd">
<svg version="1.0" xmlns="http://www.w3.org/2000/svg"
 width="1920.000000pt" height="1920.000000pt" viewBox="0 0 1920.000000 1920.000000"
 preserveAspectRatio="xMidYMid meet">

<g transform="translate(0.000000,1920.000000) scale(0.100000,-0.100000)"
fill="#000000" stroke="none">
<path d="M0 9600 l0 -9600 9600 0 9600 0 0 9600 0 9600 -9600 0 -9600 0 0
-9600z m9580 7024 c0 -8 -4 -12 -10 -9 -5 3 -10 10 -10 16 0 5 5 9 10 9 6 0
10 -7 10 -16z m19 -121 c0 -39 -2 -44 -9 -25 -5 12 -6 30 -3 39 4 11 3 14 -5
9 -13 -8 -17 6 -5 17 16 16 23 4 22 -40z m-19 -133 c5 0 6 -25 3 -56 -5 -45
-3 -59 9 -68 12 -9 14 -24 10 -64 -2 -28 -8 -49 -13 -46 -17 10 -21 -26 -9
-73 8 -33 8 -49 1 -51 -6 -2 -11 -10 -11 -17 0 -8 -6 -18 -14 -22 -8 -4 -15
-11 -15 -16 0 -4 -7 -17 -15 -30 -16 -25 -43 -122 -49 -182 -3 -22 -12 -69
-22 -105 -42 -162 -45 -211 -16 -251 12 -16 21 -32 21 -38 0 -5 10 -8 23 -6
12 2 31 5 42 7 11 2 19 -2 18 -8 -1 -7 6 -10 18 -7 16 5 20 2 17 -14 -3 -19 6
-42 39 -107 12 -23 13 -30 3 -36 -11 -7 -11 -17 0 -54 7 -25 10 -61 7 -80 -3
-18 -1 -38 5 -44 7 -7 7 -20 0 -41 -6 -18 -7 -33 -2 -36 5 -3 6 -16 2 -28 -4
-12 -8 -113 -7 -224 0 -110 -3 -196 -7 -190 -16 26 -17 -3 -2 -59 9 -37 13
-78 10 -109 -4 -27 -6 -59 -6 -70 0 -56 10 -237 15 -285 3 -30 6 -106 6 -168
0 -74 4 -110 11 -106 6 4 5 -3 -2 -16 -11 -21 -13 -104 -7 -355 2 -60 -1 -116
-6 -122 -6 -8 -6 -18 0 -25 11 -15 7 -357 -6 -568 -1 -8 1 -35 4 -60 7 -61 7
-51 2 -177 -3 -61 -11 -128 -19 -149 -10 -29 -10 -38 0 -41 16 -6 16 -102 0
-155 -9 -31 -9 -44 0 -59 14 -22 16 -81 3 -94 -6 -6 -6 -27 0 -55 6 -25 8 -57
5 -71 -9 -48 2 -64 52 -76 26 -6 88 -30 137 -54 88 -42 161 -57 177 -34 4 5
23 8 44 7 20 -2 57 4 83 12 25 8 67 16 92 19 39 3 50 0 76 -22 30 -26 105
-135 138 -201 24 -48 24 -48 44 -21 29 38 45 21 17 -19 -22 -33 -23 -37 -9
-74 7 -22 11 -46 9 -53 -3 -7 -1 -15 4 -18 6 -4 10 -13 10 -22 0 -9 9 -26 20
-38 11 -12 27 -48 36 -81 9 -32 22 -79 29 -104 9 -30 9 -49 3 -57 -14 -17 -5
-17 104 7 50 12 97 19 104 16 7 -3 14 0 16 5 2 5 30 14 63 19 33 5 76 14 95
20 53 17 189 50 208 50 9 1 35 9 57 20 22 11 55 19 73 20 18 0 42 5 53 11 20
10 413 92 504 104 28 4 65 16 84 26 18 11 104 33 190 50 86 16 206 42 266 56
143 33 193 43 230 47 41 5 118 23 192 47 34 10 74 19 90 19 15 0 62 12 103 26
56 19 101 27 179 30 58 2 107 7 110 12 3 5 42 14 86 19 44 6 119 20 167 31 48
12 108 23 133 26 25 3 56 13 68 21 28 20 173 20 372 -1 309 -32 348 -35 480
-39 61 -1 137 -8 170 -13 125 -23 222 -35 285 -38 156 -6 226 -16 485 -69 39
-8 117 -19 173 -25 57 -5 108 -12 112 -15 9 -6 66 -14 135 -20 22 -1 63 -8 90
-15 28 -6 61 -13 73 -15 13 -2 26 -6 29 -9 3 -2 16 -1 29 4 23 9 24 8 18 -18
-5 -26 -5 -26 10 -8 13 16 22 17 58 11 24 -4 76 -8 116 -9 41 0 76 -6 80 -12
4 -6 23 -11 42 -10 19 1 46 -4 60 -11 30 -15 57 -17 65 -3 11 18 34 -16 32
-46 -3 -35 -35 -44 -72 -20 -13 9 -34 16 -46 16 -15 0 -19 5 -15 15 7 19 -3
19 -28 0 -26 -20 -38 -19 -66 5 -19 16 -31 19 -59 13 -34 -7 -75 -8 -170 -4
-22 0 -47 8 -55 17 -9 8 -16 11 -16 5 0 -7 -10 -9 -27 -5 -15 4 -34 7 -43 7
-8 0 -20 4 -26 9 -6 4 -40 9 -75 9 -35 1 -98 7 -139 15 -41 8 -87 12 -102 8
-21 -4 -28 -2 -28 10 0 9 -2 16 -4 16 -2 0 -11 3 -20 6 -11 4 -16 0 -16 -11 0
-15 -7 -17 -46 -11 -26 3 -57 6 -70 6 -15 0 -24 6 -24 16 0 8 -4 13 -9 9 -5
-3 -49 1 -97 10 -101 18 -96 17 -91 7 3 -4 -32 -6 -76 -4 -60 3 -85 8 -94 20
-12 14 -14 14 -31 -2 -11 -9 -26 -14 -35 -10 -11 4 -21 -5 -33 -28 -13 -24
-19 -29 -23 -18 -8 20 -62 20 -84 1 -13 -10 -17 -10 -17 -1 0 10 -3 10 -15 0
-8 -7 -20 -10 -27 -7 -7 2 -15 4 -18 3 -3 0 -16 9 -30 22 -26 24 -36 27 -45
12 -11 -17 -45 13 -45 41 0 23 -3 25 -30 21 -17 -2 -37 1 -46 8 -8 8 -27 14
-42 16 -57 5 -107 17 -113 26 -4 6 -9 6 -12 1 -7 -11 -145 -6 -161 5 -6 5 -36
10 -66 11 -30 1 -81 6 -113 12 -32 6 -79 7 -105 3 -26 -5 -51 -7 -57 -5 -28 8
-151 9 -165 1 -9 -5 -58 -12 -108 -15 -51 -3 -108 -13 -127 -21 -19 -8 -58
-14 -87 -14 -33 0 -62 -6 -76 -16 -12 -8 -32 -17 -45 -18 -55 -7 -103 -19
-115 -29 -8 -6 -28 -10 -44 -9 -17 1 -36 -2 -44 -9 -17 -14 -134 -41 -151 -35
-7 3 -34 1 -61 -5 -26 -6 -62 -12 -81 -14 -19 -3 -39 -9 -45 -15 -5 -5 -22
-10 -37 -10 -29 0 -149 -34 -186 -52 -12 -6 -29 -8 -39 -4 -10 4 -21 1 -25 -5
-4 -7 -29 -13 -55 -14 -63 -3 -173 -25 -180 -36 -3 -5 -18 -9 -33 -9 -15 0
-43 -5 -61 -11 -26 -9 -34 -9 -41 2 -5 9 -9 10 -9 2 0 -11 -56 -29 -75 -24 -5
1 -32 -4 -60 -12 -56 -18 -141 -35 -200 -42 -22 -3 -54 -12 -72 -20 -18 -9
-57 -19 -86 -22 -28 -3 -56 -9 -62 -13 -5 -4 -32 -10 -60 -14 -110 -16 -129
-19 -155 -28 -30 -11 -122 -28 -151 -28 -16 0 -37 -4 -47 -9 -31 -17 -143 -43
-159 -37 -8 3 -35 -3 -60 -14 -25 -11 -54 -19 -66 -19 -12 0 -65 -12 -117 -26
-52 -15 -142 -40 -200 -55 -58 -15 -118 -33 -133 -39 -16 -6 -42 -11 -58 -11
-16 0 -32 -6 -35 -13 -6 -16 20 -140 41 -198 9 -24 19 -55 21 -69 3 -14 10
-42 16 -62 l11 -37 111 4 c61 1 119 6 128 10 26 10 56 -12 63 -47 3 -18 20
-78 37 -133 31 -104 63 -164 122 -229 l36 -38 -30 -60 c-17 -33 -30 -66 -30
-74 0 -13 -94 -85 -163 -123 -51 -29 -137 -93 -163 -122 -12 -13 -38 -37 -58
-52 -20 -15 -36 -33 -36 -40 0 -7 26 -35 57 -62 32 -28 70 -62 86 -77 16 -16
32 -28 35 -28 4 0 22 -16 41 -35 18 -19 42 -37 52 -40 10 -4 19 -15 19 -25 0
-12 12 -23 34 -31 19 -7 40 -22 46 -34 7 -12 26 -30 43 -39 57 -30 71 -40 110
-78 35 -34 38 -43 15 -39 -18 3 -6 -15 21 -34 17 -11 28 -21 26 -23 -5 -5
-185 98 -204 116 -15 15 -104 79 -136 99 -11 7 -53 32 -94 57 -57 35 -70 47
-57 52 10 4 22 2 29 -5 6 -6 16 -11 21 -11 6 0 -1 11 -16 25 -14 13 -32 33
-40 43 -7 10 -28 29 -47 43 -19 13 -47 37 -62 54 -27 29 -27 30 -48 11 l-21
-19 51 -34 c28 -19 49 -37 46 -39 -2 -2 -34 10 -72 27 l-68 30 -56 -25 c-31
-13 -68 -28 -84 -31 -15 -4 -29 -11 -32 -15 -3 -4 11 -38 30 -75 19 -36 35
-74 35 -83 0 -15 40 -42 62 -42 4 0 8 20 8 44 0 30 8 55 25 80 14 20 25 43 25
49 0 29 33 45 58 29 12 -8 8 -29 -15 -92 -10 -25 -15 -44 -16 -62 -1 -10 -8
-18 -15 -18 -9 0 -12 -6 -8 -16 3 -9 3 -21 -1 -27 -4 -7 -8 -32 -9 -56 -2 -45
33 -138 61 -161 8 -7 15 -17 15 -23 0 -6 6 -18 14 -26 8 -9 26 -38 41 -66 14
-27 36 -66 48 -85 12 -19 31 -50 42 -69 11 -19 35 -51 53 -71 17 -21 32 -45
32 -54 0 -9 5 -16 11 -16 6 0 8 -8 5 -18 -6 -17 18 -80 34 -92 4 -3 15 -21 25
-40 10 -19 35 -57 56 -85 20 -27 39 -59 41 -70 2 -11 12 -24 24 -29 11 -5 33
-34 47 -65 37 -77 126 -243 141 -261 7 -8 20 -32 30 -52 9 -20 21 -40 26 -43
5 -3 26 -32 46 -63 20 -31 49 -75 64 -97 15 -22 34 -56 42 -75 9 -20 32 -54
52 -75 20 -22 57 -83 83 -135 26 -52 68 -128 95 -167 26 -40 50 -84 52 -97 6
-31 24 -66 35 -66 16 0 51 -79 39 -86 -7 -4 -8 -3 -4 4 3 6 -3 16 -14 22 -11
6 -18 15 -16 19 7 11 -31 51 -48 51 -8 0 -19 14 -26 31 -11 26 -11 32 1 39 11
7 7 16 -17 42 -17 18 -34 41 -37 51 -4 10 -19 25 -35 34 -16 9 -36 35 -46 60
-10 25 -39 65 -65 91 -37 37 -43 47 -28 50 13 3 16 9 11 25 -9 31 -13 33 -33
20 -15 -9 -20 -6 -37 25 -10 20 -18 40 -16 45 3 12 -27 47 -41 47 -5 0 -3 -8
4 -17 13 -16 12 -17 -3 -4 -16 12 -26 51 -13 51 3 0 17 -7 31 -16 13 -9 27
-14 31 -11 10 11 -17 35 -48 42 -22 5 -28 11 -25 23 4 12 -6 24 -29 40 -19 12
-35 29 -35 38 0 17 -30 75 -44 85 -4 4 -3 10 3 13 17 11 13 22 -12 33 -12 6
-46 51 -75 101 -30 50 -59 93 -65 96 -8 3 -7 8 3 15 13 9 8 17 -26 48 -38 36
-62 78 -51 90 3 3 -9 18 -27 33 -18 16 -38 47 -46 69 -7 23 -17 41 -21 41 -4
0 -27 27 -51 59 -32 43 -48 57 -58 51 -87 -46 -440 -62 -440 -20 0 4 7 10 15
14 8 3 15 1 15 -4 0 -5 17 -3 38 4 20 7 48 10 62 6 14 -3 41 -3 60 2 19 4 67
10 105 13 39 3 78 8 88 11 17 5 16 7 -6 19 -13 7 -37 15 -53 18 -50 9 -72 15
-93 26 -11 6 -27 8 -35 5 -11 -4 -16 0 -16 11 0 14 -6 16 -27 12 -16 -3 -35 0
-44 7 -10 6 -35 11 -58 9 -22 -1 -43 2 -46 8 -4 5 -15 9 -26 9 -21 0 -21 -6 1
-129 5 -25 4 -54 0 -66 -6 -16 -2 -27 15 -44 16 -14 26 -38 30 -69 3 -26 10
-72 15 -102 5 -30 11 -75 14 -100 2 -25 9 -56 14 -70 5 -14 14 -61 21 -105 7
-44 16 -98 21 -120 5 -22 17 -74 26 -115 9 -41 25 -103 36 -137 11 -34 17 -67
13 -74 -4 -6 -2 -15 5 -19 9 -6 9 -13 1 -29 -9 -15 -9 -37 0 -83 6 -35 13 -79
16 -98 2 -19 8 -44 12 -55 12 -29 33 -121 35 -155 1 -16 10 -38 19 -48 9 -10
17 -27 17 -38 0 -45 43 -343 57 -388 8 -27 12 -54 9 -62 -3 -7 -1 -16 4 -19 6
-4 10 -17 10 -29 0 -13 7 -40 15 -59 8 -20 15 -48 15 -62 0 -14 5 -25 10 -25
6 0 10 -20 10 -43 0 -24 7 -66 15 -93 8 -27 15 -68 15 -91 0 -38 6 -58 42
-138 7 -17 38 -221 40 -265 0 -8 11 -60 24 -114 13 -54 24 -125 24 -157 0 -35
5 -63 13 -71 17 -17 28 -101 15 -120 -6 -9 -7 -6 -3 10 4 13 2 22 -4 22 -6 0
-11 13 -11 29 0 38 -17 84 -29 77 -9 -6 -34 114 -26 123 3 2 5 -3 5 -12 0 -10
5 -17 10 -17 15 0 12 34 -5 66 -8 16 -15 40 -15 54 0 14 -10 41 -22 60 -25 39
-23 33 -32 120 -4 36 -13 72 -20 80 -7 8 -16 24 -18 35 -3 11 -9 28 -13 38 -5
12 -3 17 8 17 16 0 30 50 17 63 -4 5 -17 4 -28 -2 -18 -9 -20 -6 -26 35 -3 25
-3 56 0 69 7 28 -14 74 -26 56 -9 -16 -21 25 -13 46 4 11 13 6 34 -19 21 -24
28 -28 29 -16 0 10 -15 34 -32 54 -22 24 -29 39 -21 41 9 3 6 17 -12 47 -18
31 -24 53 -21 84 2 23 -1 42 -5 42 -5 0 -9 10 -9 23 0 13 -5 28 -12 35 -9 9
-7 12 10 12 27 0 28 10 4 41 -21 27 -36 80 -56 189 -7 41 -16 82 -20 92 -5 11
-2 17 9 20 14 3 12 12 -15 63 -26 49 -31 68 -27 104 3 30 -1 57 -14 85 -10 22
-19 61 -19 87 0 25 -5 50 -10 55 -14 14 -60 200 -60 242 0 17 -4 32 -9 32 -5
0 -10 21 -10 48 0 59 -17 142 -42 210 -10 29 -19 65 -19 80 2 49 -9 107 -20
110 -5 2 -8 7 -6 11 2 3 -5 49 -16 101 -19 87 -23 117 -31 235 -1 22 -6 46
-11 54 -5 7 -10 30 -12 50 -6 60 -10 75 -24 101 -7 13 -13 51 -13 82 1 32 -3
58 -7 58 -11 0 -18 93 -8 106 10 13 0 46 -12 39 -10 -6 -20 55 -20 123 0 33
-6 59 -14 68 -9 9 -14 33 -14 64 1 28 -4 56 -12 65 -7 9 -14 31 -16 48 -3 42
-17 108 -49 232 -14 55 -28 125 -30 156 -2 33 -13 71 -26 93 -23 39 -32 47
-22 19 5 -14 3 -15 -6 -7 -14 13 -11 45 4 46 14 1 131 -224 140 -268 14 -75
47 -94 88 -50 29 30 169 83 160 59 -5 -12 -1 -14 18 -8 42 13 80 36 74 44 -6
11 19 21 53 21 29 0 115 83 128 123 4 12 15 28 25 35 9 6 46 37 82 67 35 30
68 55 72 55 4 0 39 32 77 70 68 68 92 82 100 59 2 -6 21 9 41 34 l38 46 -28
15 c-15 8 -24 15 -20 16 5 0 -10 21 -32 47 -24 29 -36 50 -29 54 7 4 6 9 -2
14 -6 4 -20 26 -30 50 -18 42 -46 74 -33 38 4 -13 3 -15 -6 -7 -10 9 -24 94
-15 94 2 0 20 -25 40 -55 20 -30 38 -55 40 -55 1 0 -1 14 -6 31 -11 37 -33 74
-68 111 -21 23 -23 30 -12 43 22 26 -1 39 -46 26 -43 -12 -107 -15 -117 -5
-10 10 -80 12 -98 3 -21 -11 -39 8 -39 42 0 15 -7 29 -15 33 -8 3 -15 13 -15
21 0 9 4 14 8 11 4 -2 14 -1 21 3 10 7 9 14 -5 36 -16 24 -19 25 -24 9 -6 -15
-7 -16 -13 -1 -3 8 -1 17 5 19 8 3 8 10 0 23 -16 27 -72 211 -72 234 0 10 34
46 80 85 44 38 80 72 80 77 0 5 7 9 15 9 8 0 15 -5 15 -11 0 -5 5 -7 10 -4 17
11 11 32 -27 96 -35 61 -68 175 -57 202 3 8 -2 20 -11 27 -8 7 -15 19 -15 27
0 8 -12 35 -27 61 -15 25 -28 51 -29 57 -7 36 -50 109 -86 144 -34 32 -50 41
-78 41 -20 0 -45 -7 -56 -15 -10 -8 -30 -15 -44 -15 -14 0 -33 -7 -43 -15 -10
-7 -52 -17 -93 -20 -43 -4 -71 -11 -68 -17 4 -6 -4 -8 -17 -6 -13 2 -23 9 -21
16 1 8 -2 11 -7 7 -6 -3 -15 4 -21 15 -6 11 -17 20 -25 20 -8 0 -18 6 -22 14
-6 10 -146 66 -167 66 0 0 0 -36 2 -81 2 -49 -1 -85 -8 -94 -6 -7 -13 -35 -15
-62 -2 -26 -8 -61 -15 -78 -6 -16 -9 -38 -6 -49 3 -13 -3 -29 -16 -43 -33 -36
-80 -30 -178 21 -195 101 -213 109 -254 108 -98 -2 -172 -8 -183 -15 -6 -4
-40 -9 -75 -11 -35 -2 -74 -8 -88 -14 -14 -6 -33 -13 -43 -16 -9 -3 -20 -14
-24 -23 -6 -18 -34 -54 -94 -121 -16 -18 -29 -42 -29 -53 0 -10 -11 -37 -25
-59 -14 -22 -25 -44 -25 -49 0 -5 -12 -24 -27 -41 -18 -22 -28 -46 -29 -74 -2
-22 -21 -96 -43 -162 -22 -67 -37 -131 -34 -142 6 -23 -31 -112 -46 -112 -13
0 -51 -72 -51 -97 -1 -10 -9 -36 -20 -58 -21 -43 -27 -137 -11 -177 5 -13 33
-50 61 -83 29 -33 61 -79 72 -103 27 -59 52 -196 40 -219 -12 -24 -5 -107 13
-158 16 -44 47 -68 195 -149 105 -58 126 -78 155 -142 18 -40 31 -54 61 -68
22 -9 47 -21 56 -26 10 -6 38 -10 63 -10 32 0 58 -8 88 -27 23 -15 60 -37 82
-50 40 -22 42 -29 26 -68 -18 -43 -31 -93 -31 -117 0 -14 -7 -42 -15 -61 -9
-22 -11 -38 -5 -42 6 -4 4 -15 -5 -29 -8 -12 -24 -56 -34 -97 -11 -41 -27 -92
-37 -114 -9 -22 -23 -82 -30 -133 -8 -51 -20 -107 -27 -125 -8 -18 -20 -45
-27 -62 -24 -58 -60 -171 -79 -250 -23 -95 -30 -115 -48 -136 -7 -9 -16 -40
-19 -69 -5 -56 -32 -120 -43 -103 -3 6 -12 12 -20 15 -18 5 -19 14 -26 169 -3
69 -9 146 -13 170 -4 24 -5 64 -2 87 4 28 3 45 -4 48 -7 3 -12 35 -12 82 -1
77 -6 122 -19 154 -4 10 -1 24 8 32 12 12 13 24 4 63 -6 26 -13 50 -16 53 -4
3 -6 43 -7 90 0 82 -9 159 -22 190 -9 23 -10 220 0 220 4 0 8 -9 8 -20 0 -11
7 -20 15 -20 8 0 15 -4 15 -10 0 -5 -7 -10 -15 -10 -18 0 -18 -1 -5 -35 6 -15
15 -23 21 -19 8 4 9 -3 4 -25 -7 -33 4 -41 25 -16 7 8 18 15 26 15 7 0 20 7
29 16 13 13 21 14 43 5 15 -6 45 -9 67 -8 22 2 57 -2 79 -10 21 -7 39 -13 40
-13 2 0 9 23 16 51 8 27 18 52 22 55 4 3 8 14 8 24 0 10 8 23 17 28 14 8 11
12 -18 27 -19 10 -41 23 -49 30 -8 7 -44 16 -80 19 -47 5 -78 16 -112 38 -27
16 -48 34 -48 39 0 13 -78 89 -90 89 -6 0 -10 -7 -10 -14 0 -8 -11 -36 -25
-62 -14 -26 -25 -57 -25 -68 0 -12 -4 -26 -9 -32 -4 -5 -14 -31 -20 -59 -13
-51 -25 -85 -44 -120 -34 -65 -36 -69 -26 -76 6 -3 4 -11 -6 -19 -8 -7 -15
-19 -15 -27 0 -7 -7 -16 -15 -19 -8 -4 -15 -13 -15 -21 0 -9 -11 -41 -24 -72
-13 -31 -29 -82 -36 -114 -7 -33 -20 -66 -31 -75 -10 -9 -19 -23 -19 -31 0
-13 27 -12 100 5 14 3 37 5 53 5 15 0 27 5 27 10 0 6 8 8 18 5 10 -4 27 2 38
11 29 27 59 23 61 -7 1 -14 0 -19 -4 -11 -4 9 -10 4 -19 -18 -10 -23 -20 -31
-38 -31 -13 0 -46 -9 -72 -21 -28 -11 -65 -19 -86 -18 -20 2 -40 0 -44 -4 -4
-4 -18 -7 -31 -7 -33 0 -39 -24 -14 -56 12 -15 21 -32 21 -40 0 -7 11 -25 24
-41 14 -16 28 -41 31 -56 4 -15 13 -27 20 -27 7 0 15 -13 18 -29 3 -15 18 -43
33 -61 15 -18 28 -43 29 -57 0 -14 10 -33 22 -43 12 -9 25 -29 28 -42 4 -14
20 -40 36 -57 16 -18 29 -36 29 -42 0 -5 7 -9 15 -9 8 0 15 -8 15 -18 0 -10 6
-26 14 -37 7 -11 17 -31 21 -43 6 -22 5 -23 -17 -17 -31 10 -35 15 -19 24 10
7 4 13 -23 26 -38 18 -45 29 -23 39 6 3 2 3 -10 0 -14 -3 -23 -1 -23 6 0 6 -4
8 -10 5 -5 -3 -10 -1 -10 4 0 6 6 11 12 11 7 0 3 7 -9 15 -11 8 -24 26 -27 40
-4 14 -11 25 -17 25 -6 0 -7 4 -4 10 3 5 1 10 -4 10 -6 0 -11 6 -11 13 0 7 -9
19 -21 27 -11 8 -27 30 -34 48 -8 17 -19 32 -24 32 -6 0 -11 6 -11 14 0 7 -7
19 -15 26 -8 7 -15 21 -15 31 0 9 -6 24 -12 31 -7 7 -15 22 -16 33 -5 29 -45
98 -59 102 -7 3 -19 -18 -29 -54 -16 -56 -35 -94 -61 -121 -7 -7 -13 -25 -13
-39 0 -14 -6 -37 -14 -51 -7 -15 -20 -40 -27 -57 -8 -16 -16 -32 -19 -35 -9
-9 -30 -76 -30 -98 0 -11 -5 -24 -10 -27 -6 -3 -10 -14 -10 -24 0 -10 -9 -26
-20 -36 -11 -10 -20 -23 -20 -28 0 -13 78 -87 90 -87 5 0 18 -10 30 -22 31
-34 47 -31 46 8 -1 19 -4 34 -8 34 -4 0 -5 16 -3 34 3 19 0 38 -6 41 -7 5 -6
11 1 20 8 10 8 19 1 34 -6 11 -8 26 -5 34 3 8 -3 32 -13 54 -22 47 -19 106 5
101 9 -3 16 -10 14 -17 -1 -7 10 -24 25 -38 20 -18 24 -26 14 -30 -8 -3 -9 -8
-3 -12 5 -3 11 -24 13 -46 1 -22 7 -46 13 -54 9 -11 15 -99 17 -234 0 -10 7
-21 15 -24 8 -3 14 -12 14 -20 0 -8 16 -20 34 -28 19 -8 39 -21 43 -29 4 -8
31 -25 58 -38 48 -23 115 -75 115 -89 0 -4 -9 -9 -21 -12 -15 -4 -19 -2 -15 9
5 13 -23 20 -63 15 -7 -2 -10 2 -6 8 3 6 0 9 -8 5 -8 -3 -17 2 -20 10 -4 9
-13 16 -20 16 -8 0 -21 8 -31 18 -9 11 -41 31 -71 47 -30 15 -55 31 -55 36 0
5 -9 9 -20 9 -11 0 -20 4 -20 9 0 5 -9 12 -19 16 -11 3 -23 15 -26 26 -4 10
-11 19 -16 19 -5 0 -23 16 -40 35 -17 19 -43 41 -57 47 -24 12 -29 10 -54 -16
-18 -18 -26 -36 -23 -47 7 -22 -17 -82 -50 -125 -15 -20 -25 -46 -25 -67 0
-19 -9 -46 -20 -60 -11 -14 -23 -40 -26 -59 -5 -29 -18 -63 -59 -148 -7 -14
-15 -39 -18 -56 -6 -31 -5 -32 56 -54 80 -29 79 -28 97 -40 24 -15 127 -59
157 -66 16 -4 63 -24 106 -46 42 -21 102 -47 131 -59 54 -20 106 -59 106 -79
0 -15 -21 -12 -64 10 -22 10 -43 17 -48 14 -5 -3 -20 1 -33 10 -35 23 -335
147 -370 153 -16 3 -36 10 -43 16 -8 6 -22 12 -31 14 -10 1 -37 11 -62 22 -45
21 -58 18 -64 -15 -2 -11 -4 -20 -4 -21 -1 -2 -1 -6 -2 -10 -1 -5 -10 -21 -21
-36 -11 -15 -18 -34 -15 -41 3 -8 -3 -22 -14 -32 -10 -9 -19 -25 -19 -35 0
-10 -4 -20 -9 -23 -5 -3 -12 -21 -15 -39 -3 -18 -15 -40 -26 -50 -11 -9 -21
-27 -22 -39 0 -13 -2 -28 -2 -33 -1 -6 -11 -24 -24 -42 -12 -17 -27 -54 -33
-82 -6 -28 -14 -51 -19 -51 -4 0 -6 -9 -3 -20 3 -11 -4 -30 -16 -46 -12 -15
-21 -33 -21 -40 0 -8 -4 -14 -10 -14 -5 0 -10 -10 -10 -22 0 -26 -14 -14 -25
21 -6 20 -4 23 10 17 15 -5 17 -2 12 23 -4 17 -2 33 3 36 5 3 7 12 3 20 -3 10
1 15 13 15 16 1 15 3 -5 14 -24 13 -24 14 -4 24 15 8 23 8 32 -1 7 -7 5 2 -3
18 -15 28 -15 31 2 45 10 9 17 21 14 28 -2 7 3 21 12 31 9 10 14 25 10 35 -3
9 -1 16 4 16 6 0 14 17 17 38 3 20 12 51 19 67 19 41 28 67 33 89 2 10 12 31
23 46 11 16 20 33 20 39 0 11 9 24 40 59 8 9 15 22 15 27 2 44 59 166 99 215
7 8 19 38 26 65 7 28 28 83 47 124 18 40 33 82 33 91 0 10 11 41 25 68 14 28
25 57 25 66 0 9 5 16 10 16 6 0 10 11 10 24 0 28 135 326 152 337 7 5 11 26 9
51 -2 36 9 67 62 180 36 75 68 150 72 167 4 17 11 33 16 36 5 4 9 14 9 24 0
10 13 45 30 77 16 32 30 64 30 69 0 6 8 27 19 47 10 21 24 59 30 85 7 26 19
59 28 72 8 13 17 33 18 45 9 51 25 101 34 104 6 2 11 12 11 21 0 10 9 26 20
36 20 18 46 69 70 135 6 19 25 71 41 115 45 121 32 151 -36 87 -69 -64 -229
-182 -248 -182 -10 0 -17 -6 -15 -12 5 -27 -14 -54 -60 -85 -68 -47 -139 -104
-202 -162 -30 -28 -59 -51 -64 -51 -5 0 -19 -10 -31 -22 -47 -48 -110 -105
-120 -109 -5 -2 -23 -21 -39 -42 -15 -21 -30 -36 -33 -33 -3 3 -12 -1 -20 -9
-8 -8 -22 -15 -32 -15 -19 0 -73 -44 -155 -125 -28 -27 -63 -58 -78 -68 -16
-9 -28 -25 -28 -35 0 -9 -19 -28 -41 -42 -23 -14 -49 -32 -59 -40 -10 -8 -42
-33 -71 -55 -29 -22 -69 -55 -89 -72 -21 -18 -40 -33 -43 -33 -9 0 -127 -122
-127 -131 0 -5 -5 -9 -10 -9 -6 0 -32 -20 -58 -43 -26 -24 -62 -52 -80 -63
-17 -10 -34 -26 -37 -35 -8 -23 -99 -104 -184 -164 -39 -27 -92 -71 -118 -97
-26 -26 -54 -48 -62 -48 -17 0 -61 -39 -61 -54 0 -6 -14 -19 -30 -28 -29 -16
-30 -16 -30 2 0 11 6 20 13 20 18 0 50 36 43 48 -3 5 10 22 29 36 19 15 35 22
35 17 0 -23 30 -10 45 19 9 16 22 30 29 30 8 0 23 17 33 38 10 23 39 53 70 76
29 20 53 42 53 49 1 7 10 23 20 36 16 19 23 21 34 11 11 -8 20 -9 35 0 25 13
27 28 6 36 -8 4 -15 9 -15 13 0 10 70 54 77 48 3 -4 12 1 19 11 16 20 18 36 4
27 -5 -3 -10 -2 -10 2 0 14 22 33 38 33 14 0 13 -18 -4 -67 -6 -17 -6 -17 11
-2 9 9 20 32 24 50 5 22 12 33 22 32 8 -2 20 10 26 28 7 17 21 33 32 36 12 3
21 9 21 14 0 5 5 9 11 9 14 0 39 25 39 39 0 6 5 11 10 11 6 0 10 -4 10 -10 0
-5 7 -10 15 -10 8 0 15 9 15 19 0 11 18 37 41 58 l41 39 -36 45 c-20 24 -41
55 -48 67 -7 13 -29 41 -50 63 -21 21 -40 50 -44 64 -3 14 -11 25 -18 25 -6 0
-22 19 -36 41 -33 55 -55 79 -70 79 -8 0 -10 8 -7 21 4 15 -3 30 -22 50 -16
15 -31 26 -34 22 -3 -3 -13 11 -21 32 -15 34 -97 125 -114 125 -5 0 -14 16
-21 35 -7 19 -17 35 -22 35 -5 0 -9 9 -9 21 0 11 -4 17 -10 14 -5 -3 -10 0
-10 8 0 10 8 13 25 9 16 -3 24 -10 23 -21 -2 -10 5 -17 20 -19 12 -2 22 -10
22 -18 0 -8 7 -14 15 -14 10 0 12 -6 8 -17 -6 -16 -5 -16 10 -4 16 12 22 8 18
-13 -1 -5 5 -6 14 -3 8 4 15 2 15 -3 0 -6 -8 -10 -17 -10 -13 0 -9 -6 12 -18
17 -10 36 -31 44 -45 8 -15 18 -27 23 -27 5 0 6 -4 3 -10 -3 -5 1 -10 9 -10 9
0 16 -5 16 -11 0 -7 16 -25 35 -42 19 -16 35 -36 35 -43 0 -8 11 -19 25 -26
13 -6 22 -14 20 -18 -2 -4 7 -18 20 -30 14 -13 25 -29 25 -37 0 -7 8 -21 18
-31 9 -9 25 -30 35 -45 9 -15 22 -27 28 -27 6 0 8 4 5 9 -3 4 7 8 22 8 15 0
35 3 45 7 13 6 17 4 17 -12 0 -14 10 -24 35 -32 32 -11 35 -15 35 -51 0 -27 4
-39 14 -39 9 0 12 -7 9 -20 -9 -33 4 -23 36 30 23 38 39 52 61 57 17 3 30 12
30 19 0 8 4 14 8 14 5 0 14 11 22 24 7 14 26 30 42 37 15 6 32 17 36 24 18 32
98 108 146 139 22 14 26 20 15 27 -10 6 -11 9 -1 10 31 4 60 18 86 43 12 12
31 28 42 38 10 9 32 32 48 52 15 20 32 36 37 36 17 0 69 43 69 57 0 7 6 13 13
13 7 0 38 24 69 53 30 29 69 59 86 66 17 7 38 24 47 37 9 14 20 22 24 19 5 -2
16 6 25 20 9 14 22 25 29 25 7 0 30 20 51 45 21 24 48 47 59 51 11 4 36 22 55
40 19 19 45 34 57 34 17 0 23 6 23 25 0 14 -4 25 -8 25 -4 0 -31 21 -59 46
-57 52 -81 110 -81 201 0 53 0 53 -31 53 -17 0 -72 -15 -123 -34 -50 -19 -113
-40 -141 -47 -27 -6 -57 -17 -65 -24 -8 -7 -28 -15 -45 -18 -54 -10 -130 -32
-150 -44 -21 -12 -261 -80 -329 -93 -22 -4 -45 -6 -52 -3 -8 3 -24 -7 -36 -22
-23 -26 -113 -57 -293 -100 -60 -14 -134 -38 -190 -61 -16 -7 -48 -15 -70 -19
-22 -4 -85 -23 -140 -42 -55 -19 -118 -40 -140 -46 -22 -6 -68 -24 -103 -40
-35 -16 -70 -26 -77 -23 -8 3 -17 1 -19 -3 -3 -5 -39 -11 -79 -15 -41 -4 -91
-15 -113 -26 -21 -11 -46 -20 -55 -20 -10 0 -59 -16 -111 -36 -51 -19 -104
-37 -118 -39 -14 -1 -28 -3 -32 -4 -4 0 -15 -9 -25 -20 -10 -10 -29 -21 -43
-24 -66 -16 -148 -37 -180 -46 -19 -5 -78 -21 -130 -34 -52 -14 -115 -33 -140
-42 -25 -9 -52 -17 -60 -19 -36 -6 -78 -20 -120 -41 -25 -12 -59 -26 -77 -29
-17 -4 -34 -14 -37 -22 -3 -9 -10 -13 -16 -9 -12 7 -78 -9 -140 -34 -25 -11
-65 -22 -90 -26 -25 -4 -76 -22 -115 -40 -83 -38 -138 -56 -265 -85 -93 -21
-155 -40 -276 -85 -34 -13 -82 -24 -105 -26 -24 -1 -62 -12 -84 -24 -51 -28
-116 -40 -108 -19 3 8 19 14 39 14 22 0 44 9 66 28 18 16 47 32 63 36 17 4 38
9 47 12 13 4 16 1 12 -10 -8 -22 7 -20 68 8 29 14 66 28 82 31 16 3 42 19 58
36 16 16 36 29 45 29 36 0 160 35 178 50 11 9 40 25 64 34 38 15 43 15 38 1
-5 -12 2 -15 33 -15 32 0 40 4 40 18 0 10 -5 23 -12 30 -9 9 -7 12 12 12 14 0
43 7 65 14 26 9 42 11 46 4 4 -6 18 -4 37 6 34 18 57 44 28 33 -9 -4 -15 -3
-11 2 7 12 64 25 72 17 4 -3 -11 -22 -33 -41 -30 -26 -35 -34 -20 -35 10 0 36
18 59 40 28 29 45 39 59 34 12 -3 29 4 49 20 33 28 72 42 88 32 5 -4 13 -1 16
5 4 5 13 8 21 5 7 -3 16 -1 19 4 4 6 17 10 30 10 12 0 25 7 29 15 8 22 26 18
26 -5 0 -26 12 -25 39 4 20 21 101 52 231 87 25 7 58 19 75 27 20 10 30 11 33
3 6 -18 19 -13 80 26 46 29 68 37 111 38 31 1 57 7 59 13 2 7 10 12 18 12 8 0
25 6 37 14 12 8 49 20 82 26 33 7 65 16 70 20 14 11 167 70 183 70 7 0 20 4
30 9 9 5 35 13 57 18 22 5 39 14 38 20 -2 7 9 12 25 12 67 1 161 27 262 73 35
17 80 31 100 32 19 1 41 6 48 10 7 4 25 9 40 11 14 1 28 8 30 14 2 6 11 11 20
11 24 0 161 44 199 64 18 9 52 17 75 17 24 1 60 10 80 20 22 11 39 15 43 9 3
-6 21 -1 43 10 20 11 49 20 64 20 15 0 30 5 33 10 3 6 13 10 22 10 9 0 37 10
61 21 24 12 65 24 90 27 26 3 53 11 60 19 7 7 28 14 45 15 18 1 46 3 62 4 17
1 36 3 43 3 6 1 12 7 12 14 0 16 75 37 132 37 29 0 54 8 80 26 22 15 54 28 75
29 21 1 57 12 80 23 23 12 50 22 59 22 36 0 85 24 79 39 -3 8 -10 34 -16 59
-12 57 -34 98 -74 144 -18 20 -42 56 -53 81 -24 54 -52 73 -81 56 -15 -10 -37
-9 -107 4 -49 10 -113 19 -142 22 -30 3 -58 7 -62 10 -9 6 -117 15 -195 17
-32 1 -59 8 -76 20 -20 15 -48 21 -110 24 -46 3 -96 9 -110 14 -16 5 -31 4
-36 -1 -6 -6 -26 -4 -54 5 -24 8 -69 19 -99 25 -30 6 -77 16 -105 22 -27 6
-77 12 -110 15 -81 5 -157 18 -174 28 -8 5 -40 8 -71 7 -37 -1 -73 5 -101 17
-45 19 -73 26 -167 42 -29 5 -60 16 -69 25 -10 10 -25 14 -39 11 -12 -3 -32
-2 -44 2 -19 7 -20 10 -7 21 10 8 17 9 22 1 8 -13 42 -13 47 1 5 15 59 -7 56
-23 -2 -8 7 -13 22 -14 14 0 35 -4 47 -8 12 -4 31 -2 42 3 14 8 31 6 65 -5 28
-10 51 -13 59 -7 22 16 52 9 52 -12 0 -11 8 -21 18 -23 12 -2 17 3 17 18 0 16
4 20 16 16 9 -3 25 -6 35 -6 11 0 17 -4 14 -10 -3 -6 5 -10 19 -10 13 0 26 6
29 13 3 9 7 9 17 0 10 -10 8 -14 -13 -24 -15 -7 -27 -16 -27 -21 0 -14 22 -9
42 9 15 13 21 14 27 5 6 -10 13 -10 34 -1 20 9 30 9 40 1 7 -6 28 -12 45 -14
18 -1 32 -8 32 -15 0 -15 16 -17 25 -3 3 6 1 10 -6 10 -7 0 -9 3 -6 6 4 4 12
2 19 -3 13 -11 75 -23 138 -28 19 -2 34 -8 33 -14 -3 -13 22 -13 52 -2 20 8
65 -6 65 -20 0 -4 14 -4 31 1 18 5 37 6 43 3 6 -4 42 -8 81 -10 118 -5 149 -8
165 -18 8 -5 35 -12 60 -16 51 -8 54 -6 130 99 25 34 51 62 58 62 6 0 12 9 12
19 0 10 6 21 14 24 7 3 16 17 20 32 4 15 16 36 27 48 17 19 21 20 29 7 12 -19
13 -33 1 -25 -6 3 -6 -7 0 -27 8 -28 6 -36 -16 -55 -13 -13 -32 -40 -41 -60
-16 -36 -68 -93 -84 -93 -13 0 -19 -40 -7 -41 7 -1 26 -3 42 -5 17 -2 55 -5
85 -7 30 -2 65 -9 78 -16 12 -6 27 -9 32 -6 6 3 15 3 21 -1 7 -4 27 -8 45 -9
32 -2 34 0 34 29 0 17 7 41 15 53 8 12 13 27 10 35 -3 7 15 54 40 103 50 100
53 110 28 112 -96 5 -113 7 -113 15 0 5 -5 6 -12 2 -18 -11 -98 -16 -98 -5 0
21 13 41 26 41 8 0 14 4 14 10 0 5 15 9 33 9 17 0 43 2 56 5 14 3 38 -1 53 -9
16 -8 35 -12 43 -9 7 3 16 1 20 -5 3 -6 10 -11 14 -11 13 0 43 110 36 138 -3
16 3 51 15 84 11 32 20 66 20 76 0 16 -49 62 -66 62 -4 0 -16 10 -28 23 -35
36 -256 231 -312 275 -28 22 -62 54 -75 72 -34 45 -97 106 -146 142 -23 17
-54 48 -68 69 -28 39 -87 74 -110 65 -8 -3 -42 10 -76 29 -33 19 -66 35 -73
35 -7 0 -17 5 -22 10 -6 6 -21 13 -35 15 -28 5 -102 36 -109 46 -3 4 -21 10
-40 14 -19 4 -50 21 -69 38 -19 16 -50 36 -68 44 -19 7 -36 20 -40 28 -3 8
-13 15 -23 15 -22 0 -34 15 -24 31 5 8 10 6 16 -5 8 -14 13 -15 24 -5 19 16
50 -7 34 -26 -8 -10 -2 -14 25 -19 19 -4 39 -5 44 -2 5 3 16 -3 26 -14 13 -14
25 -18 43 -13 22 5 24 3 19 -16 -6 -25 10 -40 19 -17 8 21 31 20 43 -1 7 -14
12 -15 24 -5 12 10 16 8 21 -13 5 -19 12 -25 24 -21 20 6 66 -29 58 -43 -4 -6
7 -8 28 -4 19 3 36 1 40 -6 4 -6 18 -11 31 -11 27 0 41 -15 23 -24 -7 -3 1 -3
19 0 17 3 34 1 37 -4 3 -6 34 -13 68 -17 74 -8 130 -25 141 -42 4 -7 26 -16
48 -19 23 -4 43 -13 46 -20 2 -7 17 -18 31 -24 59 -24 128 -81 114 -94 -3 -3
2 -6 11 -6 9 0 17 -5 17 -10 0 -6 11 -15 25 -20 14 -5 25 -16 25 -24 0 -7 7
-16 15 -20 8 -3 15 -14 15 -25 0 -14 5 -19 15 -15 11 5 17 -3 21 -25 5 -22 11
-30 21 -27 8 3 17 -2 20 -12 7 -18 24 -38 84 -100 20 -20 40 -48 44 -61 4 -12
18 -39 31 -58 13 -20 24 -40 24 -44 0 -5 5 -9 11 -9 5 0 7 5 4 10 -9 14 103
225 155 294 60 79 94 97 187 101 43 2 79 8 81 14 2 6 9 11 16 11 7 0 17 5 24
12 16 16 -4 51 -26 44 -12 -4 -45 21 -102 76 -47 44 -103 92 -125 105 -22 14
-60 46 -85 72 -25 26 -57 55 -72 64 -15 9 -35 32 -44 50 -9 17 -34 55 -55 84
-22 29 -39 61 -39 72 0 11 -9 25 -20 31 -11 6 -20 17 -20 25 0 22 18 18 25 -6
4 -12 12 -18 21 -15 18 7 37 -27 23 -41 -14 -14 32 -63 59 -63 13 0 22 -9 26
-25 4 -14 14 -29 24 -32 31 -11 43 -25 33 -37 -6 -6 -6 -17 -2 -24 6 -10 11
-9 21 3 12 14 15 14 31 -1 10 -9 15 -22 12 -30 -3 -8 1 -14 11 -14 9 0 16 5
16 12 0 9 3 9 11 1 16 -16 2 -33 -27 -33 -14 0 -23 -4 -20 -9 3 -4 17 -6 31
-3 15 2 25 0 25 -7 0 -6 7 -11 16 -11 25 0 73 -57 60 -71 -8 -8 -7 -10 4 -7
19 6 59 -13 84 -41 11 -12 25 -21 33 -21 16 0 17 -17 1 -23 -7 -3 1 -6 17 -6
41 -1 51 8 59 52 6 30 4 37 -5 31 -7 -4 -6 2 3 15 12 17 13 31 6 64 -5 23 -10
54 -12 68 -1 14 -19 47 -39 74 -20 26 -37 54 -37 61 0 8 -4 14 -10 14 -5 0
-10 7 -10 15 0 8 -4 15 -8 15 -5 0 -15 11 -22 25 -7 14 -20 25 -27 25 -7 0
-17 8 -20 17 -4 9 -15 25 -26 36 -10 10 -16 25 -13 33 4 10 0 14 -12 12 -11
-2 -22 8 -32 29 -8 18 -24 33 -35 35 -11 2 -19 9 -18 16 2 6 -1 12 -7 12 -5 0
-24 12 -42 28 -18 15 -46 34 -61 42 -16 8 -40 24 -53 37 -13 12 -60 50 -104
83 -52 40 -80 68 -80 80 0 32 19 25 124 -45 33 -22 74 -49 92 -60 28 -17 49
-36 119 -104 32 -32 95 -82 95 -76 0 3 16 -11 36 -32 64 -68 104 -120 104
-137 0 -10 8 -16 23 -16 13 0 28 -11 38 -28 9 -15 33 -53 53 -86 20 -32 36
-61 36 -63 0 -8 72 -127 80 -133 4 -3 22 -33 41 -68 18 -34 40 -70 49 -80 9
-9 25 -32 36 -51 17 -30 191 -157 201 -147 6 6 -40 96 -49 96 -7 0 -51 88 -57
115 -1 6 -9 17 -16 25 -22 25 -135 263 -135 286 0 12 -11 26 -26 34 -18 10
-41 46 -74 117 -27 57 -52 113 -55 124 -4 12 -18 37 -32 58 -13 20 -50 86 -80
146 -89 177 -109 212 -142 254 -17 21 -31 46 -31 55 0 9 -5 16 -10 16 -6 0 -8
10 -5 23 3 12 -1 36 -9 52 -9 17 -16 36 -16 43 0 6 -4 12 -8 12 -5 0 -17 19
-28 43 -10 23 -26 53 -35 67 -9 14 -28 43 -42 65 -14 22 -29 52 -32 68 -4 15
-13 27 -21 27 -7 0 -21 17 -30 38 -9 20 -35 75 -57 122 -22 47 -51 110 -64
140 -14 30 -33 66 -42 80 -10 14 -16 31 -14 38 3 6 0 12 -6 12 -6 0 -17 15
-24 33 -8 17 -21 38 -30 46 -10 7 -17 20 -17 27 0 8 -8 22 -17 32 -21 21 -113
201 -113 219 0 6 -20 36 -45 67 -28 33 -67 105 -102 183 -31 70 -76 160 -99
198 -23 39 -45 87 -48 107 -4 21 -17 45 -30 55 -27 22 -52 83 -33 83 7 0 17
-15 22 -32 6 -18 21 -38 34 -45 14 -6 32 -27 42 -45 15 -28 15 -34 2 -43 -12
-9 -9 -17 16 -49 17 -21 31 -44 31 -50 0 -13 47 -66 58 -66 4 0 21 -32 37 -72
17 -39 37 -73 45 -75 8 -2 25 -22 38 -44 19 -32 20 -39 7 -39 -12 0 -14 -6 -9
-27 9 -37 12 -39 34 -25 26 16 30 15 30 -7 0 -10 7 -24 16 -32 9 -7 14 -22 11
-36 -3 -14 4 -30 19 -44 17 -16 24 -18 24 -8 0 22 20 -11 20 -34 0 -17 -2 -17
-35 3 -28 17 -35 19 -35 7 0 -9 18 -24 40 -34 28 -13 39 -23 36 -35 -2 -10 10
-29 29 -46 20 -19 35 -44 39 -66 4 -20 11 -36 16 -36 6 0 10 -9 10 -20 0 -11
7 -20 15 -20 20 0 19 -10 -2 -27 -15 -12 -16 -15 -4 -20 34 -14 58 -50 124
-190 5 -13 19 -32 30 -44 16 -17 17 -23 6 -30 -11 -6 -4 -18 28 -51 41 -41 68
-108 45 -108 -6 0 -13 6 -15 13 -3 7 -6 5 -6 -5 -1 -10 6 -18 13 -18 25 0 75
-62 92 -112 8 -27 21 -51 28 -55 7 -5 25 -29 40 -55 16 -27 32 -48 37 -48 5 0
9 -9 9 -19 0 -11 4 -22 9 -26 5 -3 12 -19 16 -35 4 -17 15 -35 26 -41 11 -5
17 -14 13 -20 -3 -5 0 -16 6 -24 6 -8 9 -18 6 -23 -3 -6 1 -15 9 -22 7 -6 22
-31 31 -56 9 -24 20 -44 24 -44 12 0 64 -84 63 -102 -1 -9 5 -22 13 -29 8 -6
14 -20 14 -30 0 -10 6 -22 13 -26 8 -4 26 -35 42 -68 15 -33 38 -75 51 -95 12
-19 26 -48 30 -65 4 -16 15 -41 25 -54 10 -13 16 -27 13 -32 -3 -5 6 -24 19
-41 14 -18 23 -38 20 -44 -2 -6 3 -17 12 -24 8 -7 15 -19 15 -27 0 -7 7 -16
15 -20 17 -6 45 -65 45 -94 0 -10 7 -22 17 -27 9 -6 21 -34 28 -68 7 -33 17
-58 24 -57 14 4 51 -69 51 -101 0 -14 15 -40 35 -62 23 -24 33 -43 30 -55 -6
-18 34 -55 45 -41 10 11 48 248 55 339 3 46 9 93 14 106 5 13 5 48 -1 82 -5
33 -7 101 -4 152 3 55 2 95 -4 98 -6 4 -8 23 -5 43 4 20 7 148 8 283 1 183 5
250 15 261 10 13 9 22 -9 52 -19 32 -20 45 -14 110 10 108 7 801 -4 871 -5 33
-5 66 -1 74 4 8 5 22 3 31 -3 10 1 28 8 41 9 17 11 71 9 194 -2 93 -3 203 -2
243 1 46 -2 72 -9 72 -7 0 -9 35 -6 110 4 100 -2 142 -16 106 -9 -23 -58 -6
-76 25 -9 16 -20 29 -25 29 -8 0 -70 50 -73 60 -9 30 -29 60 -39 60 -7 0 -11
10 -9 25 1 14 -1 25 -6 25 -4 0 -11 9 -14 20 -4 11 -18 34 -31 50 -14 16 -27
46 -29 66 -2 20 -7 40 -12 43 -14 10 -39 126 -32 152 3 13 2 32 -3 42 -5 10
-5 17 1 17 5 0 9 12 8 28 -3 75 4 113 23 132 12 12 18 24 16 29 -6 10 21 35
48 45 11 4 16 12 12 21 -3 9 6 23 24 37 17 12 30 31 30 43 0 11 4 25 8 30 10
11 28 108 38 200 3 33 12 75 20 94 8 18 14 42 14 52 0 10 14 48 32 84 29 58
56 84 81 77 4 -1 7 28 6 65 -1 38 2 96 6 130 5 37 4 68 -2 75 -5 7 -7 38 -4
68 2 30 6 47 8 38 3 -10 8 -18 13 -18z m4448 -5 c-6 -14 -13 -24 -14 -22 -6 6
9 47 17 47 5 0 3 -11 -3 -25z m-27 -78 c-13 -13 -15 1 -4 30 7 17 8 17 11 -1
2 -10 -1 -23 -7 -29z m-56 -69 c-11 -34 -26 -47 -21 -18 2 14 5 28 5 33 1 4 6
7 12 7 6 0 8 -9 4 -22z m-33 -85 c-9 -14 -10 -14 -16 5 -9 29 3 51 16 28 5
-10 5 -23 0 -33z m-62 -109 c0 -8 -5 -12 -10 -9 -6 4 -8 11 -5 16 9 14 15 11
15 -7z m24 -27 c-3 -9 -14 -19 -24 -22 -10 -3 -21 -12 -24 -20 -3 -8 -10 -15
-16 -15 -15 0 22 49 38 50 7 0 15 7 19 15 3 9 7 14 9 12 3 -2 2 -11 -2 -20z
m-4271 -204 l-10 -78 -1 100 c0 77 2 95 10 78 7 -15 7 -46 1 -100z m4168 63
c5 3 4 -6 -3 -21 -10 -22 -13 -24 -21 -10 -5 9 -6 24 -2 33 5 12 9 13 12 4 3
-6 9 -10 14 -6z m32 -1 c-3 -9 -8 -14 -10 -11 -3 3 -2 9 2 15 9 16 15 13 8 -4z
m-53 -80 c0 -14 -9 -29 -20 -35 -20 -11 -20 -10 -6 24 8 19 11 38 8 42 -4 4
-1 4 6 0 6 -4 12 -18 12 -31z m-47 -75 c-4 -14 0 -20 11 -20 20 0 20 1 -6 -57
l-21 -48 -7 45 c-5 31 -3 54 7 73 16 32 23 35 16 7z m-4080 -89 c3 -40 2 -49
-9 -41 -15 13 -29 -4 -20 -25 3 -8 1 -15 -4 -15 -6 0 -10 6 -10 14 0 8 -6 17
-12 19 -8 3 -6 6 5 6 14 1 17 12 17 74 1 68 2 70 15 46 8 -14 16 -49 18 -78z
m-53 -1 c0 -5 -2 -10 -4 -10 -3 0 -8 5 -11 10 -3 6 -1 10 4 10 6 0 11 -4 11
-10z m4084 -89 c-8 -9 -22 12 -17 26 6 15 7 14 13 -3 4 -10 6 -21 4 -23z
m-4079 -51 c-4 -6 -3 -19 1 -28 6 -13 9 -9 13 17 4 22 13 37 26 41 20 7 21 5
17 -59 -3 -36 -8 -67 -13 -69 -12 -5 -11 -25 2 -59 8 -22 12 -24 19 -13 8 12
10 9 9 -10 0 -14 -4 -33 -8 -44 -6 -17 -9 -16 -25 8 -9 15 -20 49 -23 76 -4
37 -10 50 -22 50 -13 0 -16 13 -18 65 -2 59 -1 64 13 50 8 -8 12 -20 9 -25z
m3957 -122 c-7 -7 -12 -8 -12 -2 0 14 12 26 19 19 2 -3 -1 -11 -7 -17z m3 -57
c-3 -6 -11 -11 -17 -11 -6 0 -6 6 2 15 14 17 26 13 15 -4z m-3890 -141 c3 -5
1 -10 -4 -10 -6 0 -11 5 -11 10 0 6 2 10 4 10 3 0 8 -4 11 -10z m3792 -72 c-3
-8 -6 -5 -6 6 -1 11 2 17 5 13 3 -3 4 -12 1 -19z m30 0 c-3 -8 -6 -5 -6 6 -1
11 2 17 5 13 3 -3 4 -12 1 -19z m-67 -62 c0 -9 -74 -131 -86 -144 -7 -7 -16
-29 -20 -50 -10 -63 -27 -102 -44 -102 -9 0 -21 -5 -28 -12 -9 -9 -12 -9 -12
0 0 18 34 82 85 162 24 37 53 86 64 109 12 23 26 41 31 41 6 0 10 -2 10 -4z
m-5755 -336 c3 -5 2 -10 -4 -10 -5 0 -13 5 -16 10 -3 6 -2 10 4 10 5 0 13 -4
16 -10z m60 -76 c9 -14 14 -28 11 -31 -2 -3 -10 4 -17 15 -7 11 -19 18 -26 15
-14 -5 -18 9 -6 20 11 12 20 8 38 -19z m5495 -2 c0 -19 -31 -69 -60 -95 -39
-37 -38 -19 2 49 29 47 58 71 58 46z m-150 -251 c0 -20 -6 -30 -20 -34 -11 -3
-22 -17 -25 -33 -12 -54 -37 -114 -48 -114 -6 0 -19 -8 -29 -17 -18 -16 -19
-16 -9 8 5 14 23 47 40 74 17 27 31 53 31 57 0 11 49 88 55 88 3 0 5 -13 5
-29z m-78 -53 c-7 -7 -12 -8 -12 -2 0 14 12 26 19 19 2 -3 -1 -11 -7 -17z
m-8174 -141 c11 -7 94 -79 185 -162 274 -251 438 -398 490 -440 28 -22 71 -61
96 -86 25 -26 51 -48 58 -50 16 -6 323 -291 323 -301 0 -5 9 -12 19 -16 24 -9
181 -150 181 -163 0 -20 -20 -6 -101 69 -46 43 -95 86 -108 95 -41 28 -371
318 -441 387 -103 103 -311 295 -325 300 -12 5 -279 250 -452 414 -46 44 -83
84 -83 90 0 6 31 -20 69 -58 37 -37 78 -73 89 -79z m8252 112 c-7 -11 -14 -19
-16 -16 -7 7 7 37 17 37 6 0 5 -9 -1 -21z m-140 -167 c0 -5 -9 -17 -20 -27
-23 -21 -26 -14 -8 15 13 20 28 27 28 12z m-40 -104 c0 -7 -5 -20 -10 -28 -8
-12 -10 -9 -10 13 0 15 5 27 10 27 6 0 10 -6 10 -12z m-40 -8 c0 -5 -5 -10
-11 -10 -5 0 -7 5 -4 10 3 6 8 10 11 10 2 0 4 -4 4 -10z m-35 -69 c-8 -16 -36
-58 -63 -93 -27 -35 -61 -85 -77 -111 -20 -35 -31 -45 -39 -37 -7 7 -7 15 -1
24 6 8 39 54 74 102 58 81 110 144 118 144 2 0 -3 -13 -12 -29z m-231 -318
c-14 -35 -58 -83 -76 -83 -13 0 -9 22 7 39 8 9 27 31 41 49 34 43 46 41 28 -5z
m-157 -210 c-13 -21 -46 -58 -73 -83 -27 -24 -56 -56 -65 -70 -44 -68 -192
-192 -302 -253 -26 -15 -63 -43 -83 -62 -19 -20 -53 -47 -75 -60 -21 -14 -39
-29 -39 -33 0 -14 -82 -102 -96 -102 -12 0 -57 -42 -182 -172 -29 -31 -51 -61
-49 -69 2 -8 2 -10 -1 -5 -2 5 -26 -13 -53 -40 -27 -27 -63 -63 -81 -79 -18
-17 -40 -38 -48 -47 -8 -9 -26 -28 -40 -41 -14 -13 -30 -32 -36 -42 -6 -12
-15 -16 -23 -11 -9 6 -10 11 -2 19 6 6 11 19 11 28 0 19 541 569 560 569 6 0
25 16 42 36 17 20 57 53 87 74 31 21 74 56 96 79 21 23 45 41 53 41 8 0 25 9
39 20 14 11 31 20 37 20 21 0 102 66 166 135 100 109 130 144 130 152 0 13 45
54 48 44 2 -5 -8 -27 -21 -48z m-6118 -577 c97 -81 126 -115 46 -55 -33 25
-77 58 -97 73 -34 24 -49 46 -32 46 3 0 41 -29 83 -64z m261 -232 c0 -12 -65
27 -99 59 -72 67 -46 73 29 6 39 -34 70 -64 70 -65z m5070 52 c0 -3 -4 -8 -10
-11 -5 -3 -10 -1 -10 4 0 6 5 11 10 11 6 0 10 -2 10 -4z m-4946 -159 c14 -8
74 -60 133 -117 l108 -104 -75 52 c-81 55 -120 88 -170 146 -35 40 -35 42 4
23z m538 -478 c213 -197 338 -316 338 -324 0 -7 -72 44 -100 70 -45 42 -97 85
-105 85 -13 0 -117 100 -151 144 -18 24 -49 51 -69 60 -20 10 -46 33 -57 52
-11 19 -24 34 -29 34 -10 0 -79 70 -79 81 0 23 58 -23 252 -202z m3907 169
c-7 -13 -15 -25 -19 -28 -4 -3 -19 -27 -35 -53 -15 -27 -47 -65 -71 -85 -24
-20 -44 -44 -44 -54 0 -11 -11 -23 -25 -28 -14 -5 -25 -16 -25 -24 0 -7 -9
-16 -19 -19 -23 -6 -81 -83 -81 -106 0 -20 -77 -98 -86 -88 -9 9 32 69 90 132
25 28 52 64 60 80 23 47 240 295 258 295 5 0 3 -10 -3 -22z m-2759 -96 c0 -4
-9 -8 -19 -8 -11 0 -17 4 -15 8 3 4 12 8 20 8 8 0 14 -4 14 -8z m-1323 -178
c-3 -3 -12 -4 -19 -1 -8 3 -5 6 6 6 11 1 17 -2 13 -5z m3636 -276 c-8 -24 -30
-57 -49 -75 -35 -33 -79 -118 -68 -134 6 -11 -7 -12 -23 -1 -10 6 -8 17 8 47
18 33 139 205 145 205 1 0 -5 -19 -13 -42z m6180 -384 c28 -5 37 -11 35 -23
-3 -12 -17 -16 -66 -18 -34 -1 -62 2 -62 7 0 4 -3 15 -6 23 -6 16 19 27 46 21
8 -1 32 -6 53 -10z m186 -54 c70 -9 101 -22 101 -41 0 -5 -9 -9 -20 -9 -11 0
-20 4 -20 8 0 5 -33 8 -72 7 -40 -1 -79 0 -85 3 -24 8 -12 38 17 41 3 0 38 -4
79 -9z m311 -50 c-28 -22 -44 -21 -48 3 -3 14 4 17 35 17 l38 0 -25 -20z
m-11100 -649 c0 -5 -9 -11 -20 -14 -13 -3 -20 0 -20 9 0 8 9 14 20 14 11 0 20
-4 20 -9z m3576 -883 c-6 -43 -19 -478 -17 -573 3 -101 -18 -357 -30 -371 -9
-11 -8 -22 6 -50 15 -32 15 -51 5 -192 -14 -208 -20 -377 -22 -667 -1 -185 -4
-246 -15 -268 -11 -21 -14 -85 -16 -268 -1 -133 2 -243 6 -246 5 -3 6 -19 3
-37 -22 -115 -43 -760 -26 -771 4 -3 4 -21 0 -42 -5 -20 -9 -89 -9 -154 l1
-118 29 -6 c16 -4 29 -13 29 -21 0 -7 14 -20 30 -29 34 -18 36 -22 14 -53 -9
-13 -11 -22 -4 -22 6 0 8 -5 5 -10 -4 -6 -2 -16 3 -23 24 -31 22 -67 -4 -107
-19 -29 -24 -44 -17 -51 19 -19 -17 -49 -59 -49 -21 0 -38 -3 -39 -7 -1 -5 -5
-84 -10 -178 -4 -93 -11 -189 -14 -211 -4 -23 -3 -50 3 -60 5 -11 6 -44 2 -74
-4 -30 -8 -47 -9 -37 0 9 -5 17 -10 17 -5 0 -7 27 -4 60 4 41 2 60 -6 60 -7 0
-11 21 -11 55 0 41 4 55 14 55 21 0 27 29 16 75 -5 22 -6 58 -3 81 3 27 0 52
-9 71 -12 23 -13 45 -6 104 5 41 10 79 12 85 2 5 -2 21 -10 35 -7 13 -13 48
-14 78 0 44 2 52 14 42 16 -13 26 4 26 46 0 22 -4 25 -26 20 -19 -3 -24 -1
-20 10 3 8 6 39 6 69 0 34 4 53 10 49 11 -7 13 28 3 64 -6 23 -7 23 -14 5 -6
-14 -8 -10 -8 18 -1 53 15 55 38 6 18 -41 19 -42 20 -14 1 16 -8 44 -20 63
-17 27 -19 37 -9 48 9 11 9 25 -1 63 -8 35 -9 61 -3 88 6 22 9 60 8 86 -1 38
2 47 18 51 18 5 18 7 3 36 -13 25 -15 61 -13 200 2 130 6 167 16 164 16 -7 15
19 -2 84 -10 37 -11 63 -4 95 5 23 10 53 9 66 0 12 0 58 0 102 0 44 0 90 0
103 0 12 -2 99 -4 192 -2 94 0 188 4 210 18 91 7 325 -16 361 -7 11 -11 32 -8
47 3 15 1 27 -5 27 -13 0 -21 69 -9 77 5 3 5 8 -1 12 -14 9 -27 55 -13 47 8
-5 8 0 2 16 -15 41 -23 415 -11 533 6 61 13 142 16 180 10 154 21 211 38 194
3 -3 -1 -90 -9 -195 -15 -208 -21 -377 -17 -529 1 -87 6 -150 26 -365 3 -25 5
-49 5 -53 1 -5 5 -6 9 -3 5 3 9 92 10 199 1 106 4 209 8 228 4 19 7 53 6 76
-1 23 2 44 6 47 5 3 7 74 5 158 -1 94 2 166 9 188 7 22 7 35 1 37 -9 3 -3 42
24 151 3 13 1 22 -6 22 -16 0 -14 89 5 143 11 34 13 51 5 66 -14 25 -14 84 -1
97 7 7 8 25 1 55 -6 24 -7 63 -4 86 5 36 3 43 -11 43 -9 0 -16 5 -16 10 0 6 7
10 15 10 8 0 15 4 15 9 0 9 20 17 49 20 10 1 12 -9 7 -41z m655 -91 c-10 -9
-11 -8 -5 6 3 10 9 15 12 12 3 -3 0 -11 -7 -18z m-1075 -311 c3 -19 3 -39 0
-44 -9 -14 -35 -143 -52 -252 -8 -52 -22 -140 -30 -195 -9 -55 -17 -127 -19
-160 -5 -74 -8 -89 -22 -106 -19 -25 -27 -64 -38 -189 -3 -41 -11 -94 -17
-117 -8 -31 -7 -47 0 -56 8 -10 7 -26 -4 -62 -8 -28 -16 -59 -18 -70 -2 -11
-16 -80 -30 -153 -14 -72 -28 -169 -31 -215 -5 -103 -21 -215 -34 -249 -5 -15
-8 -50 -6 -79 4 -52 0 -76 -30 -204 -9 -38 -20 -109 -25 -157 -5 -50 -16 -98
-26 -113 -10 -15 -14 -34 -10 -49 3 -13 3 -38 0 -55 -5 -26 -9 -29 -21 -20
-10 9 -11 15 -3 23 13 13 13 63 0 68 -5 2 -7 19 -3 41 4 27 10 37 22 35 13 -3
16 10 18 79 1 46 -2 85 -7 88 -4 3 -1 29 7 58 16 56 16 60 7 125 -5 37 -4 42
14 42 18 0 32 18 32 41 0 5 -11 9 -24 9 -22 0 -23 2 -16 42 5 23 13 44 19 46
13 4 15 49 2 56 -5 4 -12 0 -14 -6 -4 -9 -6 -8 -6 3 -1 8 5 24 13 34 12 17 14
16 26 -19 8 -26 15 -35 22 -28 7 7 4 24 -10 51 -19 35 -19 41 -6 41 11 0 14 5
9 18 -15 40 -16 72 -3 91 8 11 13 38 12 59 -2 35 0 39 19 34 17 -4 19 -2 12
14 -17 41 -17 67 0 152 9 48 15 94 13 102 -2 8 3 14 9 13 9 -2 12 16 10 68 -2
57 1 74 14 82 13 8 14 18 7 50 -6 26 -5 51 3 74 6 19 12 76 14 126 2 51 9 105
16 121 10 21 11 30 2 33 -8 3 -6 14 5 36 19 36 20 41 25 154 2 45 9 89 16 97
7 8 10 20 6 25 -3 6 -1 19 5 30 5 11 6 22 1 25 -4 3 -2 29 5 58 8 29 14 71 14
93 0 22 7 53 16 70 8 16 13 39 10 51 -4 14 0 24 10 28 8 3 12 10 9 16 -10 16
4 30 30 30 20 0 25 -7 31 -34z m331 2 c-3 -8 -6 -5 -6 6 -1 11 2 17 5 13 3 -3
4 -12 1 -19z m-1037 -138 c0 -5 -2 -10 -4 -10 -3 0 -8 5 -11 10 -3 6 -1 10 4
10 6 0 11 -4 11 -10z m2475 -188 c-3 -3 -11 0 -18 7 -9 10 -8 11 6 5 10 -3 15
-9 12 -12z m35 -47 c14 -16 10 -18 -14 -9 -9 3 -16 10 -16 15 0 14 16 11 30
-6z m-5880 -15 c0 -5 -5 -10 -11 -10 -5 0 -7 5 -4 10 3 6 8 10 11 10 2 0 4 -4
4 -10z m6038 -57 c54 -40 58 -43 42 -43 -16 0 -101 69 -87 70 5 0 25 -12 45
-27z m234 -142 c48 -31 128 -82 178 -114 51 -32 90 -60 88 -63 -11 -10 -83 24
-80 38 1 8 -12 22 -30 31 -18 8 -77 37 -132 63 -61 29 -101 54 -103 65 -3 10
-20 24 -39 31 -19 7 -34 18 -34 25 0 17 34 0 152 -76z m114 -139 c-4 -3 -14 2
-24 12 -16 18 -16 18 6 6 13 -6 21 -14 18 -18z m-7406 14 c0 -2 -7 -7 -16 -10
-8 -3 -12 -2 -9 4 6 10 25 14 25 6z m-540 -191 c-7 -8 -22 -15 -34 -15 -17 0
-18 -2 -6 -10 13 -8 13 -10 -2 -10 -31 0 -29 19 4 34 43 19 53 19 38 1z m8538
-162 c-7 -8 -27 0 -75 30 -60 38 -163 128 -163 142 0 3 55 -32 123 -77 85 -58
121 -87 115 -95z m-8663 97 c-3 -5 -10 -10 -16 -10 -5 0 -9 5 -9 10 0 6 7 10
16 10 8 0 12 -4 9 -10z m8938 -235 c62 -41 123 -83 137 -95 22 -18 18 -17 -30
5 -30 14 -61 25 -69 25 -8 0 -29 11 -48 26 -18 14 -47 30 -63 36 -21 7 -30 17
-30 32 0 12 -5 27 -12 34 -29 29 11 7 115 -63z m-3426 -7 c-3 -8 -6 -5 -6 6
-1 11 2 17 5 13 3 -3 4 -12 1 -19z m3678 -168 c11 -9 53 -38 92 -64 40 -26 75
-51 78 -57 12 -18 -13 -9 -48 19 -19 15 -72 52 -116 82 -44 30 -81 59 -81 64
0 9 42 -15 75 -44z m-4073 -263 c-3 -14 -1 -18 6 -13 7 4 12 3 12 -2 0 -10
-30 -25 -36 -19 -2 2 -1 20 3 41 3 22 9 33 13 26 4 -7 5 -21 2 -33z m-12 -107
c0 -5 -4 -10 -10 -10 -5 0 -10 5 -10 10 0 6 5 10 10 10 6 0 10 -4 10 -10z
m-2470 -40 c-7 -4 -9 -13 -6 -19 4 -6 3 -11 -3 -11 -19 0 -21 19 -4 40 11 12
19 16 22 9 2 -6 -2 -15 -9 -19z m7216 -21 c19 -22 19 -22 -3 -10 -24 12 -39
31 -25 31 5 0 17 -10 28 -21z m568 -383 c21 -13 46 -21 55 -19 16 4 47 -34 36
-45 -9 -9 -40 14 -37 28 1 6 -2 9 -7 6 -10 -7 -87 30 -97 45 -9 15 9 10 50
-15z m261 -137 c5 -5 1 -9 -12 -9 -11 0 -27 7 -34 16 -12 15 -11 16 11 9 14
-4 29 -11 35 -16z m-2641 -92 c4 4 4 0 0 -10 -8 -21 -13 -21 -30 1 -20 25 -17
38 4 19 10 -10 22 -14 26 -10z m46 -57 c0 -5 -4 -10 -10 -10 -5 0 -10 5 -10
10 0 6 5 10 10 10 6 0 10 -4 10 -10z m-2749 -175 c5 4 9 1 9 -4 0 -6 -9 -11
-21 -11 -15 0 -19 4 -15 16 3 9 7 23 7 32 1 9 4 5 6 -11 2 -15 9 -25 14 -22z
m-1 -75 c0 -5 -2 -10 -4 -10 -3 0 -8 5 -11 10 -3 6 -1 10 4 10 6 0 11 -4 11
-10z m-1525 -20 c3 -5 1 -10 -4 -10 -6 0 -11 5 -11 10 0 6 2 10 4 10 3 0 8 -4
11 -10z m2192 -322 c-3 -8 -6 -5 -6 6 -1 11 2 17 5 13 3 -3 4 -12 1 -19z m0
-780 c-3 -8 -6 -5 -6 6 -1 11 2 17 5 13 3 -3 4 -12 1 -19z m1153 -284 c6 -14
14 -22 20 -19 5 3 10 2 10 -4 0 -14 -20 -25 -30 -15 -9 11 -22 64 -15 64 3 0
10 -12 15 -26z m50 -115 c0 -6 -4 -7 -10 -4 -5 3 -10 11 -10 16 0 6 5 7 10 4
6 -3 10 -11 10 -16z m-1200 -169 c0 -20 2 -22 10 -10 8 13 10 12 10 -2 0 -10
-4 -18 -10 -18 -5 0 -13 0 -16 0 -4 0 -8 19 -10 42 -3 31 -1 39 6 28 5 -8 10
-26 10 -40z m20 -121 c0 -5 -4 -9 -10 -9 -5 0 -10 7 -10 16 0 8 5 12 10 9 6
-3 10 -10 10 -16z"/>
<path d="M9341 15354 c-12 -15 -36 -57 -53 -93 -18 -36 -36 -69 -41 -72 -4 -3
-1 -12 8 -19 8 -7 15 -28 15 -49 0 -53 20 -164 31 -175 5 -6 9 -19 9 -30 1
-12 10 -37 20 -56 10 -19 25 -46 32 -60 7 -14 24 -35 38 -46 13 -12 25 -34 26
-50 1 -16 3 -32 3 -35 2 -11 67 -76 92 -92 26 -15 27 -15 27 6 0 12 5 56 10
97 5 41 8 102 6 135 -2 33 -6 112 -10 175 -4 63 -6 163 -5 223 1 59 0 107 -4
107 -3 0 -10 -12 -15 -26 -6 -14 -16 -23 -23 -20 -6 2 -30 10 -52 18 -45 14
-78 40 -81 64 -4 27 -11 26 -33 -2z"/>
<path d="M9581 15094 c0 -11 3 -14 6 -6 3 7 2 16 -1 19 -3 4 -6 -2 -5 -13z"/>
<path d="M9570 14991 c0 -5 5 -13 10 -16 6 -3 10 -2 10 4 0 5 -4 13 -10 16 -5
3 -10 2 -10 -4z"/>
<path d="M9590 14278 c0 -19 2 -20 10 -8 13 19 13 30 0 30 -5 0 -10 -10 -10
-22z"/>
<path d="M7350 11710 c-8 -5 -12 -11 -9 -14 3 -3 14 1 25 9 21 16 8 20 -16 5z"/>
<path d="M9030 11573 c0 -6 -7 -18 -15 -27 -14 -13 -22 -81 -16 -133 2 -21
135 -17 152 4 8 9 9 14 3 10 -13 -8 -27 19 -18 34 3 5 -2 9 -10 9 -9 0 -16 6
-16 14 0 17 -79 106 -80 89z"/>
<path d="M7876 11412 c205 -194 335 -314 380 -350 27 -21 70 -60 97 -87 56
-58 61 -49 9 20 -20 28 -50 70 -67 95 -40 61 -87 116 -97 113 -4 -2 -8 0 -8 5
0 16 -117 132 -133 132 -10 0 -20 6 -23 14 -3 8 -31 32 -62 53 -31 21 -59 41
-62 45 -3 3 -18 10 -33 13 -15 4 -30 11 -33 16 -3 5 -15 9 -27 9 -18 0 -6 -16
59 -78z"/>
<path d="M10466 11189 c5 -8 9 -20 10 -27 5 -28 16 -26 12 2 -1 16 -9 32 -17
34 -10 3 -11 0 -5 -9z"/>
<path d="M10055 9257 c-29 -17 -39 -29 -36 -43 2 -10 4 -44 6 -74 1 -30 5 -62
8 -70 15 -42 27 -92 38 -155 6 -38 15 -74 19 -80 4 -5 10 -35 14 -65 9 -66 11
-77 32 -158 14 -50 19 -60 30 -51 11 9 14 8 14 -1 0 -10 3 -10 15 0 8 7 15 10
15 6 0 -4 14 0 30 9 17 9 30 11 30 6 0 -13 52 -28 125 -36 35 -4 82 -19 114
-35 29 -16 59 -26 66 -24 13 5 9 54 -5 54 -4 0 -15 18 -25 40 -10 23 -23 44
-29 48 -25 15 -65 73 -60 86 3 7 -2 19 -11 26 -8 7 -15 19 -15 26 0 8 -4 14
-10 14 -5 0 -21 22 -35 50 -26 51 -48 58 -60 19 -4 -10 -11 -19 -16 -19 -5 0
-9 -6 -9 -14 0 -7 -7 -19 -15 -26 -8 -7 -12 -16 -9 -21 3 -5 -2 -9 -10 -9 -9
0 -16 -5 -16 -12 0 -6 -6 -19 -14 -27 -8 -9 -16 -25 -18 -36 -1 -11 -11 -29
-21 -40 -15 -17 -19 -18 -27 -5 -5 9 -6 16 0 18 5 2 4 16 -2 33 -9 26 -7 34
12 54 12 12 23 29 24 36 7 35 27 68 52 88 43 34 57 69 45 112 -6 21 -18 40
-27 43 -9 4 -14 13 -10 21 3 9 -3 24 -14 35 -11 11 -20 29 -20 40 0 11 -4 20
-8 20 -14 0 -70 84 -74 110 -4 34 -42 37 -93 7z"/>
<path d="M9121 8991 c-20 -78 -23 -111 -12 -111 6 0 11 9 11 20 0 11 4 20 10
20 5 0 7 7 4 15 -4 8 -1 21 5 29 6 7 9 20 6 28 -5 12 0 14 20 11 21 -4 24 -2
19 11 -4 10 -12 15 -19 12 -7 -2 -17 0 -22 5 -6 6 -14 -10 -22 -40z"/>
<path d="M11008 8993 c7 -3 16 -2 19 1 4 3 -2 6 -13 5 -11 0 -14 -3 -6 -6z"/>
<path d="M5860 8950 c0 -5 4 -10 9 -10 6 0 13 5 16 10 3 6 -1 10 -9 10 -9 0
-16 -4 -16 -10z"/>
<path d="M8740 8849 c0 -4 -10 -10 -22 -12 -20 -4 -19 -4 5 -6 28 -1 38 -25
15 -34 -8 -3 -6 -6 5 -6 19 -1 23 -16 7 -26 -6 -4 -8 -15 -5 -26 11 -34 11
-158 0 -151 -5 3 -4 -2 4 -11 8 -10 15 -37 16 -60 1 -23 7 -52 13 -64 7 -12 9
-29 6 -37 -3 -9 -1 -16 5 -16 8 0 8 -5 0 -19 -8 -11 -9 -26 -4 -37 5 -11 10
-30 11 -44 5 -47 5 -235 1 -270 -2 -19 -2 -39 1 -45 3 -5 7 -25 8 -45 1 -19 7
-46 13 -60 l11 -25 -5 27 c-4 19 0 30 11 36 11 6 15 16 11 26 -4 10 -12 14
-18 10 -6 -3 -3 6 7 22 14 20 15 29 6 32 -18 6 -14 22 6 22 16 1 16 2 0 13
-12 9 -14 17 -7 30 7 11 6 17 -1 17 -5 0 -10 5 -10 10 0 6 6 10 14 10 8 0 15
8 15 18 0 28 7 55 20 86 6 16 10 35 7 42 -3 9 1 11 12 7 15 -6 15 -4 4 10 -8
9 -10 22 -6 29 4 7 9 33 10 59 1 26 5 52 8 58 4 6 2 11 -5 11 -7 0 -5 6 6 13
14 11 17 22 12 45 -3 17 -2 32 3 34 4 2 10 19 12 38 2 19 12 52 21 73 9 21 16
41 16 45 -1 4 0 10 1 15 1 4 3 10 5 15 1 4 4 14 7 22 4 8 9 24 14 35 4 11 6
26 5 33 -1 6 3 12 9 12 6 0 8 5 5 11 -4 6 -13 8 -21 5 -7 -3 -16 -2 -18 3 -3
4 -23 7 -46 7 -22 -1 -40 4 -40 9 0 6 -33 10 -80 11 -44 0 -80 -3 -80 -7z"/>
<path d="M9081 8798 c-1 -9 -4 -23 -7 -32 -4 -11 -1 -16 10 -16 17 0 19 14 6
45 -7 16 -9 17 -9 3z"/>
<path d="M9061 8693 c1 -21 4 -49 8 -63 7 -25 8 -25 15 -3 6 20 -9 103 -19
103 -3 0 -5 -17 -4 -37z"/>
<path d="M8997 8448 c-2 -7 -2 -21 1 -32 5 -17 6 -16 18 5 7 13 13 27 14 32 0
12 -28 8 -33 -5z"/>
<path d="M7435 8410 c-3 -5 -2 -10 4 -10 5 0 13 5 16 10 3 6 2 10 -4 10 -5 0
-13 -4 -16 -10z"/>
<path d="M10420 6929 c0 -11 4 -18 10 -14 5 3 7 12 3 20 -7 21 -13 19 -13 -6z"/>
<path d="M9703 6999 c-1 -10 2 -19 8 -19 11 0 12 27 1 34 -4 2 -9 -4 -9 -15z"/>
<path d="M9190 8100 c0 -5 5 -10 10 -10 6 0 10 5 10 10 0 6 -4 10 -10 10 -5 0
-10 -4 -10 -10z"/>
</g>
</svg>
