<svg xmlns="http://www.w3.org/2000/svg" viewBox="0 0 60 60" class="u-svg-content"><path d="M7 39c-2.206 0-4 1.794-4 4s1.794 4 4 4 4-1.794 4-4-1.794-4-4-4zm0 6c-1.103 0-2-.897-2-2s.897-2 2-2 2 .897 2 2-.897 2-2 2zM56 38a1 1 0 00-1 1v4a1 1 0 102 0v-4a1 1 0 00-1-1zM56 45a1 1 0 00-1 1v1a1 1 0 102 0v-1a1 1 0 00-1-1zM36 6h-1a1 1 0 100 2h1a1 1 0 100-2zM51 6a1 1 0 100 2h1a1 1 0 100-2h-1zM55 6a1 1 0 100 2h1a1 1 0 100-2h-1zM40 6h-1a1 1 0 100 2h1a1 1 0 100-2zM47 6a1 1 0 100 2h1a1 1 0 100-2h-1zM44 6h-1a1 1 0 100 2h1a1 1 0 100-2zM32 6h-1a1 1 0 100 2h1a1 1 0 100-2z"/><path d="M59.899 29.483a4.378 4.378 0 00-.701-1.598.985.985 0 00.802-.96v-.993a1 1 0 10-2 0v.792c-.012-.008-.025-.013-.037-.021a4.512 4.512 0 00-.555-.302c-.058-.026-.114-.053-.173-.077-.044-.018-.085-.041-.129-.057-.036-.013-.072-.008-.108-.017a4.36 4.36 0 00-1.403-.25H28.855a.99.99 0 00-.856-.5.987.987 0 00-.847.5H4.405A4.41 4.41 0 000 30.405v25.189A4.41 4.41 0 004.405 60h51.189A4.41 4.41 0 0060 55.595v-25.69a.982.982 0 00-.101-.422zM28.5 28H52v30H14V28h14.5zM2 55.595v-25.19A2.408 2.408 0 014.405 28H12v30H4.405A2.408 2.408 0 012 55.595zm56 0A2.408 2.408 0 0155.595 58H54V28h1.595c.307 0 .597.063.867.168A2.401 2.401 0 0158 30.405v25.19zM58 22.95a1 1 0 102 0v-.993a1 1 0 10-2 0v.993zM58 15.002a1 1 0 102 0v-.993a1 1 0 10-2 0v.993zM46.703 2h.994a1 1 0 100-2h-.994a1 1 0 100 2zM54.652 2h.994c.552 0 .975-.447.975-1s-.473-1-1.025-1h-.943a1 1 0 00-.001 2zM50.678 2h.993a1 1 0 100-2h-.993a1 1 0 100 2zM57.82 3.492a1 1 0 001.851-.76 4.42 4.42 0 00-.654-1.102 1 1 0 10-1.554 1.26c.149.183.269.385.357.602zM59 12.028a1 1 0 001-1v-.994a1 1 0 10-2 0v.994a1 1 0 001 1zM58 18.977a1 1 0 102 0v-.993a1 1 0 10-2 0v.993zM59 5.061a1 1 0 00-1 1v.993a1 1 0 102 0v-.993a1 1 0 00-1-1zM28 12.576a1 1 0 001-1v-.993a1 1 0 10-2 0v.993a1 1 0 001 1zM28 16.551a1 1 0 001-1v-.994a1 1 0 10-2 0v.994a1 1 0 001 1zM28 24.499a1 1 0 001-1v-.993a1 1 0 10-2 0v.993a1 1 0 001 1zM42.729 2h.994a1 1 0 100-2h-.994a1 1 0 100 2zM28 8.602a1 1 0 001-1v-.994a1 1 0 10-2 0v.993a1 1 0 001 1.001zM28 20.525a1 1 0 001-1v-.994a1 1 0 10-2 0v.994a1 1 0 001 1zM38.755 2h.993a1 1 0 100-2h-.993a1 1 0 100 2zM34.78 2h.994a1 1 0 100-2h-.994a1 1 0 100 2zM27.862 4.608a1 1 0 001.2-.749c.053-.228.139-.445.255-.648a1 1 0 00-1.735-.996 4.406 4.406 0 00-.469 1.193 1.001 1.001 0 00.749 1.2zM30.809 2.052a.95.95 0 00.175-.016c.137-.023.278-.036.421-.036h.395a1 1 0 100-2h-.395c-.259 0-.518.022-.77.067a1 1 0 00.174 1.985zM4 22a1 1 0 001-1c0-6.065 4.935-11 11-11h2.586l-4.293 4.293a.999.999 0 101.414 1.414l5.999-5.999a1.001 1.001 0 000-1.416l-5.999-5.999a.999.999 0 10-1.414 1.414L18.586 8H16C8.832 8 3 13.832 3 21a1 1 0 001 1z"/></svg>