<svg xmlns="http://www.w3.org/2000/svg" class="u-svg-content" viewBox="0 -2 511.999 511"><path d="M304.172 159.953a7.497 7.497 0 00-7.5 7.5v12.45c0 4.144 3.355 7.5 7.5 7.5s7.5-3.356 7.5-7.5v-12.45c0-4.144-3.356-7.5-7.5-7.5zm0 0M209.36 159.953a7.5 7.5 0 00-7.505 7.5v12.45a7.5 7.5 0 007.504 7.5 7.5 7.5 0 007.5-7.5v-12.45a7.5 7.5 0 00-7.5-7.5zm0 0M272.273 170.258c-1.27-.832-6.882-2.992-10.386 2.152a6.19 6.19 0 01-5.121 2.766c-.996 0-3.485-.274-5.125-2.766a7.503 7.503 0 00-10.387-2.152 7.502 7.502 0 00-2.149 10.387 21.062 21.062 0 0017.66 9.53 21.072 21.072 0 0017.66-9.53 7.503 7.503 0 00-2.152-10.387zm0 0M139.246 392.754l-25.625-3.723-11.46-23.222c-4.165-8.442-12.602-13.684-22.02-13.684-9.414 0-17.848 5.242-22.016 13.684l-11.46 23.222-25.626 3.723c-9.316 1.355-16.91 7.758-19.82 16.71-2.907 8.954-.528 18.598 6.215 25.169l18.543 18.074-4.38 25.523c-1.59 9.278 2.153 18.48 9.77 24.012 4.305 3.13 14.73 7.496 25.856 1.871l22.922-12.05 22.918 12.05c8.335 4.38 18.242 3.664 25.859-1.867 7.613-5.535 11.355-14.738 9.766-24.016l-4.375-25.523 18.542-18.074c6.739-6.57 9.122-16.215 6.211-25.168s-10.504-15.356-19.82-16.711zm3.137 31.137l-21.367 20.828a7.506 7.506 0 00-2.157 6.64l5.043 29.407c.63 3.664-.793 7.156-3.8 9.343-3.008 2.184-6.77 2.457-10.059.727l-26.41-13.887a7.513 7.513 0 00-6.98 0l-26.41 13.887c-3.29 1.73-7.052 1.457-10.06-.727-3.007-2.187-4.43-5.68-3.8-9.343l5.043-29.407a7.506 7.506 0 00-2.156-6.64L17.902 423.89c-2.66-2.594-3.566-6.254-2.418-9.793 1.153-3.536 4.032-5.965 7.711-6.5l29.528-4.29a7.502 7.502 0 005.648-4.105l13.203-26.754c1.649-3.336 4.852-5.324 8.567-5.324 3.718 0 6.921 1.988 8.566 5.324l13.207 26.754a7.495 7.495 0 005.645 4.106l29.527 4.289c3.68.535 6.562 2.964 7.71 6.5 1.153 3.539.25 7.199-2.413 9.793zm0 0M315.102 392.754l-25.625-3.723-11.461-23.222c-4.164-8.442-12.602-13.684-22.016-13.684s-17.852 5.242-22.016 13.684l-11.46 23.222-25.626 3.723c-9.316 1.355-16.91 7.758-19.82 16.71s-.527 18.598 6.211 25.169l18.543 18.074-4.375 25.523c-1.594 9.278 2.148 18.48 9.766 24.012 7.617 5.535 17.523 6.25 25.859 1.871L256 492.063l22.922 12.05c11.297 5.625 21.555 1.258 25.855-1.87 7.618-5.532 11.36-14.735 9.766-24.013l-4.375-25.523 18.543-18.074c6.742-6.57 9.121-16.215 6.21-25.168s-10.503-15.356-19.82-16.711zm3.136 31.137l-21.363 20.828a7.496 7.496 0 00-2.156 6.64l5.043 29.407c.629 3.664-.793 7.156-3.801 9.343-3.008 2.184-6.77 2.457-10.059.727l-26.41-13.887c-1.094-.574-2.293-.86-3.492-.86s-2.398.286-3.488.86l-26.41 13.887c-3.29 1.73-7.055 1.457-10.063-.727-3.008-2.187-4.426-5.68-3.797-9.343l5.043-29.407a7.506 7.506 0 00-2.156-6.64l-21.367-20.828c-2.664-2.594-3.567-6.254-2.418-9.793 1.148-3.536 4.031-5.965 7.71-6.5l29.528-4.29a7.502 7.502 0 005.648-4.105l13.204-26.754c1.648-3.336 4.851-5.324 8.566-5.324 3.719 0 6.922 1.988 8.566 5.324l13.207 26.754a7.495 7.495 0 005.645 4.106l29.527 4.289c3.68.535 6.563 2.964 7.711 6.5 1.149 3.539.246 7.199-2.418 9.793zm0 0M472.73 444.719c-2.964 2.894-3.027 7.64-.136 10.605a7.498 7.498 0 0010.605.137l21.367-20.828c6.743-6.57 9.121-16.215 6.211-25.168-2.906-8.953-10.504-15.356-19.82-16.711l-25.625-3.723-11.457-23.222c-4.168-8.442-12.602-13.684-22.02-13.684-9.414 0-17.851 5.242-22.015 13.684l-11.461 23.222-25.625 3.723c-9.317 1.355-16.914 7.758-19.82 16.71-2.91 8.954-.528 18.599 6.21 25.169l18.543 18.074-4.375 25.523c-1.593 9.278 2.149 18.48 9.766 24.016 7.617 5.531 17.524 6.246 25.86 1.867l22.917-12.05 22.922 12.05c12.547 5.625 21.555 1.258 25.856-1.87 7.617-5.532 11.36-14.735 9.77-24.013-.7-4.082-4.571-6.832-8.66-6.125a7.502 7.502 0 00-6.126 8.66c.63 3.665-.793 7.157-3.8 9.344-3.008 2.184-6.77 2.457-10.06.727l-26.41-13.887a7.502 7.502 0 00-6.98 0l-26.41 13.887c-3.289 1.73-7.05 1.457-10.059-.727-3.007-2.187-4.43-5.68-3.8-9.343l5.043-29.407a7.506 7.506 0 00-2.157-6.64l-21.367-20.828c-2.664-2.594-3.566-6.254-2.418-9.793 1.149-3.535 4.031-5.965 7.711-6.5l29.527-4.29a7.502 7.502 0 005.649-4.105l13.203-26.754c1.648-3.336 4.852-5.324 8.566-5.324 3.72 0 6.922 1.988 8.567 5.324l13.203 26.754a7.508 7.508 0 005.648 4.106l29.528 4.289c3.68.535 6.562 2.965 7.71 6.5 1.15 3.539.247 7.199-2.413 9.793zm0 0"/><path d="M360.75 278.371c0-18.976-8.7-36.629-23.246-48.195 17.527-19.344 28.219-44.988 28.219-73.09v-9.43c13.945.16 19.23-4.504 22.457-11.086 3.207-6.539 2.535-14.234-1.75-20.082-7.028-9.586-11.528-20.004-13.375-30.965-2-11.851-7.586-25.035-15.73-37.128a7.496 7.496 0 00-10.41-2.032 7.495 7.495 0 00-2.032 10.41c6.875 10.211 11.754 21.598 13.383 31.247 2.238 13.285 7.644 25.847 16.062 37.335 1.43 1.95 3.012 7.063-3.629 7.208-47.23 1.023-113.289-7-159.71-53.551-7.364-7.387-10.544-17.535-8.727-27.852 1.828-10.375 8.336-18.883 17.855-23.336 49.742-23.289 84.004-9.355 103.992 6.43a7.502 7.502 0 009.297-11.774c-15.144-11.96-32.308-19.125-51.008-21.292-21.683-2.516-44.777 1.878-68.64 13.05-7.492 3.504-13.797 8.899-18.43 15.492-15.125 4.051-29.855 12.692-40.57 23.848-12.133 12.637-18.438 27.59-17.742 42.11.515 10.886-.907 19.8-4.227 26.488-2.863 5.762-2.508 12.426.953 17.824 3.145 4.914 8.32 7.918 14.063 8.262v8.824c0 60.082 48.879 108.96 108.96 108.96 26.532 0 50.872-9.538 69.79-25.355a46.552 46.552 0 0119.195 37.676v24.352c0 13.558-11.027 24.586-24.586 24.586H192.367c-13.558 0-24.586-11.028-24.586-24.586V278.37c0-7.437 1.696-14.539 5.047-21.11a7.505 7.505 0 00-3.281-10.09 7.503 7.503 0 00-10.086 3.278c-4.434 8.7-6.68 18.094-6.68 27.922v24.352c0 21.824 17.758 39.582 39.586 39.582h128.797c21.828 0 39.586-17.758 39.586-39.582zm-214.531-149.52c4.476-9.007 6.418-20.406 5.777-33.878-.75-15.782 12.418-36.157 35.531-46.606-.011.063-.023.125-.039.188-6.64 32.418 26.739 53.914 35.715 60.254-16.504 11.71-41.148 23.613-74.191 24.484-3.93.105-3.477-3.059-2.793-4.441zm16.586 28.235v-9.762c33.175-3.785 57.734-17.363 73.882-29.84 26.864 15.672 63.903 28.387 114.036 30.008v9.594c0 51.812-42.149 93.96-93.957 93.96s-93.961-42.151-93.961-93.96zm0 0"/></svg>