<?xml version="1.0" encoding="UTF-8"?>
<svg version="1.1" xmlns="http://www.w3.org/2000/svg" width="712" height="350">
<path d="M0 0 C5.1506253 4.33120764 9.35428371 10.28184696 10.0234375 17.09765625 C10.32238698 26.7445259 8.38307288 33.61780938 1.8125 40.8125 C-1.2241312 43.29138261 -3.4656313 44.41145983 -7.25 45.3125 C-6.83259614 50.18221174 -4.70534852 52.03434884 -1.25 55.3125 C-1.25 55.9725 -1.25 56.6325 -1.25 57.3125 C0.07 57.6425 1.39 57.9725 2.75 58.3125 C2.75 58.9725 2.75 59.6325 2.75 60.3125 C3.41 60.3125 4.07 60.3125 4.75 60.3125 C5.12125 59.3225 5.12125 59.3225 5.5 58.3125 C6.51225375 55.88309099 7.55797541 53.50089655 8.6875 51.125 C9.00589844 50.45082031 9.32429687 49.77664062 9.65234375 49.08203125 C10.75 47.3125 10.75 47.3125 13.75 45.3125 C15.65112305 45.08544922 15.65112305 45.08544922 17.76171875 45.1171875 C18.51904297 45.12363281 19.27636719 45.13007813 20.05664062 45.13671875 C20.84232422 45.15347656 21.62800781 45.17023438 22.4375 45.1875 C23.23478516 45.19652344 24.03207031 45.20554688 24.85351562 45.21484375 C26.819139 45.23838415 28.78460775 45.27425453 30.75 45.3125 C31.86572266 47.04370117 31.86572266 47.04370117 32.75 49.3125 C32.12255859 51.3996582 32.12255859 51.3996582 30.8984375 53.61328125 C30.45886719 54.42603516 30.01929688 55.23878906 29.56640625 56.07617188 C29.09074219 56.91728516 28.61507812 57.75839844 28.125 58.625 C27.67253906 59.45451172 27.22007812 60.28402344 26.75390625 61.13867188 C24.14712417 65.89773945 21.45439774 70.60837154 18.75 75.3125 C19.22050781 75.75980469 19.69101562 76.20710938 20.17578125 76.66796875 C25.44811321 81.78747949 25.44811321 81.78747949 27.1875 84.8125 C29.22712837 88.07590539 31.89196273 90.13709911 34.80859375 92.61328125 C37.14904967 94.66176883 39.05521353 96.6997042 40.75 99.3125 C40.75 100.6325 40.75 101.9525 40.75 103.3125 C34.82318171 106.27590915 25.16547841 105.20398419 18.75 104.3125 C13.02813976 101.84737817 9.52160205 97.85570411 6.75 92.3125 C6.09 91.9825 5.43 91.6525 4.75 91.3125 C4.54375 91.869375 4.3375 92.42625 4.125 93 C0.14930568 99.68639499 -7.91273657 103.47166511 -15.05078125 105.93359375 C-26.31069971 107.8735797 -37.7485333 106.95323787 -47.5546875 100.88671875 C-54.13174209 96.22496028 -58.04725107 91.1613175 -60.25 83.3125 C-60.67196718 80.15398624 -60.7270945 77.0585259 -60.6875 73.875 C-60.68137695 73.0382373 -60.67525391 72.20147461 -60.66894531 71.33935547 C-60.5151921 65.2850269 -59.73227323 60.40290636 -56.25 55.3125 C-55.6725 54.425625 -55.095 53.53875 -54.5 52.625 C-51.40437815 49.44338866 -48.01003505 46.68083377 -44.25 44.3125 C-43.59 44.3125 -42.93 44.3125 -42.25 44.3125 C-42.58773438 43.755625 -42.92546875 43.19875 -43.2734375 42.625 C-48.50692061 33.67060116 -51.13198297 24.78956746 -48.52734375 14.44140625 C-45.89177623 6.57738494 -42.74233948 1.42402943 -35.25 -2.5 C-22.98174724 -8.42326579 -11.58210516 -6.01378537 0 0 Z M-26.8125 15.1875 C-29.27351675 18.82552477 -29.8947658 20.87973514 -29.25 25.3125 C-27.15522052 28.52274955 -24.76577238 31.42449599 -22.25 34.3125 C-17.33887719 31.75871614 -12.28556219 29.11690482 -9.25 24.3125 C-9.11428906 20.37688268 -9.6993602 18.24619358 -11.6875 14.875 C-16.43871868 11.97791544 -22.29594287 11.8827021 -26.8125 15.1875 Z M-36.25 61.3125 C-40.25804048 65.75202809 -40.38133794 70.51721325 -40.25 76.3125 C-39.46418925 80.14332742 -37.86686012 82.70226092 -35.06640625 85.47265625 C-29.9519462 88.81372516 -24.13654469 88.01031809 -18.25 87.3125 C-15.52826176 86.2943315 -14.4110484 85.35673497 -12.25 83.3125 C-11.63125 82.838125 -11.0125 82.36375 -10.375 81.875 C-8.73395217 79.5957669 -8.94045903 78.06535104 -9.25 75.3125 C-10.73523662 73.51516125 -10.73523662 73.51516125 -12.8125 72.0625 C-16.79865819 68.84671635 -19.70972309 65.3668964 -22.70703125 61.23046875 C-24.28531365 59.07185415 -24.28531365 59.07185415 -27.25 57.3125 C-31.32300169 57.3125 -33.02936711 58.89702534 -36.25 61.3125 Z " fill="#0C0C0C" transform="translate(517.25,124.6875)"/>
<path d="M0 0 C1.12341797 -0.020625 2.24683594 -0.04125 3.40429688 -0.0625 C4.47615234 -0.06765625 5.54800781 -0.0728125 6.65234375 -0.078125 C7.64097412 -0.0874707 8.62960449 -0.09681641 9.64819336 -0.10644531 C10.84327515 0.06999512 10.84327515 0.06999512 12.0625 0.25 C13.86356333 2.951595 14.50716307 4.46449928 15.3125 7.5 C16.53819089 11.7563793 18.05375447 15.7837845 19.75 19.875 C22.48179807 26.4810158 24.73357304 33.20165464 26.9375 40 C29.6731996 48.42590205 32.77643639 56.54120587 36.33886719 64.64819336 C38.89610524 70.57246152 40.54576079 76.39147733 42.0546875 82.671875 C43.4852888 87.75106409 45.62708871 92.37211836 47.890625 97.12890625 C49.12037714 100.40414611 49.29183561 102.78390492 49.0625 106.25 C45.79438198 107.88405901 42.21250593 107.43453757 38.625 107.4375 C37.84833984 107.44974609 37.07167969 107.46199219 36.27148438 107.47460938 C32.35017691 107.48474195 30.39631255 107.4725417 27.0625 105.25 C26 102.78125 26 102.78125 25.0625 99.75 C24.72734375 98.68007812 24.3921875 97.61015625 24.046875 96.5078125 C23.72203125 95.43273437 23.3971875 94.35765625 23.0625 93.25 C22.75828125 92.27804688 22.4540625 91.30609375 22.140625 90.3046875 C20.0625 83.58018868 20.0625 83.58018868 20.0625 81.25 C6.2025 81.25 -7.6575 81.25 -21.9375 81.25 C-23.2575 86.86 -24.5775 92.47 -25.9375 98.25 C-29.17559524 105.86904762 -29.17559524 105.86904762 -31.9375 107.25 C-34.61661399 107.37413998 -37.25833099 107.43515807 -39.9375 107.4375 C-40.67484375 107.44974609 -41.4121875 107.46199219 -42.171875 107.47460938 C-44.09520058 107.47987395 -46.01804263 107.37203447 -47.9375 107.25 C-48.5975 106.59 -49.2575 105.93 -49.9375 105.25 C-49.71698302 99.95759259 -48.01560856 95.70370418 -45.9765625 90.85546875 C-44.97438556 88.34249124 -44.18036158 85.85001555 -43.4375 83.25 C-42.22227344 79.04244139 -40.70319025 75.05422198 -39.03515625 71.0078125 C-37.76836766 67.82506251 -36.6332081 64.6076626 -35.5 61.375 C-33.9546594 56.98472044 -32.3030326 52.70073908 -30.4375 48.4375 C-28.48827822 43.87332224 -27.05447335 39.27912623 -25.75 34.5 C-16.25714909 0.07436089 -16.25714909 0.07436089 0 0 Z M-0.9375 24.25 C-5.88746198 35.7781805 -10.64573689 46.87038679 -12.9375 59.25 C-13.2675 60.24 -13.5975 61.23 -13.9375 62.25 C-5.0275 62.25 3.8825 62.25 13.0625 62.25 C12.010625 59.465625 10.95875 56.68125 9.875 53.8125 C7.12682962 46.46309988 4.70737215 39.08358511 2.66137695 31.50805664 C1.58097008 27.49198586 1.58097008 27.49198586 -0.9375 24.25 Z " fill="#0A0A0A" transform="translate(341.9375,121.75)"/>
<path d="M0 0 C0.66 0 1.32 0 2 0 C6.5955413 8.71568177 11.39855792 18.03497746 8.37890625 28.0625 C4.45969649 36.98087955 -2.89033114 42.69190709 -11.5546875 46.6875 C-42.78879257 58.58620669 -87.1951193 57.80990573 -119.1953125 49.5859375 C-122.20054921 48.95810253 -124.9385472 48.90007127 -128 49 C-128 48.34 -128 47.68 -128 47 C-128.66386719 46.90074219 -129.32773438 46.80148438 -130.01171875 46.69921875 C-133.79869942 45.81311478 -137.26288514 44.36766023 -140.8125 42.8125 C-141.52446533 42.50078857 -142.23643066 42.18907715 -142.9699707 41.86791992 C-148.20673503 39.50534809 -152.65687826 36.78236425 -157 33 C-157.94875 32.278125 -158.8975 31.55625 -159.875 30.8125 C-162.34931682 28.7020533 -163.83078925 27.02238916 -164.37109375 23.7578125 C-164.56967933 15.88447824 -162.77212893 8.94921781 -159 2 C-158.01 1.67 -157.02 1.34 -156 1 C-156.020625 1.67804688 -156.04125 2.35609375 -156.0625 3.0546875 C-155.90313459 10.24605181 -154.06332476 14.21555692 -149.49609375 19.7109375 C-143.89882264 24.84395921 -137.68305071 27.84006047 -130.5 30.125 C-129.71592773 30.37652832 -128.93185547 30.62805664 -128.12402344 30.88720703 C-106.41133912 37.6445027 -85.17701427 37.29139627 -63 33 C-62.05415039 32.81775879 -61.10830078 32.63551758 -60.13378906 32.44775391 C-42.39645151 28.95686389 -26.41301655 24.70306298 -11 15 C-9.38738281 14.01386719 -9.38738281 14.01386719 -7.7421875 13.0078125 C-5.05874683 11.04301406 -3.99320259 9.92278478 -2.6875 6.9375 C-2.38199219 6.26589844 -2.07648438 5.59429687 -1.76171875 4.90234375 C-1.11625507 3.29033958 -0.54910662 1.64731986 0 0 Z " fill="#0C0C0C" transform="translate(253,136)"/>
<path d="M0 0 C0.75067245 0.00045319 1.50134491 0.00090637 2.27476501 0.00137329 C3.06173767 -0.00198532 3.84871033 -0.00534393 4.65953064 -0.00880432 C7.27421119 -0.01834283 9.88882789 -0.02025888 12.50352478 -0.02133179 C14.31334459 -0.02454235 16.12316414 -0.02790626 17.9329834 -0.03141785 C21.73197532 -0.03741638 25.53094447 -0.03925701 29.3299408 -0.03866577 C34.20725876 -0.03856411 39.08443128 -0.05221764 43.96171474 -0.06943798 C47.70110754 -0.08053529 51.44046493 -0.08258568 55.17987251 -0.08205605 C56.97847559 -0.08323955 58.77707948 -0.08768189 60.57566643 -0.09538841 C63.08744988 -0.10514276 65.59891436 -0.10232847 68.11070251 -0.09628296 C68.85935074 -0.10190247 69.60799896 -0.10752197 70.3793335 -0.11331177 C75.52911543 -0.08167864 75.52911543 -0.08167864 77.75743103 2.14663696 C78.02305603 5.29898071 78.02305603 5.29898071 78.00743103 9.08413696 C78.01516541 10.95392212 78.01516541 10.95392212 78.02305603 12.86148071 C77.75743103 16.14663696 77.75743103 16.14663696 75.75743103 19.14663696 C72.86827087 19.48721313 72.86827087 19.48721313 69.21836853 19.43960571 C67.26543884 19.42510376 67.26543884 19.42510376 65.27305603 19.41030884 C63.8928418 19.38524084 62.51263347 19.35984598 61.13243103 19.33413696 C59.7444244 19.31909214 58.35640236 19.30540337 56.96836853 19.29312134 C53.56433594 19.25766267 50.16107481 19.20823995 46.75743103 19.14663696 C46.76187225 20.19011292 46.76631348 21.23358887 46.77088928 22.3086853 C46.81141564 32.13781041 46.84140596 41.96691858 46.86105537 51.79610825 C46.87149688 56.84950998 46.88566284 61.90284433 46.90830994 66.95620728 C46.93002514 71.8320914 46.94199689 76.70791067 46.94718552 81.58383942 C46.95088364 83.44498974 46.95810506 85.30613647 46.96889114 87.16725922 C46.98338844 89.77211711 46.98540971 92.37670622 46.98448181 94.9815979 C46.99167236 95.75267883 46.99886292 96.52375977 47.00627136 97.31820679 C46.99174485 101.08169169 46.86960938 103.95486301 44.75743103 107.14663696 C41.7782051 107.17347684 38.79921808 107.19339733 35.81993103 107.20913696 C34.54472595 107.22170532 34.54472595 107.22170532 33.24375916 107.23452759 C32.43487244 107.23775024 31.62598572 107.2409729 30.79258728 107.24429321 C30.04372253 107.24953003 29.29485779 107.25476685 28.52330017 107.26016235 C26.75743103 107.14663696 26.75743103 107.14663696 25.75743103 106.14663696 C25.66228511 103.4382561 25.63188171 100.75545183 25.64390564 98.04678345 C25.64375961 97.19807678 25.64361359 96.34937012 25.64346313 95.47494507 C25.64416255 92.65584805 25.65195625 89.83681625 25.65977478 87.01773071 C25.66163886 85.0685988 25.66306281 83.11946641 25.6640625 81.17033386 C25.66788848 76.02956864 25.67771944 70.88883149 25.68876648 65.74807739 C25.69897889 60.50658549 25.70355975 55.26508907 25.70860291 50.02359009 C25.71934164 39.73126002 25.73641902 29.43895082 25.75743103 19.14663696 C24.8591156 19.15187378 23.96080017 19.1571106 23.03526306 19.1625061 C19.70680604 19.17953422 16.37839522 19.19208034 13.0499115 19.2015686 C11.60849783 19.2066017 10.16708927 19.21342869 8.72569275 19.22207642 C6.65553018 19.2341868 4.58543502 19.23987544 2.51524353 19.24429321 C1.26888123 19.24953003 0.02251892 19.25476685 -1.26161194 19.26016235 C-4.24256897 19.14663696 -4.24256897 19.14663696 -6.24256897 18.14663696 C-6.26941209 15.33407415 -6.28933085 12.52176455 -6.30506897 9.70913696 C-6.31344788 8.90669556 -6.32182678 8.10425415 -6.33045959 7.27749634 C-6.33908327 5.23368475 -6.29485047 3.18979795 -6.24256897 1.14663696 C-4.51638283 -0.57954918 -2.30200155 0.01443758 0 0 Z " fill="#0C0C0C" transform="translate(547.2425689697266,121.85336303710938)"/>
<path d="M0 0 C2.62698971 -0.29176256 5.01817155 -0.38879907 7.64672852 -0.35644531 C8.43545349 -0.35848969 9.22417847 -0.36053406 10.0368042 -0.36264038 C12.65107191 -0.36565534 15.26471323 -0.34715171 17.87890625 -0.328125 C19.68969059 -0.32506878 21.50047727 -0.32319162 23.31126404 -0.32244873 C27.10856096 -0.31784133 30.90564632 -0.30339775 34.70288086 -0.28125 C39.58136046 -0.25294712 44.45967337 -0.24203706 49.33822727 -0.2375679 C53.07758772 -0.23342021 56.81691413 -0.22360854 60.55625725 -0.21169281 C62.35567895 -0.2059778 64.15510395 -0.20122319 65.95453072 -0.19742584 C68.4639683 -0.19058542 70.97327111 -0.17696425 73.48266602 -0.16113281 C74.23333847 -0.16001495 74.98401093 -0.15889709 75.75743103 -0.15774536 C80.8853129 -0.1146871 80.8853129 -0.1146871 82 1 C82.07325168 3.86267567 82.09238205 6.700719 82.0625 9.5625 C82.05798828 10.36880859 82.05347656 11.17511719 82.04882812 12.00585938 C82.03700518 14.00393756 82.01906914 16.00197783 82 18 C79.12981559 19.43509221 76.66456277 19.11158506 73.4609375 19.09765625 C71.50800781 19.09282227 71.50800781 19.09282227 69.515625 19.08789062 C68.13541601 19.07953466 66.75520768 19.07106971 65.375 19.0625 C63.98698074 19.05748501 62.59895978 19.0529221 61.2109375 19.04882812 C57.80724868 19.03700976 54.40364561 19.02053434 51 19 C51.00444122 20.07297333 51.00888245 21.14594666 51.01345825 22.25143433 C51.05394062 32.34607363 51.08395369 42.44069653 51.10362434 52.53539848 C51.11407705 57.72561899 51.12826329 62.91577414 51.15087891 68.10595703 C51.17255438 73.11150889 51.18455741 78.11699777 51.18975449 83.12259293 C51.19345979 85.03563555 51.20069496 86.9486746 51.21146011 88.86169052 C51.22590473 91.53400976 51.22798091 94.2060662 51.22705078 96.87841797 C51.23424133 97.67539093 51.24143188 98.47236389 51.24884033 99.29348755 C51.22810432 104.77189568 51.22810432 104.77189568 49 107 C46.1293534 107.1721221 43.36747658 107.23223075 40.5 107.1875 C39.71496094 107.18685547 38.92992187 107.18621094 38.12109375 107.18554688 C32.28093696 107.14046848 32.28093696 107.14046848 30 106 C30 77.29 30 48.58 30 19 C20.43 19 10.86 19 1 19 C-2 16 -2 16 -2.36328125 12.96875 C-2.34652344 11.8240625 -2.32976562 10.679375 -2.3125 9.5 C-2.30863281 8.3553125 -2.30476563 7.210625 -2.30078125 6.03125 C-2 3 -2 3 0 0 Z " fill="#080808" transform="translate(378,122)"/>
<path d="M0 0 C0.66 0 1.32 0 2 0 C2.65836711 21.94557035 2.65836711 21.94557035 -1 30 C-1.99 30.33 -2.98 30.66 -4 31 C-5.06321838 32.84969637 -5.06321838 32.84969637 -6 35 C-11.06992638 42.84668606 -17.39081626 45.13713746 -26 48 C-27.69259627 48.6960677 -29.3806217 49.40341996 -31.0625 50.125 C-42.74641125 54.82520534 -54.39744868 56.1536907 -66.86328125 56.23828125 C-68.00927292 56.246353 -69.15526459 56.25442474 -70.33598328 56.26274109 C-72.76083891 56.27654037 -75.18571363 56.28728101 -77.6105957 56.29516602 C-80.05889694 56.30663007 -82.5071743 56.32699206 -84.95532227 56.35668945 C-99.52237564 56.53307466 -112.97998176 56.15638119 -127 52 C-128.01473389 51.70150146 -129.02946777 51.40300293 -130.07495117 51.09545898 C-132.55760849 50.31328919 -134.99624123 49.46462545 -137.4375 48.5625 C-138.26733398 48.264646 -139.09716797 47.96679199 -139.95214844 47.65991211 C-146.11719737 45.41341843 -152.12218165 42.92542794 -158 40 C-158 39.34 -158 38.68 -158 38 C-158.83144531 37.62294922 -158.83144531 37.62294922 -159.6796875 37.23828125 C-162.3947127 35.78935366 -164.69914387 34.08111605 -167.125 32.1875 C-167.99382812 31.52105469 -168.86265625 30.85460937 -169.7578125 30.16796875 C-173.36659822 26.67863761 -174.08653483 23.68311743 -174.1953125 18.79296875 C-174.18213414 17.25769016 -174.15845284 15.72247066 -174.125 14.1875 C-174.11597656 13.39923828 -174.10695313 12.61097656 -174.09765625 11.79882812 C-174.07422504 9.86575334 -174.03835838 7.9328362 -174 6 C-173.01 7.485 -173.01 7.485 -172 9 C-170.9790625 10.485 -170.9790625 10.485 -169.9375 12 C-168 15 -168 15 -167 18 C-165.69216586 18.71539645 -164.35407561 19.37654073 -163 20 C-161.71812563 20.95880034 -160.4668707 21.95993957 -159.25 23 C-158.32960938 23.7734375 -158.32960938 23.7734375 -157.390625 24.5625 C-156 26 -156 26 -156 28 C-155.12601563 28.23783203 -155.12601563 28.23783203 -154.234375 28.48046875 C-149.40034304 29.85619168 -144.84418009 31.45608386 -140.25 33.5 C-115.24729005 44.03413668 -87.57171067 40.04536748 -62 34 C-61.07074707 33.78859375 -60.14149414 33.5771875 -59.18408203 33.359375 C-46.11865794 30.36353705 -34.68384509 26.56306587 -23 20 C-21.97519531 19.484375 -20.95039063 18.96875 -19.89453125 18.4375 C-11.61510993 14.23497994 -3.38086897 9.0156506 0 0 Z " fill="#0D0D0D" transform="translate(262,169)"/>
<path d="M0 0 C-0.46948695 2.19093909 -0.90467001 3.8517089 -2.125 5.75 C-3.47806899 9.22932027 -2.99755513 12.49111728 -2 16 C-0.0554473 18.82865928 -0.0554473 18.82865928 2 21 C2 21.66 2 22.32 2 23 C3.11375 23.433125 3.11375 23.433125 4.25 23.875 C7 25 7 25 8.90966797 26.0012207 C17.72722356 30.21432745 28.33171395 29.35976276 37.875 29.3125 C38.65212341 29.31034485 39.42924683 29.3081897 40.22991943 29.30596924 C64.52180658 29.19779409 84.80147671 25.18522524 106 13 C106.74121094 12.69835937 107.48242188 12.39671875 108.24609375 12.0859375 C110.68708458 10.57458906 110.97356527 9.09252155 111.75 6.375 C112.11351562 5.14910156 112.11351562 5.14910156 112.484375 3.8984375 C112.65453125 3.27195312 112.8246875 2.64546875 113 2 C116 2 116 2 117.60546875 3.4609375 C118.12753906 4.09257813 118.64960938 4.72421875 119.1875 5.375 C119.71730469 6.00148438 120.24710938 6.62796875 120.79296875 7.2734375 C122 9 122 9 122 11 C122.598125 11.226875 123.19625 11.45375 123.8125 11.6875 C126.76738497 13.46043098 127.64499863 14.81574678 129 18 C129.4174609 22.2417009 129.35159265 25.94522205 128 30 C125.875 32.3125 125.875 32.3125 123 35 C122.49339844 35.50015625 121.98679688 36.0003125 121.46484375 36.515625 C104.78698898 52.12893585 75.07809074 49.92853248 53.83935547 49.32740784 C30.26067089 48.45260045 2.01990751 44.84213578 -16 28 C-17.44817218 24.19380924 -17.46170198 20.01999141 -17 16 C-15.625 13 -15.625 13 -14 11 C-13.34 11 -12.68 11 -12 11 C-11.7525 10.41734375 -11.505 9.8346875 -11.25 9.234375 C-9.81474554 6.66885764 -8.22336987 5.16275202 -6 3.25 C-5.29875 2.63640625 -4.5975 2.0228125 -3.875 1.390625 C-2 0 -2 0 0 0 Z " fill="#0B0B0B" transform="translate(120,107)"/>
<path d="M0 0 C2.29551126 0.0085073 4.58852205 -0.02034141 6.88378906 -0.05200195 C18.62812858 -0.10855182 28.93945589 1.98297882 39.43066406 7.50854492 C40.36910156 7.99452148 41.30753906 8.48049805 42.27441406 8.98120117 C46.36490879 11.2369887 50.24085067 13.57619006 53.93066406 16.44604492 C53.86054242 19.39115403 53.56250295 21.62752637 51.72753906 24.00463867 C35.07077422 39.56981941 6.7218625 37.23959521 -14.44238281 36.61450195 C-25.73319456 36.09009026 -36.33954697 34.63106153 -46.06933594 28.44604492 C-46.06933594 27.78604492 -46.06933594 27.12604492 -46.06933594 26.44604492 C-47.38933594 25.78604492 -48.70933594 25.12604492 -50.06933594 24.44604492 C-50.92659655 19.47393337 -50.92659655 19.47393337 -50.06933594 16.44604492 C-47.1460825 13.7137247 -43.64793653 12.17921911 -40.06933594 10.44604492 C-38.94914063 9.8453418 -37.82894531 9.24463867 -36.67480469 8.62573242 C-24.51044836 2.18960922 -13.74558146 -0.07746872 0 0 Z " fill="#090909" transform="translate(173.0693359375,86.553955078125)"/>
<path d="M0 0 C0.66 0 1.32 0 2 0 C2.73183969 7.70584146 -2.89726572 15.60418987 -7.5 21.5 C-10.48571257 24.48571257 -13.44382345 26.71867919 -17 29 C-17.66 29 -18.32 29 -19 29 C-19 29.66 -19 30.32 -19 31 C-22.32890824 32.46858289 -25.66385048 33.92295094 -29 35.375 C-29.93457031 35.7875 -30.86914062 36.2 -31.83203125 36.625 C-40.73440147 40.48476891 -48.73173352 42.27247934 -58.375 43.125 C-59.25671875 43.21136719 -60.1384375 43.29773438 -61.046875 43.38671875 C-71.40079112 44.34316555 -81.5169961 43.95677865 -91.875 43.1875 C-92.96941406 43.11724609 -94.06382812 43.04699219 -95.19140625 42.97460938 C-106.10531309 42.16736775 -116.14982108 39.62875283 -126.3125 35.625 C-127.05822266 35.3465625 -127.80394531 35.068125 -128.57226562 34.78125 C-133.6674069 32.79856575 -137.62651475 30.27337305 -142 27 C-143.11375 26.484375 -144.2275 25.96875 -145.375 25.4375 C-152.11702278 21.73779589 -157.54271627 13.05981515 -160 6 C-156.75728494 6.5590888 -155.06942576 7.4132178 -153 10 C-153 10.66 -153 11.32 -153 12 C-151.68 12.66 -150.36 13.32 -149 14 C-149 14.66 -149 15.32 -149 16 C-148.2575 16.28359375 -147.515 16.5671875 -146.75 16.859375 C-144.35623447 17.85224366 -142.24670685 18.97346202 -140 20.25 C-127.46488143 26.63151491 -112.37571807 30.10245684 -98.3671875 30.23828125 C-97.54138687 30.24798447 -96.71558624 30.25768768 -95.86476135 30.26768494 C-93.20145802 30.29257124 -90.53840791 30.30520389 -87.875 30.3125 C-86.51775314 30.31642761 -86.51775314 30.31642761 -85.13308716 30.32043457 C-72.76120097 30.32428424 -60.95221293 29.97891763 -48.97607422 26.56005859 C-46.96443694 25.98992072 -44.945496 25.49754616 -42.91015625 25.01953125 C-30.97506902 22.15804818 -21.00612579 17.9909818 -10.9375 11 C-10.19838379 10.48953125 -9.45926758 9.9790625 -8.69775391 9.453125 C-4.78140974 6.63720369 -2.30130355 4.3318655 0 0 Z " fill="#1C1C1C" transform="translate(255,206)"/>
<path d="M0 0 C0.99 0 1.98 0 3 0 C0.05378771 7.49944947 -8.29908397 10.49085994 -15 14 C-15.81855469 14.44730469 -16.63710937 14.89460937 -17.48046875 15.35546875 C-29.15770023 21.54649686 -40.17237662 23.66736431 -53.22021484 23.52148438 C-55.49815238 23.50001741 -57.77293803 23.52140782 -60.05078125 23.546875 C-72.04125715 23.57075361 -82.42599514 21.2242335 -93.125 15.625 C-94.27484375 15.02816406 -95.4246875 14.43132812 -96.609375 13.81640625 C-101.42180156 11.23832059 -106.23067269 8.65719664 -111 6 C-111 5.01 -111 4.02 -111 3 C-109.49890232 3.4337188 -107.99918823 3.87222635 -106.5 4.3125 C-105.6646875 4.55613281 -104.829375 4.79976562 -103.96875 5.05078125 C-101.71561468 5.77119162 -99.49574057 6.5966261 -97.296875 7.46875 C-69.96064863 17.78727624 -34.0305042 16.00382837 -7.5 4.25 C-3.47402795 2.5410496 -3.47402795 2.5410496 0 0 Z " fill="#242424" transform="translate(231,240)"/>
<path d="M0 0 C-1.4960096 3.80802445 -3.66063151 5.69424557 -7 8 C-9.3125 8.75 -9.3125 8.75 -11 9 C-11 8.34 -11 7.68 -11 7 C-12.65 7 -14.3 7 -16 7 C-15.43410156 6.72414062 -14.86820313 6.44828125 -14.28515625 6.1640625 C-11.1597003 4.5719499 -8.1501415 2.79080769 -5.12109375 1.0234375 C-3 0 -3 0 0 0 Z " fill="#606060" transform="translate(234,240)"/>
<path d="M0 0 C-0.57344937 2.86724686 -0.8614515 3.8614515 -3 6 C-3.66 6 -4.32 6 -5 6 C-6.75814477 7.61403455 -8.45886727 9.29114592 -10.125 11 C-11.03507812 11.928125 -11.94515625 12.85625 -12.8828125 13.8125 C-13.58148438 14.534375 -14.28015625 15.25625 -15 16 C-15.33 15.01 -15.66 14.02 -16 13 C-15.38125 12.7525 -14.7625 12.505 -14.125 12.25 C-11.88378906 11.19786285 -11.88378906 11.19786285 -11.1171875 9.15625 C-9.7790744 6.57359815 -8.19880974 5.14162308 -6 3.25 C-5.29875 2.63640625 -4.5975 2.0228125 -3.875 1.390625 C-2 0 -2 0 0 0 Z " fill="#626262" transform="translate(120,107)"/>
<path d="M0 0 C0.66 0 1.32 0 2 0 C2.23828125 2.26171875 2.23828125 2.26171875 2 5 C0.35546875 7.01953125 0.35546875 7.01953125 -1.8125 8.8125 C-2.52019531 9.41707031 -3.22789062 10.02164063 -3.95703125 10.64453125 C-6 12 -6 12 -9 12 C-8.51789063 11.46890625 -8.03578125 10.9378125 -7.5390625 10.390625 C-6.90742188 9.68421875 -6.27578125 8.9778125 -5.625 8.25 C-4.68527344 7.20585937 -4.68527344 7.20585937 -3.7265625 6.140625 C-2.12494817 4.15491312 -1.03479932 2.32045907 0 0 Z " fill="#5A5A5A" transform="translate(262,169)"/>
<path d="M0 0 C0.75732422 0.00644531 1.51464844 0.01289063 2.29492188 0.01953125 C3.08060547 0.03628906 3.86628906 0.05304688 4.67578125 0.0703125 C5.47306641 0.07933594 6.27035156 0.08835938 7.09179688 0.09765625 C9.05742025 0.12119665 11.022889 0.15706703 12.98828125 0.1953125 C12.98828125 0.5253125 12.98828125 0.8553125 12.98828125 1.1953125 C11.36019531 1.21658203 11.36019531 1.21658203 9.69921875 1.23828125 C8.25386512 1.28520832 6.80855394 1.33345555 5.36328125 1.3828125 C4.29400391 1.39151367 4.29400391 1.39151367 3.203125 1.40039062 C-2.46812259 1.6345247 -4.9856815 3.21372676 -9.01171875 7.1953125 C-7.29470049 2.17633604 -5.48939543 -0.0825473 0 0 Z " fill="#5F5F5F" transform="translate(535.01171875,169.8046875)"/>
<path d="M0 0 C0.33 1.32 0.66 2.64 1 4 C-0.32 4.33 -1.64 4.66 -3 5 C-3 4.34 -3 3.68 -3 3 C-4.65 3 -6.3 3 -8 3 C-2 0 -2 0 0 0 Z " fill="#777777" transform="translate(226,244)"/>
<path d="" fill="#FFFFFF" transform="translate(0,0)"/>
<path d="" fill="#FFFFFF" transform="translate(0,0)"/>
<path d="" fill="#FFFFFF" transform="translate(0,0)"/>
<path d="" fill="#FFFFFF" transform="translate(0,0)"/>
<path d="" fill="#FFFFFF" transform="translate(0,0)"/>
<path d="" fill="#FFFFFF" transform="translate(0,0)"/>
<path d="" fill="#FFFFFF" transform="translate(0,0)"/>
<path d="" fill="#FFFFFF" transform="translate(0,0)"/>
<path d="" fill="#FFFFFF" transform="translate(0,0)"/>
<path d="" fill="#FFFFFF" transform="translate(0,0)"/>
<path d="" fill="#FFFFFF" transform="translate(0,0)"/>
<path d="" fill="#FFFFFF" transform="translate(0,0)"/>
<path d="" fill="#FFFFFF" transform="translate(0,0)"/>
<path d="" fill="#FFFFFF" transform="translate(0,0)"/>
<path d="" fill="#FFFFFF" transform="translate(0,0)"/>
<path d="" fill="#FFFFFF" transform="translate(0,0)"/>
<path d="" fill="#FFFFFF" transform="translate(0,0)"/>
<path d="" fill="#FFFFFF" transform="translate(0,0)"/>
<path d="" fill="#FFFFFF" transform="translate(0,0)"/>
<path d="" fill="#FFFFFF" transform="translate(0,0)"/>
<path d="" fill="#FFFFFF" transform="translate(0,0)"/>
<path d="" fill="#FFFFFF" transform="translate(0,0)"/>
<path d="" fill="#FFFFFF" transform="translate(0,0)"/>
<path d="" fill="#FFFFFF" transform="translate(0,0)"/>
<path d="" fill="#FFFFFF" transform="translate(0,0)"/>
<path d="" fill="#FFFFFF" transform="translate(0,0)"/>
<path d="" fill="#FFFFFF" transform="translate(0,0)"/>
<path d="" fill="#FFFFFF" transform="translate(0,0)"/>
<path d="" fill="#FFFFFF" transform="translate(0,0)"/>
<path d="" fill="#FFFFFF" transform="translate(0,0)"/>
<path d="" fill="#FFFFFF" transform="translate(0,0)"/>
<path d="" fill="#FFFFFF" transform="translate(0,0)"/>
<path d="" fill="#FFFFFF" transform="translate(0,0)"/>
<path d="" fill="#FFFFFF" transform="translate(0,0)"/>
<path d="" fill="#FFFFFF" transform="translate(0,0)"/>
<path d="" fill="#FFFFFF" transform="translate(0,0)"/>
</svg>
