<svg xmlns="http://www.w3.org/2000/svg" viewBox="0 0 24 24" fill="currentColor" width="40px" height="40px" data-ux="CloseIcon" data-edit-interactive="true" data-close="true" class="x-el x-el-svg c1-1 c1-2 c1-18 c1-3r c1-4v c1-3t c1-3u c1-3v c1-3w c1-2k c1-5q c1-5r c1-50 c1-5s c1-5t c1-5u c1-b c1-5v c1-5w c1-5x c1-5y c1-5z"><path fill-rule="evenodd" d="M19.219 5.22a.75.75 0 0 0-1.061 0l-5.939 5.939-5.939-5.94a.75.75 0 1 0-1.061 1.062l5.939 5.939-5.939 5.939a.752.752 0 0 0 0 1.06.752.752 0 0 0 1.061 0l5.939-5.938 5.939 5.939a.75.75 0 1 0 1.061-1.061l-5.939-5.94 5.939-5.938a.75.75 0 0 0 0-1.061"></path></svg>