<?xml version="1.0" standalone="no"?>
<!DOCTYPE svg PUBLIC "-//W3C//DTD SVG 20010904//EN"
 "http://www.w3.org/TR/2001/REC-SVG-20010904/DTD/svg10.dtd">
<svg version="1.0" xmlns="http://www.w3.org/2000/svg"
 width="3715.000000pt" height="1943.000000pt" viewBox="0 0 3715.000000 1943.000000"
 preserveAspectRatio="xMidYMid meet">

<g transform="translate(0.000000,1943.000000) scale(0.100000,-0.100000)"
fill="#000000" stroke="none">
<path d="M37078 15473 c-31 -70 -55 -129 -53 -131 1 -2 28 13 59 33 l56 36 0
94 c0 52 -1 95 -3 95 -2 0 -28 -57 -59 -127z"/>
<path d="M37067 15342 l-69 -47 -112 -235 c-61 -129 -137 -284 -169 -344 -31
-60 -56 -111 -54 -112 1 -2 32 16 68 39 36 23 143 89 237 147 l171 105 1 248
c0 136 -1 247 -2 246 -2 0 -34 -21 -71 -47z"/>
<path d="M36882 14717 l-243 -152 -91 -165 c-114 -209 -208 -374 -270 -472
-26 -43 -48 -80 -48 -82 0 -6 72 37 578 339 l332 199 0 243 c0 134 -3 243 -7
242 -5 0 -117 -69 -251 -152z"/>
<path d="M36830 14177 c-168 -100 -376 -224 -464 -276 l-158 -94 -71 -111
c-102 -159 -307 -463 -377 -558 -33 -45 -58 -83 -56 -85 3 -3 810 455 1239
704 l197 115 0 244 c0 134 -1 244 -2 244 -2 0 -140 -82 -308 -183z"/>
<path d="M36930 13730 c-113 -66 -444 -256 -736 -422 -514 -294 -532 -305
-570 -357 -80 -112 -354 -451 -487 -604 l-138 -158 51 26 c42 21 365 196 545
295 28 15 174 95 325 177 331 180 512 280 850 467 140 77 281 154 312 171 l58
30 0 248 c0 136 -1 247 -2 246 -2 0 -95 -54 -208 -119z"/>
<path d="M37070 13299 c-30 -17 -125 -69 -210 -117 -85 -47 -213 -118 -285
-157 -71 -40 -305 -168 -520 -285 -214 -117 -437 -238 -495 -270 -58 -31 -145
-79 -195 -105 -49 -26 -103 -56 -120 -65 -28 -16 -100 -55 -234 -126 -36 -20
-88 -66 -160 -142 -58 -62 -107 -117 -109 -121 -2 -7 68 -24 356 -87 l62 -14
248 129 c136 70 324 168 417 216 94 48 206 107 250 130 44 23 244 128 446 234
l365 191 127 128 127 129 0 181 c0 100 -3 182 -7 182 -5 0 -33 -14 -63 -31z"/>
<path d="M36440 12457 c-383 -202 -894 -468 -1128 -587 -67 -35 -121 -64 -120
-66 2 -1 109 -29 238 -63 129 -33 250 -65 268 -70 32 -9 36 -7 165 101 187
158 427 370 597 528 170 159 377 359 370 359 -3 0 -178 -91 -390 -202z"/>
<path d="M4970 12331 c0 -5 5 -13 10 -16 6 -3 10 -2 10 4 0 5 -4 13 -10 16 -5
3 -10 2 -10 -4z"/>
<path d="M5146 12319 c-11 -7 -38 -9 -68 -5 -34 5 -48 4 -43 -4 3 -5 2 -10 -4
-10 -5 0 -11 5 -13 12 -3 8 -6 9 -11 1 -6 -10 65 -61 228 -165 39 -24 106 -59
149 -77 80 -33 342 -149 403 -177 17 -9 38 -12 45 -8 7 4 10 3 5 -1 -4 -5 21
-23 56 -40 54 -27 74 -31 134 -31 39 1 69 -2 66 -7 -5 -9 10 -14 65 -20 23 -3
42 -1 42 4 0 5 -10 10 -22 10 -18 1 -19 2 -5 6 10 3 29 -3 43 -12 14 -9 29
-15 34 -13 9 3 -29 26 -196 121 -249 141 -845 432 -828 405 5 -8 1 -9 -10 -5
-10 4 -27 7 -37 7 -11 0 -17 5 -14 10 8 12 5 12 -19 -1z"/>
<path d="M4105 12313 c10 -10 173 -64 191 -63 5 1 -13 12 -39 26 -26 14 -53
22 -59 18 -6 -4 -8 -3 -5 3 4 6 0 14 -9 17 -10 4 -13 2 -8 -6 7 -11 -21 -8
-61 7 -14 6 -17 5 -10 -2z"/>
<path d="M5323 12304 c1 -1 128 -65 282 -143 154 -77 335 -170 403 -206 68
-36 128 -62 135 -59 7 4 9 4 5 -1 -8 -8 10 -21 92 -66 57 -32 83 -42 75 -29
-3 6 -2 10 3 10 5 0 12 -9 15 -20 3 -11 13 -20 24 -20 17 1 17 1 -1 15 -27 20
-1 19 29 -1 14 -9 31 -14 38 -11 7 3 33 1 56 -3 23 -4 39 -4 34 0 -31 29 -260
169 -270 165 -7 -2 -12 0 -10 6 1 6 -41 37 -93 69 -81 50 -428 252 -482 281
-23 12 -37 11 -18 -1 10 -7 3 -8 -25 -4 -22 3 -82 6 -132 7 -51 1 -93 4 -93 7
0 3 -16 5 -35 6 -19 0 -34 0 -32 -2z"/>
<path d="M3920 12293 c-140 -5 -457 -33 -511 -44 -40 -9 -59 -8 -97 5 -35 12
-42 12 -29 2 9 -7 88 -30 175 -51 380 -90 920 -231 1217 -318 84 -25 123 -33
132 -25 7 5 18 8 25 5 8 -3 6 -6 -5 -6 -62 -3 60 -45 133 -46 30 0 44 -4 43
-12 -4 -17 9 -16 32 0 14 11 15 16 5 22 -9 6 -11 4 -5 -5 5 -8 3 -11 -4 -9 -7
3 -12 9 -12 14 0 10 -36 34 -52 35 -5 0 -5 -6 -1 -12 4 -8 3 -10 -2 -5 -5 5
-9 13 -9 19 0 8 -314 196 -501 299 -28 16 -115 49 -193 73 -188 60 -214 64
-341 59z m950 -443 c0 -5 -4 -10 -10 -10 -5 0 -10 5 -10 10 0 6 5 10 10 10 6
0 10 -4 10 -10z m75 -18 c-3 -3 -11 0 -18 7 -9 10 -8 11 6 5 10 -3 15 -9 12
-12z"/>
<path d="M5746 12276 c10 -7 134 -82 274 -166 140 -84 322 -195 403 -248 135
-86 154 -95 202 -97 29 -2 59 -6 67 -10 66 -38 -187 154 -399 301 -215 149
-402 269 -329 210 23 -19 14 -21 -17 -5 -11 7 -53 13 -92 15 -38 1 -70 3 -70
4 0 1 -13 4 -29 6 -27 3 -28 2 -10 -10z"/>
<path d="M6045 12260 c3 -4 112 -82 243 -173 130 -91 289 -203 352 -250 89
-67 121 -85 142 -83 15 2 29 -1 31 -7 1 -5 9 -8 16 -6 8 3 -19 32 -65 71 -54
46 -81 63 -86 55 -5 -8 -8 -7 -8 5 0 17 -87 93 -254 224 -176 137 -198 152
-214 147 -11 -5 -13 -2 -7 6 6 10 3 11 -14 1 -18 -9 -26 -9 -38 2 -13 10 -17
10 -20 0 -3 -6 -9 -9 -14 -6 -19 11 -69 23 -64 14z m722 -481 c-1 -10 -5 -19
-10 -19 -5 0 -7 6 -4 14 3 7 0 19 -6 25 -9 9 -8 11 5 6 9 -4 16 -15 15 -26z
m28 -9 c3 -5 1 -10 -4 -10 -6 0 -11 5 -11 10 0 6 2 10 4 10 3 0 8 -4 11 -10z"/>
<path d="M6299 12223 c20 -18 110 -92 201 -164 91 -73 194 -157 230 -186 36
-30 73 -61 83 -69 10 -8 23 -12 29 -8 6 4 8 3 5 -3 -6 -10 25 -44 53 -57 8 -4
4 2 -9 13 -30 27 -12 27 25 0 58 -43 -269 268 -434 411 -35 30 -70 54 -79 52
-8 -2 -12 1 -8 7 6 12 -19 16 -68 12 -16 -1 -36 3 -46 11 -9 7 -1 -2 18 -19z"/>
<path d="M3187 12229 c-10 -6 -55 -15 -100 -20 -79 -8 -290 -38 -408 -58 -31
-5 -65 -13 -75 -19 -11 -6 -30 -10 -44 -11 -14 0 -56 -3 -94 -7 -57 -5 -67 -4
-60 7 6 11 3 10 -11 -1 -16 -14 -8 -16 96 -33 518 -83 1086 -188 1527 -283 78
-16 119 -21 131 -14 11 6 29 6 47 0 l29 -10 -32 5 c-18 2 -35 1 -37 -4 -8 -12
67 -22 78 -11 6 6 43 10 83 10 43 0 89 6 110 15 24 10 50 13 77 9 54 -8 129
-6 136 5 3 4 21 7 40 5 19 -2 69 -5 110 -7 l75 -4 -55 18 c-323 103 -989 280
-1390 369 -102 23 -192 43 -200 45 -8 2 -23 -1 -33 -6z m950 -425 c-3 -3 -12
-4 -19 -1 -8 3 -5 6 6 6 11 1 17 -2 13 -5z"/>
<path d="M6450 12225 c0 -2 68 -64 150 -139 89 -82 155 -134 162 -130 6 4 8 3
5 -3 -7 -10 79 -99 153 -159 19 -16 44 -40 56 -54 12 -14 25 -22 28 -19 13 13
-419 460 -469 486 -25 14 -85 26 -85 18z"/>
<path d="M6605 12190 c26 -31 158 -168 375 -390 l63 -65 -49 60 c-27 33 -51
62 -54 65 -3 3 -25 30 -50 60 -105 130 -308 344 -276 293 4 -7 3 -13 -1 -13
-5 0 -15 6 -23 13 -8 6 -1 -4 15 -23z"/>
<path d="M6688 12188 c9 -11 51 -60 92 -107 41 -47 86 -99 100 -115 40 -47 83
-92 73 -76 -23 35 -202 258 -232 288 -36 36 -60 44 -33 10z"/>
<path d="M6761 12175 c32 -47 102 -135 106 -135 7 0 -81 121 -101 138 -19 16
-19 16 -5 -3z"/>
<path d="M6800 12184 c0 -3 20 -34 43 -68 64 -89 117 -165 150 -214 16 -23 33
-39 39 -36 7 4 8 2 4 -4 -4 -7 13 -41 39 -77 47 -66 58 -72 135 -74 96 -2 279
-21 306 -31 13 -5 67 -12 120 -15 54 -3 100 -8 104 -10 6 -4 32 -7 285 -40
174 -23 321 -44 393 -57 37 -6 71 -11 76 -9 5 1 32 -3 60 -9 28 -6 66 -13 83
-16 18 -2 52 -8 75 -13 24 -5 50 -9 58 -10 16 -1 74 -10 215 -36 50 -9 106
-17 126 -19 20 -2 41 -6 47 -10 5 -3 36 -10 69 -15 85 -13 323 -57 438 -81 55
-11 150 -29 210 -40 61 -11 128 -25 150 -31 40 -11 120 -27 245 -49 36 -6 89
-18 118 -27 29 -8 56 -13 59 -9 3 3 11 2 17 -3 10 -8 78 -25 151 -36 22 -4
185 -40 202 -45 2 0 16 -3 33 -6 16 -4 27 -10 24 -15 -3 -5 1 -6 9 -3 8 3 56
-5 108 -16 52 -12 120 -27 152 -33 32 -7 56 -15 52 -18 -3 -4 19 -6 49 -5 30
1 50 -1 44 -5 -5 -4 6 -9 26 -13 20 -4 41 -4 48 0 6 4 8 3 4 -4 -4 -7 15 -15
51 -22 32 -7 94 -21 138 -32 103 -25 134 -33 220 -52 39 -8 115 -26 169 -40
54 -14 103 -23 107 -20 5 3 9 1 9 -5 0 -5 8 -10 18 -10 9 1 42 -6 72 -15 30
-8 66 -17 80 -20 14 -2 52 -12 85 -20 33 -9 71 -19 85 -21 57 -11 164 -43 147
-44 -11 -1 -134 15 -275 34 -905 123 -1991 236 -2682 280 -52 3 -120 8 -150
10 -80 7 -383 24 -630 35 -118 6 -431 13 -694 17 l-479 6 18 -24 c28 -36 270
-260 345 -319 36 -29 74 -59 85 -69 37 -31 170 -127 244 -175 l73 -49 227 12
c1184 62 2525 11 3971 -150 120 -13 133 -23 20 -16 -47 4 -159 9 -250 13 -91
3 -185 8 -210 10 -87 8 -1578 12 -1775 4 -388 -15 -540 -23 -865 -45 -102 -7
-540 -44 -619 -52 l-64 -6 37 -19 c110 -56 430 -166 634 -218 219 -55 532
-109 732 -125 41 -4 188 0 325 9 296 19 656 33 1110 46 297 8 348 12 507 39
409 70 622 115 1158 245 458 111 778 187 915 216 55 12 118 26 140 32 l40 10
-135 40 c-74 21 -184 52 -245 69 -60 17 -123 34 -140 39 -16 4 -88 25 -160 45
-71 20 -152 43 -180 51 -27 8 -81 23 -120 33 -38 11 -178 49 -310 86 -132 36
-280 77 -330 91 -49 14 -147 40 -217 59 -70 18 -164 45 -210 58 -46 14 -157
44 -248 67 -91 22 -194 50 -230 60 -121 36 -1270 326 -1500 379 -221 50 -482
111 -525 121 -53 13 -264 60 -340 76 -33 6 -170 35 -305 64 -135 28 -269 55
-298 60 -30 5 -61 12 -70 14 -20 7 -260 52 -347 66 -62 10 -110 20 -205 39
-30 6 -84 16 -120 22 -36 6 -87 15 -115 19 -27 5 -66 12 -85 15 -19 3 -60 10
-90 15 -146 26 -447 72 -650 100 -124 16 -245 33 -270 36 -25 4 -64 8 -86 9
-23 1 -47 6 -53 9 -6 4 -11 5 -11 1 0 -3 -9 -1 -20 5 -11 6 -20 8 -20 4z m477
-460 c-3 -3 -12 -4 -19 -1 -8 3 -5 6 6 6 11 1 17 -2 13 -5z m1146 -151 c-7 -2
-19 -2 -25 0 -7 3 -2 5 12 5 14 0 19 -2 13 -5z m994 -169 c-3 -3 -12 -4 -19
-1 -8 3 -5 6 6 6 11 1 17 -2 13 -5z m2620 -570 c-3 -3 -12 -4 -19 -1 -8 3 -5
6 6 6 11 1 17 -2 13 -5z"/>
<path d="M2258 12093 c7 -3 16 -2 19 1 4 3 -2 6 -13 5 -11 0 -14 -3 -6 -6z"/>
<path d="M2268 12077 c-16 -6 -28 -14 -28 -19 0 -4 -16 -8 -35 -8 -19 0 -44
-4 -57 -9 -13 -5 -69 -19 -125 -32 -57 -13 -103 -27 -103 -31 0 -4 -18 -8 -39
-8 -22 0 -42 -4 -45 -9 -4 -5 -25 -12 -49 -16 -23 -4 -52 -13 -65 -21 -12 -8
-27 -12 -32 -9 -6 3 -10 2 -10 -2 0 -5 -17 -8 -37 -6 -31 2 -33 1 -13 -5 23
-8 22 -9 -15 -15 -22 -4 -60 -7 -85 -8 -25 0 -40 -2 -35 -4 6 -2 147 -18 315
-35 168 -16 361 -37 430 -45 69 -8 204 -24 300 -35 96 -11 305 -39 463 -61
159 -22 298 -37 309 -33 11 3 44 6 74 5 30 0 54 4 54 8 0 15 30 21 50 11 14
-7 17 -6 16 7 -1 14 8 17 48 16 27 -1 50 -4 53 -7 2 -2 19 0 36 6 42 12 106
22 137 20 44 -3 111 9 105 19 -4 5 0 9 9 9 8 0 23 3 33 6 11 3 8 0 -6 -9 -20
-12 -21 -15 -6 -20 22 -9 27 -9 21 2 -8 13 42 25 99 23 81 -3 70 0 -330 83
-391 82 -740 145 -1120 204 -247 38 -285 42 -317 28z m1549 -323 c-3 -3 -12
-4 -19 -1 -8 3 -5 6 6 6 11 1 17 -2 13 -5z"/>
<path d="M37132 12022 c-1 -22 -12 -42 -31 -60 -17 -15 -37 -40 -45 -57 -11
-21 -23 -30 -40 -30 -20 -1 -23 2 -14 12 6 8 9 15 6 18 -2 2 -12 -4 -21 -15
-9 -11 -12 -20 -6 -20 6 0 9 -8 6 -19 -3 -15 0 -18 17 -14 17 4 18 3 6 -6 -13
-9 -12 -11 5 -12 11 -1 27 -1 35 0 13 2 13 1 1 -8 -10 -6 -26 -5 -49 5 -39 16
-53 18 -49 6 1 -4 -20 -29 -47 -55 -37 -35 -45 -47 -31 -47 24 0 17 -6 -18
-14 -19 -4 -26 -3 -22 4 3 5 1 10 -5 10 -7 0 -10 -6 -7 -14 3 -8 -1 -20 -9
-26 -8 -7 -14 -9 -14 -5 0 4 -16 -2 -36 -14 -39 -23 -48 -26 -39 -11 9 15 -21
23 -42 11 -15 -9 -13 -10 12 -6 17 3 24 2 17 -1 -6 -3 -10 -10 -6 -15 3 -5 1
-9 -3 -9 -5 0 -18 -7 -29 -15 -12 -10 -1 -8 31 6 88 36 250 112 260 122 6 7 5
7 -4 2 -10 -5 -12 -4 -7 4 4 6 12 9 17 5 5 -3 40 9 77 27 37 18 72 33 77 33
11 1 18 98 12 184 -2 31 -4 42 -5 24z m-227 -292 c3 -6 -1 -7 -9 -4 -18 7 -21
14 -7 14 6 0 13 -4 16 -10z"/>
<path d="M5490 11989 c19 -12 37 -21 39 -20 2 2 7 -1 10 -6 14 -21 132 -84
143 -77 7 4 10 3 5 -1 -9 -11 105 -85 131 -85 10 0 23 5 30 12 8 8 15 8 26 -1
9 -7 21 -11 28 -8 13 5 -37 28 -56 26 -5 0 -12 4 -15 9 -6 10 -86 49 -260 126
-114 51 -133 57 -81 25z"/>
<path d="M1528 11893 c7 -3 16 -2 19 1 4 3 -2 6 -13 5 -11 0 -14 -3 -6 -6z"/>
<path d="M1388 11843 c7 -3 16 -2 19 1 4 3 -2 6 -13 5 -11 0 -14 -3 -6 -6z"/>
<path d="M1446 11842 c-3 -5 -26 -12 -52 -15 -26 -2 -49 -9 -53 -14 -8 -12
-111 -48 -128 -45 -7 2 -13 -2 -13 -8 0 -5 -11 -10 -24 -10 -14 0 -27 -4 -31
-9 -3 -5 -29 -17 -58 -26 -28 -9 -83 -32 -122 -50 -38 -18 -91 -39 -117 -45
-27 -7 -48 -16 -48 -21 0 -5 -15 -9 -32 -10 -31 -1 -32 -1 -8 -9 21 -7 19 -8
-17 -9 -24 -1 -43 -5 -43 -9 0 -5 91 -12 203 -16 270 -9 848 -41 1185 -66 211
-16 286 -18 330 -10 38 7 58 7 60 0 2 -5 8 -10 13 -10 6 0 8 4 4 9 -3 5 3 12
12 14 10 3 0 5 -21 6 -49 1 -44 8 12 15 29 3 42 1 42 -7 0 -8 3 -7 9 2 7 10
20 12 49 7 25 -4 42 -2 44 5 2 5 18 11 35 11 18 1 31 4 30 7 -6 17 176 62 253
63 14 0 31 5 39 11 12 10 13 9 7 -1 -6 -10 -3 -13 10 -10 10 2 21 14 25 28 4
15 7 18 8 8 1 -15 10 -17 78 -12 93 6 110 14 25 12 -34 -1 -65 2 -69 6 -5 4 3
7 17 6 42 -4 124 0 119 5 -3 2 -30 7 -60 10 -29 3 -115 15 -189 25 -256 38
-766 99 -1070 129 -445 44 -447 44 -454 33z m951 -348 c-3 -3 -12 -4 -19 -1
-8 3 -5 6 6 6 11 1 17 -2 13 -5z"/>
<path d="M34665 11841 c-19 -31 -446 -424 -645 -594 -35 -29 59 14 400 187
575 291 638 324 620 330 -8 3 -87 21 -175 41 -88 20 -167 38 -177 41 -9 3 -19
0 -23 -5z"/>
<path d="M4958 11803 c6 -2 18 -2 25 0 6 3 1 5 -13 5 -14 0 -19 -2 -12 -5z"/>
<path d="M6018 11793 c7 -3 16 -2 19 1 4 3 -2 6 -13 5 -11 0 -14 -3 -6 -6z"/>
<path d="M37038 11745 c-48 -23 -84 -46 -80 -50 4 -5 2 -5 -5 -2 -6 4 -85 -29
-176 -73 -91 -44 -169 -80 -175 -80 -5 0 -15 -7 -22 -15 -7 -8 -15 -13 -19
-10 -4 2 -20 -5 -37 -16 -16 -10 -25 -19 -21 -19 4 0 19 7 32 16 14 9 25 13
25 10 0 -4 11 1 25 10 13 8 29 12 36 8 14 -8 -26 -33 -56 -34 -16 0 -17 -2 -5
-10 17 -11 15 -14 -25 -29 l-30 -11 28 4 c21 2 25 0 16 -10 -8 -10 -3 -15 23
-23 18 -5 58 -19 88 -31 103 -40 135 -51 170 -62 19 -6 68 -23 109 -40 l73
-29 64 30 64 30 0 240 c0 133 -3 241 -7 240 -5 0 -47 -20 -95 -44z m-328 -185
c-12 -8 -12 -10 -1 -10 8 0 12 -2 9 -5 -3 -3 -13 -3 -22 1 -19 7 -11 24 12 24
15 0 15 -2 2 -10z"/>
<path d="M4108 11753 c7 -3 16 -2 19 1 4 3 -2 6 -13 5 -11 0 -14 -3 -6 -6z"/>
<path d="M34950 11684 c-69 -36 -334 -171 -590 -301 -409 -208 -478 -246 -570
-318 -310 -240 -583 -428 -896 -617 -251 -152 -482 -279 -737 -404 l-209 -102
53 -28 c29 -16 57 -28 62 -26 18 6 845 387 1022 472 61 29 137 65 170 80 167
76 1061 503 1520 725 99 48 248 120 330 160 83 40 234 113 336 163 103 50 190
95 193 100 5 9 -74 37 -179 65 -11 3 -96 26 -190 51 -93 25 -174 46 -180 46
-5 0 -66 -30 -135 -66z"/>
<path d="M36810 11736 c6 -6 18 -5 32 1 21 10 21 10 -9 9 -19 -1 -28 -5 -23
-10z"/>
<path d="M3520 11680 c0 -5 5 -10 11 -10 5 0 7 5 4 10 -3 6 -8 10 -11 10 -2 0
-4 -4 -4 -10z"/>
<path d="M3338 11653 c7 -3 16 -2 19 1 4 3 -2 6 -13 5 -11 0 -14 -3 -6 -6z"/>
<path d="M3243 11633 c9 -2 25 -2 35 0 9 3 1 5 -18 5 -19 0 -27 -2 -17 -5z"/>
<path d="M560 11530 c0 -6 10 -10 23 -10 16 -1 8 -7 -26 -23 -26 -13 -45 -26
-41 -30 4 -4 -2 -7 -14 -7 -13 0 -22 -6 -22 -15 0 -11 -11 -15 -40 -15 -29 0
-40 -4 -40 -15 0 -8 -6 -15 -13 -15 -13 0 -101 -39 -147 -66 -14 -8 -50 -27
-80 -42 -30 -15 -64 -35 -74 -44 -10 -10 -23 -15 -28 -12 -4 3 -8 -3 -8 -13
-1 -17 -2 -17 -15 1 -8 11 -15 16 -15 10 0 -5 -3 -19 -6 -31 l-6 -23 538 -1
c297 -1 657 -4 801 -8 143 -3 259 -3 256 2 -2 4 -28 8 -56 8 l-52 1 59 9 c32
5 64 14 72 20 7 6 23 8 35 4 14 -5 19 -3 15 3 -4 7 11 16 36 23 24 6 45 14 48
18 10 13 78 40 155 61 44 12 98 30 120 40 60 27 192 60 258 64 32 2 60 6 62 8
14 14 -1104 82 -1525 93 -118 3 -227 8 -242 10 -16 3 -28 0 -28 -5z"/>
<path d="M35490 11495 c-43 -23 -498 -247 -735 -360 -60 -29 -186 -90 -280
-135 -93 -45 -206 -99 -250 -120 -44 -21 -143 -68 -220 -105 -135 -65 -219
-105 -390 -185 -44 -21 -123 -58 -175 -83 -52 -24 -169 -79 -260 -122 -91 -42
-208 -97 -260 -122 -52 -24 -261 -121 -465 -215 -203 -94 -372 -173 -375 -176
-3 -2 0 -6 5 -8 6 -2 81 -46 167 -98 l157 -94 183 80 c101 43 246 107 323 140
77 34 174 75 215 93 130 56 330 160 666 348 512 286 1173 730 1698 1141 66 51
64 58 -4 21z"/>
<path d="M2568 11493 c7 -3 16 -2 19 1 4 3 -2 6 -13 5 -11 0 -14 -3 -6 -6z"/>
<path d="M2408 11453 c7 -3 16 -2 19 1 4 3 -2 6 -13 5 -11 0 -14 -3 -6 -6z"/>
<path d="M36400 11331 c0 -6 6 -11 13 -11 6 -1 0 -8 -15 -16 -16 -8 -28 -19
-28 -24 0 -6 -8 -10 -17 -10 -15 0 -16 -2 -3 -10 9 -6 10 -10 3 -10 -15 0 -73
-55 -73 -69 0 -5 -16 -15 -35 -21 -35 -12 -56 -35 -48 -56 2 -7 -10 -17 -28
-23 -17 -6 -42 -21 -55 -33 -12 -13 -43 -41 -68 -63 -25 -22 -46 -45 -46 -51
0 -16 -45 -34 -69 -27 -21 5 -27 -7 -22 -45 1 -7 -4 -12 -11 -11 -24 3 -63 -2
-52 -7 7 -3 10 -14 7 -25 -5 -17 -7 -17 -17 -5 -8 11 -13 12 -22 3 -5 -7 -11
-16 -12 -22 -1 -5 -12 -10 -25 -10 -13 0 -26 -9 -32 -22 -10 -25 -41 -37 -49
-19 -3 6 -3 1 -1 -10 5 -17 -1 -24 -25 -32 -17 -6 -30 -18 -30 -28 0 -12 -6
-15 -25 -10 -24 6 -82 -20 -70 -32 2 -3 -3 -11 -13 -18 -9 -8 38 10 105 39 89
38 123 57 123 70 0 9 8 17 18 17 14 0 15 -2 2 -10 -8 -5 -12 -11 -9 -14 8 -9
100 40 92 49 -5 4 -2 5 5 1 16 -9 54 3 47 15 -3 5 0 6 8 4 11 -5 246 94 800
338 64 28 117 54 117 57 0 3 -22 12 -48 21 -26 9 -105 38 -177 64 -71 26 -144
50 -161 55 -18 4 -37 10 -43 14 -6 4 -11 2 -11 -3z m-575 -561 c3 -5 -1 -10
-10 -10 -9 0 -13 5 -10 10 3 6 8 10 10 10 2 0 7 -4 10 -10z m-138 -86 c-3 -3
-12 -4 -19 -1 -8 3 -5 6 6 6 11 1 17 -2 13 -5z"/>
<path d="M37085 11258 c-26 -14 -35 -23 -25 -26 8 -2 30 -11 48 -18 l32 -13 0
40 c0 21 -3 39 -7 39 -5 -1 -26 -10 -48 -22z"/>
<path d="M48 11154 l-38 -5 0 -185 0 -185 68 5 c37 3 189 8 337 12 202 5 275
10 290 20 11 8 38 13 60 12 l40 -1 -45 -7 -45 -8 45 2 c25 0 44 5 42 11 -2 6
7 13 20 16 16 4 9 6 -20 7 -24 0 -46 3 -50 7 -4 4 28 5 70 3 56 -2 72 -1 59 7
-15 8 -16 12 -6 22 16 15 82 33 91 25 4 -4 5 -2 2 3 -4 6 11 19 33 29 21 11
39 23 39 27 0 4 14 11 32 14 17 4 47 16 65 26 19 11 40 19 48 19 8 0 15 4 15
9 0 5 14 13 32 16 18 4 39 11 48 15 8 5 30 14 48 20 33 13 41 25 20 33 -7 2 3
4 22 3 19 0 58 1 85 3 l50 3 -40 9 c-43 8 -1355 20 -1417 13z"/>
<path d="M36820 11142 c-19 -10 -53 -25 -75 -34 -22 -9 -65 -28 -96 -42 -87
-39 -560 -246 -564 -246 -2 0 -32 -13 -67 -29 -95 -43 -228 -101 -380 -167
-75 -32 -134 -63 -131 -68 4 -5 -1 -7 -10 -3 -9 3 -23 -1 -32 -9 -8 -8 -18
-13 -22 -11 -5 2 -30 -7 -58 -20 -27 -13 -39 -21 -25 -18 14 3 19 2 12 -1 -6
-3 -10 -9 -8 -12 2 -4 -7 -8 -20 -8 -13 -1 -21 2 -18 8 3 5 -11 2 -33 -7 -21
-9 -44 -19 -50 -22 -23 -9 -14 -23 15 -24 l27 0 -24 -10 c-13 -5 -35 -10 -48
-11 -13 -2 -30 -9 -36 -17 -10 -12 -8 -13 13 -6 24 7 24 7 9 -16 -9 -13 -30
-31 -48 -41 -27 -15 -31 -16 -31 -2 0 9 -5 14 -11 12 -6 -2 -10 -7 -9 -11 0
-4 -5 -13 -12 -20 -20 -18 -108 -77 -115 -77 -3 0 -24 -18 -46 -41 -23 -23
-43 -36 -46 -30 -9 14 -81 -18 -81 -36 0 -7 -6 -13 -13 -13 -7 0 -28 -15 -47
-34 -19 -18 -46 -36 -60 -40 -44 -12 -120 -51 -120 -61 0 -5 -10 -15 -23 -21
-58 -28 -132 -70 -135 -76 -2 -5 -9 -8 -16 -8 -7 0 -21 -9 -31 -20 -10 -11
-25 -20 -33 -20 -7 0 -26 -9 -41 -19 -15 -11 -39 -23 -54 -26 -14 -4 -31 -13
-38 -21 -6 -8 -19 -14 -29 -14 -10 0 -22 -6 -28 -13 -6 -7 -38 -26 -72 -42
-33 -16 -60 -35 -60 -42 0 -13 -4 -15 -37 -16 -10 -1 -20 -4 -23 -7 -16 -17
-157 -85 -208 -100 -23 -7 -42 -16 -42 -19 0 -9 -62 -35 -88 -36 -24 -1 -45
-23 -36 -37 5 -7 -27 -12 -64 -11 -7 1 -11 -5 -8 -13 4 -10 -6 -16 -36 -21
-23 -3 -52 -16 -65 -29 -15 -15 -29 -20 -44 -17 -14 4 -20 2 -16 -4 8 -13 -17
-25 -37 -17 -7 3 -26 -6 -42 -19 -38 -32 -72 -49 -83 -42 -14 8 -41 -6 -41
-22 0 -8 -5 -11 -10 -8 -6 4 -8 10 -5 15 3 5 0 12 -6 16 -7 4 -9 3 -5 -4 3 -5
0 -12 -6 -14 -8 -3 -3 -10 11 -18 21 -11 26 -10 36 4 7 8 14 14 17 11 7 -7 98
25 98 35 0 4 7 11 16 14 10 4 13 2 8 -6 -5 -8 -2 -9 12 -3 46 18 188 72 224
85 14 4 120 44 235 88 116 44 347 132 515 195 429 163 592 226 615 237 11 5
124 50 250 99 350 137 396 157 388 166 -5 4 -2 5 5 1 11 -6 178 54 352 128 30
13 143 59 252 102 108 43 194 83 191 88 -4 5 -1 6 5 2 10 -6 85 21 367 137
142 58 161 66 215 90 25 12 47 21 50 22 3 0 44 16 93 34 l87 34 0 131 0 132
-57 26 c-98 43 -190 78 -210 78 -10 -1 -34 -9 -53 -18z m-1200 -567 c0 -2 -6
-5 -13 -8 -8 -3 -14 1 -14 8 0 7 6 11 14 8 7 -3 13 -6 13 -8z m-70 -9 c0 -3
-4 -8 -10 -11 -5 -3 -10 -1 -10 4 0 6 5 11 10 11 6 0 10 -2 10 -4z m-120 -56
c-8 -5 -22 -9 -30 -9 -10 0 -8 3 5 9 27 12 43 12 25 0z m20 -14 c0 -3 -4 -8
-10 -11 -5 -3 -10 -1 -10 4 0 6 5 11 10 11 6 0 10 -2 10 -4z m-130 -35 c0 -11
-25 -21 -53 -21 -21 1 -21 1 3 15 29 16 50 19 50 6z m-50 -61 c-8 -5 -24 -9
-35 -9 l-20 0 20 9 c11 5 27 9 35 9 13 1 13 0 0 -9z m-1713 -986 c-3 -3 -12
-4 -19 -1 -8 3 -5 6 6 6 11 1 17 -2 13 -5z"/>
<path d="M7250 11053 c0 -9 362 -194 368 -188 13 12 -42 57 -150 121 -107 64
-129 74 -170 74 -27 0 -48 -3 -48 -7z"/>
<path d="M7430 11032 c25 -16 67 -41 93 -56 l49 -28 -14 25 c-22 42 -92 87
-135 87 l-38 0 45 -28z"/>
<path d="M7074 11042 c7 -12 137 -75 326 -158 96 -42 197 -87 224 -100 27 -13
51 -22 54 -20 6 7 -31 58 -47 64 -9 4 -109 55 -222 115 -202 105 -208 107
-273 107 -37 0 -65 -3 -62 -8z"/>
<path d="M7549 11033 c12 -24 31 -39 31 -25 0 5 -10 17 -21 28 -22 19 -22 19
-10 -3z"/>
<path d="M6390 11021 l-65 -6 140 -38 c77 -21 160 -45 184 -53 25 -7 46 -12
48 -11 7 7 -206 117 -224 115 -10 -1 -47 -4 -83 -7z"/>
<path d="M5993 10992 c-95 -8 -173 -18 -173 -22 0 -4 51 -17 113 -29 228 -46
661 -145 967 -221 173 -43 316 -78 317 -77 5 5 -405 213 -441 224 -23 7 -143
42 -267 78 -253 73 -239 72 -516 47z"/>
<path d="M7626 10976 c3 -8 13 -17 22 -21 13 -5 13 -2 -3 15 -21 24 -26 25
-19 6z"/>
<path d="M7590 10962 c0 -16 40 -56 48 -48 3 4 -6 19 -21 34 -15 14 -27 21
-27 14z"/>
<path d="M5378 10925 c-141 -18 -262 -35 -269 -37 -7 -2 64 -14 157 -27 561
-75 1370 -217 2028 -356 170 -36 311 -63 312 -62 2 2 -65 38 -149 80 l-152 77
-340 84 c-652 162 -1180 276 -1266 275 -35 0 -179 -16 -321 -34z"/>
<path d="M7682 10891 c7 -11 19 -23 27 -26 11 -5 11 -2 -1 17 -20 30 -45 39
-26 9z"/>
<path d="M4789 10840 c-124 -21 -302 -53 -395 -71 l-169 -33 100 -8 c614 -45
832 -65 1280 -114 578 -63 1223 -150 1705 -230 211 -35 217 -36 330 -24 63 6
116 13 118 14 8 8 -141 44 -462 111 -663 140 -1362 262 -2016 355 -118 16
-226 32 -240 34 -14 2 -127 -13 -251 -34z"/>
<path d="M7651 10856 c6 -13 22 -29 35 -35 24 -11 24 -10 8 15 -9 13 -25 29
-35 35 -17 9 -18 7 -8 -15z"/>
<path d="M7390 10866 c0 -5 327 -186 335 -186 15 0 -19 42 -45 55 -51 26 -290
134 -290 131z"/>
<path d="M7770 10835 c13 -14 26 -25 28 -25 3 0 -5 11 -18 25 -13 14 -26 25
-28 25 -3 0 5 -11 18 -25z"/>
<path d="M7730 10822 c0 -9 25 -33 48 -47 11 -6 11 -3 1 12 -14 23 -49 47 -49
35z"/>
<path d="M7700 10770 c12 -22 58 -56 66 -48 7 7 -52 68 -65 68 -9 0 -9 -5 -1
-20z"/>
<path d="M275 10770 c-88 -4 -184 -8 -212 -9 l-53 -1 0 -185 0 -185 44 0 c25
0 47 4 50 9 4 5 -9 8 -29 7 -19 -2 -32 1 -29 6 3 5 11 7 17 6 21 -4 68 12 63
21 -3 5 0 14 8 20 11 9 15 9 19 -1 3 -7 6 -4 6 7 1 19 49 55 74 55 7 0 25 12
40 26 15 14 37 27 49 29 12 3 37 21 55 41 21 24 37 34 48 30 9 -3 13 -2 10 4
-6 10 14 15 48 12 24 -3 53 19 52 38 -1 20 20 28 80 31 45 1 47 2 16 8 -31 5
-33 7 -17 20 14 12 21 13 38 2 20 -12 38 -8 24 7 -10 10 -205 11 -401 2z"/>
<path d="M698 10773 c7 -3 16 -2 19 1 4 3 -2 6 -13 5 -11 0 -14 -3 -6 -6z"/>
<path d="M7821 10762 c7 -12 20 -24 27 -27 21 -8 9 17 -17 34 -23 15 -24 15
-10 -7z"/>
<path d="M37055 10735 c-33 -14 -69 -29 -80 -35 -11 -5 -117 -49 -235 -96
-118 -48 -287 -116 -375 -151 -244 -99 -539 -217 -750 -300 -104 -41 -287
-113 -405 -160 -118 -47 -242 -95 -275 -108 -33 -13 -125 -49 -205 -80 -80
-31 -208 -81 -285 -110 -77 -30 -187 -72 -245 -94 -58 -23 -317 -121 -577
-218 -378 -142 -470 -180 -461 -191 6 -7 17 -11 25 -8 8 3 12 2 9 -3 -3 -4 50
-46 117 -91 67 -46 132 -91 145 -101 22 -17 29 -15 228 52 114 37 213 74 220
80 8 6 14 9 14 6 0 -2 44 10 98 28 105 36 469 163 542 189 25 9 86 30 135 47
144 49 687 244 828 296 39 15 74 28 77 28 34 5 109 39 104 47 -4 7 -2 8 5 4
16 -10 171 45 164 58 -3 5 -2 6 4 3 9 -6 84 16 107 31 12 7 16 8 44 11 15 2
15 4 -3 11 -14 7 -8 8 19 3 30 -4 37 -3 31 7 -5 8 -4 11 3 6 15 -9 263 85 255
97 -3 6 -1 7 5 3 11 -6 201 56 227 74 6 4 60 33 120 65 129 68 147 79 138 89
-4 4 0 4 10 0 11 -4 19 0 23 11 4 9 13 14 21 10 11 -3 13 -1 10 10 -4 8 -1 17
5 21 7 4 8 3 4 -4 -4 -7 -3 -12 3 -12 5 0 13 5 16 10 4 6 11 8 16 5 5 -4 9 -1
9 5 0 6 -6 10 -12 9 -7 -1 -20 -1 -28 0 -13 1 -13 2 0 11 10 6 22 4 37 -5 16
-11 24 -12 29 -3 5 7 3 8 -6 3 -9 -6 -11 -4 -6 4 5 7 14 10 21 7 18 -6 72 29
72 47 0 8 -5 14 -11 13 -6 -2 -8 -1 -3 1 4 3 5 8 3 12 -3 4 10 8 29 9 18 2 36
-2 40 -8 5 -8 11 -7 21 1 19 16 21 379 2 379 -7 -1 -40 -12 -73 -25z m75 -314
c0 -17 -4 -32 -9 -35 -4 -3 -6 6 -3 19 3 19 0 25 -14 25 -16 0 -17 2 -4 10 24
16 30 12 30 -19z m-112 -72 c24 -8 23 -8 -10 -6 -21 2 -38 -1 -38 -7 0 -5 -2
-7 -5 -4 -9 9 7 38 17 32 5 -3 22 -10 36 -15z m-238 -129 c-8 -5 -19 -10 -25
-10 -5 0 -3 5 5 10 8 5 20 10 25 10 6 0 3 -5 -5 -10z m25 -10 c-3 -5 -12 -10
-18 -10 -7 0 -6 4 3 10 19 12 23 12 15 0z m-55 -15 c11 -13 10 -14 -5 -9 -12
5 -16 4 -11 -4 3 -6 3 -13 -2 -16 -4 -2 -8 6 -8 20 0 28 8 30 26 9z m-70 -55
c-8 -5 -19 -10 -25 -10 -5 0 -3 5 5 10 8 5 20 10 25 10 6 0 3 -5 -5 -10z
m-196 -82 c-3 -4 -12 -8 -20 -8 -8 0 -13 4 -10 8 3 5 12 9 20 9 8 0 13 -4 10
-9z"/>
<path d="M7780 10743 c1 -14 24 -39 48 -52 22 -12 23 -11 13 7 -11 21 -61 58
-61 45z"/>
<path d="M35660 10720 c0 -5 5 -10 10 -10 6 0 10 5 10 10 0 6 -4 10 -10 10 -5
0 -10 -4 -10 -10z"/>
<path d="M3990 10685 c-186 -43 -522 -128 -625 -160 l-80 -24 75 -2 c41 -1
143 -3 225 -4 289 -5 781 -16 845 -20 36 -2 151 -7 255 -10 105 -3 219 -7 255
-10 36 -2 112 -7 170 -10 241 -12 464 -25 595 -35 397 -30 792 -63 1069 -91
307 -31 309 -31 425 -15 64 9 144 19 179 22 34 4 62 11 62 15 0 5 -6 9 -13 9
-7 0 -98 13 -203 30 -755 117 -1490 208 -2224 274 -357 33 -784 66 -829 65
-20 0 -101 -15 -181 -34z"/>
<path d="M7910 10705 c7 -8 17 -15 22 -15 6 0 5 7 -2 15 -7 8 -17 15 -22 15
-6 0 -5 -7 2 -15z"/>
<path d="M7740 10699 c0 -6 14 -24 31 -40 30 -28 49 -37 49 -21 -1 25 -80 86
-80 61z"/>
<path d="M7879 10681 c11 -19 41 -41 57 -41 10 0 -28 40 -49 52 -16 8 -17 7
-8 -11z"/>
<path d="M35600 10689 c0 -5 5 -7 10 -4 6 3 10 8 10 11 0 2 -4 4 -10 4 -5 0
-10 -5 -10 -11z"/>
<path d="M7844 10637 c16 -23 66 -54 66 -39 -1 15 -36 50 -58 57 -23 7 -23 6
-8 -18z"/>
<path d="M7966 10637 c3 -8 17 -20 31 -26 24 -11 25 -11 13 4 -20 24 -51 39
-44 22z"/>
<path d="M7936 10598 c10 -13 19 -24 19 -24 0 -1 11 -5 25 -8 24 -7 23 -6 -8
23 -37 36 -64 42 -36 9z"/>
<path d="M35470 10599 c11 -7 6 -9 -20 -6 -19 2 -27 2 -17 0 9 -2 15 -8 12
-13 -3 -5 8 -4 26 2 23 8 27 13 17 19 -19 12 -36 11 -18 -2z"/>
<path d="M8054 10591 c4 -6 16 -16 28 -22 15 -8 18 -8 14 0 -4 6 -16 16 -28
22 -15 8 -18 8 -14 0z"/>
<path d="M8043 10545 c15 -14 33 -25 40 -25 7 0 -1 12 -16 25 -15 14 -33 25
-40 25 -7 0 1 -12 16 -25z"/>
<path d="M35408 10563 c7 -3 16 -2 19 1 4 3 -2 6 -13 5 -11 0 -14 -3 -6 -6z"/>
<path d="M8147 10539 c7 -7 15 -10 18 -7 3 3 -2 9 -12 12 -14 6 -15 5 -6 -5z"/>
<path d="M8129 10509 c13 -11 27 -17 30 -13 7 7 -28 34 -43 34 -6 -1 0 -10 13
-21z"/>
<path d="M35310 10520 c-8 -5 -10 -10 -5 -10 6 0 17 5 25 10 8 5 11 10 5 10
-5 0 -17 -5 -25 -10z"/>
<path d="M8080 10492 c0 -4 14 -15 30 -24 29 -17 42 -10 18 9 -19 14 -48 24
-48 15z"/>
<path d="M3170 10471 c-14 -5 -113 -37 -220 -71 -172 -55 -551 -188 -620 -219
-25 -11 110 -9 345 4 797 47 2541 54 3430 15 363 -16 375 -15 650 34 138 24
245 45 239 45 -6 1 -76 8 -155 16 -497 51 -1328 112 -1924 140 -60 3 -148 7
-195 10 -47 3 -186 7 -310 10 -124 3 -261 8 -305 10 -191 9 -912 14 -935 6z"/>
<path d="M8210 10475 c0 -2 10 -10 23 -16 20 -11 21 -11 8 4 -13 16 -31 23
-31 12z"/>
<path d="M8193 10435 c15 -14 33 -25 40 -25 7 0 -1 12 -16 25 -15 14 -33 25
-40 25 -7 0 1 -12 16 -25z"/>
<path d="M8307 10429 c7 -7 15 -10 18 -7 3 3 -2 9 -12 12 -14 6 -15 5 -6 -5z"/>
<path d="M14445 10411 c-11 -4 -62 -16 -113 -26 -51 -10 -91 -19 -89 -22 7 -6
241 39 252 48 11 11 -22 11 -50 0z"/>
<path d="M14500 10385 c-299 -56 -655 -127 -659 -131 -8 -8 16 -4 154 21 74
14 233 41 353 60 119 20 228 38 242 41 23 6 24 7 5 14 -24 10 -15 11 -95 -5z"/>
<path d="M37056 10365 c4 -8 9 -15 13 -15 8 0 37 19 31 21 -3 0 -15 2 -27 5
-17 3 -21 0 -17 -11z"/>
<path d="M51 10354 c0 -11 3 -14 6 -6 3 7 2 16 -1 19 -3 4 -6 -2 -5 -13z"/>
<path d="M14440 10329 c-129 -22 -262 -43 -295 -48 -98 -15 -401 -69 -535 -95
-137 -26 -137 -35 0 -11 147 26 615 93 865 125 222 29 320 47 257 49 -13 1
-31 5 -40 10 -11 5 -105 -6 -252 -30z"/>
<path d="M14198 10353 c6 -2 18 -2 25 0 6 3 1 5 -13 5 -14 0 -19 -2 -12 -5z"/>
<path d="M35048 10323 c7 -3 16 -2 19 1 4 3 -2 6 -13 5 -11 0 -14 -3 -6 -6z"/>
<path d="M14660 10305 c-52 -7 -202 -27 -334 -44 -399 -53 -1198 -177 -1155
-180 9 0 99 10 200 24 404 54 1090 133 1394 160 99 9 184 17 189 19 19 5 -129
36 -164 35 -19 -1 -78 -7 -130 -14z"/>
<path d="M14965 10263 c-816 -78 -1164 -118 -1760 -198 -463 -63 -467 -69 -15
-21 558 59 1354 126 1755 147 280 14 296 18 185 48 -105 28 -115 29 -165 24z"/>
<path d="M13793 10243 c9 -2 23 -2 30 0 6 3 -1 5 -18 5 -16 0 -22 -2 -12 -5z"/>
<path d="M13748 10233 c7 -3 16 -2 19 1 4 3 -2 6 -13 5 -11 0 -14 -3 -6 -6z"/>
<path d="M13698 10223 c7 -3 16 -2 19 1 4 3 -2 6 -13 5 -11 0 -14 -3 -6 -6z"/>
<path d="M3989 10207 c-2 -3 -177 -8 -389 -12 -212 -4 -398 -8 -415 -10 -16
-1 -132 -6 -257 -10 -125 -4 -242 -8 -260 -10 -18 -2 -118 -6 -223 -10 -104
-3 -199 -9 -210 -12 -98 -27 -875 -382 -838 -383 6 0 96 9 200 20 247 26 805
75 1063 95 113 8 225 17 250 20 25 3 153 12 285 20 338 21 401 25 480 30 39 3
214 12 390 20 176 8 365 17 420 20 167 8 420 15 845 25 l405 9 185 45 c102 24
247 57 324 73 l139 28 -54 7 c-29 3 -172 9 -318 13 -146 4 -291 9 -321 11 -80
5 -1695 15 -1701 11z"/>
<path d="M8720 10181 c0 -10 30 -24 37 -17 3 2 -5 9 -16 16 -12 6 -21 7 -21 1z"/>
<path d="M14835 10164 c-410 -26 -537 -36 -825 -60 -521 -43 -1456 -141 -1446
-152 2 -2 116 6 253 17 609 51 1207 86 1859 111 l251 9 114 45 114 45 -60 -1
c-33 0 -150 -6 -260 -14z"/>
<path d="M15343 10150 c-135 -49 -136 -48 72 -48 145 0 182 2 155 10 -19 6
-67 20 -107 33 -70 21 -74 21 -120 5z"/>
<path d="M8817 10149 c7 -7 15 -10 18 -7 3 3 -2 9 -12 12 -14 6 -15 5 -6 -5z"/>
<path d="M13448 10153 c6 -2 18 -2 25 0 6 3 1 5 -13 5 -14 0 -19 -2 -12 -5z"/>
<path d="M13388 10143 c6 -2 18 -2 25 0 6 3 1 5 -13 5 -14 0 -19 -2 -12 -5z"/>
<path d="M8770 10134 c0 -8 71 -36 78 -30 3 3 -11 13 -31 21 -40 16 -47 18
-47 9z"/>
<path d="M13338 10133 c7 -3 16 -2 19 1 4 3 -2 6 -13 5 -11 0 -14 -3 -6 -6z"/>
<path d="M8191 10121 l-33 -6 18 -23 c19 -22 94 -43 94 -26 0 5 -10 21 -23 35
-18 21 -28 24 -56 20z"/>
<path d="M15985 10115 c22 -8 60 -13 85 -13 41 0 39 1 -25 14 -88 16 -112 16
-60 -1z"/>
<path d="M8277 10094 c17 -27 50 -44 84 -44 30 0 14 17 -41 45 -61 31 -64 31
-43 -1z"/>
<path d="M8070 10100 c0 -14 35 -30 65 -30 21 0 26 4 21 16 -3 9 -6 18 -6 20
0 2 -18 4 -40 4 -22 0 -40 -4 -40 -10z"/>
<path d="M8900 10096 c28 -17 50 -21 35 -7 -6 5 -21 12 -35 15 l-25 7 25 -15z"/>
<path d="M7995 10090 c-4 -6 7 -10 24 -10 17 0 31 5 31 10 0 6 -11 10 -24 10
-14 0 -28 -4 -31 -10z"/>
<path d="M7705 10050 c-287 -47 -287 -45 -5 -53 140 -4 290 -10 333 -14 l79
-6 -21 41 c-22 44 -18 43 -176 56 -22 2 -116 -9 -210 -24z"/>
<path d="M8861 10076 c2 -2 20 -11 39 -20 l35 -17 -24 21 c-13 11 -30 20 -39
20 -8 0 -13 -2 -11 -4z"/>
<path d="M8990 10076 c0 -2 9 -6 20 -9 11 -3 18 -1 14 4 -5 9 -34 13 -34 5z"/>
<path d="M13113 10073 c9 -2 23 -2 30 0 6 3 -1 5 -18 5 -16 0 -22 -2 -12 -5z"/>
<path d="M15190 10073 c-30 -2 -64 -7 -75 -12 -11 -5 -60 -24 -108 -41 -48
-18 -90 -37 -93 -42 -3 -4 154 -8 348 -8 194 -1 468 -5 608 -10 140 -4 257 -7
259 -5 2 2 -10 7 -25 10 -33 7 -69 17 -271 75 l-142 40 -223 -2 c-123 -1 -248
-3 -278 -5z"/>
<path d="M16130 10077 c4 -4 48 -16 310 -89 41 -11 104 -29 140 -40 44 -13
121 -22 240 -29 96 -5 242 -14 324 -19 82 -6 151 -9 152 -7 8 7 -1020 182
-1091 185 -44 2 -78 2 -75 -1z"/>
<path d="M13048 10063 c6 -2 18 -2 25 0 6 3 1 5 -13 5 -14 0 -19 -2 -12 -5z"/>
<path d="M14575 10059 c-786 -32 -2088 -121 -2180 -149 -24 -7 -19 -8 25 -5
70 6 628 32 965 45 143 6 487 13 765 16 l505 7 95 39 c52 21 104 43 115 48 24
10 -7 10 -290 -1z"/>
<path d="M8109 10021 c20 -39 24 -41 66 -41 l44 0 -20 35 c-12 19 -27 35 -34
35 -7 0 -27 3 -45 6 l-32 7 21 -42z"/>
<path d="M8970 10046 c28 -17 60 -22 45 -7 -6 5 -23 12 -40 16 l-30 6 25 -15z"/>
<path d="M8223 10011 c20 -38 25 -41 65 -41 48 0 50 5 19 42 -15 18 -36 29
-64 33 l-42 7 22 -41z"/>
<path d="M8333 10005 c19 -30 27 -34 65 -35 l43 0 -20 29 c-12 17 -34 31 -52
35 -57 11 -60 9 -36 -29z"/>
<path d="M9080 10026 c14 -9 32 -15 40 -15 13 0 13 1 0 8 -8 5 -26 12 -40 15
l-25 7 25 -15z"/>
<path d="M8430 10025 c0 -3 10 -19 22 -35 17 -24 29 -30 60 -30 29 0 36 3 32
15 -9 21 -114 67 -114 50z"/>
<path d="M9035 9997 c21 -15 85 -30 85 -21 0 8 -67 34 -87 34 -16 0 -15 -1 2
-13z"/>
<path d="M9188 10003 c7 -3 16 -2 19 1 4 3 -2 6 -13 5 -11 0 -14 -3 -6 -6z"/>
<path d="M12793 10003 c9 -2 23 -2 30 0 6 3 -1 5 -18 5 -16 0 -22 -2 -12 -5z"/>
<path d="M5165 9989 c-397 -10 -1372 -53 -1470 -64 -22 -2 -96 -7 -165 -10
-369 -17 -1347 -96 -1972 -160 l-227 -23 -123 -64 c-203 -108 -643 -366 -635
-374 1 -1 106 13 232 31 355 53 1039 145 1335 180 74 9 207 24 295 35 587 72
1497 159 2125 205 304 22 292 19 524 91 116 36 290 87 386 114 l175 49 -100
-1 c-55 -1 -226 -5 -380 -9z"/>
<path d="M7140 9950 c-107 -21 -247 -50 -310 -64 l-115 -26 95 5 c52 3 377 8
722 12 l627 6 -19 38 c-18 35 -24 38 -72 43 -53 6 -645 27 -703 25 -16 0 -118
-18 -225 -39z"/>
<path d="M9160 9975 c14 -8 34 -14 45 -14 18 0 17 1 -5 14 -14 8 -34 14 -45
14 -18 0 -17 -1 5 -14z"/>
<path d="M9270 9960 c8 -5 24 -10 35 -10 17 0 17 2 5 10 -8 5 -24 10 -35 10
-17 0 -17 -2 -5 -10z"/>
<path d="M8161 9920 c21 -37 26 -40 66 -40 24 0 43 3 43 8 0 4 -9 22 -20 40
-18 29 -25 32 -65 32 l-46 0 22 -40z"/>
<path d="M8260 9954 c0 -4 9 -22 21 -40 18 -30 25 -34 65 -34 47 0 49 6 12 51
-13 16 -98 36 -98 23z"/>
<path d="M9130 9940 c19 -10 46 -19 60 -19 l25 0 -25 13 c-14 7 -41 16 -60 19
l-35 6 35 -19z"/>
<path d="M14060 9949 c-436 -7 -884 -22 -1285 -44 l-240 -12 230 -3 c127 -2
244 -5 260 -6 17 -2 332 -7 700 -12 l670 -9 104 44 c58 24 107 45 109 48 3 3
-26 4 -64 3 -38 -1 -256 -5 -484 -9z"/>
<path d="M14731 9912 c-109 -45 -113 -47 -80 -54 19 -3 183 -11 364 -18 182
-6 485 -19 675 -30 190 -11 354 -19 365 -19 24 1 515 -36 745 -56 203 -18 230
-19 210 -4 -12 9 -11 10 5 4 67 -24 165 -38 165 -24 0 5 -2 9 -5 9 -2 0 -89
23 -192 51 -186 50 -242 59 -295 44 -27 -7 -57 0 -338 80 l-115 33 -460 11
c-253 6 -566 13 -695 15 l-235 5 -114 -47z"/>
<path d="M8392 9915 c20 -31 28 -35 66 -35 23 0 42 3 42 6 0 3 -9 19 -21 35
-17 25 -27 29 -65 29 l-44 0 22 -35z"/>
<path d="M8490 9942 c0 -2 9 -17 21 -33 17 -24 28 -29 60 -29 43 0 46 5 21 36
-12 14 -33 23 -60 26 -23 2 -42 2 -42 0z"/>
<path d="M9388 9943 c7 -3 16 -2 19 1 4 3 -2 6 -13 5 -11 0 -14 -3 -6 -6z"/>
<path d="M8622 9910 c18 -25 29 -30 65 -30 27 0 42 4 38 10 -10 16 -82 50
-105 50 -21 0 -20 0 2 -30z"/>
<path d="M9245 9925 c17 -8 39 -14 49 -15 20 0 20 0 0 15 -10 8 -32 14 -49 14
l-30 -1 30 -13z"/>
<path d="M36223 9915 c-35 -12 -60 -26 -55 -30 4 -5 2 -5 -4 -2 -10 6 -42 -5
-231 -74 -43 -16 -59 -26 -50 -32 8 -6 6 -7 -7 -3 -23 8 -118 -22 -111 -34 3
-5 0 -12 -6 -16 -8 -4 -9 -3 -5 4 10 16 -9 15 -44 -3 -17 -9 -31 -15 -32 -14
-6 5 -115 -34 -138 -49 -14 -9 -34 -17 -45 -18 -11 -1 -85 -25 -165 -54 -80
-28 -163 -58 -185 -65 -22 -8 -92 -33 -155 -55 -63 -23 -150 -54 -193 -69 -44
-15 -75 -30 -70 -35 4 -5 3 -6 -4 -2 -14 8 -224 -62 -235 -78 -4 -6 -8 -8 -8
-4 0 3 -19 0 -42 -7 -81 -26 -252 -86 -262 -93 -6 -3 -18 -8 -26 -9 -14 -2
-494 -165 -592 -201 l-48 -17 78 -57 78 -56 143 47 c79 26 139 50 134 55 -4 5
-2 6 5 2 7 -4 29 -2 48 4 28 10 33 15 23 22 -10 7 -9 8 5 4 25 -8 147 34 139
47 -4 6 -1 7 6 3 14 -9 151 33 151 46 0 5 5 6 10 3 6 -3 10 -1 10 5 0 6 4 9
10 5 8 -5 59 14 305 113 22 9 42 20 43 24 2 5 12 8 23 8 10 0 19 5 19 10 0 6
6 10 13 8 12 -3 95 28 167 60 19 9 37 17 40 17 21 4 132 50 136 56 3 5 11 9
19 9 8 0 47 15 87 33 40 19 78 35 83 37 6 2 16 10 23 19 8 9 11 10 7 4 -9 -18
10 -16 25 2 10 12 10 15 0 15 -8 0 -10 3 -7 6 4 4 12 2 19 -4 9 -7 26 -4 58
11 100 45 147 66 185 82 77 31 95 40 95 47 0 5 8 8 18 8 32 0 212 93 212 109
0 12 3 13 8 4 6 -9 36 1 112 39 58 28 108 55 111 60 3 5 8 9 10 7 9 -5 49 13
49 22 0 5 8 9 18 9 9 0 31 9 47 20 37 24 28 23 -52 -5z m-113 -70 c0 -2 -6 -5
-13 -8 -8 -3 -14 1 -14 8 0 7 6 11 14 8 7 -3 13 -6 13 -8z m-295 -125 c3 -6
-1 -7 -9 -4 -18 7 -21 14 -7 14 6 0 13 -4 16 -10z m-120 -40 c13 -6 15 -9 5
-9 -8 0 -22 4 -30 9 -18 12 -2 12 25 0z m-560 -278 c-3 -3 -11 0 -18 7 -9 10
-8 11 6 5 10 -3 15 -9 12 -12z"/>
<path d="M9340 9921 c8 -5 31 -11 50 -14 35 -6 35 -6 10 8 -14 8 -36 14 -50
14 -19 0 -21 -2 -10 -8z"/>
<path d="M9455 9910 c3 -5 16 -10 28 -9 21 0 21 1 2 9 -28 12 -37 12 -30 0z"/>
<path d="M31675 9825 c-450 -195 -957 -368 -1512 -516 -78 -20 -178 -60 -328
-129 -118 -55 -220 -100 -225 -100 -29 0 3 -24 125 -93 l134 -77 163 71 c90
39 208 90 263 114 111 48 622 274 870 385 145 65 340 153 680 307 66 30 124
58 128 62 9 9 -74 62 -95 60 -7 -1 -98 -39 -203 -84z"/>
<path d="M9221 9896 c14 -13 69 -35 69 -28 0 9 -44 32 -62 32 -6 0 -9 -2 -7
-4z"/>
<path d="M9310 9881 c15 -12 39 -21 60 -20 33 0 34 1 16 14 -11 8 -30 15 -42
15 -12 0 -31 3 -41 6 -13 4 -11 0 7 -15z"/>
<path d="M16785 9895 c11 -5 498 -138 730 -199 148 -39 166 -42 725 -106 551
-64 1169 -148 1706 -231 l142 -22 76 28 c41 16 74 31 72 32 -1 2 -117 21 -257
43 -249 40 -1077 177 -1354 225 -403 69 -525 91 -805 140 -246 43 -350 56
-535 69 -261 18 -515 28 -500 21z"/>
<path d="M9425 9876 c11 -8 36 -15 55 -15 43 0 23 13 -35 23 -37 7 -39 6 -20
-8z"/>
<path d="M9540 9870 c8 -5 26 -9 40 -9 23 0 23 1 5 9 -11 5 -29 9 -40 9 -17 1
-17 -1 -5 -9z"/>
<path d="M8468 9860 l-37 -5 20 -32 c18 -29 26 -33 65 -33 24 0 44 3 44 6 0
12 -34 63 -44 67 -6 1 -28 0 -48 -3z"/>
<path d="M9665 9860 c11 -5 29 -9 40 -9 l20 0 -20 9 c-11 5 -29 9 -40 9 l-20
0 20 -9z"/>
<path d="M6884 9849 l-271 -8 -249 -60 c-266 -64 -586 -149 -568 -150 6 -1
114 8 240 19 546 46 1349 98 1889 121 154 6 281 13 283 14 2 1 -5 19 -15 39
l-18 36 -510 -2 c-280 -1 -632 -5 -781 -9z"/>
<path d="M8200 9855 c0 -2 7 -20 17 -39 16 -34 17 -35 62 -29 25 3 47 6 48 7
1 1 -7 16 -19 34 -17 28 -25 32 -64 32 -24 0 -44 -2 -44 -5z"/>
<path d="M8331 9825 c19 -32 25 -35 70 -35 l49 0 -22 35 c-21 32 -27 35 -70
35 l-47 0 20 -35z"/>
<path d="M8567 9830 c15 -27 23 -30 66 -30 50 0 52 4 19 43 -10 11 -30 17 -59
17 l-44 0 18 -30z"/>
<path d="M8670 9852 c0 -24 49 -52 89 -52 l43 0 -24 29 c-19 25 -31 30 -65 30
-24 1 -43 -3 -43 -7z"/>
<path d="M8805 9830 c24 -25 36 -30 74 -30 l46 1 -55 29 c-30 16 -64 29 -74
30 -17 0 -16 -4 9 -30z"/>
<path d="M9788 9853 c7 -3 16 -2 19 1 4 3 -2 6 -13 5 -11 0 -14 -3 -6 -6z"/>
<path d="M9380 9842 c0 -15 55 -34 86 -30 27 3 28 4 9 14 -28 16 -95 27 -95
16z"/>
<path d="M14001 9846 c2 -2 77 -7 165 -11 114 -5 164 -4 168 4 5 8 -42 11
-165 11 -95 0 -170 -2 -168 -4z"/>
<path d="M9523 9824 c30 -16 82 -10 56 7 -8 5 -30 9 -49 8 l-35 0 28 -15z"/>
<path d="M9620 9830 c8 -5 31 -10 50 -10 26 0 31 3 20 10 -8 5 -31 10 -50 10
-26 0 -31 -3 -20 -10z"/>
<path d="M14525 9826 l-30 -14 31 -1 c172 -5 1115 -93 1624 -152 599 -69 821
-101 1005 -144 141 -33 281 -57 545 -90 195 -25 435 -57 533 -71 98 -14 183
-24 189 -22 6 2 -47 18 -118 36 -149 37 -454 117 -599 157 -139 38 -352 94
-400 106 -22 5 -76 20 -120 33 -44 13 -134 29 -200 35 -262 24 -539 43 -566
39 -15 -3 -26 -1 -23 4 3 4 -16 8 -41 8 -25 0 -130 7 -233 15 -310 24 -923 55
-1392 70 -140 4 -181 2 -205 -9z"/>
<path d="M31950 9817 c-25 -12 -79 -38 -120 -56 -41 -19 -131 -60 -200 -91
-200 -92 -586 -264 -995 -445 -209 -92 -400 -176 -425 -187 -41 -19 -187 -82
-285 -123 l-40 -16 26 -14 c23 -12 49 -8 260 41 487 115 918 239 1384 397 169
58 747 296 768 316 8 8 -304 202 -321 200 -4 0 -27 -10 -52 -22z"/>
<path d="M9763 9823 c9 -2 25 -2 35 0 9 3 1 5 -18 5 -19 0 -27 -2 -17 -5z"/>
<path d="M9873 9823 c9 -2 23 -2 30 0 6 3 -1 5 -18 5 -16 0 -22 -2 -12 -5z"/>
<path d="M9460 9792 c0 -13 48 -32 80 -32 37 0 39 13 5 28 -30 14 -85 16 -85
4z"/>
<path d="M9594 9786 c23 -19 107 -23 89 -5 -6 6 -33 13 -60 16 -45 4 -47 3
-29 -11z"/>
<path d="M9710 9790 c20 -13 73 -13 65 0 -3 6 -23 10 -43 10 -28 0 -33 -3 -22
-10z"/>
<path d="M9838 9793 c12 -2 30 -2 40 0 9 3 -1 5 -23 4 -22 0 -30 -2 -17 -4z"/>
<path d="M8850 9782 c0 -24 49 -52 88 -52 48 0 52 8 19 38 -16 15 -36 22 -65
22 -23 0 -42 -4 -42 -8z"/>
<path d="M8490 9768 c0 -7 10 -25 23 -40 20 -24 27 -26 69 -21 l47 6 -26 33
c-22 30 -31 34 -69 34 -29 0 -44 -4 -44 -12z"/>
<path d="M8610 9773 c0 -5 10 -21 23 -37 21 -26 27 -28 65 -21 47 8 49 11 23
43 -15 17 -30 22 -65 22 -25 0 -46 -3 -46 -7z"/>
<path d="M8736 9768 c21 -37 39 -48 81 -48 47 0 56 15 25 43 -23 21 -117 24
-106 5z"/>
<path d="M8996 9760 c12 -12 29 -20 39 -18 13 2 6 8 -21 21 l-39 18 21 -21z"/>
<path d="M8025 9759 c-765 -35 -1658 -94 -2193 -145 -151 -14 -180 -20 -390
-84 -226 -68 -663 -214 -692 -231 -20 -11 -8 -11 65 1 537 87 1952 254 2755
325 96 8 220 20 275 25 55 5 170 14 255 21 85 6 156 13 158 14 8 7 -40 85 -51
83 -6 0 -88 -5 -182 -9z"/>
<path d="M8260 9730 c20 -39 22 -40 70 -40 28 0 50 3 50 8 0 4 -9 22 -20 40
-18 29 -24 32 -70 32 l-50 0 20 -40z"/>
<path d="M8370 9765 c0 -2 7 -19 16 -37 15 -32 17 -33 65 -30 27 2 49 6 49 9
0 3 -8 18 -17 34 -15 26 -23 29 -65 29 -26 0 -48 -2 -48 -5z"/>
<path d="M4495 9724 c-883 -74 -1886 -178 -2545 -264 -41 -5 -181 -23 -310
-40 -393 -51 -1083 -150 -1117 -161 -27 -9 -267 -168 -450 -299 l-62 -45 -1
-53 c0 -49 1 -52 23 -47 12 3 146 28 297 56 1253 229 2415 411 3420 535 l215
26 225 88 c124 48 284 109 355 135 72 26 153 55 180 65 l50 19 -60 -1 c-33 0
-132 -7 -220 -14z"/>
<path d="M8945 9711 c-26 -4 -35 -9 -27 -14 16 -11 104 2 96 14 -6 10 -7 10
-69 0z"/>
<path d="M9040 9712 c0 -4 18 -6 40 -4 22 2 40 6 40 8 0 2 -18 4 -40 4 -22 0
-40 -3 -40 -8z"/>
<path d="M8807 9702 c-15 -7 -16 -10 -5 -18 17 -14 100 -6 95 10 -4 13 -64 18
-90 8z"/>
<path d="M8674 9684 c3 -9 6 -18 6 -20 0 -6 43 -5 79 2 49 10 20 34 -41 34
-42 0 -49 -3 -44 -16z"/>
<path d="M8552 9664 c11 -23 16 -25 48 -20 19 3 43 6 53 6 15 0 15 3 5 20 -10
16 -24 20 -65 20 l-53 0 12 -26z"/>
<path d="M8338 9672 l-47 -3 17 -35 c13 -28 21 -34 37 -30 11 3 32 6 48 6 31
0 35 19 10 46 -14 15 -29 18 -65 16z"/>
<path d="M8420 9676 c0 -3 5 -17 12 -31 11 -24 15 -25 57 -19 55 8 58 10 45
32 -8 12 -27 18 -63 20 -28 2 -51 1 -51 -2z"/>
<path d="M7930 9640 c-822 -71 -1947 -193 -2525 -275 -55 -8 -251 -35 -435
-60 l-335 -46 -195 -76 c-302 -118 -825 -345 -755 -329 33 8 522 102 780 150
1063 198 2137 367 3162 496 416 53 652 88 666 100 9 8 -19 71 -31 69 -4 -1
-153 -14 -332 -29z"/>
<path d="M18000 9569 c268 -72 1398 -355 1532 -384 l115 -24 189 75 c176 70
226 94 196 94 -6 0 -116 16 -244 36 -307 46 -661 96 -993 139 -274 35 -957
116 -972 114 -4 0 75 -23 177 -50z"/>
<path d="M7648 9483 c6 -2 18 -2 25 0 6 3 1 5 -13 5 -14 0 -19 -2 -12 -5z"/>
<path d="M7395 9455 c-438 -61 -573 -80 -885 -126 -884 -132 -1753 -282 -2660
-460 l-255 -50 -190 -94 c-255 -125 -691 -363 -682 -371 2 -2 30 4 62 12 120
32 598 146 915 219 179 42 352 82 385 90 324 76 1030 226 1555 331 234 47 461
95 505 109 363 107 926 246 1420 348 108 23 26 18 -170 -8z"/>
<path d="M17715 9374 c94 -24 178 -42 188 -39 11 2 16 1 13 -2 -6 -6 162 -50
409 -108 55 -13 156 -37 225 -53 227 -54 473 -112 588 -138 l113 -25 84 33
c47 18 85 36 85 40 0 3 -51 18 -112 33 -62 15 -228 55 -369 90 -214 53 -313
71 -615 114 -427 60 -742 101 -763 100 -9 -1 61 -21 154 -45z"/>
<path d="M3660 9379 c-1221 -165 -2460 -364 -3538 -569 -57 -11 -105 -20 -108
-20 -2 0 -4 -83 -4 -185 0 -141 3 -185 13 -185 6 0 41 7 77 16 496 117 1863
389 2739 545 l283 50 199 100 c163 81 385 185 564 264 42 19 24 17 -225 -16z"/>
<path d="M20265 9350 c-83 -34 -110 -25 255 -85 962 -160 2246 -418 3085 -620
130 -32 190 -40 450 -60 580 -47 1161 -75 1100 -55 -65 23 -769 207 -1090 285
-658 162 -754 182 -975 205 -708 72 -1675 199 -2528 330 -107 17 -201 30 -210
29 -10 0 -48 -13 -87 -29z"/>
<path d="M18448 9323 c7 -3 16 -2 19 1 4 3 -2 6 -13 5 -11 0 -14 -3 -6 -6z"/>
<path d="M19960 9228 c-112 -45 -200 -83 -195 -84 28 -8 648 -108 1110 -179
933 -143 2109 -292 2690 -339 l60 -5 -60 15 c-119 30 -737 167 -1055 234 -669
141 -1384 277 -2000 379 -168 28 -314 53 -325 56 -11 2 -112 -32 -225 -77z"/>
<path d="M29835 9230 c-38 -10 -139 -33 -222 -50 -84 -18 -151 -36 -149 -39 3
-3 28 -19 58 -35 l53 -28 120 56 c261 121 275 131 140 96z"/>
<path d="M32988 9207 c8 -9 9 -18 4 -21 -6 -3 -12 1 -16 9 -3 8 -11 15 -18 15
-9 0 -8 -3 2 -10 11 -7 11 -10 2 -10 -7 0 -11 -4 -8 -9 4 -5 -4 -7 -16 -3 -13
3 -19 1 -15 -5 7 -11 -14 -23 -39 -23 -9 0 -39 -11 -68 -25 -31 -15 -62 -23
-72 -19 -16 5 -16 4 -4 -5 13 -9 12 -11 -5 -12 -11 -1 -26 -1 -32 0 -7 1 -13
-3 -13 -10 0 -6 -7 -8 -16 -5 -8 3 -12 2 -9 -4 3 -6 -4 -10 -17 -10 -28 0 -55
-16 -45 -27 5 -4 11 -3 15 3 4 6 14 11 22 12 8 0 53 15 100 32 115 43 273 100
277 100 11 0 -1 17 -19 29 -21 13 -22 13 -10 -2z"/>
<path d="M32885 9109 c-245 -92 -300 -113 -435 -162 -187 -68 -709 -254 -835
-297 -60 -21 -189 -66 -285 -100 -96 -34 -264 -92 -372 -128 -109 -37 -198
-69 -197 -72 0 -3 32 -25 70 -50 39 -25 82 -55 97 -68 15 -12 37 -25 49 -28
30 -8 213 24 298 51 39 13 117 38 175 55 58 18 130 40 160 50 30 10 129 42
220 70 496 156 1530 497 1543 509 4 4 -5 16 -20 27 -73 54 -295 204 -301 203
-4 0 -79 -27 -167 -60z"/>
<path d="M29200 9099 c-113 -21 -215 -38 -227 -39 -13 0 -23 -3 -23 -7 0 -5
60 -38 134 -75 92 -46 137 -63 147 -57 8 5 80 39 162 75 81 37 147 70 147 73
0 8 -115 71 -126 70 -5 -1 -101 -18 -214 -40z"/>
<path d="M29407 8983 c-93 -42 -164 -79 -160 -83 4 -4 55 -33 113 -65 l105
-56 85 16 c66 12 263 82 290 103 6 4 -4 10 -119 75 -47 26 -99 56 -116 67
l-31 19 -167 -76z"/>
<path d="M19438 9016 l-78 -33 143 -32 c128 -29 290 -65 687 -151 275 -60
1136 -231 1481 -294 910 -167 1801 -302 2583 -391 187 -21 221 -23 238 -11 11
8 16 16 11 19 -31 18 -361 82 -527 102 -111 13 -248 31 -306 39 -58 9 -188 27
-290 41 -184 25 -655 97 -760 115 -58 10 -192 34 -275 49 -27 5 -90 17 -140
25 -362 65 -542 99 -620 115 -49 11 -151 32 -225 47 -475 93 -1181 248 -1598
349 -101 25 -197 45 -215 44 -18 0 -67 -15 -109 -33z"/>
<path d="M28740 9024 c-47 -8 -146 -22 -220 -32 l-135 -19 79 -36 c43 -20 83
-37 88 -37 5 0 76 31 156 70 81 38 140 69 132 69 -8 -1 -53 -8 -100 -15z"/>
<path d="M28790 8989 c-58 -28 -130 -62 -160 -76 l-55 -26 140 -67 139 -68 51
23 c205 92 285 129 283 130 -18 15 -265 135 -277 135 -9 0 -63 -23 -121 -51z"/>
<path d="M5705 9003 c-1223 -252 -1983 -422 -2892 -648 l-173 -43 -157 -98
c-149 -92 -539 -351 -593 -393 -17 -13 106 18 390 100 498 144 1091 308 1532
424 178 47 400 105 493 130 108 29 231 71 339 115 258 107 620 242 931 346
154 52 273 93 265 93 -8 -1 -69 -12 -135 -26z"/>
<path d="M32510 9009 c-25 -9 -54 -20 -64 -23 -10 -4 -17 -9 -14 -11 4 -5 114
32 127 42 15 11 -11 7 -49 -8z"/>
<path d="M2655 8930 c-541 -99 -1413 -272 -1875 -370 -368 -78 -525 -112 -645
-139 l-120 -27 -3 -186 -2 -186 147 37 c235 60 724 179 1138 276 344 81 984
225 999 225 7 0 62 30 122 68 159 98 349 209 509 296 77 42 131 76 120 75 -11
0 -186 -31 -390 -69z"/>
<path d="M23590 8949 c511 -123 1174 -291 1476 -375 89 -24 167 -44 174 -44
17 0 320 170 320 179 0 14 -538 162 -603 167 -34 2 -152 8 -262 14 -249 14
-680 44 -975 70 -124 11 -232 20 -240 19 -8 0 41 -14 110 -30z"/>
<path d="M28205 8955 c-86 -10 -113 -19 -194 -59 -51 -26 -91 -49 -90 -51 8
-7 264 -115 273 -115 5 0 84 35 174 77 l164 78 -92 42 c-51 24 -102 42 -114
42 -11 -1 -66 -7 -121 -14z"/>
<path d="M32390 8960 c-8 -5 -10 -10 -5 -10 6 0 17 5 25 10 8 5 11 10 5 10 -5
0 -17 -5 -25 -10z"/>
<path d="M32285 8925 c-60 -29 -52 -33 13 -6 26 11 54 22 62 24 10 4 9 6 -5 6
-11 0 -42 -11 -70 -24z"/>
<path d="M27902 8925 c-68 -7 -125 -15 -127 -17 -2 -2 23 -15 56 -28 l61 -24
81 42 c45 22 75 41 67 40 -8 0 -70 -6 -138 -13z"/>
<path d="M33185 8846 c-352 -117 -931 -306 -939 -306 -4 0 -23 -7 -44 -16 -20
-9 -44 -18 -52 -19 -8 -1 -103 -30 -210 -65 -107 -34 -262 -83 -344 -108 -82
-26 -144 -48 -139 -49 9 -3 446 85 623 125 47 11 140 33 207 48 67 15 120 31
117 36 -3 4 2 5 10 2 8 -3 117 22 243 55 353 94 395 106 386 114 -4 5 0 5 8 2
9 -3 43 3 75 13 33 11 75 23 94 27 19 4 40 10 45 13 6 4 15 7 21 8 32 5 131
37 142 46 6 6 12 8 12 5 0 -7 111 27 113 35 2 6 -133 108 -143 108 -3 0 -104
-33 -225 -74z m122 -102 c-3 -3 -12 -4 -19 -1 -8 3 -5 6 6 6 11 1 17 -2 13 -5z"/>
<path d="M27560 8896 c-117 -11 -131 -15 -212 -56 -49 -25 -88 -47 -88 -50 0
-3 62 -29 138 -58 l139 -52 167 83 168 83 -79 32 c-43 18 -85 31 -93 31 -8 -1
-71 -7 -140 -13z"/>
<path d="M32085 8857 c-66 -23 -122 -42 -124 -44 -11 -8 9 -14 21 -7 7 5 18 9
23 10 18 3 187 64 204 74 27 16 2 9 -124 -33z"/>
<path d="M29045 8819 c-82 -38 -154 -70 -160 -73 -5 -2 11 -14 37 -26 l47 -23
173 27 c95 15 200 33 233 40 l60 12 -107 57 c-59 31 -113 57 -120 56 -7 0 -80
-32 -163 -70z"/>
<path d="M29813 8867 c-74 -32 -72 -35 12 -18 58 12 72 18 63 28 -13 16 -13
17 -75 -10z"/>
<path d="M27140 8870 c-94 -6 -94 -5 26 -49 l61 -23 79 41 79 40 -80 -1 c-44
-1 -118 -4 -165 -8z"/>
<path d="M25335 8799 c132 -38 245 -70 251 -72 6 -1 58 25 117 58 l106 60
-182 6 c-100 4 -261 9 -357 12 l-175 6 240 -70z"/>
<path d="M28376 8792 l-159 -77 107 -46 108 -45 94 12 c73 9 119 22 194 56 55
23 98 46 97 50 -3 11 -248 128 -267 128 -8 -1 -87 -36 -174 -78z"/>
<path d="M26519 8850 c-151 -4 -200 -8 -213 -20 -20 -16 -19 -16 175 -79 l87
-28 127 67 128 68 -54 -1 c-30 -1 -142 -4 -250 -7z"/>
<path d="M26835 8847 c-11 -8 -65 -37 -120 -66 -55 -30 -104 -57 -108 -61 -9
-8 43 -30 184 -75 l86 -28 162 83 c89 46 158 86 154 90 -4 4 -48 21 -97 38
-70 25 -104 32 -165 32 -47 0 -84 -5 -96 -13z"/>
<path d="M25738 8786 c-59 -33 -107 -64 -108 -67 0 -3 63 -24 141 -48 94 -28
144 -39 152 -33 7 6 64 38 127 72 63 34 130 72 149 83 l34 21 -49 17 c-38 14
-81 17 -194 17 l-145 0 -107 -62z"/>
<path d="M26218 8838 c23 -8 39 -8 55 0 19 9 13 11 -33 10 -53 0 -54 -1 -22
-10z"/>
<path d="M27723 8753 c-84 -41 -153 -78 -153 -81 0 -4 61 -31 135 -59 l136
-53 162 76 c89 42 163 77 165 79 5 5 -260 115 -276 114 -9 0 -86 -34 -169 -76z"/>
<path d="M31925 8800 c3 -6 -2 -10 -12 -11 -66 -4 -86 -9 -102 -23 -10 -9 -21
-13 -26 -9 -4 5 -5 2 -1 -4 5 -9 -2 -13 -26 -13 -19 0 -38 -4 -43 -9 -10 -10
-74 -28 -128 -36 -16 -2 -42 -11 -59 -19 -17 -9 -35 -13 -40 -10 -5 3 -19 -1
-32 -9 -30 -20 -126 -48 -138 -41 -5 3 -24 -1 -41 -10 -18 -8 -48 -18 -67 -21
-18 -3 -58 -14 -88 -24 -31 -11 -61 -17 -68 -14 -6 2 -15 0 -19 -6 -3 -6 -16
-11 -28 -11 -12 0 -67 -12 -122 -26 -55 -14 -122 -30 -150 -35 -27 -6 -61 -13
-75 -15 -13 -3 -26 -7 -28 -8 -2 -2 20 -20 48 -41 l50 -37 148 50 c184 63 556
193 767 267 88 31 168 59 177 62 10 3 16 8 14 12 -2 3 8 7 22 7 15 1 43 8 62
16 28 12 31 15 17 21 -11 4 -16 3 -12 -3z"/>
<path d="M26088 8712 l-158 -87 128 -42 c70 -23 136 -42 147 -42 29 0 343 167
325 173 -76 29 -257 86 -270 85 -8 0 -86 -40 -172 -87z"/>
<path d="M27071 8696 c-89 -44 -161 -84 -161 -87 0 -12 232 -89 266 -89 22 0
85 25 179 72 80 40 145 75 145 78 0 3 -60 28 -134 56 l-135 52 -160 -82z"/>
<path d="M28773 8698 c-40 -18 -71 -34 -69 -36 3 -2 52 4 110 12 59 9 110 16
114 16 10 1 -61 39 -73 39 -5 0 -42 -14 -82 -31z"/>
<path d="M25433 8612 c-84 -48 -152 -90 -153 -93 0 -3 88 -9 196 -12 l195 -6
106 59 106 58 -104 32 c-57 17 -117 35 -133 41 -16 5 -36 9 -45 8 -9 0 -84
-39 -168 -87z"/>
<path d="M26395 8612 l-160 -86 40 -12 c24 -8 108 -13 208 -13 l168 -1 96 51
c64 35 91 54 82 60 -24 13 -251 89 -263 88 -6 -1 -83 -40 -171 -87z"/>
<path d="M28045 8635 c-93 -46 -120 -63 -95 -60 19 2 116 12 215 21 99 9 188
20 198 23 12 5 -8 17 -70 44 -49 20 -95 37 -103 36 -8 0 -73 -29 -145 -64z"/>
<path d="M27400 8595 c-121 -62 -124 -64 -84 -64 45 -1 344 18 384 24 14 2 39
4 55 5 22 0 -2 13 -94 50 -68 28 -127 50 -130 49 -3 0 -62 -29 -131 -64z"/>
<path d="M25810 8557 l-95 -52 210 -3 c207 -3 255 0 255 17 0 6 -255 92 -271
91 -2 -1 -47 -24 -99 -53z"/>
<path d="M26789 8553 c-46 -25 -85 -45 -86 -46 -4 -5 289 5 330 11 l47 7 -103
36 -104 36 -84 -44z"/>
<path d="M2065 8494 c-283 -65 -569 -132 -755 -176 -91 -21 -192 -45 -225 -53
-97 -23 -994 -244 -1036 -255 l-39 -11 0 -186 c0 -172 1 -185 18 -180 167 48
895 249 1172 323 l365 98 140 100 c77 55 230 161 340 234 184 124 227 154 215
151 -3 -1 -90 -21 -195 -45z"/>
<path d="M26213 8503 c9 -2 23 -2 30 0 6 3 -1 5 -18 5 -16 0 -22 -2 -12 -5z"/>
<path d="M4120 8409 c-102 -27 -252 -67 -335 -88 -415 -109 -1315 -361 -1814
-508 l-154 -45 -121 -91 c-201 -151 -546 -431 -546 -442 0 -2 188 59 418 135
544 181 709 234 1517 489 85 27 165 60 230 97 154 87 682 352 853 429 138 62
167 77 145 74 -5 0 -91 -23 -193 -50z"/>
<path d="M30420 8398 c-74 -16 -150 -31 -167 -32 -43 -3 -50 -12 -21 -27 12
-6 50 -30 83 -52 l60 -39 157 53 c87 29 158 56 158 61 0 13 -94 68 -115 67
-11 -1 -81 -15 -155 -31z"/>
<path d="M30095 8334 c-38 -7 -110 -21 -160 -30 -89 -17 -111 -20 -150 -23
-19 -1 13 -23 178 -117 l58 -33 159 51 c88 29 160 54 160 58 0 3 -21 17 -48
33 -26 15 -65 38 -87 50 -38 23 -43 23 -110 11z"/>
<path d="M30558 8287 c-82 -29 -148 -54 -148 -57 0 -3 34 -26 76 -52 l75 -48
157 25 c86 13 169 26 184 28 15 2 29 5 32 8 7 7 -200 149 -216 148 -7 -1 -79
-24 -160 -52z"/>
<path d="M31418 8273 c7 -3 16 -2 19 1 4 3 -2 6 -13 5 -11 0 -14 -3 -6 -6z"/>
<path d="M29650 8240 c-41 -16 -112 -41 -157 -56 -45 -15 -80 -30 -78 -33 2
-3 59 -35 127 -70 l124 -64 157 48 c86 27 157 52 157 55 0 6 -59 42 -161 99
-31 17 -60 27 -64 23 -5 -4 -5 -2 -2 4 5 9 -17 28 -26 23 -1 -1 -36 -14 -77
-29z"/>
<path d="M29569 8245 c-5 -5 -211 -36 -242 -36 -26 0 -11 -16 27 -29 29 -9 45
-7 117 19 113 39 137 50 118 50 -9 1 -18 -1 -20 -4z"/>
<path d="M30215 8171 c-77 -26 -146 -49 -153 -52 -8 -3 2 -13 25 -26 l38 -21
180 24 c99 13 189 25 200 26 15 2 -1 16 -56 51 -42 26 -80 47 -85 46 -5 0 -72
-22 -149 -48z"/>
<path d="M29100 8179 c-176 -23 -240 -31 -269 -31 -33 0 -18 -10 95 -61 l100
-46 154 54 c84 30 155 57 158 60 6 6 -78 45 -93 43 -5 0 -71 -9 -145 -19z"/>
<path d="M24486 8152 c37 -9 69 -12 80 -7 15 7 7 10 -31 16 -88 13 -116 8 -49
-9z"/>
<path d="M24602 8139 c-10 -11 12 -19 120 -44 l133 -32 47 26 c53 29 48 38
-24 40 -27 0 -52 3 -56 5 -4 2 -52 7 -107 11 -76 5 -103 4 -113 -6z"/>
<path d="M28692 8129 c-48 -9 -272 -91 -272 -99 0 -3 41 -22 90 -42 79 -34 99
-38 172 -38 71 0 100 6 197 40 l115 39 -85 40 c-104 48 -160 71 -168 70 -3 -1
-25 -5 -49 -10z"/>
<path d="M29240 8094 c-69 -25 -138 -50 -154 -56 l-28 -11 47 -25 48 -24 201
16 c111 9 212 19 225 22 21 5 8 15 -85 64 -60 33 -113 59 -119 59 -5 0 -66
-20 -135 -45z"/>
<path d="M24990 8110 c-8 -5 -33 -19 -54 -31 -39 -23 -39 -23 -14 -30 14 -3
86 -12 160 -19 l135 -12 64 33 64 33 -32 6 c-18 4 -83 10 -145 14 -62 4 -124
9 -138 11 -14 2 -32 0 -40 -5z"/>
<path d="M28410 8104 c-69 -7 -127 -13 -130 -14 -3 -1 18 -12 45 -25 l50 -22
80 29 c124 45 120 48 -45 32z"/>
<path d="M24543 8103 c-31 -12 -7 -21 70 -27 45 -4 98 -9 117 -11 19 -3 -8 6
-60 20 -100 25 -107 26 -127 18z"/>
<path d="M29910 8069 c-73 -25 -79 -28 -40 -24 25 2 74 7 110 11 91 8 101 12
70 29 -34 19 -42 18 -140 -16z"/>
<path d="M25335 8053 l-70 -37 175 -14 175 -14 80 40 79 39 -144 7 c-80 4
-163 9 -185 11 -32 4 -54 -2 -110 -32z"/>
<path d="M28014 8076 c-73 -7 -138 -17 -145 -23 -8 -6 -33 -17 -56 -24 -24 -6
-43 -15 -43 -18 0 -4 46 -23 103 -44 153 -56 170 -54 442 53 l30 12 -70 28
c-78 32 -77 32 -261 16z"/>
<path d="M27809 8065 c-3 -2 -38 -5 -77 -6 -40 -1 -72 -5 -72 -9 0 -3 16 -12
36 -18 29 -9 43 -7 80 8 24 11 44 22 44 25 0 6 -5 7 -11 0z"/>
<path d="M25735 8022 l-79 -38 183 -11 c149 -9 189 -9 214 2 23 10 28 15 17
19 -23 9 -239 66 -248 66 -4 0 -43 -17 -87 -38z"/>
<path d="M25955 8051 c11 -5 52 -17 90 -28 69 -19 71 -19 113 -1 24 11 42 21
40 23 -2 2 -62 6 -133 9 -72 3 -121 1 -110 -3z"/>
<path d="M26213 8020 l-58 -27 45 -12 c25 -7 58 -16 74 -22 16 -5 66 -12 110
-15 80 -6 82 -6 181 38 55 25 107 48 115 51 8 3 -64 7 -160 8 -96 1 -192 3
-212 5 -24 1 -58 -8 -95 -26z"/>
<path d="M27198 8045 c-3 -3 -72 -6 -154 -6 l-149 -1 89 -28 89 -29 66 26 c65
26 95 43 75 43 -6 0 -13 -2 -16 -5z"/>
<path d="M27230 8019 c-140 -56 -135 -48 -46 -75 62 -19 103 -24 182 -24 97 0
108 2 215 44 66 26 108 47 99 50 -84 32 -110 36 -239 36 -128 -1 -141 -3 -211
-31z"/>
<path d="M26664 8001 c-44 -21 -92 -42 -105 -47 -39 -14 54 -22 241 -22 136 0
172 3 205 17 l39 17 -115 37 c-64 20 -131 37 -150 37 -19 0 -70 -18 -115 -39z"/>
<path d="M1255 7954 c-262 -72 -516 -142 -680 -189 -44 -12 -189 -53 -322 -91
l-243 -68 0 -187 0 -186 217 69 c120 37 315 98 433 134 l216 66 89 75 c118 98
403 326 485 388 69 51 87 66 80 64 -3 -1 -126 -34 -275 -75z"/>
<path d="M28260 7974 l-115 -45 145 6 c80 3 172 5 205 5 l60 0 -90 40 c-49 22
-89 40 -90 39 0 0 -52 -20 -115 -45z"/>
<path d="M28930 7984 l-65 -25 55 5 c30 3 81 6 113 6 61 0 72 10 32 28 -36 17
-61 14 -135 -14z"/>
<path d="M27655 7969 c-38 -16 -79 -33 -90 -38 -13 -6 47 -10 175 -9 112 0
184 3 170 8 -14 4 -61 21 -105 37 l-80 30 -70 -28z"/>
<path d="M26100 7970 c-13 -8 -13 -10 1 -10 9 0 38 -2 65 -5 l49 -5 -45 15
c-53 17 -51 17 -70 5z"/>
<path d="M27025 7935 c-28 -13 -24 -14 60 -14 86 1 89 1 55 14 -44 17 -77 17
-115 0z"/>
<path d="M2745 7734 c-413 -131 -454 -144 -1135 -369 -410 -136 -512 -173
-540 -198 -135 -116 -554 -517 -547 -523 1 -2 173 62 382 140 429 161 720 268
1070 393 172 62 254 97 290 123 145 106 541 361 760 489 97 57 103 61 89 60
-5 0 -171 -52 -369 -115z"/>
<path d="M715 7435 c-60 -19 -243 -76 -405 -127 l-295 -94 -3 -188 -2 -187 22
7 c167 51 211 73 287 146 42 39 114 108 161 153 85 81 237 218 319 288 25 20
40 37 35 37 -5 -1 -58 -16 -119 -35z"/>
<path d="M2100 7205 c-19 -8 -179 -66 -355 -130 -176 -63 -532 -195 -791 -292
l-471 -176 -145 -161 c-186 -206 -340 -387 -335 -393 3 -2 155 59 339 136 184
77 496 205 693 285 209 86 371 158 390 174 221 184 379 310 520 417 165 124
204 156 195 154 -3 0 -21 -6 -40 -14z"/>
<path d="M93 6849 c-75 -28 -83 -33 -84 -57 0 -15 -1 -44 -2 -65 -1 -20 0 -37
3 -37 3 0 48 43 100 95 52 52 88 95 80 94 -8 0 -52 -14 -97 -30z"/>
<path d="M1165 6509 c-515 -212 -790 -326 -960 -397 l-190 -80 -3 -120 -3
-120 68 -15 c152 -34 88 -52 496 134 59 27 112 49 117 49 6 0 84 74 175 164
91 90 218 213 282 272 184 170 198 184 193 183 -3 0 -81 -32 -175 -70z"/>
<path d="M463 5842 c-116 -53 -210 -98 -208 -100 5 -6 167 -41 188 -42 10 0
39 24 65 52 26 29 76 83 111 120 35 38 62 68 60 67 -2 0 -99 -44 -216 -97z"/>
<path d="M10 5604 c-1 -5 -1 -275 0 -314 l0 -30 68 34 c54 27 80 49 132 112
120 144 116 132 48 145 -24 4 -89 19 -145 32 -57 14 -103 23 -103 21z"/>
<path d="M55 5262 c-46 -25 -50 -30 -50 -64 l0 -37 21 20 c20 19 89 110 82
109 -2 -1 -25 -13 -53 -28z"/>
</g>
</svg>
