<?xml version="1.0" standalone="no"?>
<!DOCTYPE svg PUBLIC "-//W3C//DTD SVG 20010904//EN"
 "http://www.w3.org/TR/2001/REC-SVG-20010904/DTD/svg10.dtd">
<svg version="1.0" xmlns="http://www.w3.org/2000/svg"
 width="934.000000pt" height="1024.000000pt" viewBox="0 0 934.000000 1024.000000"
 preserveAspectRatio="xMidYMid meet">

<g transform="translate(0.000000,1024.000000) scale(0.100000,-0.100000)"
fill="#000000" stroke="none">
<path d="M7125 10215 c-49 -13 -100 -24 -112 -24 -13 -1 -23 -5 -23 -11 0 -5
-7 -10 -15 -10 -8 0 -15 6 -15 12 0 7 -7 3 -15 -9 -31 -45 -223 -131 -263
-119 -21 7 -53 -13 -34 -21 6 -2 12 -9 12 -14 0 -12 -72 -48 -134 -66 -60 -18
-115 -55 -176 -118 -25 -26 -106 -95 -180 -155 -101 -80 -161 -138 -236 -226
-56 -66 -109 -126 -119 -134 -17 -14 -17 -14 -5 9 14 26 98 153 108 161 3 3 2
-2 -3 -10 -6 -11 -5 -12 4 -4 7 6 11 23 9 38 l-3 27 -37 -31 c-21 -17 -38 -40
-38 -51 0 -13 -6 -18 -19 -16 -12 1 -28 -11 -43 -33 -13 -19 -80 -80 -148
-135 -144 -115 -240 -207 -240 -229 0 -26 17 -19 65 25 29 27 45 36 45 26 0
-25 57 -39 90 -22 34 18 138 139 152 178 5 15 16 27 24 27 19 0 18 -3 -11 -59
-13 -27 -74 -102 -136 -166 -113 -119 -229 -266 -229 -290 0 -14 -213 -231
-242 -246 -27 -14 -22 -3 16 39 33 37 60 99 39 91 -17 -7 -103 -112 -115 -141
-7 -16 -19 -28 -26 -28 -29 0 -94 -64 -148 -146 -30 -47 -62 -88 -70 -91 -8
-3 -21 -18 -29 -34 -26 -49 -273 -334 -282 -325 -3 3 21 41 52 86 31 45 54 84
50 88 -9 9 -122 -110 -180 -190 -44 -59 -58 -108 -32 -108 22 0 78 46 151 122
52 56 61 63 37 29 -39 -56 -239 -281 -250 -281 -5 0 -2 18 5 41 25 72 -3 80
-58 17 -72 -84 -53 -14 24 90 21 29 47 71 57 95 10 23 69 109 131 192 61 82
116 158 120 170 5 11 36 54 70 95 84 103 120 151 120 162 0 32 -271 -248 -710
-732 -117 -129 -227 -250 -245 -269 l-33 -33 -55 35 c-30 19 -113 82 -183 139
-329 265 -758 568 -805 568 -15 0 -41 11 -57 25 -17 14 -35 25 -40 25 -6 0
-18 10 -26 22 -9 13 -29 29 -45 38 -16 8 -55 34 -88 57 -98 68 -190 113 -234
113 -43 0 -145 50 -254 125 -37 25 -85 47 -125 57 -36 9 -73 20 -82 23 -14 6
-18 2 -18 -18 0 -14 -4 -28 -9 -31 -11 -7 -70 33 -89 62 -13 21 -13 22 8 22
19 0 20 2 10 15 -17 21 -37 19 -50 -6 -9 -17 -8 -23 6 -34 26 -19 3 -43 -44
-47 -29 -2 -38 -8 -40 -25 -2 -15 -13 -24 -32 -28 -16 -4 -39 -14 -52 -24 -13
-10 -39 -20 -58 -24 -40 -6 -398 -181 -465 -227 -24 -17 -53 -30 -65 -30 -12
0 -40 -10 -61 -22 -33 -18 -42 -31 -54 -73 -19 -63 -61 -106 -146 -148 -38
-19 -65 -39 -67 -50 -5 -22 35 -67 58 -67 31 0 80 31 80 50 0 24 50 64 63 51
7 -7 6 -15 -3 -26 -10 -13 -9 -15 8 -15 27 0 52 10 52 21 0 4 -7 6 -15 3 -20
-8 -20 26 0 52 14 18 14 18 15 -7 0 -14 9 -34 20 -44 22 -20 26 -55 8 -73 -14
-14 -42 -16 -33 -2 3 6 -1 10 -9 10 -9 0 -16 -5 -16 -11 0 -7 -11 -8 -31 -4
-37 8 -69 -16 -69 -54 0 -18 -3 -22 -11 -14 -8 8 -16 9 -28 1 -13 -8 -26 -6
-50 7 -18 9 -42 18 -54 21 -22 4 -37 21 -37 42 0 25 -19 14 -197 -116 l-103
-74 0 -92 0 -93 -62 -17 c-101 -28 -218 -116 -218 -164 0 -27 49 -98 134 -192
42 -47 88 -104 102 -128 14 -23 30 -39 35 -36 13 7 61 -24 54 -35 -6 -11 66
-78 118 -110 20 -12 37 -28 37 -36 0 -7 14 -15 30 -19 17 -3 34 -14 38 -25 8
-23 155 -154 261 -234 427 -321 796 -637 1161 -992 252 -246 321 -309 384
-349 31 -20 59 -42 62 -50 3 -7 -35 -80 -85 -162 -132 -219 -174 -279 -196
-279 -33 0 -28 29 20 119 45 85 54 113 35 101 -13 -8 -13 11 1 36 10 20 9 20
-19 5 -16 -8 -32 -23 -36 -32 -4 -9 -9 -14 -13 -10 -4 4 -13 -17 -20 -46 -8
-29 -28 -74 -44 -100 -33 -51 -44 -60 -34 -28 11 34 -3 22 -25 -21 -12 -22
-18 -49 -15 -59 4 -12 -4 -30 -23 -52 -16 -18 -48 -69 -71 -113 -43 -80 -92
-148 -56 -77 9 18 14 39 12 45 -2 7 -12 -6 -22 -28 -66 -147 -138 -290 -163
-327 -16 -24 -37 -60 -45 -81 -9 -20 -20 -37 -25 -37 -5 0 -25 -26 -45 -59
-20 -32 -43 -64 -52 -71 -8 -7 -15 -19 -15 -27 0 -8 -9 -26 -20 -40 -11 -14
-23 -41 -26 -62 -17 -91 -262 -396 -399 -498 -72 -53 -67 -65 14 -33 28 11 56
20 61 20 18 0 -27 -95 -137 -290 -209 -369 -328 -632 -428 -944 -36 -111 -64
-183 -79 -199 -28 -30 -46 -121 -45 -218 l1 -64 15 38 c33 79 42 46 52 -182 4
-98 11 -183 15 -189 4 -7 14 -12 22 -12 8 0 46 -29 84 -65 64 -61 71 -64 95
-53 32 14 43 4 22 -20 -22 -24 -22 -52 0 -52 9 0 32 15 51 33 l34 32 -7 -32
c-3 -18 -2 -34 4 -38 7 -4 7 -12 -2 -26 -10 -17 -9 -22 7 -35 11 -8 28 -14 37
-14 10 0 27 -14 39 -30 27 -37 53 -41 44 -5 -5 20 -2 25 19 31 14 3 31 3 36
-1 16 -10 13 -55 -4 -61 -22 -9 -1 -31 36 -39 16 -4 29 -13 29 -21 0 -16 16
-19 25 -4 11 17 25 11 25 -11 0 -19 1 -19 16 -5 21 21 21 21 64 -17 20 -17 51
-40 68 -49 20 -11 32 -25 32 -38 0 -13 7 -20 20 -20 11 0 20 -4 20 -10 0 -5
18 -10 39 -10 31 0 41 -4 46 -21 4 -11 17 -25 30 -31 13 -6 28 -24 34 -39 9
-26 15 -29 51 -29 23 0 50 -5 61 -11 15 -7 24 -7 34 1 20 16 32 6 39 -35 5
-25 14 -39 31 -45 12 -5 26 -13 29 -19 3 -5 28 -17 54 -27 26 -10 55 -24 65
-33 10 -8 36 -16 58 -17 44 -2 79 -27 79 -56 0 -16 3 -17 21 -8 16 9 24 8 37
-3 9 -8 53 -33 97 -56 44 -22 91 -47 105 -55 14 -8 38 -17 53 -21 17 -3 35
-18 45 -35 l17 -29 27 52 c22 42 27 47 28 27 1 -44 12 -70 29 -70 29 0 32 -11
10 -38 -12 -15 -16 -29 -10 -35 13 -13 64 16 93 55 41 53 127 210 148 269 10
30 32 81 48 114 17 33 33 71 37 85 7 22 6 23 -9 11 -9 -7 -16 -19 -16 -26 0
-16 -54 -75 -69 -75 -19 0 -12 28 9 35 16 5 17 9 8 24 -14 23 -4 51 22 58 13
4 22 17 26 42 4 20 14 45 24 56 9 11 25 43 35 70 10 28 40 95 66 150 38 78 46
101 34 103 -23 5 -18 30 10 56 17 16 25 34 25 57 0 19 12 52 25 74 28 45 32
83 10 91 -8 4 -15 15 -15 27 0 18 163 333 361 698 71 130 80 155 54 145 -21
-8 -20 -2 24 72 21 37 62 114 91 171 28 57 63 121 77 142 20 30 23 42 14 53
-9 11 -8 15 4 20 8 3 15 10 15 17 0 6 -7 9 -15 5 -9 -3 -15 0 -15 8 0 18 37
49 49 42 15 -10 72 73 136 194 31 58 61 113 67 122 7 9 9 21 4 25 -5 4 -13 0
-20 -11 -6 -10 -19 -28 -29 -40 -17 -20 -17 -20 -3 16 24 61 95 176 118 193
50 34 104 6 68 -35 -23 -26 -26 -44 -8 -38 7 3 33 43 57 89 l44 84 -34 -32
c-26 -24 -40 -30 -61 -26 -16 3 -28 12 -28 20 0 20 36 87 56 104 16 13 17 12
10 -16 l-8 -30 26 24 c26 25 35 61 15 61 -7 0 -8 7 -4 18 4 9 18 49 32 87 14
39 29 74 34 79 5 6 20 -1 37 -17 15 -14 39 -28 52 -30 18 -3 26 -11 28 -30 3
-28 17 -36 25 -14 2 6 7 9 11 5 4 -3 -5 -29 -19 -58 -14 -29 -24 -54 -22 -56
2 -2 19 19 38 48 19 28 39 53 45 55 6 2 15 -28 21 -74 11 -84 50 -177 89 -214
22 -21 24 -21 30 -4 5 12 -1 33 -15 58 -26 45 -40 140 -22 152 21 12 51 -25
51 -64 0 -20 5 -43 10 -51 8 -12 10 -9 10 11 0 14 9 34 20 44 11 10 18 20 15
23 -10 10 18 32 41 32 30 0 32 -30 3 -37 -20 -5 -21 -11 -17 -99 1 -51 7 -96
11 -100 12 -12 28 18 24 44 -5 29 -1 28 40 -8 29 -26 53 -38 53 -27 0 2 -11
18 -25 37 -31 42 -33 76 -4 85 34 11 46 -11 21 -38 l-22 -23 30 -29 c34 -32
37 -47 15 -65 -18 -15 -20 -56 -4 -66 6 -3 15 -1 19 6 5 9 9 9 14 1 10 -16 36
-13 36 4 0 29 52 10 71 -27 10 -19 9 -20 -15 -16 -31 6 -33 -2 -8 -25 26 -24
41 -21 48 9 12 46 -3 103 -36 142 -17 20 -46 58 -63 84 -18 25 -45 62 -60 82
-16 19 -27 40 -25 47 4 11 65 -43 334 -295 134 -125 229 -206 486 -415 35 -28
49 -22 18 9 -23 23 -33 46 -45 99 l-7 35 27 -18 c28 -18 28 -18 46 5 15 20 19
21 34 9 11 -9 14 -22 10 -40 -4 -19 -1 -33 10 -44 15 -15 15 -16 -1 -16 -16 0
-16 -1 0 -19 15 -16 15 -19 1 -24 -8 -4 -15 -13 -15 -20 0 -24 213 -217 239
-217 20 0 -7 39 -74 110 -107 111 -133 162 -99 191 14 11 18 10 30 -6 8 -10
14 -34 14 -52 0 -19 5 -33 12 -33 6 0 22 -10 35 -22 18 -17 23 -18 23 -6 0 15
19 28 41 28 14 0 11 -26 -6 -40 -8 -7 -15 -24 -15 -37 l0 -25 31 26 c24 20 35
24 49 16 32 -17 63 -69 56 -94 -6 -24 14 -52 28 -38 5 4 6 -4 4 -18 -2 -19
-10 -26 -30 -28 -16 -2 -28 -9 -28 -17 0 -25 185 -175 216 -175 7 0 15 -10 18
-22 6 -25 64 -70 78 -62 16 10 -16 47 -122 139 -57 50 -107 99 -111 110 -4 11
-8 42 -8 68 l-1 48 33 -24 c17 -14 43 -28 55 -32 22 -6 23 -11 18 -50 -5 -28
-3 -46 4 -50 6 -4 15 -17 20 -29 4 -13 25 -31 45 -40 20 -10 45 -26 55 -36 16
-16 20 -17 31 -4 20 24 32 16 25 -16 -5 -28 -4 -30 19 -24 23 6 25 3 25 -24 0
-18 7 -35 15 -40 14 -7 13 -12 -5 -35 l-22 -27 29 -46 c50 -80 74 -105 94 -99
16 5 19 1 19 -24 0 -33 8 -39 28 -19 9 9 16 8 30 -6 16 -18 16 -18 -5 -13 -13
3 -23 2 -23 -1 0 -4 23 -30 52 -59 97 -98 12 -52 -123 67 -88 78 -149 115
-149 92 0 -4 16 -16 36 -27 48 -26 121 -108 129 -146 6 -27 10 -30 35 -24 23
5 36 -2 82 -44 65 -59 98 -115 80 -133 -9 -9 -23 -7 -64 10 -28 12 -53 20 -54
19 -8 -7 68 -107 96 -127 16 -12 30 -27 30 -35 0 -7 21 -37 46 -67 63 -73 102
-130 110 -161 9 -39 -18 -35 -50 8 -15 19 -33 35 -40 35 -7 0 -24 9 -38 20
l-25 19 5 -24 c4 -23 1 -25 -29 -25 l-34 -1 72 -67 c71 -66 111 -118 100 -128
-3 -3 -21 -1 -41 4 -20 6 -36 7 -36 3 0 -18 346 -338 355 -329 6 6 -41 75 -98
141 -27 32 -47 61 -43 64 15 16 94 -37 164 -112 71 -74 99 -111 146 -187 16
-27 36 -37 36 -18 0 5 -11 26 -25 46 -17 25 -25 50 -25 79 0 47 -5 55 -142
235 -43 55 -78 109 -78 118 1 21 30 -12 150 -168 93 -121 201 -240 219 -240
18 0 13 21 -34 127 -75 167 -79 213 -10 109 54 -82 84 -99 95 -56 6 25 7 24
62 -28 31 -29 59 -49 62 -44 3 5 -8 37 -25 72 -16 35 -28 67 -27 72 2 5 29
-28 61 -74 73 -106 133 -175 144 -165 4 5 -7 50 -24 100 -23 63 -29 93 -21 98
16 10 4 105 -25 191 -14 40 -28 96 -32 123 -6 50 -6 50 12 27 51 -66 61 -75
71 -68 24 14 13 56 -18 74 -32 18 -52 49 -25 38 21 -8 19 1 -15 95 -17 45 -29
84 -26 86 4 4 37 -40 140 -189 37 -54 69 -98 72 -98 2 0 -19 45 -47 101 -28
55 -48 103 -45 106 3 4 8 4 9 2 20 -24 90 -135 111 -176 14 -29 37 -60 50 -68
28 -19 38 -42 66 -155 12 -47 25 -89 30 -95 4 -5 11 -25 15 -43 3 -18 11 -30
16 -26 18 11 8 98 -20 188 -53 164 -59 189 -48 214 8 17 4 37 -18 93 -15 38
-25 72 -23 74 2 3 33 -49 69 -115 35 -66 72 -130 82 -143 l19 -22 -7 30 c-4
17 -26 76 -51 132 -48 112 -53 136 -26 131 10 -2 16 -11 14 -21 -2 -10 3 -17
12 -17 13 0 49 -48 89 -120 28 -51 31 -29 8 55 -12 43 -20 80 -17 82 9 9 86
-135 96 -182 7 -27 18 -73 26 -101 8 -28 14 -61 14 -74 0 -18 -3 -20 -15 -10
-12 10 -13 7 -5 -21 5 -18 14 -35 18 -38 5 -3 12 -42 15 -86 3 -44 12 -98 21
-120 l15 -40 0 40 c1 58 -18 285 -25 308 -5 16 -3 19 10 14 11 -5 16 -1 16 12
0 35 12 52 46 66 39 16 39 14 15 125 -11 47 -17 88 -14 93 2 4 17 7 33 7 34 0
49 -22 75 -115 23 -81 55 -155 67 -155 19 0 -23 352 -53 453 -11 38 -18 74
-15 80 2 7 5 4 5 -5 1 -10 7 -18 15 -18 22 0 56 -49 56 -81 0 -19 5 -29 15
-29 12 0 14 11 10 57 l-5 58 40 -80 c34 -66 40 -88 36 -124 -3 -30 1 -49 10
-58 8 -8 14 -32 14 -54 0 -22 5 -49 11 -60 6 -12 17 -48 24 -82 12 -57 13 -59
14 -22 0 22 -6 76 -14 120 -9 44 -19 125 -25 180 -5 58 -22 141 -39 199 -17
54 -31 110 -31 125 1 25 2 25 19 -9 11 -19 33 -78 51 -130 60 -179 59 -178 97
-200 19 -11 37 -30 40 -41 4 -16 11 -19 29 -15 20 5 25 1 32 -26 6 -23 14 -32
25 -30 12 2 17 -4 17 -21 0 -13 10 -37 23 -53 12 -15 34 -64 50 -109 l27 -80
-5 65 c-6 67 -27 167 -63 300 -24 90 -39 220 -24 205 6 -5 24 -50 41 -100 17
-49 34 -97 37 -105 3 -9 13 6 23 38 25 74 36 82 57 41 9 -19 25 -45 36 -58 25
-33 56 -139 78 -268 10 -60 19 -92 19 -73 1 45 -24 278 -43 400 -8 52 -17 121
-21 153 -4 31 -11 55 -16 52 -5 -4 -9 11 -9 32 0 21 -9 76 -20 123 -11 47 -20
99 -20 115 -1 27 -2 28 -14 13 -18 -25 -26 -22 -26 7 0 14 5 25 10 25 20 0 29
44 13 68 -8 13 -13 37 -11 55 4 29 8 24 50 -63 25 -52 55 -124 68 -160 46
-136 52 -150 62 -150 6 0 7 7 3 18 -5 9 -14 42 -21 72 -7 30 -16 65 -20 78 -4
15 -2 22 6 22 10 0 9 5 -3 18 -8 9 -20 43 -26 75 -13 71 -27 98 -46 91 -17 -7
-21 21 -4 31 23 15 81 -61 113 -147 10 -27 22 -48 28 -48 12 0 12 1 -50 170
-60 163 -68 189 -54 175 24 -23 82 -153 87 -195 4 -25 11 -58 17 -73 9 -24 13
-26 20 -13 5 9 22 16 38 16 34 0 38 16 15 65 -12 27 -13 28 -14 8 -2 -41 -19
-24 -31 29 -13 58 -11 113 5 113 6 0 21 -34 35 -75 15 -45 26 -67 28 -54 4 25
-56 214 -67 214 -5 0 -6 -11 -3 -25 4 -24 -12 -55 -29 -55 -10 0 -39 54 -39
72 1 7 9 3 20 -11 23 -27 26 -14 7 32 -16 36 -53 75 -40 41 6 -17 5 -18 -12
-4 -21 18 -85 146 -85 172 0 10 5 18 10 18 6 0 10 -11 10 -24 0 -13 7 -29 15
-36 8 -7 19 -26 23 -43 4 -17 14 -33 21 -35 9 -3 11 2 6 19 -12 45 -125 264
-176 341 -28 43 -48 82 -44 88 7 11 -12 50 -24 50 -5 0 -6 -12 -3 -28 l5 -27
-37 34 c-43 42 -56 35 -26 -13 12 -20 19 -36 16 -36 -16 0 -91 64 -108 90 -10
17 -24 30 -32 30 -7 0 -16 13 -19 29 -4 16 -22 46 -42 65 -32 33 -39 36 -75
30 -26 -4 -45 -2 -55 6 -20 17 -19 31 3 23 13 -5 15 -3 5 7 -6 7 -19 10 -27 7
-24 -10 -19 -45 9 -63 31 -21 31 -26 -2 -41 -22 -11 -31 -10 -50 3 -13 8 -36
14 -51 12 -25 -4 -25 -5 -7 -13 38 -16 56 -37 44 -52 -6 -7 -21 -13 -32 -13
-20 0 -20 -1 3 -25 25 -27 44 -24 35 6 -4 10 -2 19 4 19 14 0 24 -36 16 -60
-10 -32 -36 -24 -100 30 -68 57 -87 58 -31 1 l38 -39 -53 2 c-36 1 -53 -3 -52
-10 3 -17 -104 -29 -123 -14 -9 8 -14 9 -14 2 0 -15 54 -55 58 -43 2 7 10 6
23 -2 16 -10 21 -9 28 2 7 10 10 10 16 1 8 -13 -10 -30 -32 -30 -6 0 -13 -14
-15 -30 l-3 -30 -65 58 c-72 65 -99 82 -129 82 -11 0 -28 11 -37 25 -9 14 -27
28 -40 31 -16 4 -24 13 -24 27 0 19 -1 19 -18 4 -24 -22 -32 -21 -32 1 0 23
-19 42 -42 42 -10 0 -32 13 -50 29 -28 25 -30 31 -19 45 11 14 11 16 -3 16 -9
0 -16 8 -16 20 0 22 -20 26 -38 8 -9 -9 -12 -6 -12 16 l0 27 -57 -7 c-32 -3
-59 -8 -61 -9 -1 -1 7 -14 19 -29 16 -20 19 -30 11 -38 -16 -16 -81 30 -170
118 -40 40 -82 76 -92 79 -11 3 -45 30 -76 60 -43 41 -55 58 -51 74 3 12 1 24
-4 27 -5 3 -9 25 -9 50 0 32 -4 44 -15 44 -8 0 -22 11 -31 25 -9 14 -23 25
-30 25 -17 0 -18 -32 -2 -48 8 -8 8 -15 -2 -27 -12 -14 -9 -15 29 -9 35 6 40
4 35 -9 -10 -26 -41 -29 -86 -9 -47 21 -64 37 -70 67 -2 12 -12 20 -24 21 -11
1 -47 19 -80 40 -32 21 -106 63 -164 92 -82 41 -97 51 -68 47 25 -4 48 0 70
11 24 13 36 14 50 5 22 -14 88 -15 88 -1 0 20 66 9 128 -20 61 -29 78 -57 26
-44 -32 8 -30 -3 9 -44 l32 -34 -32 7 c-21 4 -33 3 -33 -4 0 -17 36 -31 84
-31 25 0 56 -5 69 -11 17 -8 30 -8 44 0 24 12 47 -1 66 -39 15 -31 76 -39 112
-16 21 14 23 14 18 -4 -4 -14 0 -20 10 -20 8 0 20 -13 26 -30 8 -24 16 -30 40
-30 38 0 40 18 6 50 -14 13 -25 29 -25 37 0 22 27 15 44 -12 9 -14 49 -49 89
-79 40 -29 78 -60 85 -69 21 -25 42 -9 42 33 l0 37 51 -17 c27 -10 57 -27 65
-39 10 -13 26 -21 44 -21 22 0 33 -7 44 -28 8 -16 22 -35 31 -42 14 -12 16
-11 10 11 -5 19 2 35 24 63 31 39 39 70 21 81 -6 4 -10 -5 -10 -19 0 -33 -15
-33 -36 -1 -11 17 -25 25 -45 25 -15 0 -31 4 -34 10 -9 15 -35 12 -35 -3 0 -8
23 -26 50 -41 45 -24 64 -46 42 -46 -14 0 -96 56 -121 83 -23 26 -22 47 5 47
19 0 18 16 -1 24 -8 3 -14 11 -13 18 2 6 -11 17 -28 23 -17 5 -38 16 -47 24
-24 19 -22 -4 3 -39 25 -36 13 -45 -27 -20 -26 16 -32 16 -45 4 -22 -23 -78
-19 -145 10 -34 14 -70 26 -80 26 -26 0 -101 52 -83 58 7 3 19 -3 26 -13 18
-24 36 -10 28 22 -6 23 -4 25 15 20 32 -8 26 20 -9 41 -16 10 -39 30 -50 45
-12 15 -25 27 -30 27 -11 0 16 -54 35 -70 15 -12 21 -40 9 -40 -3 0 -19 8 -35
17 -29 18 -30 17 -54 -12 l-24 -30 -1 33 c0 25 -4 32 -20 32 -11 0 -20 -7 -20
-15 0 -21 -11 -19 -51 11 -19 14 -49 32 -66 39 -51 22 -41 37 18 29 42 -6 51
-4 47 7 -2 8 -22 18 -44 23 -116 25 -151 47 -99 60 22 6 25 9 14 22 -10 12 -8
17 7 29 10 8 22 15 26 15 4 0 9 9 13 20 8 26 -11 60 -35 60 -11 0 -37 9 -59
21 -23 12 -48 18 -60 14 -13 -4 -24 1 -34 15 -9 14 -17 17 -22 11 -11 -19 -45
-13 -45 9 0 11 -7 20 -15 20 -8 0 -32 9 -52 20 -21 11 -46 20 -55 20 -10 0
-18 5 -18 10 0 16 -26 11 -43 -8 -24 -26 -21 -42 8 -42 27 0 34 -15 10 -24
-27 -10 -16 -24 58 -79 39 -30 86 -69 102 -87 31 -34 21 -33 -30 5 -54 39 -75
48 -75 30 0 -8 11 -21 25 -27 33 -15 32 -32 -1 -24 -24 6 -25 5 -19 -23 5 -23
2 -32 -17 -45 -31 -22 -58 -21 -58 3 0 11 -10 27 -22 35 -29 20 -68 21 -68 1
0 -16 -35 -21 -45 -6 -7 13 53 81 81 91 13 5 38 5 59 -1 20 -6 39 -9 41 -6 9
9 -58 87 -88 103 -18 9 -55 37 -82 60 -60 55 -80 59 -55 13 5 -11 21 -24 35
-29 14 -6 22 -15 19 -20 -4 -6 10 -27 30 -46 29 -27 33 -35 21 -40 -9 -3 -16
-12 -16 -20 0 -8 -2 -14 -5 -14 -18 0 -76 39 -130 88 -34 32 -76 69 -93 84
-29 24 -31 29 -22 54 16 42 6 54 -43 54 -24 0 -48 5 -55 12 -7 7 -12 9 -12 4
0 -14 22 -51 56 -93 34 -42 42 -63 24 -63 -5 0 -18 10 -30 22 -11 12 -44 33
-73 47 -42 21 -53 31 -55 54 -3 21 -11 31 -33 39 -16 5 -29 14 -29 19 0 5 -11
14 -25 19 -14 5 -31 24 -39 44 -9 23 -33 46 -69 69 -30 19 -64 49 -76 66 -12
17 -31 31 -42 31 -12 0 -17 -4 -14 -11 4 -6 13 -8 21 -5 16 6 28 -10 14 -19
-15 -9 -63 24 -57 40 12 31 -101 145 -144 145 -9 0 -27 9 -40 19 -20 16 -24
29 -24 70 0 28 3 51 7 51 3 0 20 -8 37 -17 28 -16 33 -16 41 -3 19 30 3 35
-113 35 -82 0 -120 4 -129 13 -11 11 -10 12 6 6 13 -5 17 -4 13 3 -4 6 -4 32
-1 57 6 38 9 44 21 35 17 -14 28 -5 19 16 -4 12 -14 14 -41 9 -32 -6 -35 -4
-35 17 0 31 35 101 65 129 25 23 25 23 65 5 32 -15 42 -15 55 -5 18 15 20 32
2 28 -6 -2 -22 7 -34 19 -24 24 -22 48 11 112 17 32 19 33 64 27 70 -9 84 -8
95 3 8 8 -8 11 -51 11 -69 0 -82 16 -37 46 14 9 25 21 25 28 1 6 14 27 30 46
17 19 30 42 30 51 0 10 6 20 13 23 11 4 5 12 -55 61 -22 18 -23 54 -2 62 19 7
67 -36 60 -54 -3 -7 8 -25 24 -40 17 -14 30 -36 30 -47 1 -23 39 -54 108 -85
23 -11 45 -28 49 -36 4 -11 13 -15 29 -11 26 7 74 -9 74 -24 0 -5 -11 -10 -24
-10 -53 0 -40 -42 26 -90 23 -17 51 -30 64 -30 21 0 23 -4 18 -29 -5 -22 -1
-32 18 -45 20 -15 23 -15 26 -1 5 21 15 19 30 -5 12 -20 52 -28 52 -11 0 5 -8
17 -17 26 -16 16 -15 18 7 35 l23 17 -29 7 c-59 15 -164 96 -164 128 0 9 -9
22 -21 28 -11 7 -25 24 -30 39 -12 33 -52 58 -109 67 -41 7 -42 6 -36 -17 6
-21 2 -19 -29 14 -35 37 -38 57 -8 57 19 0 93 58 93 72 0 6 -8 4 -18 -5 -38
-34 -82 -15 -82 35 0 25 -3 28 -25 22 -19 -5 -25 -2 -25 10 0 9 -8 16 -20 16
-44 0 -5 86 80 175 32 33 60 70 64 81 4 12 15 29 26 39 19 17 20 17 20 0 0
-17 1 -17 20 0 11 10 22 27 26 39 12 36 69 118 138 196 36 41 66 78 66 83 0
22 -31 -2 -106 -80 -46 -49 -83 -83 -84 -77 0 6 7 17 15 24 19 15 19 34 1 49
-10 8 -20 5 -42 -14 -16 -14 -35 -30 -42 -36 -17 -14 -11 -54 8 -54 8 0 16 -7
18 -16 4 -21 -24 -49 -49 -49 -14 0 -20 -10 -25 -41 -10 -58 -61 -132 -101
-143 -24 -8 -36 -20 -47 -47 -8 -21 -23 -40 -33 -43 -39 -11 -113 -18 -113
-10 0 4 12 21 27 36 l27 28 -27 0 c-14 0 -29 4 -32 10 -10 16 30 94 70 139 39
43 64 51 85 26 23 -27 32 -16 11 14 -29 40 -26 58 13 97 24 24 43 34 65 34 17
0 31 5 31 11 0 6 -7 9 -15 5 -27 -10 -16 15 33 72 26 31 82 97 123 146 115
139 375 402 417 422 31 14 34 18 18 24 -17 6 -16 10 18 48 21 23 46 44 56 47
10 3 21 13 24 23 3 9 9 23 12 30 9 19 -37 15 -73 -8 -40 -24 -41 -29 -5 -23
26 5 26 4 7 -10 -29 -21 -123 -53 -132 -44 -9 9 17 28 29 21 4 -2 12 4 17 15
6 10 33 36 61 56 28 21 56 50 63 65 12 28 71 94 137 155 31 29 33 29 27 7 -5
-23 -5 -23 14 -6 10 9 19 22 19 29 0 22 59 94 89 110 17 8 43 15 58 15 20 0
32 8 44 28 17 31 79 80 79 63 0 -5 -11 -23 -25 -39 -29 -35 -32 -45 -7 -34 95
47 91 47 105 28 19 -26 63 -11 114 40 58 58 56 86 -3 48 -28 -19 -39 -14 -30
14 16 48 464 418 483 398 3 -2 -3 -19 -12 -36 -14 -27 -15 -34 -3 -41 11 -7
10 -14 -5 -40 -10 -18 -15 -34 -12 -37 8 -8 118 51 123 67 4 11 -4 13 -37 8
l-41 -5 20 25 c11 14 20 38 20 53 0 14 12 43 28 63 46 62 180 152 199 133 9
-9 -25 -43 -58 -56 -16 -7 -29 -16 -29 -20 0 -18 29 -17 70 1 23 11 48 18 54
18 6 -1 18 1 26 4 8 3 54 7 102 9 80 3 90 5 115 31 33 33 17 35 -46 6 -55 -24
-68 -14 -47 36 9 21 14 46 11 55 -4 13 1 15 29 12 54 -6 159 59 141 87 -3 6 0
11 9 11 8 0 16 5 18 10 2 6 26 14 55 19 59 9 74 18 162 95 36 31 69 56 75 56
14 0 -80 -95 -121 -123 -18 -12 -33 -27 -33 -34 0 -11 -10 -18 -115 -86 -97
-62 -101 -65 -81 -73 26 -10 189 75 175 92 -13 16 -5 20 60 29 43 6 53 5 49
-6 -2 -8 -14 -18 -26 -24 -12 -5 -22 -15 -22 -22 0 -6 -9 -14 -20 -18 -11 -3
-29 -20 -41 -36 -11 -16 -46 -48 -76 -71 -30 -22 -63 -53 -72 -69 -9 -16 -29
-34 -46 -40 -38 -15 -95 -57 -95 -70 0 -5 12 -9 28 -9 32 0 103 46 190 124 67
60 85 66 114 39 15 -13 18 -14 18 -2 0 8 -5 20 -11 26 -15 15 -3 33 49 77 53
44 67 45 87 6 15 -29 15 -30 -9 -30 -34 0 -85 -21 -67 -27 21 -8 118 16 131
33 7 7 20 14 30 14 10 0 20 9 23 19 3 11 17 22 35 26 17 3 46 24 66 45 36 40
81 118 73 126 -2 3 -31 -18 -63 -46 -69 -58 -89 -65 -45 -15 31 36 39 55 22
55 -5 0 -14 -7 -21 -15 -22 -27 -22 -8 1 44 25 60 20 74 -16 41 -28 -26 -42
-22 -26 8 14 26 14 45 1 37 -16 -10 -24 24 -11 52 19 41 4 40 -39 -2 -22 -21
-42 -36 -46 -33 -3 3 6 28 20 54 25 47 33 104 20 138 -8 22 -37 20 -58 -3 -23
-25 -56 -33 -63 -15 -3 8 0 21 6 28 9 11 9 15 0 18 -10 3 -8 15 5 47 17 43 17
43 -4 38 -16 -4 -20 0 -20 19 0 28 -7 30 -39 7 -14 -9 -21 -11 -16 -4 4 8 2
16 -5 21 -10 6 -10 15 0 43 7 19 10 42 7 51 -7 18 -39 21 -68 6 -16 -9 -19 -7
-19 10 0 29 -19 33 -69 15 -59 -20 -60 -20 -21 20 42 44 32 57 -15 20 -43 -32
-52 -28 -31 14 17 32 22 91 7 91 -5 0 -14 -7 -21 -15 -17 -21 -37 -19 -43 5
-3 12 -14 20 -26 20 -18 0 -21 5 -19 28 2 22 -1 28 -20 30 -29 4 -38 26 -24
58 10 21 9 24 -8 24 -11 0 -20 6 -20 14 0 8 -7 17 -15 20 -12 4 -15 18 -13 58
3 53 3 53 -29 56 -18 2 -42 -2 -54 -9 -20 -10 -21 -9 -15 7 4 11 10 34 13 51
7 43 -11 50 -87 30 l-60 -15 30 34 c16 19 30 37 30 39 0 2 -17 -6 -37 -18
l-38 -22 28 34 c54 64 13 102 -69 65 -60 -27 -60 -27 -46 -13 18 20 15 31 -8
24 -33 -11 -24 22 20 67 47 49 49 64 14 80 -41 19 -137 -3 -260 -61 -143 -66
-167 -65 -39 2 132 69 156 86 153 108 -2 10 13 32 37 54 39 35 39 36 12 30
-28 -6 -57 12 -57 34 0 7 -10 9 -25 5 -33 -8 -42 16 -20 50 20 29 7 34 -28 11
-23 -15 -113 -39 -180 -49 -38 -5 -39 -4 -32 21 5 20 3 24 -9 20 -20 -8 -20 1
0 48 19 46 13 63 -21 67 l-27 3 21 27 c27 34 26 38 -5 38 l-26 0 36 40 c20 22
36 42 36 45 0 9 -33 3 -125 -20z m-364 -258 c-13 -13 -26 -3 -16 12 3 6 11 8
17 5 6 -4 6 -10 -1 -17z m-314 -162 c-4 -8 -2 -17 4 -21 10 -6 -49 -79 -107
-134 -29 -28 -50 -49 -93 -97 -40 -44 -66 -44 -57 -1 6 30 5 31 -8 13 -9 -11
-16 -28 -16 -37 0 -35 -90 -102 -90 -67 0 6 -7 8 -17 4 -11 -4 -6 7 13 27 18
18 43 51 57 74 26 42 74 86 211 191 80 61 113 77 103 48z m303 -10 c-15 -18
-157 -125 -277 -209 -83 -57 -106 -61 -58 -10 14 15 25 31 25 35 0 5 6 9 14 9
8 0 16 7 19 15 4 8 28 25 55 39 27 14 62 36 78 49 16 13 43 29 59 36 17 6 41
20 55 31 30 23 48 26 30 5z m430 -9 c0 -3 -14 -14 -31 -26 -36 -27 -54 -17
-19 10 23 18 50 26 50 16z m-185 -126 c-16 -16 -34 -30 -39 -30 -10 1 53 59
63 60 3 0 -8 -13 -24 -30z m-136 -16 c-35 -37 -97 -71 -146 -78 -24 -3 -43 -5
-43 -2 0 10 79 56 97 56 12 0 25 5 29 12 4 7 3 8 -4 4 -7 -4 -12 -2 -12 3 0
11 12 15 42 12 9 -1 19 3 23 9 3 5 13 10 22 10 13 0 11 -5 -8 -26z m79 -54
c11 -18 8 -26 -29 -68 -35 -41 -45 -48 -71 -44 l-29 4 22 24 c35 38 14 40 -32
3 -23 -18 -38 -26 -33 -18 16 28 130 118 149 119 6 0 16 -9 23 -20z m171 -76
c-22 -23 -69 -54 -84 -54 -29 0 64 79 94 80 10 0 7 -8 -10 -26z m-569 -2 c0
-13 -12 -22 -22 -16 -10 6 -1 24 13 24 5 0 9 -4 9 -8z m-220 -32 c0 -7 -100
-80 -157 -114 -27 -15 -11 15 35 68 41 49 52 55 85 56 20 0 37 -4 37 -10z
m187 -48 c-15 -15 -27 -35 -27 -43 0 -28 -207 -209 -240 -209 -8 0 -20 -10
-25 -22 -11 -24 -116 -83 -136 -76 -19 6 160 178 185 178 18 0 86 67 86 85 0
8 -50 -21 -87 -51 -32 -26 -33 -26 -33 -5 0 14 9 25 24 31 14 5 29 18 35 28
13 24 61 38 71 21 5 -8 32 4 86 40 44 28 81 51 83 51 3 0 -7 -13 -22 -28z
m351 -2 c14 -23 47 -27 55 -6 3 8 22 18 42 22 30 5 41 3 57 -14 26 -25 18 -47
-23 -70 -55 -29 -261 -187 -316 -241 -29 -28 -57 -51 -62 -51 -6 0 -11 -9 -11
-19 0 -24 -77 -92 -162 -143 -95 -58 -113 -50 -53 24 19 24 47 61 62 82 66 93
219 236 253 236 32 0 140 128 140 167 0 34 -23 28 -51 -14 -14 -23 -42 -47
-69 -60 -66 -32 -74 -30 -51 15 36 70 160 117 189 72z m-196 -22 c-18 -19 -22
-20 -22 -6 0 9 8 21 17 27 27 15 29 3 5 -21z m443 -94 c-56 -52 -90 -65 -90
-35 0 8 7 18 15 22 8 5 38 22 65 38 74 45 77 37 10 -25z m-1105 -70 c0 -16
-58 -74 -73 -74 -5 0 3 13 16 30 14 16 29 39 32 50 7 22 25 18 25 -6z m614 11
c-4 -8 -10 -15 -15 -15 -5 0 -9 7 -9 15 0 8 7 15 15 15 9 0 12 -6 9 -15z m516
-1 c0 -4 -9 -22 -21 -40 -17 -28 -24 -32 -39 -24 -21 11 -32 -6 -24 -37 2 -10
0 -24 -5 -32 -10 -16 -31 -6 -31 15 0 12 -7 14 -30 9 -34 -8 -40 7 -13 37 9
10 13 21 10 24 -3 4 -40 -25 -81 -62 -50 -46 -70 -70 -60 -72 9 -2 23 3 33 12
19 17 46 22 36 7 -3 -5 5 -17 17 -25 22 -16 22 -16 1 -16 -11 0 -23 -7 -27
-15 -3 -8 -11 -12 -19 -9 -17 6 -67 -32 -67 -52 0 -10 14 -14 58 -14 l57 0
-30 -20 c-16 -12 -69 -41 -117 -66 -96 -50 -168 -118 -168 -158 0 -28 -67 -98
-113 -117 -23 -10 -31 -9 -46 5 -9 9 -25 16 -34 16 -10 0 -26 5 -36 12 -20 12
-51 5 -51 -12 0 -6 11 -15 25 -20 34 -13 43 -39 19 -57 -10 -8 -27 -12 -36
-10 -9 3 -18 -1 -20 -9 -2 -9 -8 -10 -17 -5 -10 7 -11 13 -2 29 9 18 8 23 -10
33 -21 11 -20 12 22 55 45 45 48 68 5 41 -36 -24 -74 -78 -92 -131 -13 -37
-30 -59 -86 -104 -131 -108 -180 -142 -204 -142 -26 0 -46 -31 -26 -38 7 -2
12 -10 12 -18 0 -9 -4 -12 -10 -9 -5 3 -10 -3 -10 -14 0 -10 -6 -21 -12 -24
-7 -2 -10 -8 -6 -12 4 -4 29 10 55 31 86 71 313 296 313 311 0 13 3 13 15 3
10 -8 13 -21 9 -33 -4 -13 -2 -17 5 -13 6 4 11 3 11 -3 0 -12 -136 -130 -167
-144 -12 -5 -25 -18 -28 -29 -4 -10 -15 -18 -25 -18 -11 0 -20 -10 -24 -25 -4
-15 -24 -35 -54 -52 -26 -15 -94 -69 -152 -120 -106 -94 -129 -109 -110 -74 8
16 6 22 -6 29 -13 8 -14 13 -4 31 20 38 6 33 -40 -14 -40 -41 -42 -45 -21 -45
37 0 23 -34 -17 -38 -18 -2 -32 -9 -32 -16 0 -16 -80 -109 -87 -102 -3 3 4 18
16 34 25 36 26 42 6 42 -23 0 -19 6 39 75 30 35 66 86 80 112 17 30 41 56 64
70 21 12 119 99 217 193 191 184 390 364 433 392 15 10 51 41 81 69 30 29 118
99 195 156 78 57 170 127 206 155 36 28 80 58 98 67 32 15 35 14 47 -2 13 -17
16 -17 62 7 50 26 63 30 63 20z m-630 -22 c0 -23 -22 -55 -82 -119 -52 -56
-55 -64 -33 -83 24 -20 18 -46 -19 -78 -41 -36 -74 -48 -89 -33 -7 7 -3 13 15
20 38 14 41 27 17 61 l-23 30 24 25 c34 36 18 42 -25 10 -43 -34 -54 -27 -32
20 9 20 17 42 17 50 0 8 17 23 38 34 20 11 57 34 82 50 52 36 110 42 110 13z
m372 -14 c-6 -6 -16 -8 -22 -6 -9 3 -7 9 6 22 13 13 19 15 22 6 2 -6 0 -16 -6
-22z m398 -62 c0 -3 -42 -35 -92 -72 -51 -37 -108 -81 -125 -97 -18 -17 -33
-26 -33 -21 0 15 55 64 148 133 75 55 102 70 102 57z m70 -66 c0 -15 -7 -20
-25 -20 -27 0 -32 9 -13 28 18 18 38 14 38 -8z m58 -2 c-6 -18 -28 -21 -28 -4
0 9 7 16 16 16 9 0 14 -5 12 -12z m52 -23 c0 -8 -4 -15 -10 -15 -5 0 -10 7
-10 15 0 8 5 15 10 15 6 0 10 -7 10 -15z m-1470 -4 c0 -5 -8 -12 -19 -16 -10
-3 -30 -19 -45 -35 -14 -17 -31 -30 -36 -30 -6 0 -10 -4 -10 -10 0 -17 22 -11
46 11 27 25 44 18 44 -20 0 -33 -16 -51 -47 -51 -13 0 -23 -2 -23 -4 0 -2 -3
-12 -6 -20 -5 -12 -2 -15 10 -10 26 10 18 -12 -18 -50 -18 -20 -43 -36 -55
-36 -12 0 -30 -6 -41 -12 -25 -16 -55 0 -55 28 0 13 8 20 28 22 18 2 32 13 41
30 8 15 23 36 35 46 25 22 27 36 6 36 -8 0 -15 -4 -15 -10 0 -5 -7 -10 -15
-10 -27 0 -16 17 56 84 46 43 80 66 95 66 13 0 24 -4 24 -9z m1000 -40 c0 -5
-8 -17 -17 -27 -20 -20 -32 -1 -13 21 14 17 30 20 30 6z m-692 -23 c-7 -21
-78 -41 -94 -27 -20 16 -7 31 15 17 14 -9 23 -7 42 5 28 20 42 22 37 5z m926
-49 c-21 -23 -64 -58 -94 -78 -84 -57 -84 -57 -78 -33 7 27 9 27 -43 -3 -44
-25 -85 -33 -74 -15 3 5 47 39 98 74 63 44 111 69 151 79 32 9 61 18 64 21 3
3 8 4 11 1 2 -3 -13 -24 -35 -46z m116 31 c-8 -5 -17 -7 -19 -4 -3 3 1 9 9 14
8 5 17 7 19 4 3 -3 -1 -9 -9 -14z m-363 -48 c-14 -15 -41 -35 -59 -45 -29 -16
-27 -13 15 27 53 49 88 64 44 18z m300 1 c-8 -10 -31 -26 -49 -36 -31 -17 -30
-16 11 23 42 39 71 49 38 13z m290 -8 c12 -28 -3 -48 -18 -24 -7 12 -14 11
-39 -3 -37 -21 -38 -13 -3 24 33 34 45 35 60 3z m-2019 -88 c13 -3 4 -16 -38
-56 -85 -81 -125 -105 -61 -37 40 43 51 60 42 69 -16 16 -14 31 12 63 l22 29
3 -32 c2 -20 10 -33 20 -36z m489 27 c8 -21 -19 -38 -30 -18 -9 16 -1 34 14
34 5 0 12 -7 16 -16z m1083 -49 c-7 -8 -17 -15 -23 -15 -5 0 -2 9 8 20 21 23
35 19 15 -5z m-1052 -9 c2 -9 1 -24 -2 -33 -5 -12 -9 -13 -21 -3 -13 11 -15 6
-15 -34 0 -57 -14 -86 -41 -86 -16 0 -19 5 -14 19 6 19 5 19 -25 5 -31 -16
-66 -12 -55 6 3 5 0 10 -8 10 -8 0 -18 -12 -21 -26 -5 -19 -12 -25 -29 -22
-25 3 -37 38 -13 38 8 0 16 10 18 22 2 12 12 25 23 28 12 3 20 13 20 25 0 14
7 20 22 20 11 0 25 3 29 8 4 4 17 7 28 7 12 0 35 9 51 20 34 22 48 21 53 -4z
m732 -21 c0 -20 -43 -47 -64 -39 -13 5 -10 10 17 29 38 28 47 30 47 10z m120
-20 c17 -9 30 -23 30 -33 0 -25 -64 -72 -98 -72 -62 0 -91 -11 -89 -33 1 -16
-12 -30 -48 -54 -108 -71 -148 -100 -194 -138 -68 -57 -194 -146 -199 -141
-14 14 121 141 343 323 47 39 217 162 223 163 2 0 16 -7 32 -15z m-808 -17
c-7 -7 -12 -8 -12 -2 0 14 12 26 19 19 2 -3 -1 -11 -7 -17z m118 -2 c0 -17
-171 -182 -230 -222 -50 -34 -80 -47 -80 -36 0 12 93 120 118 138 12 8 22 22
22 30 0 9 6 14 13 11 6 -2 28 10 47 29 33 31 86 64 103 64 4 0 7 -6 7 -14z
m1056 -13 c-10 -10 -19 5 -10 18 6 11 8 11 12 0 2 -7 1 -15 -2 -18z m291 -33
c-5 -22 -3 -30 8 -30 8 0 15 -3 15 -8 0 -10 -49 -82 -56 -82 -3 0 -4 16 -2 36
3 43 -16 57 -26 19 -6 -23 -11 -25 -57 -25 -45 0 -50 -2 -39 -15 17 -21 0 -40
-64 -72 -28 -14 -89 -49 -136 -78 -112 -69 -147 -85 -101 -48 18 15 65 55 104
88 121 105 190 156 267 201 41 24 79 44 84 44 4 0 6 -13 3 -30z m-905 -30
c-70 -65 -91 -65 -27 0 27 28 56 50 65 50 9 -1 -7 -21 -38 -50z m-1016 6 c-3
-13 -21 -34 -40 -45 -41 -26 -46 -26 -46 -2 0 12 -11 23 -30 30 -36 12 -39 31
-5 31 14 0 25 -4 25 -10 0 -17 43 -11 70 10 29 22 35 19 26 -14z m1564 26 c0
-12 -49 -37 -56 -29 -11 10 17 37 37 37 11 0 19 -4 19 -8z m810 -66 c0 -7 -7
-19 -15 -26 -16 -13 -20 -3 -9 24 8 20 24 21 24 2z m-895 -7 c-13 -20 -55 -30
-77 -18 -17 9 -18 13 -7 20 20 13 92 11 84 -2z m-1375 -25 c0 -16 -16 -19 -25
-4 -8 13 4 32 16 25 5 -4 9 -13 9 -21z m200 17 c0 -5 -9 -11 -20 -14 -16 -4
-19 -11 -15 -30 5 -17 0 -32 -18 -53 -14 -16 -29 -26 -33 -21 -4 4 -2 13 4 19
7 7 12 25 12 42 0 16 7 38 17 48 17 18 53 25 53 9z m-655 -21 c-10 -11 -23
-20 -29 -20 -6 1 0 10 13 20 30 26 39 26 16 0z m195 0 c0 -16 -61 -49 -77 -43
-11 4 -6 10 15 18 16 7 33 18 36 24 9 14 26 14 26 1z m1520 -8 c0 -5 -9 -17
-20 -27 -11 -10 -20 -23 -20 -30 0 -21 -39 -50 -51 -38 -14 14 1 43 42 77 31
26 49 33 49 18z m950 -2 c0 -5 1 -13 3 -17 1 -3 -6 -7 -15 -9 -10 -1 -43 -25
-75 -53 -31 -28 -62 -51 -67 -51 -6 0 -29 -14 -50 -30 -22 -17 -48 -30 -58
-30 -37 0 -21 15 77 75 17 10 53 37 80 60 70 59 105 77 105 55z m-2262 -27
c-3 -30 -25 -42 -34 -19 -9 22 2 46 21 46 12 0 15 -8 13 -27z m92 14 c0 -2
-10 -12 -21 -23 -22 -19 -22 -19 -10 4 10 18 31 31 31 19z m661 -30 c-8 -8
-11 -7 -11 4 0 9 3 19 7 23 4 4 9 2 11 -4 3 -7 -1 -17 -7 -23z m1137 -22 c3
-25 2 -27 -12 -16 -13 11 -17 8 -30 -21 -11 -25 -15 -28 -15 -12 -1 11 -7 26
-13 33 -11 10 -8 16 11 32 33 27 55 21 59 -16z m-2200 13 c7 -7 12 -22 12 -35
0 -26 9 -29 29 -10 26 23 -2 -20 -44 -69 -59 -69 -105 -114 -117 -114 -15 0
-6 18 56 104 59 83 66 100 40 110 -8 3 -12 10 -9 16 8 13 18 13 33 -2z m256
-30 c-13 -23 -37 -48 -46 -48 -5 0 0 14 12 30 20 29 49 43 34 18z m727 -31
c-8 -8 -11 -7 -11 4 0 9 3 19 7 23 4 4 9 2 11 -4 3 -7 -1 -17 -7 -23z m-762
-67 l22 0 -21 -30 c-12 -16 -31 -32 -44 -36 -12 -3 -26 -15 -31 -27 -6 -12
-19 -24 -30 -26 -17 -3 -18 -1 -6 13 21 25 -3 19 -26 -6 -12 -13 -23 -36 -25
-53 -3 -28 -6 -30 -52 -33 -36 -2 -47 0 -44 10 3 7 17 14 32 16 21 3 26 7 21
23 -4 13 -2 19 9 19 9 0 16 4 16 10 0 5 28 40 62 79 56 62 65 68 79 55 8 -8
26 -14 38 -14z m217 7 c62 24 -104 -179 -203 -248 -48 -33 -53 -31 -22 10 11
15 22 45 23 65 3 40 36 88 36 53 0 -9 5 -17 11 -17 16 0 66 56 96 107 17 29
29 41 36 34 5 -5 16 -7 23 -4z m1540 -45 c-15 -15 -16 -14 -16 9 0 33 11 44
23 23 6 -11 4 -21 -7 -32z m531 11 c-9 -8 -48 8 -42 18 4 5 14 5 26 -2 12 -6
18 -13 16 -16z m-1133 -1 c-81 -70 -169 -138 -204 -159 l-44 -27 21 27 c41 53
219 185 231 172 3 -3 1 -9 -4 -13z m291 -39 c-18 -43 -17 -65 4 -94 l22 -29
-25 0 c-17 0 -31 -10 -46 -35 -25 -41 -91 -95 -116 -95 -9 0 -26 -8 -37 -17
-16 -15 -16 -12 5 29 13 26 28 47 35 48 7 0 21 10 32 21 11 12 30 27 43 33 26
13 37 46 15 46 -9 0 -37 -17 -64 -38 -26 -21 -78 -59 -115 -86 -83 -58 -218
-183 -218 -201 0 -17 -54 -62 -96 -80 -19 -8 -34 -19 -34 -24 0 -21 -65 -83
-112 -107 -101 -51 -65 -10 261 294 95 90 206 189 245 221 139 113 220 159
201 114z m1130 -13 c6 -10 -70 -53 -86 -48 -5 2 9 16 33 31 48 31 45 30 53 17z
m-635 -27 c0 -20 -38 -63 -57 -63 -18 0 -16 -17 3 -24 13 -5 14 -9 4 -21 -17
-20 -2 -38 25 -31 17 4 25 1 28 -11 4 -20 6 -18 26 39 17 46 111 91 111 53 0
-15 29 -35 51 -35 8 0 6 6 -4 18 -10 10 -17 22 -17 25 0 13 34 7 52 -10 15
-14 24 -15 46 -6 15 6 36 14 47 18 25 10 -66 -87 -119 -126 -21 -16 -50 -29
-63 -29 -27 0 -27 0 -9 45 8 19 12 35 7 35 -4 0 -56 -22 -117 -50 -60 -27
-116 -50 -123 -50 -8 0 -28 12 -43 27 l-28 27 -41 -23 c-22 -13 -42 -21 -45
-18 -7 7 165 167 180 167 7 0 25 14 41 30 33 34 45 38 45 13z m-2580 -15 c0
-15 -121 -130 -128 -123 -3 3 8 20 25 38 16 17 40 47 52 65 22 32 51 43 51 20z
m150 -49 c0 -18 5 -21 29 -17 l30 4 -29 -35 c-46 -58 -180 -187 -180 -173 0 7
18 29 40 51 22 21 40 43 40 48 0 5 11 25 25 44 18 23 24 41 20 57 -3 13 -3 27
0 32 11 17 25 11 25 -11z m2935 -19 c-18 -20 -45 -27 -45 -12 0 15 24 32 44
32 18 0 19 -1 1 -20z m-919 -27 c-11 -11 -19 6 -11 24 8 17 8 17 12 0 3 -10 2
-21 -1 -24z m-1806 8 c0 -5 -7 -14 -15 -21 -12 -10 -15 -10 -15 2 0 8 3 18 7
21 9 10 23 9 23 -2z m180 -38 c0 -17 -67 -93 -82 -93 -17 0 -7 27 18 51 15 14
23 31 21 41 -4 14 1 18 19 18 16 0 24 -6 24 -17z m1542 -25 c-7 -7 -12 -8 -12
-2 0 14 12 26 19 19 2 -3 -1 -11 -7 -17z m78 2 c0 -11 -4 -20 -10 -20 -5 0
-10 9 -10 20 0 11 5 20 10 20 6 0 10 -9 10 -20z m837 5 c3 -9 4 -18 1 -20 -6
-6 -122 -24 -127 -19 -4 4 99 54 112 54 4 0 10 -7 14 -15z m-5060 -61 c-9 -10
-38 16 -31 28 4 6 13 4 22 -6 9 -8 13 -19 9 -22z m2613 17 c0 -15 -38 -56 -45
-49 -9 9 21 58 35 58 6 0 10 -4 10 -9z m-2531 -25 c8 -10 8 -16 -3 -25 -16
-13 -46 -5 -46 13 0 28 30 35 49 12z m2251 10 c0 -3 -23 -35 -50 -71 -28 -37
-59 -83 -69 -103 -28 -54 -169 -188 -183 -174 -16 16 20 66 161 220 106 114
141 146 141 128z m1731 -69 c-48 -46 -62 -50 -24 -5 13 15 12 18 -6 30 -12 7
-21 16 -21 20 0 7 90 16 100 10 2 -1 -20 -26 -49 -55z m275 28 c-4 -14 -2 -25
4 -25 23 0 7 -31 -38 -72 -47 -42 -78 -79 -54 -64 16 10 15 1 -4 -35 -20 -39
-14 -45 25 -24 40 20 39 11 -4 -36 -41 -46 -48 -77 -12 -58 12 7 42 30 67 51
50 44 166 124 196 134 10 4 -37 -48 -106 -116 -177 -174 -300 -253 -250 -161
8 15 6 17 -15 13 -41 -7 -32 34 15 78 52 48 52 62 -1 54 -39 -7 -41 -6 -34 15
7 22 7 22 -27 5 -18 -10 -53 -20 -77 -23 -47 -6 -70 -31 -29 -31 22 0 22 -1
-7 -20 -67 -45 -93 -2 -27 47 20 15 40 32 43 36 4 5 17 14 30 21 13 6 33 29
45 51 11 22 29 45 40 50 39 21 100 63 142 99 53 44 87 49 78 11z m-1783 -1 c9
-10 -4 -34 -19 -34 -16 0 -16 2 -8 24 6 17 16 20 27 10z m1917 -42 c0 -4 -20
-19 -45 -34 -25 -15 -45 -31 -44 -35 4 -22 -3 -24 -21 -8 -19 17 -21 17 -38 2
-21 -19 -37 -23 -27 -7 6 10 153 89 168 90 4 0 7 -3 7 -8z m-4232 -38 c24 -16
28 -29 12 -39 -13 -8 -76 30 -84 51 -5 13 -1 15 21 9 16 -3 38 -13 51 -21z
m-2451 10 c-3 -3 -12 -4 -19 -1 -8 3 -5 6 6 6 11 1 17 -2 13 -5z m118 -64 c-3
-5 -13 -10 -21 -10 -8 0 -12 5 -9 10 3 6 13 10 21 10 8 0 12 -4 9 -10z m4505
-35 c-13 -14 -26 -23 -28 -20 -3 3 5 16 18 30 13 14 26 23 28 20 3 -3 -5 -16
-18 -30z m1380 15 c0 -16 -48 -42 -72 -38 -21 3 -19 6 17 25 45 25 55 27 55
13z m-1245 -27 c-3 -16 -18 -48 -32 -72 -31 -54 -160 -190 -190 -202 -13 -5
-23 -15 -23 -23 0 -9 -13 -22 -29 -31 -16 -8 -33 -25 -36 -37 -9 -29 -41 -64
-82 -89 -48 -30 -65 -18 -25 17 19 16 57 62 84 103 28 40 59 76 69 78 11 3 19
10 19 15 0 21 45 72 87 98 37 23 41 29 28 40 -22 18 -7 32 27 25 21 -5 28 -4
24 4 -9 13 28 77 52 91 28 16 35 11 27 -17z m-4767 -17 c19 -37 9 -58 -25 -54
-22 2 -29 9 -31 31 -4 30 14 60 32 54 6 -2 17 -16 24 -31z m4466 -14 c-7 -2
-20 -14 -29 -28 -9 -14 -20 -22 -26 -19 -12 8 -49 -4 -49 -16 0 -5 11 -9 25
-9 14 0 25 -5 25 -10 0 -13 -89 -110 -101 -110 -17 0 -9 19 21 54 27 31 29 37
18 55 -16 26 -1 54 30 59 12 2 34 18 49 35 27 31 28 32 38 12 8 -15 8 -21 -1
-23z m-4349 7 c11 -17 -2 -22 -41 -14 -28 5 -34 9 -23 16 19 12 56 11 64 -2z
m5965 2 c0 -11 -70 -71 -82 -71 -5 0 -8 13 -8 30 0 22 4 28 15 24 8 -3 24 1
37 10 25 18 38 20 38 7z m-1596 -56 c-4 -8 -12 -15 -20 -15 -8 0 -11 6 -8 15
4 8 12 15 20 15 8 0 11 -6 8 -15z m-1913 -41 c13 -16 12 -16 -7 -6 -11 6 -27
19 -35 28 -13 16 -12 16 7 6 11 -6 27 -19 35 -28z m67 14 c14 -14 16 -28 2
-28 -5 0 -14 9 -20 20 -12 22 -1 27 18 8z m-431 -54 c117 -94 209 -194 177
-194 -3 0 -38 30 -78 66 -39 37 -95 84 -123 106 -29 21 -53 45 -53 53 0 24 16
18 77 -31z m342 3 c6 -8 8 -17 5 -20 -9 -8 -44 11 -44 23 0 15 26 12 39 -3z
m3401 4 c0 -12 -20 -25 -27 -18 -7 7 6 27 18 27 5 0 9 -4 9 -9z m178 -34 c-6
-12 -86 -95 -177 -184 -91 -89 -162 -165 -158 -169 3 -4 13 -1 22 6 32 27 26
0 -9 -36 -43 -45 -47 -63 -7 -35 16 12 33 21 38 21 5 0 38 25 74 56 35 30 65
50 67 44 3 -7 -1 -17 -7 -23 -6 -6 -11 -21 -11 -32 0 -28 -10 -37 -26 -24 -9
7 -14 5 -19 -10 -3 -12 -10 -21 -15 -21 -5 0 -27 -27 -50 -59 -37 -56 -80 -87
-88 -63 -2 7 -14 6 -38 -1 -69 -21 -67 20 5 97 34 37 34 38 6 19 -57 -40 -196
-182 -210 -217 -16 -38 -11 -66 11 -66 15 0 54 35 54 49 0 16 60 35 72 23 15
-15 -5 -62 -26 -62 -17 0 -76 -65 -76 -83 0 -15 -67 -83 -74 -76 -3 2 11 29
30 59 19 30 34 58 34 63 0 5 -16 0 -36 -12 -19 -12 -39 -21 -45 -21 -15 0 -10
32 8 52 9 10 13 21 10 25 -4 3 -52 -38 -107 -92 -55 -54 -103 -96 -106 -92
-13 13 18 65 66 112 33 33 46 51 38 56 -18 11 5 34 71 70 71 41 101 67 101 92
0 32 35 78 105 141 37 32 78 76 92 97 14 22 32 39 39 39 7 0 24 9 36 20 13 11
44 39 71 62 26 22 50 51 53 64 8 31 60 75 79 68 10 -4 15 0 15 15 0 15 6 21
21 21 13 0 18 4 13 12 -11 18 25 39 48 27 15 -8 16 -13 6 -32z m-1918 24 c0
-15 -84 -134 -98 -139 -21 -7 -13 26 16 60 15 18 36 45 45 61 17 26 37 36 37
18z m-564 -55 c-15 -36 -36 -49 -36 -22 0 15 40 69 47 63 2 -3 -3 -21 -11 -41z
m2094 20 c0 -23 -27 -38 -62 -34 -38 4 -41 18 -7 35 32 17 69 16 69 -1z
m-3001 -119 c6 -6 11 -18 11 -26 0 -10 -7 -8 -25 9 -16 15 -25 34 -25 55 0 46
14 53 21 10 3 -20 11 -41 18 -48z m-59 52 c0 -5 -9 -9 -20 -9 -22 0 -27 16 -7
23 15 5 27 -1 27 -14z m3452 -1 c-6 -7 -25 -21 -44 -31 l-33 -19 38 37 c21 20
41 34 44 31 3 -3 1 -11 -5 -18z m102 0 c-49 -60 -120 -128 -132 -128 -12 0
-11 4 2 23 9 12 26 37 37 55 12 17 29 32 40 32 10 0 23 9 29 20 6 11 18 20 27
20 14 0 14 -3 -3 -22z m-6433 -11 c-13 -13 -26 -3 -16 12 3 6 11 8 17 5 6 -4
6 -10 -1 -17z m3049 -19 c0 -12 -6 -9 -26 13 -19 22 -19 22 4 8 12 -8 22 -17
22 -21z m-114 -95 c38 -28 48 -29 74 -3 28 28 51 25 82 -10 30 -34 16 -40 -34
-14 -41 21 -58 5 -34 -31 16 -25 100 -85 118 -85 4 0 8 9 8 20 0 29 17 24 35
-10 9 -16 21 -30 27 -30 6 0 3 -9 -7 -20 -10 -12 -25 -18 -33 -15 -23 9 -295
221 -322 251 l-25 28 40 -29 c22 -16 54 -39 71 -52z m156 45 c-15 -15 -26 -4
-18 18 5 13 9 15 18 6 9 -9 9 -15 0 -24z m608 1 c0 -10 7 -19 15 -19 8 0 15
-4 15 -9 0 -10 -49 -60 -71 -72 -15 -8 -16 -5 -9 19 5 15 14 46 21 69 12 42
29 49 29 12z m-988 -42 c22 -17 72 -60 111 -94 39 -34 83 -68 97 -75 31 -16
40 -27 40 -52 0 -21 27 -56 43 -56 5 0 3 8 -4 18 -11 13 -9 13 11 -3 79 -63
92 -85 50 -85 -36 0 -300 226 -300 257 0 7 -6 10 -14 7 -15 -6 -90 49 -119 88
-43 58 11 55 85 -5z m451 8 c1 -6 -10 -11 -25 -13 -31 -4 -39 14 -10 21 23 6
33 4 35 -8z m3097 -6 c0 -4 -8 -17 -18 -29 -16 -20 -19 -21 -31 -6 -19 23 -27
20 -61 -16 -21 -24 -29 -29 -30 -16 0 28 68 77 106 75 19 -1 34 -5 34 -8z
m150 -3 c0 -3 -14 -19 -30 -38 -17 -18 -39 -43 -50 -55 -21 -25 -40 -30 -40
-11 0 13 97 108 111 108 5 0 9 -2 9 -4z m-3789 -46 c28 -16 23 -32 -6 -18 -14
6 -25 15 -25 20 0 11 7 10 31 -2z m247 -9 c3 -8 -1 -12 -9 -9 -7 2 -15 10 -17
17 -3 8 1 12 9 9 7 -2 15 -10 17 -17z m398 -6 c14 -22 15 -30 4 -53 l-13 -27
-8 31 c-5 17 -16 37 -24 44 -21 17 -19 30 5 30 11 0 27 -11 36 -25z m1124 5
c0 -12 -61 -82 -67 -76 -6 5 15 45 35 69 17 19 32 22 32 7z m1428 -12 c-3 -7
-13 -15 -24 -17 -16 -3 -17 -1 -5 13 16 19 34 21 29 4z m-2800 -106 c48 -31
109 -98 99 -108 -2 -3 -15 8 -28 23 -13 16 -44 40 -69 55 -25 14 -61 43 -80
64 l-35 37 31 -19 c17 -10 54 -34 82 -52z m1451 7 c-7 -14 -14 -18 -21 -11
-13 13 -2 32 18 32 12 0 13 -4 3 -21z m1271 6 c0 -17 -39 -36 -54 -27 -10 5
30 42 45 42 5 0 9 -7 9 -15z m-2580 -65 c8 -5 11 -12 7 -16 -4 -4 -15 0 -24 9
-18 18 -8 23 17 7z m1250 -34 c-23 -38 -40 -46 -40 -21 0 15 51 67 59 60 2 -2
-7 -20 -19 -39z m-4705 -34 c-7 -7 -45 29 -45 41 0 6 11 0 25 -13 14 -13 23
-26 20 -28z m5904 12 c-14 -18 -24 -11 -15 11 3 9 11 13 16 10 8 -5 7 -11 -1
-21z m-2129 6 c8 -5 11 -12 7 -16 -4 -4 -15 0 -24 9 -18 18 -8 23 17 7z m850
-50 c-13 -30 -30 -41 -30 -17 0 16 30 60 37 53 3 -3 0 -19 -7 -36z m1524 -15
c-7 -16 -44 -41 -44 -29 0 11 32 44 41 44 5 0 6 -7 3 -15z m-2849 -46 c11 -17
0 -20 -21 -4 -17 13 -17 14 -2 15 9 0 20 -5 23 -11z m2755 -49 c-11 -20 -30
-28 -30 -12 0 11 22 32 32 32 5 0 4 -9 -2 -20z m-155 -189 c6 -10 -25 -31 -46
-31 -8 0 -5 7 6 20 20 22 31 25 40 11z m-77 -83 c9 -9 15 -9 24 0 7 7 18 12
26 12 19 0 8 -49 -16 -70 -9 -8 -22 -26 -28 -40 -14 -31 -152 -180 -167 -180
-15 0 -57 41 -57 55 0 7 26 28 58 48 31 19 75 52 96 71 38 35 38 37 21 56 -17
19 -17 21 0 40 21 23 27 24 43 8z m222 -19 c-15 -27 -201 -235 -253 -281 -54
-49 -67 -48 -29 0 80 100 265 302 278 302 12 0 12 -4 4 -21z m-529 -258 c-14
-25 -72 -73 -80 -66 -6 6 72 85 84 85 3 0 1 -9 -4 -19z m47 -31 l4 -24 18 24
c22 29 37 22 20 -9 -12 -24 -47 -27 -75 -7 -17 12 -17 16 -6 30 18 22 35 15
39 -14z m-23 -120 c-10 -11 -24 -20 -31 -20 -6 0 -26 -24 -42 -53 -32 -57 -87
-111 -103 -101 -17 10 -9 24 17 30 23 6 24 8 9 17 -12 6 -25 5 -41 -4 -13 -7
-27 -10 -30 -7 -8 9 20 60 46 83 l23 20 -7 -27 c-10 -41 22 -37 58 8 15 20 47
44 70 54 53 24 52 24 31 0z m-245 -190 c0 -24 -37 -63 -50 -55 -15 9 -12 19
11 49 24 31 39 33 39 6z m-70 -94 c-14 -14 -24 0 -16 21 6 15 8 15 16 3 6 -9
5 -19 0 -24z m60 -316 c0 -6 -14 -29 -31 -53 -34 -47 -23 -60 29 -33 16 8 32
12 36 9 12 -13 5 -31 -14 -36 -11 -3 -20 -13 -20 -22 0 -15 -3 -15 -15 -5 -20
17 -28 7 -27 -30 0 -23 -7 -36 -34 -56 -26 -20 -34 -34 -34 -58 0 -40 -14 -61
-34 -53 -11 5 -16 1 -16 -13 0 -10 -5 -22 -11 -25 -24 -15 -20 8 11 69 23 46
31 72 26 90 -9 38 -26 32 -26 -9 0 -26 -9 -45 -36 -75 -43 -48 -56 -50 -47
-10 7 38 -13 41 -28 3 -7 -19 -13 -23 -21 -15 -14 14 13 51 81 116 46 42 56
47 84 41 32 -5 32 -5 10 11 -35 25 -28 49 30 109 49 50 87 70 87 45z m265
-200 c-3 -5 -10 -10 -16 -10 -5 0 -9 5 -9 10 0 6 7 10 16 10 8 0 12 -4 9 -10z
m-195 -9 c0 -20 -13 -42 -31 -51 -27 -15 -32 4 -8 34 20 26 39 34 39 17z
m-3082 -404 c2 -10 -8 -31 -22 -48 -14 -17 -26 -41 -26 -54 0 -13 -9 -30 -19
-37 -11 -8 -36 -44 -55 -82 -37 -72 -114 -183 -140 -205 -28 -24 -19 10 21 75
20 32 59 102 88 155 29 52 68 119 89 148 20 29 36 58 36 63 0 16 25 3 28 -15z
m52 -57 c0 -30 -38 -100 -54 -100 -8 0 -32 -29 -55 -64 -45 -71 -61 -87 -61
-58 0 10 24 56 54 103 89 138 116 165 116 119z m2770 -136 c0 -8 -4 -12 -10
-9 -5 3 -10 13 -10 21 0 8 5 12 10 9 6 -3 10 -13 10 -21z m-2620 -28 c0 -25
-44 -86 -62 -86 -11 0 -6 37 11 83 14 36 51 38 51 3z m2565 -46 c0 -7 -6 -15
-12 -17 -8 -3 -13 4 -13 17 0 13 5 20 13 18 6 -3 12 -11 12 -18z m-2485 -34
c0 -19 4 -23 19 -19 17 4 32 -18 35 -55 1 -7 7 -17 15 -21 23 -14 3 -48 -48
-80 -54 -35 -63 -38 -55 -16 4 9 1 29 -6 46 -10 23 -10 33 -1 42 9 9 16 6 31
-13 20 -25 20 -25 20 -2 0 12 -5 22 -10 22 -6 0 -14 10 -19 22 -8 22 -8 21
-26 -8 -58 -92 -89 -98 -61 -11 26 78 32 87 58 87 17 0 18 3 8 15 -6 8 -9 19
-5 25 11 17 45 -8 45 -34z m2631 -121 c40 -47 80 -85 90 -85 10 0 24 -7 33
-15 8 -9 21 -14 28 -13 9 2 12 -6 10 -26 -2 -15 4 -36 12 -45 8 -9 16 -23 18
-31 2 -8 12 -17 23 -20 11 -3 24 -16 30 -28 8 -18 18 -22 52 -22 23 0 45 -5
49 -11 4 -8 0 -9 -15 -4 -41 13 -21 -18 84 -125 58 -59 105 -111 105 -114 0
-4 -18 3 -40 14 -47 24 -122 92 -353 319 -207 204 -266 278 -241 304 13 12 44
-14 115 -98z m-3295 -12 c-8 -15 -15 -22 -16 -15 0 17 20 55 27 49 2 -3 -2
-18 -11 -34z m69 -89 c-15 -19 -29 -33 -31 -31 -7 7 16 60 34 81 30 33 27 -10
-3 -50z m3137 -1 c17 -15 26 -63 11 -63 -13 0 -73 51 -84 72 -11 20 -9 21 22
14 18 -3 41 -14 51 -23z m-2388 -22 c3 -5 -3 -11 -14 -14 -20 -5 -26 3 -13 16
9 10 21 9 27 -2z m-508 -67 c-4 -9 -9 -15 -11 -12 -3 3 -3 13 1 22 4 9 9 15
11 12 3 -3 3 -13 -1 -22z m-26 -70 c0 -8 -4 -12 -10 -9 -5 3 -10 10 -10 16 0
5 5 9 10 9 6 0 10 -7 10 -16z m3103 -34 c4 0 7 7 7 15 0 9 6 12 15 9 8 -4 15
-13 15 -21 0 -22 100 -123 344 -346 120 -111 213 -203 207 -205 -16 -5 -130
49 -198 96 -54 37 -193 160 -320 283 -71 69 -159 199 -141 210 8 5 22 -1 38
-16 15 -14 29 -25 33 -25z m-3151 -35 c-6 -14 -16 -25 -22 -25 -13 0 -13 26 1
52 17 31 36 7 21 -27z m2925 23 c24 -22 31 -48 13 -48 -5 0 -10 5 -10 12 0 6
-10 22 -22 35 -27 29 -12 30 19 1z m346 -39 c20 -17 42 -40 49 -52 8 -16 0
-12 -28 13 -22 19 -50 43 -64 52 -17 11 -20 17 -10 17 9 1 32 -13 53 -30z
m-199 -108 c17 -17 25 -31 18 -31 -14 0 -82 59 -82 71 0 14 31 -5 64 -40z
m816 -28 c0 -5 -5 -15 -10 -23 -8 -12 -10 -11 -10 8 0 12 5 22 10 22 6 0 10
-3 10 -7z m-83 -89 c-9 -9 -28 6 -21 18 4 6 10 6 17 -1 6 -6 8 -13 4 -17z
m-231 -18 c32 -13 78 -27 101 -31 52 -8 60 -18 39 -50 -26 -40 -60 -32 -118
25 -28 28 -56 50 -63 50 -7 0 -18 7 -25 15 -17 21 -3 19 66 -9z m374 -32 c0
-9 -7 -14 -17 -12 -25 5 -28 28 -4 28 12 0 21 -6 21 -16z m-759 -50 c119 -91
340 -314 310 -314 -6 0 -26 14 -44 30 -19 17 -38 30 -41 30 -4 0 -37 30 -74
68 -37 37 -102 98 -145 135 -126 111 -130 146 -6 51z m156 -14 c32 -19 70 -66
61 -75 -3 -3 -22 8 -43 25 -21 16 -41 30 -46 30 -5 0 -13 9 -19 20 -14 26 4
27 47 0z m673 5 c16 -8 38 -28 50 -45 12 -16 30 -30 41 -30 10 0 19 -7 19 -15
0 -18 -4 -18 -55 -1 -22 8 -45 23 -51 35 -6 12 -22 33 -34 46 -26 28 -13 32
30 10z m-228 -58 c40 -22 41 -37 2 -37 -39 0 -84 28 -84 51 0 24 20 20 82 -14z
m726 16 c5 -18 -20 -16 -44 2 -18 15 -18 15 10 13 16 -2 31 -9 34 -15z m73
-11 c14 -12 18 -21 11 -26 -6 -3 -23 5 -39 19 -21 18 -24 24 -12 25 9 0 27 -8
40 -18z m-1056 -62 c22 -24 31 -38 20 -32 -11 6 -38 29 -60 52 -22 24 -31 38
-20 32 11 -6 38 -29 60 -52z m-305 -20 c0 -6 -6 -10 -14 -10 -16 0 -38 24 -30
33 9 8 44 -11 44 -23z m-1380 -71 c0 -6 -4 -7 -10 -4 -5 3 -10 11 -10 16 0 6
5 7 10 4 6 -3 10 -11 10 -16z m1880 -3 c0 -8 11 -17 25 -20 13 -3 29 -16 36
-27 20 -38 1 -32 -48 15 -34 32 -43 46 -30 46 9 0 17 -6 17 -14z m-1835 -48
c7 -20 -9 -79 -20 -76 -5 2 -9 19 -8 38 2 33 1 34 -12 16 -15 -20 -15 -20 -15
0 0 12 3 24 7 27 11 12 43 8 48 -5z m1673 -90 c19 -19 14 -30 -8 -18 -11 6
-20 15 -20 20 0 14 14 12 28 -2z m-1628 -31 c-1 -21 -1 -21 -15 -3 -8 10 -12
23 -9 28 9 14 24 -2 24 -25z m50 19 c0 -10 13 -16 37 -18 45 -4 58 -27 14 -26
-37 1 -64 -19 -58 -44 4 -14 2 -16 -12 -8 -10 5 -24 17 -32 26 -12 15 -12 16
9 10 20 -7 22 -4 22 33 0 23 5 41 10 41 6 0 10 -6 10 -14z m-112 -50 c-1 -13
9 -36 25 -55 42 -51 31 -61 -13 -12 -37 40 -50 78 -34 94 12 12 25 -5 22 -27z
m2083 15 c13 -11 20 -23 16 -27 -4 -4 -20 4 -35 19 -30 31 -16 37 19 8z
m-1221 -16 c13 -14 21 -27 18 -30 -7 -7 -58 34 -58 46 0 16 16 10 40 -16z
m-690 -20 c10 -12 10 -15 -4 -15 -9 0 -16 7 -16 15 0 8 2 15 4 15 2 0 9 -7 16
-15z m-215 -25 c16 -18 16 -20 2 -20 -10 0 -17 5 -17 10 0 6 -7 10 -15 10 -8
0 -15 5 -15 10 0 17 26 11 45 -10z m323 -47 c28 -32 65 -72 82 -90 33 -35 41
-91 16 -113 -12 -9 -17 -4 -26 31 -6 23 -22 59 -36 80 -21 34 -27 37 -43 28
-38 -25 -121 26 -121 74 0 19 3 18 30 -8 l30 -29 1 25 c1 13 1 32 0 42 -4 30
14 19 67 -40z m2412 17 c0 -12 -28 -25 -36 -17 -9 9 6 27 22 27 8 0 14 -5 14
-10z m-1194 -36 c-5 -13 -10 -14 -18 -6 -6 6 -8 18 -4 28 5 13 10 14 18 6 6
-6 8 -18 4 -28z m1951 0 c4 -12 -64 -30 -74 -20 -3 3 -3 12 1 21 7 19 67 17
73 -1z m-3315 -66 c-9 -9 -12 -7 -12 12 0 19 3 21 12 12 9 -9 9 -15 0 -24z
m1818 22 c8 -5 12 -12 8 -15 -10 -10 -49 5 -43 16 8 11 16 11 35 -1z m-1690
-35 c0 -8 -7 -15 -15 -15 -8 0 -15 7 -15 15 0 8 7 15 15 15 8 0 15 -7 15 -15z
m1410 -51 c0 -8 -4 -12 -10 -9 -5 3 -10 10 -10 16 0 5 5 9 10 9 6 0 10 -7 10
-16z m-522 -16 c14 -14 16 -28 2 -28 -5 0 -14 9 -20 20 -12 22 -1 27 18 8z
m-548 -24 c0 -8 -4 -12 -10 -9 -5 3 -10 13 -10 21 0 8 5 12 10 9 6 -3 10 -13
10 -21z m1521 -2 c15 -9 36 -28 48 -42 17 -21 20 -22 21 -7 0 24 20 22 20 -2
0 -27 68 -81 102 -81 27 0 68 -39 68 -65 0 -8 8 -11 19 -8 22 6 54 -24 47 -43
-3 -9 2 -14 13 -14 27 0 132 -72 171 -117 19 -22 46 -44 60 -48 38 -11 60 -35
60 -65 0 -29 22 -43 88 -54 46 -8 40 8 -13 34 -24 12 -47 30 -50 40 -3 10 -46
53 -95 95 l-90 76 16 30 c8 17 22 33 31 36 22 9 53 -32 53 -71 0 -17 4 -37 8
-44 17 -26 77 -62 105 -62 32 0 162 -53 190 -78 13 -12 14 -17 5 -23 -9 -6 -7
-15 10 -38 24 -33 11 -42 -20 -14 -37 33 -29 3 13 -46 41 -49 48 -82 11 -48
-10 10 -35 17 -56 17 l-37 0 30 -37 c17 -21 31 -43 31 -51 0 -7 12 -17 26 -22
30 -12 23 -30 -12 -30 -25 0 -56 24 -67 53 -5 15 -102 77 -119 77 -5 0 -8 -7
-8 -16 0 -35 -26 -4 -47 55 -12 35 -34 76 -48 91 -15 15 -41 50 -59 76 -18 27
-37 48 -42 47 -5 0 -18 -3 -29 -5 -16 -2 -20 2 -20 25 1 24 -3 27 -31 27 -17
0 -37 7 -44 15 -10 12 -10 15 4 15 27 0 18 17 -15 29 -36 12 -79 15 -79 4 0
-3 8 -15 17 -25 11 -13 13 -22 6 -29 -7 -7 -27 3 -64 33 -62 51 -71 73 -35 82
28 7 36 26 11 26 -9 0 -18 6 -21 14 -3 8 -11 13 -19 10 -7 -3 -21 10 -33 29
-11 19 -51 60 -90 91 -39 31 -74 60 -77 66 -9 15 7 12 36 -8z m847 -8 c12 -8
20 -19 17 -24 -8 -14 -60 5 -63 23 -4 21 17 22 46 1z m-228 -4 c0 -5 -7 -10
-15 -10 -8 0 -15 5 -15 10 0 6 7 10 15 10 8 0 15 -4 15 -10z m-154 -48 c38
-15 93 -45 123 -65 60 -42 97 -51 66 -17 -17 19 -17 20 0 20 22 0 55 -28 55
-47 0 -7 -7 -13 -16 -13 -29 0 -12 -44 21 -54 17 -6 59 -34 94 -64 61 -51 65
-53 73 -33 7 21 9 21 38 6 32 -16 50 -43 43 -62 -7 -20 -23 -15 -23 6 0 26
-16 35 -24 15 -7 -19 20 -46 154 -157 52 -43 107 -81 123 -84 15 -3 30 -9 33
-14 3 -5 -2 -6 -12 -2 -30 11 3 -34 88 -123 45 -46 77 -84 72 -84 -5 0 -77 61
-159 136 -83 75 -168 148 -190 163 -22 14 -43 30 -46 34 -4 5 -32 23 -62 40
-31 18 -103 73 -159 123 -57 51 -159 136 -228 189 -173 135 -170 130 -64 87z
m202 9 c3 -8 -1 -12 -9 -9 -7 2 -15 10 -17 17 -3 8 1 12 9 9 7 -2 15 -10 17
-17z m-1518 -26 c7 -8 10 -18 6 -22 -7 -7 -56 36 -56 49 0 11 33 -6 50 -27z
m1112 -35 c18 -16 27 -30 21 -30 -7 0 -27 13 -45 30 -18 16 -27 30 -21 30 7 0
27 -13 45 -30z m587 -72 c14 -16 35 -28 46 -28 15 0 25 -11 35 -35 8 -21 21
-35 31 -35 9 0 24 -11 33 -25 9 -14 23 -25 31 -25 17 0 110 -88 102 -97 -11
-10 -185 126 -215 168 -7 11 -19 19 -27 19 -16 0 -145 125 -145 140 0 12 69
-40 109 -82z m-2469 36 c13 -33 13 -67 0 -59 -9 5 -40 69 -40 81 0 2 7 4 15 4
9 0 20 -12 25 -26z m894 -28 c63 -45 92 -73 84 -81 -2 -2 -38 23 -79 56 -87
71 -84 69 -74 69 4 0 35 -20 69 -44z m1176 6 c40 -39 52 -72 26 -72 -8 0 -18
9 -21 20 -5 15 -15 20 -43 20 -20 0 -44 5 -52 10 -10 6 -2 7 24 3 l39 -6 -16
24 c-37 52 -12 53 43 1z m-1700 -76 c-1 -19 -3 -18 -25 9 -34 41 -33 66 0 35
14 -13 25 -33 25 -44z m2031 44 c21 -17 22 -19 6 -20 -23 0 -57 18 -57 30 0
16 26 11 51 -10z m439 -29 c0 -5 -7 -14 -15 -21 -16 -14 -18 -10 -9 14 6 17
24 22 24 7z m-785 -21 c10 -11 15 -20 11 -20 -14 0 -46 21 -46 30 0 16 16 11
35 -10z m-330 -1 c4 -6 5 -12 2 -15 -7 -7 -37 7 -37 17 0 13 27 11 35 -2z
m2085 -35 c0 -9 11 -14 31 -14 27 0 30 -2 19 -15 -16 -19 -44 -19 -60 0 -10
12 -16 13 -27 4 -24 -21 -27 0 -3 26 24 25 40 25 40 -1z m-3372 -18 c3 -20 0
-27 -10 -24 -7 3 -14 17 -16 32 -3 20 0 27 10 24 7 -3 14 -17 16 -32z m804
-145 c78 -63 136 -117 129 -119 -11 -4 -33 11 -186 132 -93 72 -175 147 -175
158 0 13 66 -36 232 -171z m539 156 c-1 -12 -15 -9 -19 4 -3 6 1 10 8 8 6 -3
11 -8 11 -12z m1178 -18 c27 -25 26 -72 -2 -77 -14 -3 -17 1 -11 22 8 35 -7
57 -18 26 l-9 -24 -21 21 c-44 44 15 75 61 32z m-682 -52 c27 -29 7 -31 -30
-2 -48 35 -59 63 -16 38 17 -10 38 -26 46 -36z m530 -42 c48 -46 84 -87 80
-91 -7 -8 -76 52 -146 129 -73 79 -27 53 66 -38z m893 55 c8 -16 8 -20 -4 -20
-9 0 -20 9 -26 20 -8 16 -8 20 4 20 9 0 20 -9 26 -20z m150 -50 c0 -21 -41 -9
-72 21 -18 17 -28 28 -22 25 7 -3 18 1 25 10 12 14 16 13 41 -15 15 -17 28
-36 28 -41z m-2900 -20 c30 -22 66 -57 80 -77 14 -20 40 -43 57 -52 36 -18 37
-19 23 -41 -7 -11 -14 -12 -27 -4 -24 15 -207 214 -197 214 5 0 34 -19 64 -40z
m1020 25 c0 -8 -4 -15 -10 -15 -5 0 -10 7 -10 15 0 8 5 15 10 15 6 0 10 -7 10
-15z m1814 -42 c66 -68 33 -90 -36 -24 -38 37 -43 61 -14 61 8 0 30 -17 50
-37z m-4765 1 c-14 -18 -24 -11 -15 11 3 9 11 13 16 10 8 -5 7 -11 -1 -21z
m4911 7 c0 -4 -6 -16 -14 -27 -14 -18 -15 -18 -21 -1 -10 24 1 48 20 41 8 -3
15 -9 15 -13z m-3317 -40 c14 -11 20 -11 32 -1 13 10 15 9 15 -9 0 -11 5 -21
10 -21 13 0 13 -47 0 -55 -14 -9 -50 13 -50 31 0 8 -11 26 -24 39 -14 13 -27
35 -31 47 l-6 23 18 -20 c10 -12 26 -27 36 -34z m1405 33 c27 -19 29 -44 2
-44 -11 0 -20 6 -20 14 0 9 -7 12 -19 9 -23 -6 -64 14 -56 28 10 14 68 11 93
-7z m1059 -3 c3 -10 22 -26 44 -34 45 -18 50 -34 14 -43 -34 -8 -55 1 -55 25
0 10 -14 31 -31 45 l-31 26 27 0 c18 0 29 -6 32 -19z m-1687 -16 c13 -14 21
-25 18 -25 -2 0 -15 11 -28 25 -13 14 -21 25 -18 25 2 0 15 -11 28 -25z m700
-10 c0 -8 -7 -15 -15 -15 -8 0 -15 7 -15 15 0 8 7 15 15 15 8 0 15 -7 15 -15z
m-199 -31 c13 -16 12 -16 -7 -6 -11 6 -27 19 -35 28 -13 16 -12 16 7 6 11 -6
27 -19 35 -28z m1810 20 c39 -20 32 -38 -15 -42 -28 -2 -40 -9 -43 -23 -6 -22
-7 -23 -33 -7 -28 18 -37 1 -17 -33 19 -35 21 -49 7 -49 -6 0 -15 12 -20 26
-6 15 -28 47 -50 72 -46 52 -50 66 -15 50 19 -9 31 -8 49 2 14 7 32 10 40 7 9
-4 16 -2 16 3 0 15 48 12 81 -6z m-415 -21 c25 -24 27 -28 11 -31 -21 -4 -57
24 -57 45 0 20 14 16 46 -14z m698 3 c9 -13 7 -19 -6 -27 -10 -6 -18 -17 -18
-25 0 -8 -4 -12 -10 -9 -11 7 -14 68 -3 79 10 9 25 2 37 -18z m-2087 -69 c61
-59 65 -64 44 -70 -18 -4 -27 1 -42 28 -11 18 -28 35 -38 38 -21 5 -58 67 -41
67 5 0 40 -29 77 -63z m1173 28 c13 -14 21 -25 18 -25 -2 0 -15 11 -28 25 -13
14 -21 25 -18 25 2 0 15 -11 28 -25z m1038 9 c26 -18 27 -24 8 -49 -13 -18
-15 -17 -35 15 -11 19 -21 38 -21 43 0 12 24 8 48 -9z m-573 -38 c18 -59 16
-65 -21 -81 -47 -19 -47 -20 -62 13 -26 52 -25 57 6 28 41 -38 51 -27 24 26
-11 23 -19 45 -16 49 6 10 64 -20 69 -35z m582 -114 c10 -20 37 -65 60 -99 43
-64 83 -173 83 -222 -1 -20 -11 -6 -45 59 -24 47 -56 95 -70 107 -20 17 -25
31 -25 67 0 26 -6 51 -15 60 -8 8 -15 22 -15 30 0 9 -8 16 -19 16 -27 0 -80
78 -63 94 9 10 88 -72 109 -112z m-3266 65 c-8 -8 -11 -7 -11 4 0 20 13 34 18
19 3 -7 -1 -17 -7 -23z m2539 13 c8 -5 12 -12 9 -15 -8 -8 -39 5 -39 16 0 11
11 11 30 -1z m-779 -38 c69 -44 148 -144 88 -112 -29 16 -156 139 -143 140 5
0 30 -13 55 -28z m1158 -19 c13 -29 34 -29 54 0 21 32 31 15 16 -27 -13 -35
-12 -37 20 -66 18 -17 29 -34 26 -40 -10 -17 14 -49 51 -66 35 -17 50 -40 61
-95 5 -24 3 -26 -22 -21 -25 4 -26 7 -20 40 l7 35 -26 -16 c-34 -23 -45 -21
-56 8 -14 38 -34 32 -26 -7 l6 -33 -34 35 c-49 50 -50 65 -3 61 43 -3 48 10
12 33 -14 9 -25 25 -25 35 0 48 -25 66 -50 36 -10 -12 -9 -20 5 -41 29 -45 9
-37 -39 17 -25 28 -46 59 -46 68 0 11 9 6 28 -17 15 -18 31 -30 35 -26 15 15
6 57 -18 86 -14 16 -25 33 -25 38 0 17 59 -15 69 -37z m439 -14 c-3 -9 -12 0
-22 21 l-18 35 22 -21 c12 -12 20 -28 18 -35z m-2978 -14 c44 -44 46 -53 12
-37 -9 5 -30 15 -47 23 -17 9 -31 24 -33 37 -5 35 19 27 68 -23z m2216 20 c9
-14 15 -28 12 -30 -7 -7 -58 34 -58 46 0 19 30 8 46 -16z m-1294 -135 c5 0 6
5 3 10 -7 12 -3 12 19 4 9 -3 16 -12 16 -19 0 -8 7 -21 16 -30 13 -12 14 -19
5 -28 -17 -17 -13 -27 9 -27 11 0 20 -7 20 -15 0 -8 -5 -15 -11 -15 -6 0 -70
59 -143 131 l-131 131 94 -71 c51 -39 98 -71 103 -71z m339 127 c-1 -12 -15
-9 -19 4 -3 6 1 10 8 8 6 -3 11 -8 11 -12z m1393 -24 c9 -23 -12 -43 -24 -23
-5 8 -10 21 -10 28 0 18 27 15 34 -5z m-2299 -34 c17 -26 -9 -20 -38 10 l-32
33 32 -16 c17 -9 35 -21 38 -27z m1055 -10 c0 -14 -11 -11 -32 8 -27 24 -22
36 7 17 14 -9 25 -20 25 -25z m1590 15 c0 -8 -4 -12 -10 -9 -5 3 -10 13 -10
21 0 8 5 12 10 9 6 -3 10 -13 10 -21z m-897 -17 l19 -32 -31 29 c-35 33 -36
36 -18 36 6 0 20 -15 30 -33z m-2125 11 c14 -14 16 -48 2 -48 -10 0 -30 32
-30 49 0 14 13 14 28 -1z m982 -8 c0 -5 -7 -10 -15 -10 -8 0 -15 5 -15 10 0 6
7 10 15 10 8 0 15 -4 15 -10z m387 -5 c9 -25 -2 -27 -22 -5 -17 18 -17 20 -1
20 9 0 19 -7 23 -15z m1493 -39 c22 -47 25 -66 10 -66 -6 0 -20 21 -32 48 -22
46 -22 47 -26 17 -6 -48 -22 -54 -22 -9 0 74 36 79 70 10z m-124 -10 l15 -31
-30 33 c-17 18 -31 37 -31 43 0 18 30 -11 46 -45z m-2581 28 c13 -6 14 -9 3
-16 -10 -7 -9 -11 6 -23 11 -8 15 -15 8 -15 -6 0 -26 13 -44 30 -30 27 -31 29
-11 30 12 0 29 -3 38 -6z m456 -32 c-13 -4 -41 16 -41 29 0 5 12 2 26 -8 15
-9 21 -19 15 -21z m1929 -42 c0 -5 -7 -10 -15 -10 -8 0 -15 -5 -15 -12 0 -25
-25 13 -26 40 0 15 -4 36 -8 47 -5 13 5 6 28 -17 20 -21 36 -42 36 -48z m-99
37 c28 -23 46 -72 30 -81 -5 -3 -12 1 -15 10 -4 9 -13 14 -21 10 -11 -4 -15 1
-15 19 0 13 -4 27 -10 30 -12 7 -14 35 -2 35 4 0 19 -10 33 -23z m-2327 -38
c55 -50 64 -72 26 -62 -21 6 -100 86 -100 103 0 20 19 9 74 -41z m364 18 c2
-12 -1 -15 -12 -11 -22 8 -30 36 -9 32 10 -2 19 -11 21 -21z m1053 -13 c20
-22 26 -32 14 -26 -25 13 -72 62 -59 62 6 0 26 -16 45 -36z m856 11 c8 -22 -6
-33 -17 -15 -13 20 -12 30 0 30 6 0 13 -7 17 -15z m-2051 -69 c33 -28 42 -42
34 -51 -5 -6 -7 -14 -4 -18 15 -14 -33 -24 -65 -13 -47 15 -60 39 -37 65 18
20 18 21 -9 57 l-28 37 32 -19 c18 -10 53 -36 77 -58z m379 24 c21 -23 24 -29
10 -22 -11 6 -33 25 -50 42 -21 23 -24 29 -10 22 11 -6 34 -25 50 -42z m758
24 c24 -16 40 -36 44 -54 5 -30 31 -59 55 -64 48 -10 65 -39 28 -51 -29 -9
-50 6 -123 90 -88 100 -89 137 -4 79z m-408 -34 c10 -11 16 -20 13 -20 -3 0
-13 9 -23 20 -10 11 -16 20 -13 20 3 0 13 -9 23 -20z m1849 -16 c10 -25 -1
-29 -14 -5 -6 12 -7 21 -1 21 5 0 12 -7 15 -16z m-1277 -26 c46 -50 87 -108
75 -108 -11 0 -122 120 -122 133 0 15 17 6 47 -25z m86 2 c-3 -11 0 -27 7 -35
10 -12 9 -15 -4 -15 -11 0 -16 9 -16 28 0 24 7 42 16 42 1 0 0 -9 -3 -20z
m467 -11 c0 -5 -7 -9 -15 -9 -8 0 -15 7 -15 15 0 9 6 12 15 9 8 -4 15 -10 15
-15z m210 1 c6 -11 7 -20 2 -20 -10 0 -32 21 -32 32 0 16 19 8 30 -12z m60 -1
c0 -5 -7 -9 -15 -9 -8 0 -15 7 -15 15 0 9 6 12 15 9 8 -4 15 -10 15 -15z m95
-5 c14 -6 13 -8 -7 -19 -26 -13 -38 -10 -38 11 0 15 18 18 45 8z m-2395 -39
c13 -14 19 -25 14 -25 -10 0 -54 37 -54 45 0 12 19 3 40 -20z m936 -12 c-10
-10 -19 5 -10 18 6 11 8 11 12 0 2 -7 1 -15 -2 -18z m1139 16 c10 -15 -1 -23
-20 -15 -9 3 -13 10 -10 16 8 13 22 13 30 -1z m453 -8 c3 -8 -1 -12 -9 -9 -7
2 -15 10 -17 17 -3 8 1 12 9 9 7 -2 15 -10 17 -17z m-2142 -96 c52 -51 74 -79
73 -96 0 -21 -5 -19 -42 26 -23 27 -67 76 -97 109 -76 81 -27 53 66 -39z
m1504 42 c0 -18 -2 -19 -10 -7 -13 20 -13 43 0 35 6 -3 10 -16 10 -28z m757 5
c11 2 25 -12 41 -40 25 -45 24 -64 -4 -42 -13 12 -17 11 -25 -1 -13 -21 -11
-29 7 -29 8 0 12 -4 9 -10 -28 -45 -122 81 -101 135 6 16 8 16 31 1 14 -9 33
-15 42 -14z m-1462 -210 c-8 -8 -190 180 -206 213 -6 11 40 -31 101 -93 62
-62 109 -116 105 -120z m1115 183 c13 -14 20 -28 17 -32 -8 -7 -57 35 -57 49
0 15 16 8 40 -17z m166 13 c7 -10 -41 -58 -58 -58 -10 0 -10 54 -1 63 11 11
51 8 59 -5z m-2208 -67 c48 -46 63 -71 44 -71 -8 0 -76 69 -101 103 -27 34 7
16 57 -32z m1680 21 c6 -18 -15 -14 -22 4 -4 10 -1 14 6 12 6 -2 14 -10 16
-16z m-1088 -43 c0 -14 -5 -11 -31 17 l-24 27 28 -18 c15 -9 27 -21 27 -26z
m1651 11 c24 -13 25 -40 1 -40 -21 0 -42 18 -42 37 0 16 15 17 41 3z m-1313
-23 c2 -10 -3 -17 -11 -17 -16 0 -30 24 -19 34 10 10 27 1 30 -17z m446 -46
c17 -17 24 -31 17 -31 -19 0 -81 51 -81 67 0 19 26 4 64 -36z m-1369 -29 c-7
-7 -45 29 -45 41 0 6 11 0 25 -13 14 -13 23 -26 20 -28z m712 -17 c32 -30 53
-54 47 -55 -6 0 -37 25 -70 55 -32 30 -54 54 -47 55 7 0 38 -25 70 -55z m-563
-4 c28 -22 102 -87 165 -145 63 -58 117 -104 119 -101 3 2 -15 26 -38 52 -53
61 -66 83 -46 83 30 0 186 -144 186 -172 0 -4 6 -8 13 -8 7 0 18 -5 25 -12 9
-9 7 -14 -5 -23 -13 -10 -20 -10 -31 1 -15 16 -32 18 -32 5 0 -5 37 -54 83
-108 82 -97 177 -225 177 -236 0 -4 14 -28 30 -54 19 -29 28 -54 24 -66 -4
-14 -1 -18 13 -17 36 4 43 0 43 -30 0 -16 -4 -30 -8 -30 -16 0 -50 45 -75 97
-14 29 -38 70 -55 90 -16 21 -37 53 -46 71 -9 17 -23 32 -31 32 -8 0 -23 17
-34 38 -21 41 -130 165 -254 288 -45 45 -103 105 -129 134 -51 57 -70 59 -61
5 3 -21 1 -35 -4 -35 -19 0 -30 25 -35 79 -5 51 -18 71 -47 71 -9 0 -11 -7 -7
-25 7 -27 -11 -35 -21 -9 -6 16 11 64 23 64 4 0 30 -18 58 -39z m2275 -7 c3
-16 1 -17 -13 -5 -19 16 -21 34 -3 29 6 -3 14 -13 16 -24z m-2194 5 c12 -19
-5 -23 -22 -6 -16 16 -16 17 -1 17 9 0 20 -5 23 -11z m2285 -22 c-1 -21 -1
-21 -15 -3 -8 10 -12 23 -9 28 9 14 24 -2 24 -25z m-2500 -67 c62 -52 87 -69
76 -52 -4 7 -1 12 7 12 17 0 27 -21 27 -56 l0 -25 -32 18 c-40 23 -158 137
-158 152 0 16 13 8 80 -49z m2455 49 c9 -14 -3 -59 -15 -59 -5 0 -12 11 -16
24 -6 26 1 46 16 46 5 0 12 -5 15 -11z m-285 -30 c0 -6 -4 -7 -10 -4 -5 3 -10
11 -10 16 0 6 5 7 10 4 6 -3 10 -11 10 -16z m-2065 0 c12 -19 -5 -23 -22 -6
-16 16 -16 17 -1 17 9 0 20 -5 23 -11z m115 -81 c0 -30 -25 -15 -28 17 -3 25
-2 27 12 16 9 -8 16 -22 16 -33z m620 4 c0 -15 -2 -15 -10 -2 -13 20 -13 33 0
25 6 -3 10 -14 10 -23z m-515 -99 c19 -13 19 -13 -5 -13 -24 0 -70 35 -70 53
0 8 20 -2 75 -40z m-155 -8 c7 -8 8 -15 2 -15 -5 0 -15 7 -22 15 -7 8 -8 15
-2 15 5 0 15 -7 22 -15z m2179 -62 c15 -30 41 -124 31 -118 -5 3 -16 29 -26
58 -9 28 -19 58 -22 65 -6 18 6 14 17 -5z m-1945 -19 c20 -20 21 -44 1 -44
-16 0 -36 39 -28 53 6 10 10 9 27 -9z m1036 -78 c0 -25 -10 -14 -45 49 l-27
50 35 -40 c20 -22 36 -49 37 -59z m130 66 c0 -15 -2 -15 -10 -2 -13 20 -13 33
0 25 6 -3 10 -14 10 -23z m-1307 -116 c9 -7 17 -16 17 -20 0 -4 16 -27 35 -50
38 -46 49 -111 21 -122 -34 -13 -136 64 -136 103 0 35 19 28 77 -29 55 -54 70
-57 59 -13 -5 18 -12 25 -21 21 -9 -3 -15 0 -15 8 0 8 -18 34 -40 57 -22 24
-40 47 -40 51 0 12 23 9 43 -6z m470 -56 c16 -22 24 -40 20 -40 -8 0 -37 34
-57 68 -18 30 12 8 37 -28z m797 -31 c0 -18 -20 1 -36 34 l-15 32 25 -28 c15
-15 26 -33 26 -38z m716 -50 c8 -29 12 -55 9 -57 -6 -6 -23 39 -34 90 -14 60
9 31 25 -33z m-826 18 c0 -10 -4 -15 -10 -12 -5 3 -10 18 -10 33 0 21 2 24 10
12 5 -8 10 -23 10 -33z m-1012 -156 c18 -31 20 -41 9 -41 -21 0 -46 32 -54 71
-5 29 -4 32 8 22 8 -6 25 -30 37 -52z m1428 -109 c15 -51 14 -82 -3 -82 -5 0
-14 28 -21 63 -6 34 -14 73 -18 87 -11 49 26 -10 42 -68z m-1192 -81 c11 -11
16 -21 12 -21 -13 0 -101 79 -126 112 -20 27 -13 24 36 -18 32 -29 68 -61 78
-73z m115 -167 c3 -16 1 -17 -13 -5 -19 16 -21 34 -3 29 6 -3 14 -13 16 -24z
m399 -82 c2 -7 -3 -12 -12 -12 -9 0 -16 7 -16 16 0 17 22 14 28 -4z m-6438
-16 c0 -16 -18 -31 -27 -22 -8 8 5 36 17 36 5 0 10 -6 10 -14z"/>
<path d="M6377 9311 c-23 -22 -39 -43 -35 -46 4 -4 28 13 55 39 26 25 42 46
35 46 -7 0 -32 -18 -55 -39z"/>
<path d="M6630 9143 c-38 -40 -40 -44 -15 -28 37 22 75 56 75 67 0 17 -18 6
-60 -39z"/>
<path d="M6726 8992 c-8 -13 11 -35 23 -28 16 10 14 36 -3 36 -8 0 -17 -4 -20
-8z"/>
<path d="M6625 8931 c-7 -12 12 -24 25 -16 11 7 4 25 -10 25 -5 0 -11 -4 -15
-9z"/>
<path d="M6481 8804 c-25 -21 -31 -32 -26 -51 3 -15 -2 -33 -17 -53 -12 -16
-19 -32 -17 -34 13 -14 80 25 122 70 55 60 62 90 18 81 -15 -3 -33 -1 -38 4
-7 7 -21 1 -42 -17z m61 -29 c2 -12 -49 -31 -58 -22 -4 3 -4 13 0 22 6 18 55
18 58 0z"/>
<path d="M6086 8449 c-15 -12 -25 -23 -22 -26 7 -7 66 26 66 37 0 16 -15 12
-44 -11z"/>
<path d="M5990 8360 c-23 -19 -29 -29 -19 -30 8 0 28 14 44 30 37 39 20 39
-25 0z"/>
<path d="M6390 9124 c0 -9 5 -14 12 -12 18 6 21 28 4 28 -9 0 -16 -7 -16 -16z"/>
<path d="M7133 8930 c-18 -11 -33 -27 -33 -35 0 -12 9 -9 40 11 60 40 54 61
-7 24z"/>
<path d="M7403 8143 c-7 -19 32 -55 55 -51 25 5 26 28 2 28 -13 0 -24 8 -27
20 -6 24 -21 26 -30 3z"/>
<path d="M5848 6533 c6 -2 18 -2 25 0 6 3 1 5 -13 5 -14 0 -19 -2 -12 -5z"/>
<path d="M5282 5493 c5 -25 28 -28 28 -4 0 12 -6 21 -16 21 -9 0 -14 -7 -12
-17z"/>
<path d="M5776 4255 c4 -8 11 -15 16 -15 6 0 5 6 -2 15 -7 8 -14 15 -16 15 -2
0 -1 -7 2 -15z"/>
<path d="M5828 4013 c7 -3 16 -2 19 1 4 3 -2 6 -13 5 -11 0 -14 -3 -6 -6z"/>
<path d="M5876 3976 c21 -15 30 -14 19 3 -3 6 -14 11 -23 11 -13 0 -13 -2 4
-14z"/>
<path d="M6525 3069 c-10 -15 3 -25 16 -12 7 7 7 13 1 17 -6 3 -14 1 -17 -5z"/>
<path d="M6820 3031 c0 -6 5 -13 10 -16 6 -3 10 1 10 9 0 9 -4 16 -10 16 -5 0
-10 -4 -10 -9z"/>
<path d="M7040 2861 c0 -6 5 -13 10 -16 6 -3 10 1 10 9 0 9 -4 16 -10 16 -5 0
-10 -4 -10 -9z"/>
<path d="M6800 1830 c0 -19 20 -27 33 -13 8 7 -11 33 -24 33 -5 0 -9 -9 -9
-20z"/>
<path d="M6779 10134 c-30 -15 -46 -44 -24 -44 19 0 70 45 59 52 -5 4 -21 0
-35 -8z"/>
<path d="M6085 9675 c-17 -13 -26 -27 -22 -31 4 -4 20 4 34 19 35 34 26 43
-12 12z"/>
<path d="M5065 8778 c-61 -57 -94 -98 -79 -98 9 0 135 123 145 143 16 29 3 20
-66 -45z"/>
<path d="M1925 8710 c10 -15 65 -42 78 -37 7 2 -7 14 -30 25 -47 24 -57 27
-48 12z"/>
<path d="M4836 8281 c-4 -7 -5 -15 -2 -18 9 -9 19 4 14 18 -4 11 -6 11 -12 0z"/>
<path d="M8095 7990 c-3 -5 1 -10 9 -10 8 0 18 5 21 10 3 6 -1 10 -9 10 -8 0
-18 -4 -21 -10z"/>
<path d="M7887 7917 c-3 -9 -13 -17 -22 -17 -8 0 -15 -8 -15 -19 0 -18 -54
-50 -66 -39 -2 3 -20 -9 -38 -26 -18 -17 -50 -45 -72 -63 -31 -25 -37 -34 -27
-44 10 -10 18 -10 40 2 44 23 217 193 211 209 -3 11 -6 10 -11 -3z"/>
<path d="M7630 7886 c0 -21 21 -31 30 -15 5 7 6 17 4 21 -9 14 -34 9 -34 -6z"/>
<path d="M7935 7789 c-4 -6 -5 -13 -2 -16 7 -7 27 6 27 18 0 12 -17 12 -25 -2z"/>
<path d="M7450 7755 c-13 -14 -21 -27 -18 -30 2 -3 15 6 28 20 13 14 21 27 18
30 -2 3 -15 -6 -28 -20z"/>
<path d="M8065 7770 c-3 -5 -2 -10 4 -10 5 0 13 5 16 10 3 6 2 10 -4 10 -5 0
-13 -4 -16 -10z"/>
<path d="M7770 7745 c0 -8 5 -15 10 -15 6 0 10 7 10 15 0 8 -4 15 -10 15 -5 0
-10 -7 -10 -15z"/>
<path d="M7861 7739 c-18 -11 -31 -22 -28 -25 6 -7 63 22 72 36 10 16 -7 12
-44 -11z"/>
<path d="M7950 7693 c-65 -10 -109 -46 -75 -60 20 -7 62 11 100 42 30 24 26
27 -25 18z"/>
<path d="M7765 7667 c-27 -23 -28 -26 -12 -33 23 -8 50 17 45 41 -3 16 -6 16
-33 -8z"/>
<path d="M7305 7620 c-8 -12 20 -24 35 -15 6 3 8 11 5 16 -8 12 -32 12 -40 -1z"/>
<path d="M7296 7539 c-14 -11 -26 -25 -26 -30 0 -18 27 -8 55 21 34 36 13 42
-29 9z"/>
<path d="M7370 7531 c0 -16 19 -23 40 -16 30 10 24 25 -10 25 -16 0 -30 -4
-30 -9z"/>
<path d="M7530 7464 c-17 -15 -29 -29 -26 -31 7 -7 76 37 76 48 0 16 -17 10
-50 -17z"/>
<path d="M7103 7366 c-26 -25 -42 -46 -35 -46 17 0 99 77 90 85 -4 4 -28 -13
-55 -39z"/>
<path d="M7242 7388 c-16 -16 -15 -38 2 -38 13 0 26 20 26 41 0 13 -14 11 -28
-3z"/>
<path d="M7433 7385 c-29 -20 -29 -35 -2 -35 16 0 19 -4 14 -20 -5 -16 -2 -20
18 -20 32 0 49 22 45 57 -4 34 -40 43 -75 18z"/>
<path d="M7355 7311 c-6 -11 9 -23 19 -14 9 9 7 23 -3 23 -6 0 -12 -4 -16 -9z"/>
<path d="M6723 7250 c-18 -10 -42 -38 -55 -60 -13 -23 -31 -55 -40 -72 -9 -17
-29 -38 -45 -48 -31 -19 -81 -70 -69 -70 11 0 90 56 157 112 66 54 99 100 99
136 0 27 -6 27 -47 2z"/>
<path d="M6835 7200 c-10 -11 -16 -22 -14 -25 7 -6 49 24 49 36 0 15 -16 10
-35 -11z"/>
<path d="M6757 7134 c-4 -4 -7 -14 -7 -23 0 -11 3 -12 11 -4 6 6 10 16 7 23
-2 6 -7 8 -11 4z"/>
<path d="M6915 7130 c-8 -13 4 -32 16 -25 12 8 12 35 0 35 -6 0 -13 -4 -16
-10z"/>
<path d="M7113 7090 c-34 -20 -58 -55 -45 -64 5 -3 28 15 52 39 47 48 45 57
-7 25z"/>
<path d="M6767 7080 c-16 -10 -37 -16 -47 -13 -20 5 -70 -55 -96 -117 -8 -19
-25 -46 -37 -59 -20 -22 -20 -23 -2 -13 50 26 244 224 218 221 -4 0 -21 -9
-36 -19z"/>
<path d="M7017 7089 c-9 -6 -17 -18 -17 -27 0 -14 4 -13 22 6 24 24 22 36 -5
21z"/>
<path d="M7195 7090 c-3 -5 3 -10 14 -10 12 0 21 5 21 10 0 6 -6 10 -14 10 -8
0 -18 -4 -21 -10z"/>
<path d="M88 7015 c13 -24 51 -60 116 -108 48 -37 76 -46 76 -27 0 9 -104 90
-174 135 -29 19 -29 19 -18 0z"/>
<path d="M7096 7011 c-4 -7 -5 -15 -2 -18 9 -9 19 4 14 18 -4 11 -6 11 -12 0z"/>
<path d="M6780 6964 c0 -8 5 -12 10 -9 6 3 10 10 10 16 0 5 -4 9 -10 9 -5 0
-10 -7 -10 -16z"/>
<path d="M6595 6959 c-10 -15 3 -25 16 -12 7 7 7 13 1 17 -6 3 -14 1 -17 -5z"/>
<path d="M6721 6951 c-8 -5 -9 -11 -3 -15 13 -8 42 3 42 15 0 11 -21 11 -39 0z"/>
<path d="M7010 6920 c-8 -16 -8 -20 4 -20 9 0 20 9 26 20 8 16 8 20 -4 20 -9
0 -20 -9 -26 -20z"/>
<path d="M6907 6903 c-4 -3 -7 -13 -7 -21 0 -12 3 -12 15 -2 8 7 15 16 15 21
0 11 -14 12 -23 2z"/>
<path d="M6675 6890 c-3 -6 1 -13 10 -16 19 -8 30 0 20 15 -8 14 -22 14 -30 1z"/>
<path d="M6480 6839 c-34 -14 -36 -17 -14 -33 17 -13 17 -16 3 -33 -9 -10 -19
-25 -23 -33 -4 -8 4 -1 18 15 14 17 26 40 26 53 0 17 6 22 24 22 14 0 28 5 31
10 8 13 -32 12 -65 -1z"/>
<path d="M6685 6816 c-28 -18 -61 -45 -74 -60 -23 -24 -23 -26 -5 -26 11 0 29
7 40 15 10 8 30 15 42 15 26 0 82 53 82 76 0 23 -33 16 -85 -20z m65 4 c-10
-19 -40 -40 -56 -40 -4 0 5 14 21 30 33 34 51 39 35 10z"/>
<path d="M6590 6815 c-7 -8 -19 -15 -26 -15 -8 0 -14 -7 -14 -15 0 -25 37 -17
68 15 30 29 30 30 7 30 -12 0 -28 -7 -35 -15z"/>
<path d="M6823 6808 c-23 -30 -24 -41 -2 -21 12 12 20 25 17 28 -3 3 -10 0
-15 -7z"/>
<path d="M449 6721 c12 -22 68 -71 82 -71 19 0 8 19 -31 54 -44 40 -67 48 -51
17z"/>
<path d="M6730 6714 c0 -8 5 -12 10 -9 6 3 10 10 10 16 0 5 -4 9 -10 9 -5 0
-10 -7 -10 -16z"/>
<path d="M6491 6684 c0 -11 3 -14 6 -6 3 7 2 16 -1 19 -3 4 -6 -2 -5 -13z"/>
<path d="M6345 6650 c-16 -18 -16 -20 -2 -20 9 0 21 9 27 20 6 11 7 20 2 20
-5 0 -17 -9 -27 -20z"/>
<path d="M6403 6623 c-3 -10 -22 -36 -42 -58 -20 -22 -48 -56 -63 -75 -38 -49
-45 -31 -12 29 16 27 25 53 22 57 -4 3 -27 -3 -51 -15 -33 -16 -51 -34 -71
-70 -29 -53 -25 -67 14 -46 20 11 28 10 47 -2 23 -15 26 -13 123 83 55 54 100
101 100 106 0 17 -61 8 -67 -9z"/>
<path d="M612 6599 c2 -7 10 -15 17 -17 8 -3 12 1 9 9 -2 7 -10 15 -17 17 -8
3 -12 -1 -9 -9z"/>
<path d="M6723 6585 c-36 -32 -17 -32 22 0 17 13 25 24 18 25 -7 0 -25 -11
-40 -25z"/>
<path d="M6539 6514 c-29 -32 -31 -35 -9 -24 31 16 60 40 60 52 0 16 -17 7
-51 -28z"/>
<path d="M6127 6533 c-12 -11 -8 -23 7 -23 8 0 16 7 20 15 5 15 -14 21 -27 8z"/>
<path d="M6431 6491 c-23 -32 -27 -51 -11 -51 10 0 50 58 50 73 0 16 -20 5
-39 -22z"/>
<path d="M6615 6500 c-11 -17 5 -32 21 -19 7 6 11 15 8 20 -7 12 -21 11 -29
-1z"/>
<path d="M6370 6485 c-7 -9 -10 -18 -7 -22 8 -7 37 15 37 28 0 14 -16 11 -30
-6z"/>
<path d="M789 6466 c6 -8 20 -16 31 -19 17 -4 18 -2 9 14 -5 10 -19 19 -31 19
-16 0 -18 -3 -9 -14z"/>
<path d="M6087 6403 c-10 -10 -8 -65 2 -59 12 8 20 42 12 55 -4 6 -10 8 -14 4z"/>
<path d="M6140 6330 c-13 -9 -13 -11 -1 -19 18 -11 55 5 46 20 -8 12 -26 11
-45 -1z"/>
<path d="M5958 6259 l-31 -30 28 -15 c15 -8 29 -14 32 -14 5 0 33 66 33 80 0
20 -32 9 -62 -21z"/>
<path d="M6422 6269 c2 -7 10 -15 17 -17 8 -3 12 1 9 9 -2 7 -10 15 -17 17 -8
3 -12 -1 -9 -9z"/>
<path d="M6175 6214 c-9 -9 -13 -19 -10 -22 3 -3 15 4 28 16 12 12 16 22 10
22 -6 0 -19 -7 -28 -16z"/>
<path d="M6042 6112 c-33 -31 -48 -71 -38 -99 6 -14 12 -11 41 17 19 19 40 49
46 67 6 18 15 31 20 28 5 -4 9 -1 9 4 0 21 -49 10 -78 -17z"/>
<path d="M6105 6050 c-34 -49 -27 -65 8 -18 33 46 40 58 29 58 -5 0 -22 -18
-37 -40z"/>
<path d="M6222 6074 c-24 -17 -30 -54 -8 -54 8 0 16 7 20 15 3 8 17 20 31 27
14 6 25 15 25 20 0 14 -44 9 -68 -8z"/>
<path d="M6150 6006 c0 -9 6 -16 14 -16 8 0 17 -6 20 -12 3 -7 4 -2 3 12 -2
28 -37 42 -37 16z"/>
<path d="M5881 5894 c-21 -26 -29 -74 -13 -74 7 0 52 82 52 95 0 13 -21 2 -39
-21z"/>
<path d="M5612 5828 c-7 -7 -12 -16 -12 -20 0 -12 28 -10 36 3 10 17 -10 31
-24 17z"/>
<path d="M5787 5743 c-4 -3 -7 -11 -7 -17 0 -6 5 -5 12 2 6 6 9 14 7 17 -3 3
-9 2 -12 -2z"/>
<path d="M5835 5480 c10 -11 23 -20 28 -20 6 0 2 9 -8 20 -10 11 -23 20 -28
20 -6 0 -2 -9 8 -20z"/>
<path d="M6150 5465 c0 -16 27 -32 37 -21 7 7 -16 36 -28 36 -5 0 -9 -7 -9
-15z"/>
<path d="M5660 5430 c0 -14 49 -44 58 -35 4 3 -4 15 -17 26 -26 21 -41 24 -41
9z"/>
<path d="M5592 5340 c0 -14 2 -19 5 -12 2 6 2 18 0 25 -3 6 -5 1 -5 -13z"/>
<path d="M5647 5354 c-9 -10 2 -24 19 -24 8 0 14 7 14 15 0 15 -21 21 -33 9z"/>
<path d="M5750 5257 c0 -17 20 -37 37 -37 10 0 11 5 4 19 -13 23 -41 35 -41
18z"/>
<path d="M5644 5180 c3 -18 8 -36 11 -38 2 -2 29 -1 60 3 59 7 76 30 30 40
-14 3 -36 7 -49 10 -13 3 -32 8 -42 12 -15 5 -16 2 -10 -27z"/>
<path d="M5600 5127 c76 -74 103 -86 56 -24 -14 19 -26 44 -26 55 0 15 -8 23
-25 27 -84 17 -84 20 -5 -58z"/>
<path d="M5880 5180 c0 -5 7 -10 16 -10 8 0 12 5 9 10 -3 6 -10 10 -16 10 -5
0 -9 -4 -9 -10z"/>
<path d="M5810 5106 c0 -12 -5 -27 -11 -33 -7 -7 -4 -18 13 -37 19 -22 28 -26
55 -20 l33 6 -21 27 -21 26 37 5 36 5 -60 21 -61 21 0 -21z"/>
<path d="M5533 5063 c-18 -6 -16 -34 3 -61 23 -34 35 -27 32 20 -3 41 -11 51
-35 41z"/>
<path d="M2185 5050 c-3 -5 -2 -10 4 -10 5 0 13 5 16 10 3 6 2 10 -4 10 -5 0
-13 -4 -16 -10z"/>
<path d="M6184 5043 c-3 -10 -10 -26 -15 -35 -13 -24 -11 -28 6 -22 9 4 38 -3
66 -15 28 -12 60 -21 72 -19 19 3 16 7 -20 28 -24 14 -43 30 -43 37 0 16 -29
43 -46 43 -8 0 -17 -8 -20 -17z"/>
<path d="M5755 5010 c-3 -5 -13 -6 -21 -3 -26 10 -2 -25 55 -81 58 -57 76 -57
31 -1 -33 42 -40 68 -12 42 36 -33 46 -17 12 18 -34 35 -54 43 -65 25z"/>
<path d="M5897 4973 c-12 -11 -8 -23 8 -23 8 0 15 7 15 15 0 16 -12 20 -23 8z"/>
<path d="M5550 4952 c0 -5 11 -17 25 -26 20 -13 29 -14 50 -4 35 16 31 28 -9
28 -19 0 -41 3 -50 6 -9 3 -16 2 -16 -4z"/>
<path d="M5970 4948 c0 -7 4 -19 9 -27 7 -11 12 -11 32 0 l24 14 -22 3 c-13 2
-23 8 -23 13 0 5 -4 9 -10 9 -5 0 -10 -6 -10 -12z"/>
<path d="M5879 4903 c26 -34 77 -67 91 -58 15 9 12 25 -5 25 -9 0 -21 11 -27
25 -6 14 -16 25 -22 25 -6 0 -22 3 -35 7 l-24 6 22 -30z"/>
<path d="M6335 4901 c-6 -11 32 -41 52 -41 23 0 14 26 -12 38 -31 14 -32 14
-40 3z"/>
<path d="M6065 4890 c3 -5 15 -10 26 -10 11 0 17 5 14 10 -3 6 -15 10 -26 10
-11 0 -17 -4 -14 -10z"/>
<path d="M5735 4875 c17 -7 32 -11 35 -9 7 8 -24 24 -45 23 -15 0 -13 -4 10
-14z"/>
<path d="M6064 4846 c-3 -9 -17 -16 -29 -16 -13 0 -36 -5 -50 -10 l-27 -10 31
-29 c17 -16 31 -35 31 -43 0 -8 17 -22 37 -32 27 -13 33 -20 23 -26 -10 -6 -2
-22 35 -65 45 -52 51 -56 79 -50 17 4 49 10 71 14 62 9 53 35 -15 42 -72 8
-100 17 -100 34 0 15 22 25 56 25 13 0 24 4 24 9 0 16 -62 31 -98 25 -29 -6
-38 -2 -68 27 -38 37 -42 49 -16 49 23 0 42 19 42 41 0 24 -19 34 -26 15z"/>
<path d="M6342 4834 c4 -21 22 -23 26 -1 2 10 -3 17 -13 17 -10 0 -15 -6 -13
-16z"/>
<path d="M5730 4829 c0 -25 24 -106 38 -124 13 -18 14 -16 9 24 l-5 43 33 -32
33 -32 4 28 c2 24 7 28 26 26 12 -2 22 0 22 3 0 10 -67 35 -95 35 -14 0 -30 9
-37 20 -14 22 -28 26 -28 9z"/>
<path d="M6403 4824 c-4 -11 -2 -19 6 -22 6 -2 25 -15 40 -28 41 -34 101 -58
114 -45 14 14 -15 45 -68 76 -61 35 -84 40 -92 19z"/>
<path d="M6240 4776 c0 -10 9 -16 21 -16 24 0 21 23 -4 28 -10 2 -17 -3 -17
-12z"/>
<path d="M6305 4750 c-4 -6 -3 -16 3 -22 6 -6 12 -6 17 2 4 6 3 16 -3 22 -6 6
-12 6 -17 -2z"/>
<path d="M5894 4705 c10 -8 23 -12 28 -9 14 9 -2 24 -25 24 -21 -1 -21 -1 -3
-15z"/>
<path d="M5837 4662 c-25 -27 -21 -32 26 -32 34 0 48 -6 65 -25 26 -30 42 -32
42 -5 0 15 7 20 25 20 31 0 32 14 4 34 -16 11 -26 12 -39 4 -14 -9 -24 -8 -44
5 -33 22 -59 21 -79 -1z"/>
<path d="M6567 4663 c-11 -10 -8 -53 3 -53 6 0 10 9 10 20 0 11 4 20 9 20 13
0 33 -28 27 -38 -7 -12 52 -55 64 -47 13 8 13 35 1 35 -5 0 -28 16 -51 35 -43
36 -52 40 -63 28z"/>
<path d="M5740 4640 c-12 -8 -10 -14 13 -37 l27 -28 0 27 c0 31 -20 50 -40 38z"/>
<path d="M6020 4582 c-28 -23 -41 -102 -16 -102 9 0 21 -11 26 -25 5 -14 14
-25 19 -25 6 0 43 -28 83 -61 96 -81 113 -91 156 -98 50 -8 58 -41 10 -41 -31
-1 -32 -1 -14 -15 11 -8 34 -15 52 -15 17 0 57 -14 88 -30 54 -29 96 -33 96
-9 0 5 11 14 25 19 22 8 24 13 15 30 -6 10 -33 27 -60 37 -28 10 -53 26 -56
35 -3 10 -10 18 -15 18 -5 0 -30 16 -56 36 -60 46 -159 94 -194 94 -15 0 -32
7 -39 15 -10 13 -9 15 11 16 l24 0 -28 22 c-15 12 -47 28 -70 37 -53 20 -65
53 -15 43 l33 -6 -19 21 c-23 27 -28 27 -56 4z m259 -243 c32 -43 21 -45 -27
-3 -46 39 -60 77 -19 49 13 -8 33 -29 46 -46z"/>
<path d="M6697 4563 c-12 -11 -8 -23 8 -23 8 0 15 7 15 15 0 16 -12 20 -23 8z"/>
<path d="M6236 4531 c-17 -19 -18 -21 -2 -27 22 -9 69 13 64 29 -7 20 -43 19
-62 -2z"/>
<path d="M6484 4535 c-19 -14 -18 -14 3 -15 12 0 27 -8 32 -17 9 -16 10 -14
11 9 0 14 6 29 13 31 6 3 0 6 -14 6 -14 1 -34 -6 -45 -14z"/>
<path d="M6742 4538 c-19 -19 -14 -47 11 -53 49 -12 82 -10 79 5 -3 11 2 10
17 -4 12 -11 24 -16 28 -12 14 14 -15 41 -63 58 -58 21 -57 21 -72 6z"/>
<path d="M5830 4531 c0 -13 26 -32 33 -24 8 7 -11 33 -24 33 -5 0 -9 -4 -9 -9z"/>
<path d="M6337 4507 c-3 -8 -1 -20 4 -28 11 -19 34 3 26 25 -8 20 -23 21 -30
3z"/>
<path d="M6403 4471 c-21 -25 -41 -26 -70 -6 -20 14 -21 13 -28 -13 -5 -22 -1
-32 24 -54 43 -38 63 -35 94 13 31 47 32 52 13 69 -12 9 -18 7 -33 -9z"/>
<path d="M5920 4455 c23 -25 54 -33 64 -17 3 5 -16 16 -42 25 l-46 18 24 -26z"/>
<path d="M6610 4432 c0 -4 9 -13 20 -20 22 -13 27 -3 8 16 -14 14 -28 16 -28
4z"/>
<path d="M6711 4379 l-24 -31 25 -24 24 -25 27 21 c34 27 34 53 2 74 -13 9
-26 16 -27 15 -2 0 -14 -14 -27 -30z m53 -8 c7 -10 -22 -37 -30 -28 -9 8 3 37
15 37 5 0 12 -4 15 -9z"/>
<path d="M6570 4360 c0 -11 48 -25 56 -17 3 2 -9 9 -25 15 -18 7 -31 7 -31 2z"/>
<path d="M6658 4303 c7 -3 16 -2 19 1 4 3 -2 6 -13 5 -11 0 -14 -3 -6 -6z"/>
<path d="M6990 4295 c-10 -12 -10 -18 1 -31 12 -14 14 -14 25 1 13 17 9 45 -6
45 -4 0 -13 -7 -20 -15z"/>
<path d="M7592 4299 c2 -7 10 -15 17 -17 8 -3 12 1 9 9 -2 7 -10 15 -17 17 -8
3 -12 -1 -9 -9z"/>
<path d="M6557 4293 c-13 -12 -7 -23 13 -23 10 0 23 -7 28 -16 6 -11 12 -13
16 -6 4 6 -2 20 -14 32 -21 21 -32 24 -43 13z"/>
<path d="M6852 4228 c2 -13 8 -23 13 -23 6 0 11 10 13 23 2 15 -2 22 -13 22
-11 0 -15 -7 -13 -22z"/>
<path d="M7135 4210 c3 -5 10 -10 16 -10 5 0 9 5 9 10 0 6 -7 10 -16 10 -8 0
-12 -4 -9 -10z"/>
<path d="M6262 4188 c2 -6 15 -18 28 -27 22 -15 23 -15 12 6 -12 22 -46 41
-40 21z"/>
<path d="M6933 4175 c-3 -9 -3 -18 0 -21 9 -9 27 6 27 22 0 19 -19 18 -27 -1z"/>
<path d="M6955 4130 c-8 -13 7 -39 40 -70 22 -21 28 -22 35 -10 15 24 11 56
-8 73 -20 19 -57 22 -67 7z"/>
<path d="M7250 4060 c35 -31 50 -37 50 -21 0 11 -18 24 -55 39 l-30 12 35 -30z"/>
<path d="M7060 4056 c0 -21 24 -36 71 -44 23 -4 44 -13 47 -20 2 -7 -2 -10
-12 -6 -11 4 -16 1 -16 -11 0 -14 6 -16 38 -10 55 10 88 45 42 45 -12 0 -20 7
-20 17 0 9 -3 13 -6 10 -4 -3 -18 3 -32 13 -30 24 -112 28 -112 6z"/>
<path d="M7316 4011 c-9 -14 21 -33 46 -29 22 3 21 5 -9 21 -17 9 -34 13 -37
8z"/>
<path d="M7265 3960 c-3 -5 -19 -10 -36 -10 -16 0 -29 -4 -29 -10 0 -5 6 -10
14 -10 8 0 22 -7 31 -17 13 -13 19 -13 25 -4 5 10 9 10 14 2 12 -18 26 -2 26
30 0 22 -5 29 -19 29 -11 0 -23 -4 -26 -10z"/>
<path d="M6561 3914 c0 -11 3 -14 6 -6 3 7 2 16 -1 19 -3 4 -6 -2 -5 -13z"/>
<path d="M7018 3913 c7 -3 16 -2 19 1 4 3 -2 6 -13 5 -11 0 -14 -3 -6 -6z"/>
<path d="M7066 3894 c-8 -22 4 -40 15 -23 11 18 11 39 0 39 -5 0 -12 -7 -15
-16z"/>
<path d="M7730 3861 c0 -5 9 -19 20 -32 15 -19 19 -21 20 -7 0 9 -7 24 -16 32
-18 18 -24 20 -24 7z"/>
<path d="M7350 3840 c0 -18 40 -50 62 -50 20 0 19 3 -12 30 -37 31 -50 36 -50
20z"/>
<path d="M7526 3831 c-8 -12 13 -27 47 -35 35 -8 35 5 -2 27 -33 20 -38 20
-45 8z"/>
<path d="M7160 3820 c-12 -8 -9 -10 13 -10 15 0 27 5 27 10 0 13 -20 13 -40 0z"/>
<path d="M8250 3805 c13 -14 26 -25 28 -25 3 0 -5 11 -18 25 -13 14 -26 25
-28 25 -3 0 5 -11 18 -25z"/>
<path d="M7621 3754 c7 -8 25 -22 41 -30 31 -16 38 -53 13 -74 -24 -20 -6 -33
21 -16 32 21 57 20 79 -4 10 -11 30 -20 44 -20 l26 0 -25 21 c-100 80 -184
139 -197 139 -13 0 -13 -3 -2 -16z"/>
<path d="M7764 3749 c-17 -6 -17 -8 8 -19 27 -13 58 -8 58 9 0 12 -42 19 -66
10z"/>
<path d="M6875 3737 c-4 -10 -5 -21 -1 -24 10 -10 18 4 13 24 -4 17 -4 17 -12
0z"/>
<path d="M7906 3732 c-3 -6 -1 -14 5 -17 15 -10 25 3 12 16 -7 7 -13 7 -17 1z"/>
<path d="M7582 3721 c4 -13 18 -16 19 -4 0 4 -5 9 -11 12 -7 2 -11 -2 -8 -8z"/>
<path d="M7540 3650 c0 -5 12 -10 26 -10 14 0 23 4 19 10 -3 6 -15 10 -26 10
-10 0 -19 -4 -19 -10z"/>
<path d="M7750 3564 c0 -17 22 -14 28 4 2 7 -3 12 -12 12 -9 0 -16 -7 -16 -16z"/>
<path d="M7980 3570 c-13 -9 -12 -12 4 -25 11 -8 34 -18 52 -21 18 -3 39 -12
45 -20 6 -8 36 -21 65 -30 30 -8 54 -21 54 -29 0 -14 -53 -42 -99 -51 -29 -6
-31 -9 -31 -49 0 -40 -3 -45 -37 -62 -52 -25 -56 -60 -10 -91 18 -12 46 -36
62 -52 l29 -31 -32 17 c-45 22 -53 10 -11 -16 49 -30 75 -24 71 18 -2 21 1 32
9 32 7 0 -2 15 -19 33 -39 40 -31 54 15 26 18 -12 40 -19 47 -16 8 3 27 -11
45 -33 32 -40 39 -60 21 -60 -5 0 -10 -4 -10 -10 0 -5 12 -10 28 -10 15 0 42
-9 61 -21 18 -11 36 -18 38 -15 9 8 -26 56 -40 56 -27 0 -62 50 -62 88 0 34
-2 37 -32 40 -18 2 -33 7 -33 12 0 5 6 7 14 4 8 -3 17 -1 21 5 3 6 22 11 41
11 59 0 34 24 -35 35 -40 6 -66 16 -72 27 -10 18 -2 48 13 48 6 0 8 7 4 15 -7
20 7 19 55 -6 23 -11 47 -18 55 -15 8 3 14 2 14 -3 0 -4 21 -22 48 -40 26 -17
62 -42 81 -56 45 -33 56 -21 12 14 -19 14 -78 63 -130 109 -153 133 -236 182
-311 182 -14 0 -32 -5 -40 -10z m180 -202 c0 -16 -3 -19 -11 -11 -6 6 -8 16
-5 22 11 17 16 13 16 -11z"/>
<path d="M7812 3514 c9 -9 24 -14 32 -11 27 11 17 27 -16 27 -30 0 -31 -1 -16
-16z"/>
<path d="M7956 3484 c-3 -9 -6 -23 -6 -31 0 -13 3 -13 15 -3 10 9 15 9 15 1 0
-17 20 -13 27 5 4 11 -1 22 -12 30 -24 18 -32 18 -39 -2z"/>
<path d="M4132 3443 c-27 -34 -31 -36 -47 -23 -16 14 -17 13 -10 -10 4 -14 21
-38 37 -55 23 -23 27 -24 17 -7 -12 20 -11 28 14 73 35 62 30 73 -11 22z"/>
<path d="M7440 3452 c0 -15 24 -32 45 -32 19 1 19 1 -4 20 -24 21 -41 26 -41
12z"/>
<path d="M7264 3424 c3 -9 6 -30 7 -47 l0 -32 16 23 c8 12 19 22 24 22 5 0 31
-20 59 -45 28 -25 58 -45 68 -45 13 0 13 3 -5 15 -12 8 -23 25 -25 38 -2 14
-22 33 -58 54 -59 36 -96 43 -86 17z"/>
<path d="M7494 3379 c-9 -14 14 -35 49 -43 27 -6 37 6 16 19 -6 4 -8 13 -5 21
7 17 -49 20 -60 3z"/>
<path d="M7656 3374 c-3 -8 -1 -24 4 -34 24 -45 3 -65 -32 -33 -17 15 -20 15
-28 3 -11 -17 13 -40 39 -40 26 -1 101 -38 101 -51 0 -6 -7 -8 -16 -5 -23 9
-44 -12 -44 -44 0 -34 15 -47 60 -52 29 -3 36 1 43 23 13 35 -17 96 -60 121
-26 16 -33 26 -33 51 0 63 -20 98 -34 61z"/>
<path d="M4190 3274 c0 -19 160 -184 178 -184 21 0 -5 39 -77 113 -75 78 -101
97 -101 71z"/>
<path d="M7352 3244 c26 -44 57 -60 86 -45 11 6 28 8 36 5 23 -9 20 13 -3 26
-15 7 -23 6 -35 -5 -22 -23 -35 -18 -57 20 -12 19 -27 35 -35 35 -10 0 -8 -9
8 -36z"/>
<path d="M7840 3259 c-14 -6 -33 -8 -42 -6 -16 5 -16 3 -3 -16 8 -12 15 -29
15 -39 0 -14 8 -18 43 -18 23 0 53 -6 66 -13 30 -15 40 -40 15 -35 -11 2 -20
-4 -22 -16 -3 -11 0 -16 7 -11 6 3 36 -18 69 -50 31 -32 48 -54 37 -50 -37 13
-140 32 -148 28 -14 -8 4 -23 28 -23 15 0 33 -11 46 -30 12 -16 27 -26 32 -23
6 4 38 9 71 12 53 5 61 9 64 28 4 26 -51 90 -126 145 -37 27 -55 48 -59 69 -6
29 -17 37 -28 19 -8 -13 -52 -13 -60 1 -4 6 1 17 11 24 22 17 18 17 -16 4z"/>
<path d="M8320 3240 c-12 -8 -9 -10 11 -10 14 0 43 -11 63 -25 44 -30 46 -30
46 -5 0 36 -83 64 -120 40z"/>
<path d="M7510 3236 c0 -2 7 -9 15 -16 12 -10 15 -10 15 4 0 9 -7 16 -15 16
-8 0 -15 -2 -15 -4z"/>
<path d="M8573 3175 c15 -14 37 -25 48 -25 27 0 24 5 -15 29 -46 29 -68 26
-33 -4z"/>
<path d="M8322 3168 c3 -7 17 -14 32 -16 20 -3 27 0 24 10 -3 7 -17 14 -32 16
-20 3 -27 0 -24 -10z"/>
<path d="M8790 3171 c0 -11 42 -43 48 -37 2 3 -1 14 -8 25 -11 21 -40 29 -40
12z"/>
<path d="M7830 3150 c-12 -8 -11 -10 8 -10 21 0 23 -3 17 -29 -5 -25 -2 -33
19 -46 27 -18 46 -13 46 10 0 8 -6 12 -14 9 -11 -4 -16 4 -18 33 -2 29 -8 39
-23 41 -11 1 -27 -2 -35 -8z"/>
<path d="M8529 3110 c30 -28 57 -48 59 -45 9 9 -29 56 -61 75 -55 34 -54 21 2
-30z"/>
<path d="M4047 3144 c-4 -4 -7 -14 -7 -23 0 -11 3 -12 11 -4 6 6 10 16 7 23
-2 6 -7 8 -11 4z"/>
<path d="M8176 3098 c-18 -43 -21 -68 -6 -68 6 0 10 4 10 9 0 5 7 16 14 24 11
10 13 23 7 43 l-9 29 -16 -37z"/>
<path d="M8642 3109 c2 -7 10 -15 17 -17 8 -3 12 1 9 9 -2 7 -10 15 -17 17 -8
3 -12 -1 -9 -9z"/>
<path d="M4840 3077 c0 -18 36 -51 44 -39 6 10 -21 52 -35 52 -5 0 -9 -6 -9
-13z"/>
<path d="M4440 3001 c0 -11 146 -148 173 -163 36 -19 1 26 -77 100 -72 68 -96
84 -96 63z"/>
<path d="M4923 2974 c-25 -11 -12 -25 20 -22 17 2 32 8 32 13 0 11 -33 17 -52
9z"/>
<path d="M4774 2925 c-4 -8 -3 -27 0 -41 5 -20 11 -24 24 -18 34 14 73 16 87
4 32 -26 27 2 -5 35 -36 37 -54 43 -64 23 -5 -10 -7 -10 -12 0 -8 17 -23 15
-30 -3z"/>
<path d="M4982 2889 c2 -6 8 -10 13 -10 5 0 11 4 13 10 2 6 -4 11 -13 11 -9 0
-15 -5 -13 -11z"/>
<path d="M5045 2880 c20 -22 31 -20 22 5 -4 8 -14 15 -23 15 -16 0 -16 -2 1
-20z"/>
<path d="M4960 2795 c0 -17 5 -25 13 -22 6 2 12 12 12 22 0 10 -6 20 -12 23
-8 2 -13 -6 -13 -23z"/>
<path d="M8870 2809 c0 -6 23 -36 51 -67 28 -32 62 -77 77 -102 14 -25 36 -57
48 -72 13 -16 57 -95 98 -177 75 -148 108 -198 82 -124 -71 202 -356 635 -356
542z"/>
<path d="M3736 2786 c-20 -31 -20 -46 -2 -46 7 0 16 14 20 32 8 40 3 45 -18
14z"/>
<path d="M9070 2801 c0 -5 7 -14 15 -21 16 -14 18 -10 9 14 -6 17 -24 22 -24
7z"/>
<path d="M4910 2784 c0 -9 5 -14 12 -12 18 6 21 28 4 28 -9 0 -16 -7 -16 -16z"/>
<path d="M5150 2781 c0 -11 40 -41 54 -41 5 0 -1 11 -14 25 -24 26 -40 32 -40
16z"/>
<path d="M5044 2725 c-4 -8 -18 -15 -33 -15 l-26 -1 27 -15 c19 -10 37 -12 58
-7 29 8 30 9 15 31 -19 26 -33 28 -41 7z"/>
<path d="M5250 2706 c0 -18 27 -29 36 -14 4 5 0 14 -7 19 -20 13 -29 11 -29
-5z"/>
<path d="M5150 2645 c0 -9 12 -26 27 -38 15 -12 51 -46 80 -75 62 -63 72 -45
13 23 -22 25 -40 50 -40 56 0 5 -6 9 -14 9 -7 0 -25 9 -40 21 -22 18 -26 18
-26 4z"/>
<path d="M5420 2568 c0 -18 18 -34 28 -24 3 4 -2 14 -11 23 -16 16 -17 16 -17
1z"/>
<path d="M3561 2487 c-6 -8 -8 -17 -4 -20 7 -8 33 11 33 24 0 13 -16 11 -29
-4z"/>
<path d="M5770 2491 c0 -6 5 -13 10 -16 6 -3 10 1 10 9 0 9 -4 16 -10 16 -5 0
-10 -4 -10 -9z"/>
<path d="M5368 2444 c24 -17 39 -14 27 5 -3 6 -16 11 -28 11 l-21 0 22 -16z"/>
<path d="M5580 2442 c0 -25 73 -92 86 -79 7 6 -44 65 -67 78 -10 5 -19 6 -19
1z"/>
<path d="M5490 2411 c0 -12 29 -35 36 -28 11 10 -5 37 -21 37 -8 0 -15 -4 -15
-9z"/>
<path d="M5932 2369 c2 -7 10 -15 17 -17 8 -3 12 1 9 9 -2 7 -10 15 -17 17 -8
3 -12 -1 -9 -9z"/>
<path d="M5474 2348 c9 -13 24 -35 34 -50 12 -20 25 -28 45 -28 15 0 27 4 27
9 0 15 -89 91 -106 91 -15 0 -15 -2 0 -22z"/>
<path d="M5570 2348 c0 -18 18 -34 28 -24 3 4 -2 14 -11 23 -16 16 -17 16 -17
1z"/>
<path d="M5270 2278 c1 -12 56 -55 142 -111 58 -39 25 5 -48 63 -76 61 -94 70
-94 48z"/>
<path d="M5765 2280 c-7 -12 2 -30 16 -30 12 0 12 27 0 35 -5 3 -12 1 -16 -5z"/>
<path d="M5650 2262 c0 -6 -9 -12 -21 -14 -18 -3 -19 -5 -5 -23 12 -16 18 -18
33 -9 21 13 24 45 6 52 -7 2 -13 -1 -13 -6z"/>
<path d="M3404 2215 c-9 -14 -14 -28 -10 -32 8 -9 46 27 46 44 0 21 -18 15
-36 -12z"/>
<path d="M5860 2181 c0 -5 -18 -17 -40 -27 -22 -10 -40 -24 -40 -32 0 -16 116
-139 124 -132 2 3 -13 28 -34 55 -44 57 -55 92 -27 87 9 -2 17 2 17 8 0 17 29
11 67 -15 52 -35 55 -20 6 26 -40 37 -73 50 -73 30z"/>
<path d="M5552 2159 c2 -7 10 -15 17 -17 8 -3 12 1 9 9 -2 7 -10 15 -17 17 -8
3 -12 -1 -9 -9z"/>
<path d="M6009 2073 c5 -10 24 -31 41 -48 47 -45 55 -63 35 -85 -20 -23 -15
-44 16 -60 20 -11 21 -10 15 11 -15 48 -12 54 17 51 28 -3 28 -3 13 26 -8 16
-29 35 -46 42 -18 7 -30 20 -30 31 0 10 -13 25 -30 34 -37 19 -43 19 -31 -2z"/>
<path d="M9263 2069 c4 -13 7 -27 7 -31 0 -5 4 -8 9 -8 11 0 1 49 -12 57 -6 4
-8 -2 -4 -18z"/>
<path d="M5630 2046 c0 -22 17 -28 24 -10 9 22 8 24 -9 24 -8 0 -15 -6 -15
-14z"/>
<path d="M9213 2016 c4 -22 11 -44 18 -50 9 -8 10 -1 4 29 -9 54 -30 74 -22
21z"/>
<path d="M9295 1980 c-8 -13 4 -32 16 -25 12 8 12 35 0 35 -6 0 -13 -4 -16
-10z"/>
<path d="M9241 1898 c0 -13 4 -32 9 -43 7 -16 9 -13 9 17 1 20 -3 40 -9 43 -6
3 -10 -4 -9 -17z"/>
<path d="M9111 1874 c0 -11 3 -14 6 -6 3 7 2 16 -1 19 -3 4 -6 -2 -5 -13z"/>
<path d="M6060 1863 c1 -16 27 -40 104 -96 43 -31 86 -57 95 -57 18 0 41 18
41 32 0 15 -28 8 -35 -9 -12 -31 -55 30 -55 78 0 38 -1 39 -32 38 -31 0 -32
-1 -10 -11 12 -6 22 -15 22 -20 0 -18 -41 -6 -73 22 -33 29 -57 38 -57 23z"/>
<path d="M9332 1750 c0 -14 2 -19 5 -12 2 6 2 18 0 25 -3 6 -5 1 -5 -13z"/>
<path d="M6304 1685 c-8 -20 22 -65 42 -65 11 0 14 5 9 18 -4 9 -9 25 -12 34
-7 23 -32 31 -39 13z"/>
<path d="M6380 1404 c72 -73 118 -109 127 -100 6 5 -31 43 -131 134 -65 59
-62 33 4 -34z"/>
<path d="M8886 1442 c-11 -18 3 -87 15 -75 6 6 6 25 1 49 -5 26 -11 34 -16 26z"/>
<path d="M6310 1412 c0 -13 49 -56 56 -49 4 4 1 14 -6 22 -17 21 -50 38 -50
27z"/>
<path d="M402 1363 c2 -10 10 -18 18 -18 8 0 16 8 18 18 2 12 -3 17 -18 17
-15 0 -20 -5 -18 -17z"/>
<path d="M8590 1357 c0 -7 7 -22 15 -33 12 -16 14 -17 15 -2 0 23 -11 48 -21
48 -5 0 -9 -6 -9 -13z"/>
<path d="M6403 1303 c9 -9 20 -13 24 -9 4 4 1 11 -7 16 -25 16 -35 11 -17 -7z"/>
<path d="M7690 1082 c6 -13 14 -21 18 -18 3 4 -2 14 -12 24 -18 16 -18 16 -6
-6z"/>
<path d="M8190 1066 c0 -19 5 -38 10 -41 6 -4 10 10 10 34 0 23 -4 41 -10 41
-5 0 -10 -15 -10 -34z"/>
<path d="M7584 985 c3 -13 11 -37 18 -52 11 -26 12 -27 15 -6 4 21 -21 83 -33
83 -4 0 -3 -11 0 -25z"/>
<path d="M7950 1004 c0 -5 7 -19 15 -30 8 -10 15 -14 15 -8 0 5 -7 19 -15 30
-8 10 -15 14 -15 8z"/>
<path d="M8562 920 c0 -14 2 -19 5 -12 2 6 2 18 0 25 -3 6 -5 1 -5 -13z"/>
<path d="M7996 855 c2 -22 10 -65 17 -95 11 -51 12 -53 15 -20 1 19 -6 62 -17
95 -18 52 -20 55 -15 20z"/>
<path d="M2876 805 c-3 -8 -1 -15 3 -15 5 0 11 7 15 15 3 8 1 15 -3 15 -5 0
-11 -7 -15 -15z"/>
<path d="M8042 630 c0 -14 2 -19 5 -12 2 6 2 18 0 25 -3 6 -5 1 -5 -13z"/>
<path d="M7140 516 c0 -9 5 -16 10 -16 6 0 10 4 10 9 0 6 -4 13 -10 16 -5 3
-10 -1 -10 -9z"/>
</g>
</svg>
